<svg width="536" height="378" viewBox="0 0 536 378" fill="none" xmlns="http://www.w3.org/2000/svg">
<rect width="536" height="360" rx="10" fill="#C4C4C4"/>
<path d="M526 0H10C4.47715 0 0 4.47718 0 10V349.135C0 354.658 4.47716 359.135 10 359.135H526C531.523 359.135 536 354.658 536 349.135V10C536 4.47715 531.523 0 526 0Z" fill="url(#paint0_linear)"/>
<path opacity="0.5" d="M213.761 56.4381C222.373 56.4381 229.355 49.4735 229.355 40.8822C229.355 32.2909 222.373 25.3263 213.761 25.3263C205.149 25.3263 198.168 32.2909 198.168 40.8822C198.168 49.4735 205.149 56.4381 213.761 56.4381Z" fill="#FFF200"/>
<path opacity="0.4" d="M95.1633 32.6607C95.1633 37.3394 91.798 41.236 87.3507 42.0687C85.9913 45.7079 82.4767 48.295 78.3587 48.295C74.1627 48.295 70.5967 45.6095 69.2967 41.8652C65.2807 40.7199 62.342 37.0342 62.342 32.6607C62.342 27.3721 66.64 23.0844 71.9413 23.0844C74.6053 23.0844 77.0147 24.1671 78.7547 25.9183C80.4907 24.1671 82.9 23.0844 85.564 23.0844C90.8653 23.0844 95.1633 27.3721 95.1633 32.6607Z" fill="white"/>
<path opacity="0.4" d="M166.035 50.4758C166.121 44.7782 170.291 40.0934 175.723 39.161C177.445 34.7543 181.773 31.6671 186.789 31.7429C191.899 31.82 196.192 35.156 197.707 39.7396C202.577 41.2081 206.088 45.7512 206.007 51.0777C205.91 57.5188 200.597 62.6618 194.14 62.5647C190.895 62.5154 187.98 61.1527 185.894 58.9886C183.747 61.0895 180.793 62.3638 177.548 62.3146C171.093 62.2175 165.937 56.9169 166.035 50.4758Z" fill="white"/>
<path opacity="0.4" d="M191.67 59.2008C191.756 53.5032 195.927 48.8184 201.358 47.886C203.081 43.4793 207.409 40.3921 212.425 40.4679C217.535 40.545 221.828 43.881 223.343 48.4646C228.213 49.9331 231.723 54.4762 231.643 59.8027C231.546 66.2438 226.232 71.3868 219.776 71.2897C216.531 71.2405 213.616 69.8777 211.53 67.7136C209.383 69.8146 206.429 71.0888 203.184 71.0396C196.728 70.9425 191.572 65.6426 191.67 59.2008Z" fill="white"/>
<path opacity="0.4" d="M304.819 26.8261C304.883 22.6488 307.941 19.215 311.922 18.5307C313.185 15.2998 316.357 13.0366 320.035 13.0918C323.781 13.1483 326.929 15.5944 328.039 18.9543C331.609 20.0311 334.184 23.3617 334.125 27.267C334.053 31.989 330.158 35.7599 325.425 35.6887C323.046 35.6528 320.909 34.6532 319.379 33.067C317.806 34.6073 315.64 35.5417 313.261 35.5058C308.528 35.4347 304.748 31.5487 304.819 26.8261Z" fill="white"/>
<path opacity="0.4" d="M21.54 66.1081C21.5773 63.6653 23.3653 61.6575 25.6933 61.2578C26.432 59.369 28.2867 58.0455 30.4367 58.0781C32.6273 58.1107 34.468 59.5413 35.1173 61.5059C37.2047 62.1357 38.71 64.083 38.6753 66.3668C38.6333 69.1275 36.356 71.3322 33.5887 71.291C32.198 71.2697 30.948 70.6858 30.054 69.758C29.134 70.6585 27.8673 71.2052 26.476 71.1839C23.7087 71.142 21.4987 68.8695 21.54 66.1081Z" fill="white"/>
<path opacity="0.4" d="M356.319 63.9094C356.355 61.4666 358.143 59.4588 360.471 59.0591C361.21 57.1703 363.065 55.8468 365.215 55.8794C367.405 55.912 369.247 57.3426 369.895 59.3072C371.983 59.937 373.489 61.8843 373.454 64.1681C373.412 66.9288 371.135 69.1335 368.367 69.0923C366.976 69.071 365.726 68.4871 364.831 67.5593C363.911 68.4598 362.645 69.0065 361.254 68.9852C358.486 68.9433 356.277 66.6708 356.319 63.9094Z" fill="white"/>
<path d="M164.044 32.6973C164.49 32.6913 164.937 32.7285 165.379 32.7964C165.823 32.8576 166.265 32.9467 166.701 33.0624C166.919 33.1176 167.133 33.1914 167.345 33.2679C167.561 33.3384 167.773 33.4189 167.979 33.5153C168.186 33.6084 168.399 33.6889 168.596 33.8059C168.794 33.9183 169.002 34.0168 169.193 34.1425L169.762 34.5335C169.943 34.6758 170.109 34.8388 170.282 34.9918C170.463 35.1381 170.605 35.323 170.757 35.4985C170.906 35.6774 171.069 35.8457 171.183 36.0505L171.549 36.6471L171.823 37.2896C171.926 37.501 171.99 37.7238 172.041 37.9506L172.208 38.627L171.554 38.6277L171.714 37.9879L171.795 37.6686L171.921 37.3634C172.008 37.1612 172.083 36.9537 172.182 36.7575L172.525 36.1935C172.629 35.9987 172.79 35.8444 172.922 35.6701C173.059 35.4985 173.198 35.3296 173.362 35.1853C173.522 35.0383 173.669 34.8754 173.843 34.745L174.364 34.3573C174.543 34.2362 174.731 34.1305 174.913 34.0168C175.093 33.8984 175.29 33.8133 175.48 33.7142C175.861 33.52 176.256 33.3564 176.659 33.2207C177.061 33.085 177.471 32.9726 177.884 32.8848C178.295 32.7904 178.714 32.7252 179.133 32.6966C178.318 32.8981 177.526 33.1655 176.775 33.5153C176.399 33.6856 176.026 33.8625 175.676 34.0773C175.501 34.185 175.319 34.2781 175.157 34.4032C174.991 34.5229 174.821 34.6346 174.661 34.7603C174.349 35.0203 174.047 35.287 173.777 35.585C173.63 35.7227 173.509 35.8816 173.391 36.0426C173.277 36.2062 173.134 36.3491 173.049 36.53L172.753 37.0461C172.667 37.2237 172.603 37.4119 172.526 37.5942L172.415 37.8695L172.347 38.1595L172.208 38.7374L171.887 40.0815L171.554 38.7387L171.402 38.1249C171.359 37.9174 171.305 37.7139 171.213 37.5243L170.974 36.9411L170.651 36.4004C170.557 36.2102 170.413 36.0545 170.284 35.8876C170.152 35.7227 170.03 35.5491 169.868 35.4101C169.713 35.2651 169.568 35.1088 169.406 34.9711L168.903 34.5728C168.732 34.4431 168.543 34.3373 168.363 34.2176C168.186 34.0932 167.988 34.0035 167.797 33.9004C167.607 33.7946 167.409 33.7035 167.207 33.6211C167.008 33.5333 166.807 33.4468 166.599 33.379C165.781 33.0611 164.922 32.8403 164.044 32.6973Z" fill="black"/>
<path d="M337.973 13.0911C338.418 13.0852 338.866 13.1224 339.308 13.1902C339.752 13.2514 340.193 13.3405 340.629 13.4563C340.848 13.5115 341.061 13.5853 341.275 13.6618C341.489 13.7323 341.702 13.8127 341.907 13.9092C342.115 14.0023 342.328 14.0828 342.525 14.1998C342.723 14.3122 342.931 14.4106 343.122 14.5363L343.691 14.9274C343.871 15.0697 344.037 15.2327 344.211 15.3856C344.391 15.5319 344.533 15.7168 344.686 15.8924C344.835 16.0713 344.999 16.2396 345.112 16.4444L345.478 17.041L345.753 17.6834C345.855 17.8949 345.919 18.1177 345.969 18.3445L346.137 19.0209L345.483 19.0215L345.643 18.3817L345.723 18.0625L345.849 17.7572C345.936 17.5551 346.011 17.3476 346.111 17.1514L346.454 16.5874C346.558 16.3925 346.719 16.2382 346.851 16.064C346.987 15.8924 347.127 15.7235 347.291 15.5792C347.451 15.4322 347.598 15.2692 347.773 15.1389L348.293 14.7512C348.472 14.6301 348.659 14.5244 348.841 14.4106C349.021 14.2923 349.219 14.2071 349.409 14.108C349.789 13.9138 350.185 13.7502 350.588 13.6146C350.991 13.4789 351.4 13.3665 351.813 13.2787C352.225 13.1843 352.643 13.1191 353.063 13.0905C352.247 13.292 351.455 13.5594 350.705 13.9092C350.329 14.0794 349.955 14.2563 349.605 14.4712C349.431 14.5789 349.249 14.672 349.086 14.797C348.921 14.9168 348.75 15.0285 348.591 15.1542C348.279 15.4142 347.977 15.6809 347.707 15.9789C347.56 16.1165 347.439 16.2755 347.321 16.4364C347.207 16.6 347.064 16.743 346.978 16.9239L346.683 17.44C346.597 17.6176 346.533 17.8058 346.456 17.988L346.345 18.2634L346.277 18.5533L346.138 19.1313L345.817 20.4754L345.485 19.1326L345.332 18.5187C345.289 18.3112 345.235 18.1077 345.143 17.9182L344.904 17.3349L344.581 16.7942C344.487 16.604 344.343 16.4484 344.214 16.2815C344.082 16.1165 343.96 15.9429 343.798 15.804C343.644 15.659 343.498 15.5027 343.336 15.365L342.833 14.9666C342.662 14.8369 342.473 14.7312 342.293 14.6115C342.116 14.4871 341.918 14.3973 341.727 14.2943C341.537 14.1885 341.339 14.0974 341.137 14.0149C340.937 13.9271 340.737 13.8407 340.529 13.7728C339.709 13.4549 338.85 13.2341 337.973 13.0911Z" fill="black"/>
<path d="M416.721 55.0847C417.166 55.0787 417.614 55.116 418.056 55.1838C418.5 55.245 418.941 55.3341 419.377 55.4498C419.596 55.505 419.809 55.5788 420.023 55.6553C420.237 55.7258 420.45 55.8063 420.655 55.9027C420.863 55.9958 421.076 56.0763 421.273 56.1934C421.471 56.3058 421.679 56.4042 421.87 56.5299L422.439 56.9209C422.619 57.0633 422.785 57.2262 422.959 57.3792C423.139 57.5255 423.281 57.7104 423.434 57.886C423.583 58.0649 423.747 58.2331 423.86 58.438L424.226 59.0345L424.501 59.677C424.603 59.8885 424.667 60.1113 424.717 60.338L424.885 61.0144L424.231 61.0151L424.391 60.3753L424.471 60.0561L424.597 59.7508C424.684 59.5486 424.759 59.3411 424.859 59.1449L425.202 58.5809C425.306 58.3861 425.467 58.2318 425.599 58.0575C425.735 57.886 425.875 57.717 426.039 57.5727C426.199 57.4257 426.346 57.2628 426.521 57.1324L427.041 56.7447C427.22 56.6237 427.407 56.5179 427.589 56.4042C427.769 56.2858 427.967 56.2007 428.157 56.1016C428.537 55.9074 428.933 55.7438 429.336 55.6081C429.739 55.4724 430.148 55.36 430.561 55.2722C430.973 55.1778 431.391 55.1126 431.811 55.084C430.995 55.2855 430.203 55.5529 429.453 55.9027C429.077 56.073 428.703 56.2499 428.353 56.4647C428.179 56.5724 427.997 56.6656 427.834 56.7906C427.669 56.9103 427.498 57.022 427.339 57.1477C427.027 57.4078 426.725 57.6745 426.455 57.9724C426.308 58.1101 426.187 58.269 426.069 58.43C425.955 58.5936 425.812 58.7366 425.726 58.9175L425.431 59.4336C425.345 59.6111 425.281 59.7993 425.204 59.9816L425.093 60.2569L425.025 60.5469L424.886 61.1248L424.565 62.4689L424.233 61.1262L424.08 60.5123C424.037 60.3048 423.983 60.1013 423.891 59.9117L423.652 59.3285L423.329 58.7878C423.235 58.5976 423.091 58.4419 422.962 58.275C422.83 58.1101 422.708 57.9365 422.546 57.7975C422.392 57.6525 422.246 57.4962 422.084 57.3586L421.581 56.9602C421.41 56.8305 421.221 56.7247 421.041 56.605C420.864 56.4807 420.666 56.3909 420.475 56.2878C420.285 56.1821 420.087 56.0909 419.885 56.0085C419.685 55.9207 419.485 55.8342 419.277 55.7664C418.457 55.4485 417.598 55.2277 416.721 55.0847Z" fill="black"/>
<path d="M104 67.1749C104.346 67.1703 104.692 67.1989 105.035 67.2521C105.379 67.2993 105.721 67.3685 106.059 67.4582C106.394 67.554 106.729 67.6637 107.049 67.8087C107.375 67.9404 107.685 68.1147 107.99 68.2942L108.431 68.5975C108.571 68.7079 108.699 68.8343 108.833 68.9526C108.973 69.0664 109.083 69.2094 109.201 69.3457C109.317 69.484 109.443 69.6144 109.531 69.7733L109.815 70.2356L110.028 70.7337C110.185 71.0616 110.229 71.424 110.326 71.7699L109.819 71.7705L109.943 71.2744C109.977 71.1074 110.03 70.9458 110.103 70.7902C110.171 70.6339 110.229 70.4723 110.306 70.3207L110.571 69.8837C110.652 69.7328 110.777 69.613 110.879 69.4787C110.985 69.3457 111.092 69.2153 111.22 69.1036C111.453 68.8575 111.725 68.6587 111.997 68.4625C112.278 68.2829 112.561 68.1053 112.861 67.9644C113.156 67.814 113.463 67.687 113.774 67.5819C114.086 67.4769 114.403 67.3904 114.723 67.3219C115.042 67.2487 115.366 67.1975 115.691 67.1762C115.06 67.3319 114.446 67.5394 113.865 67.8107C113.573 67.9424 113.284 68.0801 113.013 68.2457C112.735 68.4 112.479 68.5882 112.227 68.7751C111.985 68.9766 111.751 69.1834 111.541 69.4135C111.427 69.5199 111.333 69.6436 111.243 69.768C111.155 69.8944 111.043 70.0054 110.977 70.1458L110.749 70.5455C110.682 70.6831 110.633 70.8295 110.573 70.9704C110.507 71.1094 110.462 71.2558 110.434 71.4081L110.327 71.8556L110.107 72.7734L109.819 71.857C109.722 71.5457 109.697 71.2099 109.555 70.9152L109.37 70.463L109.119 70.0447C109.047 69.8977 108.935 69.7767 108.835 69.6476C108.733 69.5199 108.639 69.3849 108.513 69.2772C108.286 69.0384 108.029 68.8316 107.765 68.6288C107.491 68.4412 107.212 68.2543 106.909 68.108C106.613 67.9477 106.299 67.8194 105.98 67.7043C105.347 67.4569 104.681 67.286 104 67.1749Z" fill="black"/>
<path d="M258.031 62.3652C258.377 62.3605 258.723 62.3891 259.065 62.4423C259.409 62.4895 259.751 62.5587 260.089 62.6485C260.425 62.7442 260.759 62.854 261.079 62.999C261.406 63.1306 261.715 63.3049 262.021 63.4845L262.461 63.7877C262.601 63.8981 262.729 64.0245 262.864 64.1429C263.004 64.2566 263.114 64.3996 263.232 64.5359C263.347 64.6743 263.474 64.8046 263.562 64.9636L263.846 65.4258L264.059 65.9239C264.215 66.2518 264.259 66.6143 264.357 66.9601L263.85 66.9608L263.974 66.4646C264.008 66.2977 264.061 66.1361 264.134 65.9805C264.202 65.8242 264.26 65.6626 264.337 65.5109L264.602 65.074C264.683 64.923 264.807 64.8033 264.909 64.6689C265.015 64.5359 265.123 64.4056 265.251 64.2938C265.484 64.0478 265.756 63.8489 266.027 63.6527C266.309 63.4732 266.591 63.2956 266.892 63.1546C267.187 63.0043 267.493 62.8773 267.805 62.7722C268.117 62.6671 268.434 62.5806 268.754 62.5121C269.073 62.439 269.397 62.3878 269.722 62.3665C269.091 62.5221 268.477 62.7296 267.895 63.001C267.604 63.1326 267.315 63.2703 267.043 63.4359C266.765 63.5902 266.51 63.7784 266.257 63.9653C266.015 64.1668 265.781 64.3737 265.572 64.6038C265.458 64.7102 265.364 64.8339 265.273 64.9582C265.185 65.0846 265.074 65.1957 265.008 65.336L264.779 65.7357C264.713 65.8734 264.663 66.0197 264.603 66.1607C264.538 66.2997 264.493 66.446 264.465 66.5983L264.357 67.0459L264.137 67.9637L263.85 67.0472C263.753 66.736 263.728 66.4001 263.586 66.1055L263.401 65.6532L263.15 65.2349C263.077 65.0879 262.965 64.9669 262.866 64.8379C262.764 64.7102 262.669 64.5752 262.544 64.4674C262.317 64.2287 262.06 64.0218 261.796 63.819C261.522 63.6314 261.243 63.4446 260.939 63.2982C260.644 63.138 260.329 63.0096 260.011 62.8946C259.377 62.6471 258.711 62.4762 258.031 62.3652Z" fill="black"/>
<path d="M536 292.869H0V359.135H536V292.869Z" fill="#89796E"/>
<path d="M121.883 167.228C121.883 177.004 113.941 184.93 104.138 184.93C94.336 184.93 86.3953 177.004 86.3953 167.228C86.3953 157.451 94.336 149.525 104.138 149.525C113.941 149.525 121.883 157.451 121.883 167.228Z" fill="#87B74B"/>
<path d="M45.8613 196.609L48.824 204.489L69.2273 215.977" stroke="#DBE691" stroke-width="1.16847" stroke-miterlimit="10" stroke-linecap="round"/>
<path d="M71.3493 232.232C94.6057 232.232 113.459 213.424 113.459 190.224C113.459 167.023 94.6057 148.216 71.3493 148.216C48.093 148.216 29.24 167.023 29.24 190.224C29.24 213.424 48.093 232.232 71.3493 232.232Z" fill="#7FAA42"/>
<path d="M70.8753 191.683L52.7726 179.536L50.4666 173.299" stroke="#DBE691" stroke-width="1.16847" stroke-miterlimit="10" stroke-linecap="round"/>
<path d="M72.8007 222.873L90.9 212.369L94.2387 204.817" stroke="#D7DF23" stroke-width="1.16847" stroke-miterlimit="10"/>
<path d="M97.8127 213.353L90.2893 212.369" stroke="#D7DF23" stroke-width="1.16847" stroke-miterlimit="10"/>
<path d="M70.8753 197.594L89.3033 185.774L91.56 181.179" stroke="#D7DF23" stroke-width="1.16847" stroke-miterlimit="10"/>
<path d="M70.8753 218.737L52.7726 206.591L50.4666 200.354" stroke="#DBE691" stroke-width="1.16847" stroke-miterlimit="10" stroke-linecap="round"/>
<path d="M87.986 186.76L96.8247 186.432" stroke="#D7DF23" stroke-width="1.16847" stroke-miterlimit="10"/>
<path d="M79.712 295.43L59.9653 295.152L71.1533 176.582H72.4733L79.712 295.43Z" fill="#577635"/>
<path d="M52.7726 179.536L46.1886 182.82" stroke="#D7DF23" stroke-width="1.16847" stroke-miterlimit="10" stroke-linecap="round"/>
<path d="M52.7726 206.591L46.1886 209.873" stroke="#D7DF23" stroke-width="1.16847" stroke-miterlimit="10" stroke-linecap="round"/>
<path d="M513.749 207.002C513.749 213.693 508.319 219.115 501.611 219.115C494.907 219.115 489.473 213.693 489.473 207.002C489.473 200.314 494.907 194.894 501.611 194.894C508.319 194.894 513.749 200.314 513.749 207.002Z" fill="#87B74B"/>
<path d="M507.99 222.734C507.99 238.604 495.089 251.47 479.179 251.47C463.272 251.47 450.376 238.604 450.376 222.734C450.376 206.864 463.272 194.002 479.179 194.002C495.089 194.002 507.99 206.864 507.99 222.734Z" fill="#7FAA42"/>
<path d="M479.757 245.067L492.138 237.881L494.838 232.716" stroke="#DBE691" stroke-width="0.799267" stroke-miterlimit="10" stroke-linecap="round"/>
<path d="M496.867 238.556L492.138 237.881" stroke="#DBE691" stroke-width="0.799267" stroke-miterlimit="10" stroke-linecap="round"/>
<path d="M461.746 227.1L463.77 232.491L477.728 240.353" stroke="#DBE691" stroke-width="0.799267" stroke-miterlimit="10"/>
<path d="M478.851 227.775L491.464 219.69L492.587 216.547" stroke="#DBE691" stroke-width="0.799267" stroke-miterlimit="10" stroke-linecap="round"/>
<path d="M490.563 220.366L496.188 220.139" stroke="#DBE691" stroke-width="0.799267" stroke-miterlimit="10" stroke-linecap="round" stroke-linejoin="round"/>
<path d="M478.851 223.735L466.473 215.423L464.899 211.156" stroke="#DBE691" stroke-width="0.799267" stroke-miterlimit="10"/>
<path d="M484.483 294.704L470.978 294.513L478.631 213.4H479.532L484.483 294.704Z" fill="#577635"/>
<path d="M364.228 130.409L365.075 129.947L364.065 130.019L364.228 130.409Z" fill="#026D60"/>
<path d="M352.735 135.117L351.678 136.713L353.061 135.994L352.735 135.117Z" fill="#026D60"/>
<path d="M365.045 132.831L353.984 138.58L351.73 132.266L346.412 126.902L344.525 121.579L345.1 118.992L346.892 118.256L346.694 117.296L349.41 116.479L350.428 117.456L351.153 115.829L353.245 115.436L354.196 115.891L354.922 114.514L356.837 114.127L357.407 114.721L357.601 114.923L357.64 114.632L357.809 113.45L360.683 113.073L362.977 119.534L362.839 126.112L362.766 126.152L365.045 132.831Z" fill="#8B5E3C"/>
<path d="M312.234 198.386L314.317 186.434L328.381 185.134L331.246 193.969L325.779 208.78L319.266 207.999L312.234 198.386Z" fill="#A97C50"/>
<path d="M320.813 359.24H349.686L353.994 290.279L289.748 286.815L286.449 358.7L315.098 359.22L322.913 310.372L320.813 359.24Z" fill="#047C6E"/>
<path d="M353.355 210.816L355.989 294.003L292.179 294.522L293.221 197.004L312.999 194.009L323.694 205.921L330.727 190.591L344.437 188.367L359.209 175.333L351.678 136.713L365.075 129.947L384.078 182.078L353.646 211.117L353.355 210.816Z" fill="#079183"/>
<path d="M303.712 249.177L299.346 265.578L272.77 258.551L293.183 197.087L294.939 196.748L292.787 246.055L303.712 249.177Z" fill="#028373"/>
<path d="M336.977 279.193L306.069 270.878L305.722 241.431L340.103 248.36L336.977 279.193Z" fill="white"/>
<path d="M313.549 270.609L297.693 267.049L301.658 247.276L314.342 248.067L314.738 251.429L313.152 252.813L314.738 254.198L314.539 258.348L312.756 259.139L313.946 260.325V264.477L312.161 265.467L313.946 266.653L313.549 270.609Z" fill="#8B5E3C"/>
<path d="M355.989 294.003L353.125 297.382L353.385 294.003H355.989Z" fill="#007C6D"/>
<path d="M335.589 173.989L333.639 174.063L334.251 187.652L308.23 188.811L307.598 174.741L305.695 174.666L304.791 167.631L307.272 167.509L306.368 147.278L332.389 146.119L333.313 166.797L336.493 166.953L335.589 173.989Z" fill="#A97C50"/>
<path d="M307.285 171.104L311.452 159.151V153.435L329.163 151.876V158.112L333.777 170.598L334.893 142.522L305.201 144.082L307.285 171.104Z" fill="#3C2415"/>
<path d="M323.021 183.023L318.491 182.798L317.585 179.183H323.926L323.021 183.023Z" fill="white"/>
<path d="M317.693 166.008L314.798 165.174L312.062 166.162L314.341 166.852L317.693 166.008Z" fill="white"/>
<path d="M315.424 165.315L315.472 166.615L314.341 166.852L313.774 166.725L313.723 165.569L314.798 165.174L315.424 165.315Z" fill="black"/>
<path d="M329.186 165.274L326.292 164.44L323.555 165.427L325.833 166.117L329.186 165.274Z" fill="white"/>
<path d="M326.916 164.58L326.966 165.881L325.833 166.117L325.267 165.99L325.216 164.835L326.292 164.44L326.916 164.58Z" fill="black"/>
<path d="M319 173.534H322.169" stroke="#3C2415" stroke-width="0.271768" stroke-miterlimit="10" stroke-linecap="round"/>
<path d="M330.727 190.591L330.409 191.382L330.21 190.733L330.727 190.591Z" fill="#05695C"/>
<path d="M166.638 318.69L168.119 320.947L169.138 317.897L166.638 318.69Z" fill="#036456"/>
<path d="M231.132 86.6118L228.109 87.9604L231.09 87.9671L231.132 86.6118Z" fill="#024568"/>
<path d="M241.697 86.6118L246.377 87.9604L241.762 87.9671L241.697 86.6118Z" fill="#024568"/>
<path d="M247.222 58.8578L248.119 67.2265L242.116 76.6331C241.762 90.5777 240.064 156.291 239.752 155.168C239.408 153.908 222.739 151.387 222.739 151.387L232.647 74.5398L229.338 58.9226L231.986 55.3495L234.2 55.6645L234.59 57.2411L236.023 55.8226L238.498 56.1377L239.669 58.0282L241.102 56.7679L243.707 57.2411L244.488 58.8165L247.222 58.8578Z" fill="#8B5E3C"/>
<path d="M182.788 200.204L183.309 216.833L193.206 222.03L202.583 210.078L194.248 191.89L182.672 197.779" fill="#A97C50"/>
<path d="M248.422 359.22H211.5L206.75 338.953L204.593 359.22H170.807L167.161 325.442L172.891 301.017L233.493 289.586L242.172 310.372L248.422 359.22Z" fill="#047C6E"/>
<path d="M241.133 169.027L231.03 206.588L234.067 289.419L238.001 296.86L166.638 318.69L170.809 297.382L173.412 215.793L182.786 210.079L191.49 218.883L194.941 222.381L199.282 203.153L206.661 199.662L219.249 167.984L228.109 87.9604H246.337L241.133 169.027Z" fill="#079183"/>
<path d="M181.399 276.421L161.951 277.115L163.34 219.606L182.787 210.252L181.399 276.421Z" fill="#079183"/>
<path d="M172.376 269.458L178.652 285.662L169.792 293.397L160.562 286.029L164.254 270.195L172.376 269.458Z" fill="#8B5E3C"/>
<path d="M162.646 273.823L175.495 274.516L180.877 285.429L169.765 294.263L159.174 286.987L162.646 273.823Z" fill="#057769"/>
<path d="M206.016 226.506L167.309 230.293L172.731 285.456L211.439 281.669L206.016 226.506Z" fill="white"/>
<path d="M194.968 161.599L181.57 160.773L178.649 148.457L196.993 147.102L194.968 161.599Z" fill="#603C1D"/>
<path d="M177.545 274.245L162.778 270.93L166.469 252.517L178.283 253.253L178.652 256.384L177.175 257.672L178.652 258.962L178.468 262.829L176.806 263.566L177.913 264.67V268.536L176.252 269.458L177.913 270.563L177.545 274.245Z" fill="#8B5E3C"/>
<path d="M203.454 199.492L177.182 202.515L175.408 187.828L173.894 187.598L172.874 181.159L174.655 180.61L172.324 160.446L198.596 157.431L200.981 178.082L202.618 178.103L203.603 184.595L202.075 185.314L203.454 199.492Z" fill="#A97C50"/>
<path d="M185.116 160.992L174.46 180.312L172.323 160.45L198.596 157.43L201.183 177.827L185.116 160.992Z" fill="#754C29"/>
<path d="M175.235 154.464L178.757 155.075L179.815 153.957L182.107 155.282L183.362 154.175L187.045 155.388L189.137 153.544L191.231 154.858L194.26 153.86L193.204 158.135L176.877 159.892L175.235 154.464Z" fill="#8DC63F"/>
<path d="M185.396 161.089L182.077 169.904L182.081 169.868L182.342 173.844L181.906 169.883L181.904 169.866L181.911 169.846L184.837 160.894C184.888 160.739 185.055 160.654 185.211 160.705C185.366 160.755 185.451 160.922 185.401 161.078C185.398 161.081 185.397 161.086 185.396 161.089Z" fill="#754C29"/>
<path d="M190.255 217.526L196.332 215.794L194.943 222.377L190.255 217.526Z" fill="white"/>
<path d="M233.641 77.4884L228.136 70.6722L226.982 59.7707L231.928 57.9902L233.941 61.3287L232.29 63.8706L233.641 77.4884Z" fill="#8B5E3C"/>
<path d="M177.291 179.521L180.461 178.279L183.632 179.183L181.141 180.199L177.291 179.521Z" fill="white"/>
<path d="M197.571 177.726L194.289 176.815L191.228 178.039L193.812 178.795L197.571 177.726Z" fill="white"/>
<path d="M179.754 178.533L180.461 178.279L181.495 178.533L181.706 179.931L181.141 180.199L179.838 179.973L179.754 178.533Z" fill="black"/>
<path d="M194.997 176.965L195.082 178.49L193.812 178.795L193.171 178.66L193.087 177.304L194.289 176.815L194.997 176.965Z" fill="black"/>
<path d="M187.184 187.979C187.312 187.979 190.92 187.556 190.92 187.556Z" fill="black"/>
<path d="M187.184 187.979C187.312 187.979 190.92 187.556 190.92 187.556" stroke="#754C29" stroke-width="0.20384" stroke-miterlimit="10"/>
<path d="M187.142 193.697L191.898 193.275L191.473 195.053L188.161 195.308L187.142 193.697Z" fill="white" stroke="#754C29" stroke-width="0.20384" stroke-miterlimit="10" stroke-linejoin="round"/>
<path d="M178.248 242.37L177.413 242.455L177.114 239.544L173.939 239.868L174.237 242.78L173.407 242.864L172.76 236.565L173.591 236.481L173.869 239.189L177.045 238.865L176.767 236.156L177.602 236.071L178.248 242.37ZM180.614 242.129L179.784 242.213L179.138 235.914L179.968 235.83L180.614 242.129ZM184.186 239.189L182.707 239.34L182.968 241.888L182.133 241.973L181.487 235.675L183.572 235.462C184.282 235.389 184.843 235.495 185.257 235.779C185.674 236.063 185.914 236.514 185.977 237.131C186.018 237.523 185.946 237.876 185.762 238.189C185.582 238.502 185.31 238.749 184.947 238.932L186.701 241.455L186.706 241.507L185.815 241.598L184.186 239.189ZM182.637 238.661L183.913 238.531C184.326 238.488 184.642 238.348 184.863 238.11C185.086 237.872 185.179 237.574 185.142 237.216C185.103 236.827 184.955 236.54 184.7 236.356C184.448 236.172 184.103 236.101 183.664 236.143L182.392 236.273L182.637 238.661ZM190.859 238.141L188.129 238.419L188.358 240.652L191.53 240.328L191.599 241.007L187.597 241.416L186.951 235.117L190.91 234.713L190.98 235.396L187.852 235.715L188.06 237.74L190.79 237.461L190.859 238.141ZM192.633 240.902L191.987 234.603L193.765 234.421C194.313 234.365 194.81 234.437 195.256 234.636C195.702 234.835 196.062 235.147 196.336 235.571C196.612 235.994 196.782 236.496 196.844 237.075L196.886 237.477C196.946 238.071 196.884 238.604 196.7 239.074C196.518 239.545 196.225 239.921 195.823 240.204C195.424 240.487 194.942 240.66 194.377 240.724L192.633 240.902ZM192.888 235.201L193.394 240.138L194.268 240.048C194.909 239.983 195.386 239.733 195.7 239.299C196.016 238.864 196.137 238.279 196.062 237.544L196.024 237.176C195.951 236.461 195.725 235.923 195.347 235.562C194.972 235.198 194.475 235.045 193.857 235.102L192.888 235.201Z" fill="#ED1C24"/>
<path d="M284.625 170.844L287.23 171.624L284.561 172.013L284.625 170.844Z" fill="#047267"/>
<path d="M284.886 164.868L284.365 176.3L265.092 178.898L266.133 165.647L263.248 97.3223L259.882 94.9743L253.111 86.919L256.236 86.1397L260.143 88.7374L256.497 68.7309L278.115 70.0303L276.03 92.6352L273.842 97.7798L284.886 164.868Z" fill="#8B5E3C"/>
<path d="M293.742 302.577L306.714 359.071L228.107 359.22L226.544 329.079L230.19 316.608L293.742 302.577Z" fill="#089385"/>
<path d="M270.959 337.317L223.919 344.432L229.02 378L276.06 370.885L270.959 337.317Z" fill="#D1D3D4"/>
<path d="M262.226 219.691L255.455 239.178L240.609 221.77L242.953 205.142L258.145 203.669L262.226 219.691Z" fill="#8B5E3C"/>
<path d="M297.388 307.773L224.982 329.86L228.368 315.05L216.647 224.889L240.161 219.068L254.153 235.542L260.559 214.017L264.31 213.093L263.529 174.221L287.23 171.624L287.491 226.188L297.388 307.773Z" fill="#00A79D"/>
<path d="M258.664 350.209L255.539 350.386L254.548 349.741L253.454 350.729L250.902 350.645L249.34 349.741L248.599 350.563L246.339 350.905L244.901 349.741L243.391 350.905L240.953 350.209L242.963 335.397L216.907 290.365L217.688 272.956L235.921 274.516L235.4 286.467L252.392 332.467L256.06 336.698L258.664 350.209Z" fill="#8B5E3C"/>
<path d="M236.442 277.115L214.042 275.555L216.647 225.148L233.837 220.73L236.442 277.115Z" fill="#00A79D"/>
<path d="M264.004 207.645L237.231 209.313L234.663 168.341L258.818 169.468L264.004 207.645Z" fill="#8B5E3C"/>
<path d="M236.963 178.379L249.204 170.325L259.101 185.395L257.798 168.506L245.818 166.687L236.963 169.805V178.379Z" fill="#603913"/>
<path d="M288.532 226.707L287.751 221.77L272.645 218.912L264.571 212.937L262.214 166.079L246.859 162.789L234.357 169.026L233.316 212.677L216.647 225.148L212.48 252.431L235.66 276.855V284.388L248.944 288.027L280.458 252.17L294.089 258.925L292.7 242.99L288.532 226.707ZM249.985 207.479L237.744 203.842L237.483 171.883L246.599 168.506L257.798 170.065L260.143 203.063L249.985 207.479Z" fill="#F7941E"/>
<path d="M212.48 252.431L215.149 255.289L214.954 258.99L212.48 252.431Z" fill="#D27328"/>
<path d="M294.089 258.752L292.005 262.911L291.267 257.497L294.089 258.752Z" fill="#D27328"/>
<path d="M214.042 275.555L217.559 275.815L217.428 278.673L214.042 275.555Z" fill="#517D39"/>
<path d="M263.529 174.221L265.482 173.961L265.548 172.857" fill="#047267"/>
<path d="M245.683 199.374L251.083 199.242L250.476 200.991L246.488 201.03L245.683 199.374Z" fill="white"/>
<path d="M245.808 187.082L242.922 186.313L240.23 187.346L242.502 187.984L245.808 187.082Z" fill="white"/>
<path d="M243.544 186.44L243.619 187.727L242.502 187.984L241.938 187.87L241.864 186.726L242.922 186.313L243.544 186.44Z" fill="black"/>
<path d="M256.593 186.827L253.707 186.058L251.015 187.092L253.287 187.73L256.593 186.827Z" fill="white"/>
<path d="M254.33 186.186L254.405 187.473L253.287 187.73L252.724 187.616L252.649 186.472L253.707 186.058L254.33 186.186Z" fill="black"/>
<path d="M246.518 194.757C246.646 194.757 249.76 194.545 249.76 194.545" stroke="#754C29" stroke-width="0.407624" stroke-miterlimit="10"/>
<path d="M297.388 307.773L295.619 310.667L294.939 308.522L297.388 307.773Z" fill="#047267"/>
<path d="M224.982 329.86L226.773 331.791L226.66 329.419L224.982 329.86Z" fill="#047267"/>
<path d="M264.156 346.443L264.054 345.61L266.959 345.256L266.571 342.087L263.666 342.441L263.564 341.612L269.85 340.847L269.951 341.675L267.249 342.005L267.637 345.173L270.339 344.844L270.441 345.677L264.156 346.443ZM264.445 348.804L264.343 347.975L270.629 347.209L270.73 348.038L264.445 348.804ZM267.455 352.319L267.275 350.842L264.732 351.152L264.63 350.319L270.915 349.553L271.17 351.634C271.257 352.342 271.162 352.905 270.886 353.325C270.611 353.747 270.165 353.995 269.549 354.07C269.158 354.118 268.804 354.053 268.487 353.875C268.171 353.701 267.917 353.434 267.727 353.074L265.24 354.875L265.188 354.882L265.08 353.992L267.455 352.319ZM267.952 350.76L268.108 352.033C268.159 352.445 268.305 352.758 268.548 352.974C268.791 353.193 269.09 353.28 269.447 353.237C269.836 353.19 270.119 353.037 270.298 352.778C270.477 352.523 270.541 352.176 270.491 351.739L270.335 350.47L267.952 350.76ZM268.637 358.97L268.304 356.246L266.076 356.517L266.464 359.681L265.786 359.764L265.297 355.771L271.583 355.005L272.066 358.955L271.384 359.038L271.002 355.917L268.982 356.163L269.315 358.887L268.637 358.97ZM253.638 342.821L259.923 342.056L260.141 343.83C260.207 344.377 260.146 344.875 259.955 345.325C259.765 345.774 259.461 346.14 259.043 346.421C258.625 346.706 258.127 346.885 257.549 346.958L257.147 347.007C256.554 347.079 256.021 347.028 255.546 346.852C255.072 346.679 254.69 346.394 254.399 345.997C254.108 345.603 253.926 345.124 253.851 344.561L253.638 342.821ZM259.343 342.968L254.417 343.568L254.524 344.44C254.602 345.079 254.861 345.551 255.302 345.856C255.743 346.165 256.33 346.274 257.064 346.185L257.431 346.14C258.145 346.053 258.678 345.817 259.031 345.433C259.387 345.051 259.531 344.551 259.461 343.935L259.343 342.968Z" fill="#ED1C24"/>
<path d="M337.016 67.9739L337.558 70.1359L339.725 70.3158L339.364 71.5773L336.474 71.7577L335.571 69.2354L337.016 67.9739Z" fill="#00A14B"/>
<path d="M347.274 116.412L348.061 119.556L351.214 119.818L350.688 121.653L346.485 121.915L345.172 118.246L347.274 116.412Z" fill="#FFDE17"/>
<path d="M312.107 92.0469L311.412 94.3631L313.334 95.7284L312.298 96.7061L309.501 95.2776L310.058 92.4251L312.107 92.0469Z" fill="#F26522"/>
<path d="M313.045 129.544L312.35 131.86L314.272 133.225L313.235 134.203L310.439 132.775L310.996 129.923L313.045 129.544Z" fill="#F26522"/>
<path d="M273.925 141.12L273.162 143.666L275.274 145.166L274.135 146.241L271.062 144.671L271.675 141.536L273.925 141.12Z" fill="#ED1C24"/>
<path d="M277.933 88.7626L277.219 91.1458L279.196 92.5497L278.13 93.5553L275.253 92.0866L275.827 89.1525L277.933 88.7626Z" fill="#FFDE17"/>
<path d="M240.361 72.8985L239.744 74.9549L241.45 76.1666L240.53 77.0342L238.048 75.7672L238.542 73.2342L240.361 72.8985Z" fill="#FFDE17"/>
<path d="M372.023 90.2056L371.358 92.4251L373.2 93.7335L372.206 94.6704L369.527 93.3016L370.061 90.5687L372.023 90.2056Z" fill="#8DC63F"/>
<path d="M366.867 196.509L366.202 198.728L368.044 200.036L367.051 200.972L364.371 199.604L364.905 196.871L366.867 196.509Z" fill="#8DC63F"/>
<path d="M394.525 235.403L393.859 237.622L395.701 238.931L394.708 239.867L392.028 238.498L392.562 235.766L394.525 235.403Z" fill="#8DC63F"/>
<path d="M269.926 205.4L269.261 207.62L271.103 208.928L270.11 209.864L267.43 208.496L267.964 205.763L269.926 205.4Z" fill="#8DC63F"/>
<path d="M130.801 206.781L131.335 204.048L133.298 203.685L132.632 205.905L134.474 207.213" fill="#8DC63F"/>
<path d="M173.229 211.368L172.564 213.587L174.406 214.896L173.412 215.832L170.732 214.464L171.266 211.73L173.229 211.368Z" fill="#8DC63F"/>
<path d="M240.992 118.299L240.354 120.427L242.12 121.681L241.167 122.579L238.598 121.267L239.11 118.647L240.992 118.299Z" fill="#FFDE17"/>
<path d="M156.347 238.454L155.709 240.583L157.475 241.837L156.522 242.735L153.954 241.423L154.466 238.802L156.347 238.454Z" fill="#FFDE17"/>
<path d="M191.221 81.8593L190.576 84.0129L192.362 85.2822L191.398 86.1905L188.799 84.8632L189.317 82.2118L191.221 81.8593Z" fill="#00A14B"/>
<path d="M195.379 125.902L194.769 127.934L196.455 129.131L195.546 129.988L193.094 128.736L193.582 126.234L195.379 125.902Z" fill="#F26522"/>
<path d="M222.454 171.373L221.844 173.404L223.53 174.601L222.62 175.458L220.169 174.206L220.657 171.704L222.454 171.373Z" fill="#F26522"/>
<path d="M304.356 182.831L303.447 185.866L305.965 187.655L304.607 188.936L300.943 187.065L301.673 183.327L304.356 182.831Z" fill="#FFDE17"/>
<path d="M386.12 152.529L385.512 154.56L387.197 155.757L386.288 156.615L383.835 155.363L384.324 152.861L386.12 152.529Z" fill="#F26522"/>
<path d="M351.391 252.756L350.782 254.786L352.468 255.984L351.558 256.841L349.106 255.588L349.594 253.086L351.391 252.756Z" fill="#F26522"/>
<path d="M154.442 109.325L153.775 111.55L155.621 112.861L154.625 113.8L151.939 112.428L152.475 109.689L154.442 109.325Z" fill="#FFDE17"/>
<path d="M156.058 159.663L155.363 161.979L157.285 163.344L156.249 164.322L153.453 162.894L154.01 160.041L156.058 159.663Z" fill="#ED1C24"/>
<path d="M222.773 223.267L222.079 225.583L224.001 226.948L222.965 227.925L220.169 226.498L220.726 223.646L222.773 223.267Z" fill="#ED1C24"/>
<path d="M318.407 214.619H299.083V221.069H318.407V214.619Z" fill="white"/>
<defs>
<linearGradient id="paint0_linear" x1="271.115" y1="-2.03971" x2="268.318" y2="361.202" gradientUnits="userSpaceOnUse">
<stop offset="0.19" stop-color="#CDECF7"/>
<stop offset="0.4218" stop-color="#DDF2F9"/>
<stop offset="0.6865" stop-color="#E8F6FB"/>
<stop offset="1" stop-color="#EBF7FB"/>
</linearGradient>
</defs>
</svg>
