<svg width="536" height="362" viewBox="0 0 536 362" fill="none" xmlns="http://www.w3.org/2000/svg">
<rect y="1" width="536" height="360" rx="10" fill="#C4C4C4"/>
<path d="M526 1H10C4.47715 1 0 5.47718 0 11V350.135C0 355.658 4.47716 360.135 10 360.135H526C531.523 360.135 536 355.658 536 350.135V11C536 5.47715 531.523 1 526 1Z" fill="url(#paint0_linear)"/>
<path d="M536 294.869H0V361.135H536V294.869Z" fill="#89796E"/>
<path d="M161.136 170.359C168.944 129.844 186.675 95.2916 222.137 72.9919" stroke="black" stroke-width="1.17309" stroke-miterlimit="10"/>
<path d="M325.428 252.886C309.826 265.028 290.529 272.653 269.296 273.767C243.781 275.116 220.026 266.787 201.549 252.065" stroke="black" stroke-width="1.17309" stroke-miterlimit="10"/>
<path d="M315.867 88.4767C342.145 101.205 364.668 136.632 363.671 172.94" stroke="black" stroke-width="1.17309" stroke-miterlimit="10"/>
<path d="M156.503 216.051H146.179V233.061H156.503V216.051Z" fill="black"/>
<path d="M172.515 208.074H162.192V233.119H172.515V208.074Z" fill="black"/>
<path d="M189.232 197.692H178.909V233.061H189.232V197.692Z" fill="black"/>
<path d="M193.279 188.952L187.883 193.879H175.565L173.219 204.261L157.206 204.554L155.212 212.238H139.845" stroke="black" stroke-width="1.17309" stroke-miterlimit="10"/>
<path d="M168.761 246.844C189.882 246.844 207.004 229.723 207.004 208.602C207.004 187.481 189.882 170.359 168.761 170.359C147.64 170.359 130.519 187.481 130.519 208.602C130.519 229.723 147.64 246.844 168.761 246.844Z" stroke="black" stroke-width="0.293274" stroke-miterlimit="10"/>
<path d="M192 187.117L195.989 187L194.991 191.047" stroke="black" stroke-width="1.17309" stroke-miterlimit="10"/>
<path d="M233.23 164.076H230.936L230.456 165.455H229.386L231.623 159.532H232.547L234.788 165.455H233.714L233.23 164.076ZM231.224 163.246H232.941L232.083 160.789L231.224 163.246ZM239.251 164.747C239.498 164.747 239.702 164.675 239.865 164.531C240.028 164.388 240.115 164.21 240.125 163.998H241.057C241.046 164.272 240.961 164.529 240.801 164.767C240.641 165.003 240.424 165.19 240.15 165.329C239.876 165.467 239.58 165.536 239.263 165.536C238.647 165.536 238.159 165.337 237.798 164.938C237.438 164.539 237.257 163.989 237.257 163.286V163.185C237.257 162.515 237.436 161.979 237.794 161.578C238.152 161.174 238.641 160.972 239.259 160.972C239.782 160.972 240.208 161.125 240.536 161.431C240.867 161.735 241.041 162.135 241.057 162.631H240.125C240.115 162.379 240.028 162.172 239.865 162.009C239.705 161.846 239.5 161.765 239.251 161.765C238.931 161.765 238.684 161.882 238.51 162.115C238.337 162.345 238.249 162.697 238.246 163.168V163.327C238.246 163.804 238.331 164.161 238.502 164.397C238.676 164.63 238.925 164.747 239.251 164.747ZM241.618 163.213C241.618 162.782 241.704 162.394 241.875 162.05C242.046 161.703 242.286 161.437 242.595 161.252C242.904 161.065 243.259 160.972 243.661 160.972C244.255 160.972 244.736 161.163 245.105 161.545C245.476 161.928 245.677 162.435 245.707 163.067L245.711 163.299C245.711 163.733 245.627 164.12 245.459 164.462C245.293 164.804 245.055 165.068 244.743 165.255C244.434 165.443 244.076 165.536 243.669 165.536C243.048 165.536 242.55 165.33 242.176 164.918C241.804 164.503 241.618 163.951 241.618 163.262V163.213ZM242.607 163.299C242.607 163.752 242.701 164.107 242.888 164.364C243.075 164.619 243.335 164.747 243.669 164.747C244.002 164.747 244.261 164.617 244.446 164.356C244.633 164.096 244.726 163.715 244.726 163.213C244.726 162.768 244.63 162.416 244.438 162.155C244.248 161.895 243.989 161.765 243.661 161.765C243.338 161.765 243.082 161.894 242.892 162.151C242.702 162.406 242.607 162.789 242.607 163.299ZM247.476 161.053L247.505 161.513C247.814 161.152 248.237 160.972 248.774 160.972C249.363 160.972 249.765 161.197 249.982 161.647C250.302 161.197 250.753 160.972 251.333 160.972C251.818 160.972 252.179 161.106 252.415 161.374C252.654 161.643 252.776 162.039 252.781 162.562V165.455H251.793V162.591C251.793 162.311 251.732 162.107 251.61 161.977C251.488 161.846 251.286 161.781 251.003 161.781C250.778 161.781 250.594 161.842 250.45 161.964C250.309 162.084 250.21 162.241 250.153 162.436L250.157 165.455H249.169V162.558C249.155 162.04 248.891 161.781 248.375 161.781C247.98 161.781 247.699 161.943 247.533 162.265V165.455H246.545V161.053H247.476ZM254.726 161.053L254.754 161.513C255.063 161.152 255.487 160.972 256.023 160.972C256.612 160.972 257.015 161.197 257.232 161.647C257.552 161.197 258.002 160.972 258.582 160.972C259.068 160.972 259.428 161.106 259.664 161.374C259.903 161.643 260.025 162.039 260.031 162.562V165.455H259.042V162.591C259.042 162.311 258.981 162.107 258.859 161.977C258.737 161.846 258.535 161.781 258.253 161.781C258.028 161.781 257.843 161.842 257.7 161.964C257.559 162.084 257.46 162.241 257.403 162.436L257.407 165.455H256.418V162.558C256.405 162.04 256.14 161.781 255.625 161.781C255.229 161.781 254.948 161.943 254.783 162.265V165.455H253.794V161.053H254.726ZM263.712 165.023C263.422 165.365 263.01 165.536 262.475 165.536C261.998 165.536 261.636 165.396 261.389 165.117C261.145 164.838 261.023 164.434 261.023 163.905V161.053H262.012V163.893C262.012 164.451 262.244 164.731 262.707 164.731C263.187 164.731 263.511 164.558 263.68 164.214V161.053H264.668V165.455H263.737L263.712 165.023ZM266.592 161.053L266.621 161.562C266.946 161.168 267.373 160.972 267.902 160.972C268.819 160.972 269.285 161.496 269.302 162.546V165.455H268.313V162.603C268.313 162.324 268.252 162.118 268.13 161.985C268.011 161.849 267.814 161.781 267.54 161.781C267.142 161.781 266.845 161.962 266.649 162.322V165.455H265.661V161.053H266.592ZM271.364 165.455H270.376V161.053H271.364V165.455ZM270.315 159.91C270.315 159.758 270.362 159.632 270.457 159.532C270.555 159.431 270.693 159.381 270.872 159.381C271.051 159.381 271.189 159.431 271.287 159.532C271.385 159.632 271.433 159.758 271.433 159.91C271.433 160.059 271.385 160.184 271.287 160.284C271.189 160.382 271.051 160.431 270.872 160.431C270.693 160.431 270.555 160.382 270.457 160.284C270.362 160.184 270.315 160.059 270.315 159.91ZM273.683 159.983V161.053H274.46V161.785H273.683V164.242C273.683 164.411 273.716 164.533 273.781 164.609C273.848 164.682 273.968 164.718 274.139 164.718C274.253 164.718 274.368 164.705 274.484 164.678V165.443C274.259 165.505 274.042 165.536 273.834 165.536C273.074 165.536 272.694 165.117 272.694 164.279V161.785H271.97V161.053H272.694V159.983H273.683ZM276.759 164.039L277.653 161.053H278.707L276.958 166.122C276.689 166.862 276.234 167.232 275.591 167.232C275.447 167.232 275.289 167.208 275.115 167.159V166.394L275.302 166.407C275.552 166.407 275.739 166.361 275.864 166.268C275.991 166.179 276.091 166.027 276.165 165.813L276.307 165.434L274.761 161.053H275.827L276.759 164.039ZM285.216 163.299C285.216 163.982 285.063 164.526 284.756 164.93C284.453 165.334 284.034 165.536 283.499 165.536C282.984 165.536 282.583 165.35 282.295 164.979L282.246 165.455H281.351V159.206H282.34V161.476C282.625 161.14 283.008 160.972 283.491 160.972C284.028 160.972 284.45 161.171 284.756 161.57C285.063 161.968 285.216 162.526 285.216 163.242V163.299ZM284.228 163.213C284.228 162.736 284.143 162.378 283.975 162.139C283.807 161.901 283.563 161.781 283.243 161.781C282.815 161.781 282.513 161.968 282.34 162.343V164.157C282.516 164.539 282.82 164.731 283.251 164.731C283.56 164.731 283.799 164.615 283.967 164.385C284.135 164.154 284.222 163.806 284.228 163.339V163.213ZM288.678 165.455C288.635 165.371 288.597 165.234 288.564 165.044C288.249 165.372 287.864 165.536 287.409 165.536C286.967 165.536 286.606 165.41 286.327 165.158C286.047 164.906 285.908 164.594 285.908 164.222C285.908 163.753 286.081 163.394 286.428 163.144C286.778 162.892 287.277 162.766 287.925 162.766H288.532V162.477C288.532 162.249 288.468 162.067 288.34 161.932C288.213 161.793 288.019 161.724 287.759 161.724C287.533 161.724 287.349 161.781 287.205 161.895C287.062 162.006 286.99 162.149 286.99 162.322H286.001C286.001 162.081 286.081 161.856 286.241 161.647C286.401 161.435 286.618 161.27 286.892 161.151C287.169 161.031 287.477 160.972 287.816 160.972C288.331 160.972 288.742 161.102 289.048 161.362C289.355 161.62 289.512 161.983 289.52 162.452V164.438C289.52 164.834 289.576 165.15 289.687 165.386V165.455H288.678ZM287.592 164.743C287.787 164.743 287.97 164.695 288.141 164.6C288.315 164.505 288.445 164.378 288.532 164.218V163.388H287.999C287.632 163.388 287.357 163.452 287.173 163.579C286.988 163.707 286.896 163.887 286.896 164.12C286.896 164.31 286.959 164.462 287.083 164.576C287.211 164.687 287.38 164.743 287.592 164.743ZM293.023 164.259C293.023 164.082 292.949 163.948 292.803 163.856C292.659 163.764 292.419 163.682 292.083 163.612C291.747 163.541 291.466 163.452 291.241 163.343C290.747 163.105 290.5 162.759 290.5 162.306C290.5 161.926 290.66 161.609 290.981 161.354C291.301 161.099 291.707 160.972 292.201 160.972C292.727 160.972 293.152 161.102 293.474 161.362C293.8 161.623 293.962 161.96 293.962 162.375H292.974C292.974 162.185 292.903 162.028 292.762 161.903C292.621 161.776 292.434 161.712 292.201 161.712C291.984 161.712 291.806 161.762 291.668 161.863C291.532 161.963 291.465 162.097 291.465 162.265C291.465 162.417 291.528 162.535 291.656 162.619C291.783 162.703 292.041 162.789 292.429 162.876C292.817 162.96 293.12 163.061 293.34 163.181C293.562 163.297 293.726 163.438 293.832 163.604C293.941 163.769 293.995 163.97 293.995 164.206C293.995 164.602 293.831 164.923 293.503 165.17C293.175 165.414 292.745 165.536 292.213 165.536C291.852 165.536 291.531 165.471 291.249 165.341C290.967 165.211 290.747 165.032 290.59 164.804C290.433 164.576 290.354 164.331 290.354 164.067H291.314C291.328 164.301 291.416 164.481 291.579 164.609C291.741 164.733 291.957 164.796 292.225 164.796C292.486 164.796 292.684 164.747 292.819 164.649C292.955 164.549 293.023 164.419 293.023 164.259ZM296.798 165.536C296.171 165.536 295.663 165.339 295.272 164.946C294.885 164.55 294.691 164.024 294.691 163.368V163.246C294.691 162.806 294.775 162.414 294.943 162.07C295.114 161.723 295.352 161.453 295.659 161.261C295.965 161.068 296.307 160.972 296.684 160.972C297.283 160.972 297.746 161.163 298.071 161.545C298.399 161.928 298.563 162.469 298.563 163.168V163.567H295.687C295.717 163.931 295.838 164.218 296.049 164.43C296.264 164.641 296.532 164.747 296.855 164.747C297.308 164.747 297.677 164.564 297.961 164.198L298.494 164.706C298.318 164.969 298.082 165.174 297.786 165.32C297.494 165.464 297.164 165.536 296.798 165.536ZM296.68 161.765C296.409 161.765 296.189 161.86 296.021 162.05C295.855 162.24 295.75 162.504 295.704 162.843H297.587V162.77C297.565 162.439 297.477 162.189 297.323 162.021C297.168 161.85 296.954 161.765 296.68 161.765ZM299.149 163.221C299.149 162.543 299.307 162 299.621 161.59C299.936 161.178 300.357 160.972 300.886 160.972C301.353 160.972 301.73 161.134 302.017 161.46V159.206H303.006V165.455H302.111L302.062 164.999C301.766 165.357 301.372 165.536 300.878 165.536C300.363 165.536 299.945 165.329 299.625 164.914C299.308 164.499 299.149 163.935 299.149 163.221ZM300.138 163.307C300.138 163.754 300.223 164.104 300.394 164.356C300.568 164.606 300.813 164.731 301.13 164.731C301.534 164.731 301.83 164.55 302.017 164.19V162.31C301.836 161.958 301.543 161.781 301.139 161.781C300.818 161.781 300.572 161.909 300.398 162.164C300.225 162.416 300.138 162.797 300.138 163.307ZM224.777 175.455C224.733 175.371 224.695 175.234 224.663 175.044C224.348 175.372 223.963 175.536 223.507 175.536C223.065 175.536 222.705 175.41 222.425 175.158C222.146 174.906 222.006 174.594 222.006 174.222C222.006 173.753 222.18 173.394 222.527 173.144C222.877 172.892 223.376 172.766 224.024 172.766H224.63V172.477C224.63 172.249 224.566 172.067 224.439 171.932C224.311 171.793 224.118 171.724 223.857 171.724C223.632 171.724 223.448 171.781 223.304 171.895C223.16 172.006 223.088 172.149 223.088 172.322H222.1C222.1 172.081 222.18 171.856 222.34 171.647C222.5 171.435 222.717 171.27 222.991 171.151C223.267 171.031 223.575 170.972 223.914 170.972C224.429 170.972 224.84 171.102 225.147 171.362C225.453 171.62 225.611 171.983 225.619 172.452V174.438C225.619 174.834 225.674 175.15 225.785 175.386V175.455H224.777ZM223.69 174.743C223.886 174.743 224.069 174.695 224.24 174.6C224.413 174.505 224.543 174.378 224.63 174.218V173.388H224.097C223.731 173.388 223.456 173.452 223.271 173.579C223.087 173.707 222.995 173.887 222.995 174.12C222.995 174.31 223.057 174.462 223.182 174.576C223.309 174.687 223.479 174.743 223.69 174.743ZM230.508 173.299C230.508 173.979 230.354 174.523 230.045 174.93C229.736 175.334 229.321 175.536 228.8 175.536C228.317 175.536 227.931 175.377 227.64 175.06V177.147H226.652V171.053H227.563L227.604 171.501C227.894 171.148 228.289 170.972 228.788 170.972C229.325 170.972 229.745 171.172 230.049 171.574C230.355 171.972 230.508 172.527 230.508 173.238V173.299ZM229.524 173.213C229.524 172.774 229.436 172.425 229.26 172.168C229.086 171.91 228.836 171.781 228.511 171.781C228.107 171.781 227.817 171.948 227.64 172.282V174.234C227.819 174.576 228.112 174.747 228.519 174.747C228.834 174.747 229.079 174.621 229.256 174.369C229.435 174.114 229.524 173.728 229.524 173.213ZM235.203 173.299C235.203 173.979 235.048 174.523 234.739 174.93C234.43 175.334 234.015 175.536 233.494 175.536C233.012 175.536 232.625 175.377 232.335 175.06V177.147H231.347V171.053H232.258L232.298 171.501C232.589 171.148 232.983 170.972 233.482 170.972C234.019 170.972 234.44 171.172 234.743 171.574C235.05 171.972 235.203 172.527 235.203 173.238V173.299ZM234.219 173.213C234.219 172.774 234.13 172.425 233.954 172.168C233.781 171.91 233.531 171.781 233.206 171.781C232.802 171.781 232.511 171.948 232.335 172.282V174.234C232.514 174.576 232.807 174.747 233.214 174.747C233.528 174.747 233.774 174.621 233.95 174.369C234.129 174.114 234.219 173.728 234.219 173.213ZM238.348 171.956C238.217 171.934 238.083 171.924 237.945 171.924C237.492 171.924 237.187 172.097 237.03 172.444V175.455H236.041V171.053H236.985L237.009 171.545C237.248 171.163 237.579 170.972 238.002 170.972C238.143 170.972 238.26 170.991 238.352 171.029L238.348 171.956ZM238.641 173.213C238.641 172.782 238.726 172.394 238.897 172.05C239.068 171.703 239.308 171.437 239.617 171.252C239.926 171.065 240.281 170.972 240.683 170.972C241.277 170.972 241.758 171.163 242.127 171.545C242.498 171.928 242.699 172.435 242.729 173.067L242.733 173.299C242.733 173.733 242.649 174.12 242.481 174.462C242.315 174.804 242.077 175.068 241.765 175.255C241.456 175.443 241.098 175.536 240.691 175.536C240.07 175.536 239.572 175.33 239.198 174.918C238.826 174.503 238.641 173.951 238.641 173.262V173.213ZM239.629 173.299C239.629 173.752 239.723 174.107 239.91 174.364C240.097 174.619 240.357 174.747 240.691 174.747C241.024 174.747 241.283 174.617 241.468 174.356C241.655 174.096 241.749 173.715 241.749 173.213C241.749 172.768 241.652 172.416 241.46 172.155C241.27 171.895 241.011 171.765 240.683 171.765C240.36 171.765 240.104 171.894 239.914 172.151C239.724 172.406 239.629 172.789 239.629 173.299ZM246.199 175.455C246.156 175.371 246.118 175.234 246.085 175.044C245.771 175.372 245.385 175.536 244.93 175.536C244.488 175.536 244.127 175.41 243.848 175.158C243.568 174.906 243.429 174.594 243.429 174.222C243.429 173.753 243.602 173.394 243.949 173.144C244.299 172.892 244.798 172.766 245.446 172.766H246.053V172.477C246.053 172.249 245.989 172.067 245.861 171.932C245.734 171.793 245.54 171.724 245.28 171.724C245.055 171.724 244.87 171.781 244.726 171.895C244.583 172.006 244.511 172.149 244.511 172.322H243.522C243.522 172.081 243.602 171.856 243.762 171.647C243.922 171.435 244.139 171.27 244.413 171.151C244.69 171.031 244.998 170.972 245.337 170.972C245.852 170.972 246.263 171.102 246.569 171.362C246.876 171.62 247.033 171.983 247.041 172.452V174.438C247.041 174.834 247.097 175.15 247.208 175.386V175.455H246.199ZM245.113 174.743C245.308 174.743 245.491 174.695 245.662 174.6C245.836 174.505 245.966 174.378 246.053 174.218V173.388H245.52C245.154 173.388 244.878 173.452 244.694 173.579C244.509 173.707 244.417 173.887 244.417 174.12C244.417 174.31 244.48 174.462 244.604 174.576C244.732 174.687 244.901 174.743 245.113 174.743ZM249.885 174.747C250.132 174.747 250.336 174.675 250.499 174.531C250.662 174.388 250.749 174.21 250.759 173.998H251.691C251.68 174.272 251.595 174.529 251.435 174.767C251.275 175.003 251.058 175.19 250.784 175.329C250.51 175.467 250.214 175.536 249.897 175.536C249.281 175.536 248.793 175.337 248.432 174.938C248.072 174.539 247.891 173.989 247.891 173.286V173.185C247.891 172.515 248.07 171.979 248.428 171.578C248.786 171.174 249.275 170.972 249.893 170.972C250.416 170.972 250.842 171.125 251.17 171.431C251.501 171.735 251.675 172.135 251.691 172.631H250.759C250.749 172.379 250.662 172.172 250.499 172.009C250.339 171.846 250.134 171.765 249.885 171.765C249.565 171.765 249.318 171.882 249.144 172.115C248.971 172.345 248.883 172.697 248.88 173.168V173.327C248.88 173.804 248.965 174.161 249.136 174.397C249.31 174.63 249.559 174.747 249.885 174.747ZM253.412 171.533C253.735 171.159 254.143 170.972 254.636 170.972C255.575 170.972 256.051 171.507 256.064 172.579V175.455H255.076V172.615C255.076 172.311 255.009 172.097 254.876 171.972C254.746 171.845 254.554 171.781 254.299 171.781C253.903 171.781 253.607 171.958 253.412 172.31V175.455H252.423V169.206H253.412V171.533ZM260.38 169.983V171.053H261.157V171.785H260.38V174.242C260.38 174.411 260.413 174.533 260.478 174.609C260.546 174.682 260.665 174.718 260.836 174.718C260.95 174.718 261.065 174.705 261.182 174.678V175.443C260.957 175.505 260.74 175.536 260.531 175.536C259.772 175.536 259.392 175.117 259.392 174.279V171.785H258.668V171.053H259.392V169.983H260.38ZM261.609 173.213C261.609 172.782 261.694 172.394 261.865 172.05C262.036 171.703 262.276 171.437 262.585 171.252C262.894 171.065 263.25 170.972 263.651 170.972C264.245 170.972 264.726 171.163 265.095 171.545C265.467 171.928 265.668 172.435 265.697 173.067L265.701 173.299C265.701 173.733 265.617 174.12 265.449 174.462C265.284 174.804 265.045 175.068 264.733 175.255C264.424 175.443 264.066 175.536 263.659 175.536C263.038 175.536 262.541 175.33 262.166 174.918C261.795 174.503 261.609 173.951 261.609 173.262V173.213ZM262.598 173.299C262.598 173.752 262.691 174.107 262.878 174.364C263.065 174.619 263.326 174.747 263.659 174.747C263.993 174.747 264.252 174.617 264.436 174.356C264.623 174.096 264.717 173.715 264.717 173.213C264.717 172.768 264.621 172.416 264.428 172.155C264.238 171.895 263.979 171.765 263.651 171.765C263.328 171.765 263.072 171.894 262.882 172.151C262.692 172.406 262.598 172.789 262.598 173.299ZM271.079 174.259C271.079 174.082 271.006 173.948 270.86 173.856C270.716 173.764 270.476 173.682 270.14 173.612C269.803 173.541 269.523 173.452 269.298 173.343C268.804 173.105 268.557 172.759 268.557 172.306C268.557 171.926 268.717 171.609 269.037 171.354C269.357 171.099 269.764 170.972 270.258 170.972C270.784 170.972 271.208 171.102 271.531 171.362C271.856 171.623 272.019 171.96 272.019 172.375H271.031C271.031 172.185 270.96 172.028 270.819 171.903C270.678 171.776 270.491 171.712 270.258 171.712C270.041 171.712 269.863 171.762 269.725 171.863C269.589 171.963 269.521 172.097 269.521 172.265C269.521 172.417 269.585 172.535 269.713 172.619C269.84 172.703 270.098 172.789 270.486 172.876C270.873 172.96 271.177 173.061 271.397 173.181C271.619 173.297 271.783 173.438 271.889 173.604C271.997 173.769 272.052 173.97 272.052 174.206C272.052 174.602 271.888 174.923 271.559 175.17C271.231 175.414 270.801 175.536 270.27 175.536C269.909 175.536 269.588 175.471 269.306 175.341C269.024 175.211 268.804 175.032 268.647 174.804C268.489 174.576 268.411 174.331 268.411 174.067H269.371C269.384 174.301 269.473 174.481 269.635 174.609C269.798 174.733 270.014 174.796 270.282 174.796C270.542 174.796 270.74 174.747 270.876 174.649C271.012 174.549 271.079 174.419 271.079 174.259ZM275.583 175.023C275.293 175.365 274.88 175.536 274.346 175.536C273.869 175.536 273.507 175.396 273.26 175.117C273.016 174.838 272.894 174.434 272.894 173.905V171.053H273.882V173.893C273.882 174.451 274.114 174.731 274.578 174.731C275.058 174.731 275.382 174.558 275.55 174.214V171.053H276.539V175.455H275.607L275.583 175.023ZM280.013 174.259C280.013 174.082 279.94 173.948 279.793 173.856C279.65 173.764 279.41 173.682 279.073 173.612C278.737 173.541 278.456 173.452 278.231 173.343C277.738 173.105 277.491 172.759 277.491 172.306C277.491 171.926 277.651 171.609 277.971 171.354C278.291 171.099 278.698 170.972 279.191 170.972C279.717 170.972 280.142 171.102 280.465 171.362C280.79 171.623 280.953 171.96 280.953 172.375H279.964C279.964 172.185 279.894 172.028 279.753 171.903C279.612 171.776 279.424 171.712 279.191 171.712C278.974 171.712 278.797 171.762 278.658 171.863C278.523 171.963 278.455 172.097 278.455 172.265C278.455 172.417 278.519 172.535 278.646 172.619C278.774 172.703 279.031 172.789 279.419 172.876C279.807 172.96 280.111 173.061 280.33 173.181C280.553 173.297 280.717 173.438 280.823 173.604C280.931 173.769 280.985 173.97 280.985 174.206C280.985 174.602 280.821 174.923 280.493 175.17C280.165 175.414 279.735 175.536 279.203 175.536C278.843 175.536 278.521 175.471 278.239 175.341C277.957 175.211 277.738 175.032 277.58 174.804C277.423 174.576 277.344 174.331 277.344 174.067H278.304C278.318 174.301 278.406 174.481 278.569 174.609C278.732 174.733 278.947 174.796 279.216 174.796C279.476 174.796 279.674 174.747 279.81 174.649C279.945 174.549 280.013 174.419 280.013 174.259ZM283.088 169.983V171.053H283.865V171.785H283.088V174.242C283.088 174.411 283.121 174.533 283.186 174.609C283.254 174.682 283.373 174.718 283.544 174.718C283.658 174.718 283.773 174.705 283.89 174.678V175.443C283.665 175.505 283.448 175.536 283.239 175.536C282.48 175.536 282.1 175.117 282.1 174.279V171.785H281.376V171.053H282.1V169.983H283.088ZM287.254 175.455C287.211 175.371 287.173 175.234 287.14 175.044C286.826 175.372 286.441 175.536 285.985 175.536C285.543 175.536 285.182 175.41 284.903 175.158C284.623 174.906 284.484 174.594 284.484 174.222C284.484 173.753 284.657 173.394 285.005 173.144C285.354 172.892 285.853 172.766 286.502 172.766H287.108V172.477C287.108 172.249 287.044 172.067 286.917 171.932C286.789 171.793 286.595 171.724 286.335 171.724C286.11 171.724 285.925 171.781 285.782 171.895C285.638 172.006 285.566 172.149 285.566 172.322H284.577C284.577 172.081 284.657 171.856 284.817 171.647C284.977 171.435 285.194 171.27 285.468 171.151C285.745 171.031 286.053 170.972 286.392 170.972C286.907 170.972 287.318 171.102 287.624 171.362C287.931 171.62 288.088 171.983 288.096 172.452V174.438C288.096 174.834 288.152 175.15 288.263 175.386V175.455H287.254ZM286.168 174.743C286.363 174.743 286.546 174.695 286.717 174.6C286.891 174.505 287.021 174.378 287.108 174.218V173.388H286.575C286.209 173.388 285.933 173.452 285.749 173.579C285.565 173.707 285.472 173.887 285.472 174.12C285.472 174.31 285.535 174.462 285.659 174.576C285.787 174.687 285.956 174.743 286.168 174.743ZM290.183 175.455H289.195V171.053H290.183V175.455ZM289.134 169.91C289.134 169.758 289.181 169.632 289.276 169.532C289.374 169.431 289.512 169.381 289.691 169.381C289.87 169.381 290.008 169.431 290.106 169.532C290.204 169.632 290.252 169.758 290.252 169.91C290.252 170.059 290.204 170.184 290.106 170.284C290.008 170.382 289.87 170.431 289.691 170.431C289.512 170.431 289.374 170.382 289.276 170.284C289.181 170.184 289.134 170.059 289.134 169.91ZM292.181 171.053L292.209 171.562C292.535 171.168 292.962 170.972 293.491 170.972C294.407 170.972 294.874 171.496 294.89 172.546V175.455H293.901V172.603C293.901 172.324 293.84 172.118 293.718 171.985C293.599 171.849 293.402 171.781 293.128 171.781C292.73 171.781 292.433 171.962 292.238 172.322V175.455H291.249V171.053H292.181ZM298.531 175.455C298.487 175.371 298.45 175.234 298.417 175.044C298.102 175.372 297.717 175.536 297.262 175.536C296.82 175.536 296.459 175.41 296.18 175.158C295.9 174.906 295.761 174.594 295.761 174.222C295.761 173.753 295.934 173.394 296.281 173.144C296.631 172.892 297.13 172.766 297.778 172.766H298.384V172.477C298.384 172.249 298.321 172.067 298.193 171.932C298.066 171.793 297.872 171.724 297.611 171.724C297.386 171.724 297.202 171.781 297.058 171.895C296.914 172.006 296.843 172.149 296.843 172.322H295.854C295.854 172.081 295.934 171.856 296.094 171.647C296.254 171.435 296.471 171.27 296.745 171.151C297.022 171.031 297.329 170.972 297.668 170.972C298.184 170.972 298.595 171.102 298.901 171.362C299.208 171.62 299.365 171.983 299.373 172.452V174.438C299.373 174.834 299.429 175.15 299.54 175.386V175.455H298.531ZM297.445 174.743C297.64 174.743 297.823 174.695 297.994 174.6C298.167 174.505 298.298 174.378 298.384 174.218V173.388H297.852C297.485 173.388 297.21 173.452 297.026 173.579C296.841 173.707 296.749 173.887 296.749 174.12C296.749 174.31 296.811 174.462 296.936 174.576C297.064 174.687 297.233 174.743 297.445 174.743ZM304.271 173.299C304.271 173.982 304.118 174.526 303.811 174.93C303.508 175.334 303.088 175.536 302.554 175.536C302.039 175.536 301.638 175.35 301.35 174.979L301.301 175.455H300.406V169.206H301.395V171.476C301.68 171.14 302.063 170.972 302.546 170.972C303.083 170.972 303.505 171.171 303.811 171.57C304.118 171.968 304.271 172.526 304.271 173.242V173.299ZM303.282 173.213C303.282 172.736 303.198 172.378 303.03 172.139C302.862 171.901 302.618 171.781 302.298 171.781C301.869 171.781 301.568 171.968 301.395 172.343V174.157C301.571 174.539 301.875 174.731 302.306 174.731C302.615 174.731 302.854 174.615 303.022 174.385C303.19 174.154 303.277 173.806 303.282 173.339V173.213ZM306.154 175.455H305.166V169.206H306.154V175.455ZM309.173 175.536C308.546 175.536 308.038 175.339 307.647 174.946C307.26 174.55 307.066 174.024 307.066 173.368V173.246C307.066 172.806 307.15 172.414 307.318 172.07C307.489 171.723 307.727 171.453 308.034 171.261C308.34 171.068 308.682 170.972 309.059 170.972C309.658 170.972 310.121 171.163 310.446 171.545C310.774 171.928 310.939 172.469 310.939 173.168V173.567H308.062C308.092 173.931 308.213 174.218 308.424 174.43C308.639 174.641 308.907 174.747 309.23 174.747C309.683 174.747 310.052 174.564 310.336 174.198L310.869 174.706C310.693 174.969 310.457 175.174 310.162 175.32C309.869 175.464 309.539 175.536 309.173 175.536ZM309.055 171.765C308.784 171.765 308.564 171.86 308.396 172.05C308.231 172.24 308.125 172.504 308.079 172.843H309.962V172.77C309.94 172.439 309.852 172.189 309.698 172.021C309.543 171.85 309.329 171.765 309.055 171.765ZM242.558 183.221C242.558 182.543 242.715 182 243.03 181.59C243.345 181.178 243.766 180.972 244.295 180.972C244.762 180.972 245.139 181.134 245.426 181.46V179.206H246.415V185.455H245.52L245.471 184.999C245.175 185.357 244.781 185.536 244.287 185.536C243.772 185.536 243.354 185.329 243.034 184.914C242.717 184.499 242.558 183.935 242.558 183.221ZM243.547 183.307C243.547 183.754 243.632 184.104 243.803 184.356C243.977 184.606 244.222 184.731 244.539 184.731C244.943 184.731 245.239 184.55 245.426 184.19V182.31C245.244 181.958 244.952 181.781 244.547 181.781C244.227 181.781 243.981 181.909 243.807 182.164C243.633 182.416 243.547 182.797 243.547 183.307ZM249.384 185.536C248.758 185.536 248.249 185.339 247.859 184.946C247.471 184.55 247.277 184.024 247.277 183.368V183.246C247.277 182.806 247.361 182.414 247.529 182.07C247.7 181.723 247.939 181.453 248.245 181.261C248.552 181.068 248.894 180.972 249.27 180.972C249.87 180.972 250.332 181.163 250.658 181.545C250.986 181.928 251.15 182.469 251.15 183.168V183.567H248.274C248.304 183.931 248.424 184.218 248.636 184.43C248.85 184.641 249.119 184.747 249.441 184.747C249.894 184.747 250.263 184.564 250.548 184.198L251.081 184.706C250.904 184.969 250.669 185.174 250.373 185.32C250.08 185.464 249.751 185.536 249.384 185.536ZM249.266 181.765C248.995 181.765 248.776 181.86 248.607 182.05C248.442 182.24 248.336 182.504 248.29 182.843H250.174V182.77C250.152 182.439 250.064 182.189 249.909 182.021C249.755 181.85 249.54 181.765 249.266 181.765ZM253.416 184.202L254.347 181.053H255.369L253.843 185.455H252.985L251.447 181.053H252.472L253.416 184.202ZM257.87 185.536C257.244 185.536 256.735 185.339 256.345 184.946C255.957 184.55 255.763 184.024 255.763 183.368V183.246C255.763 182.806 255.847 182.414 256.015 182.07C256.186 181.723 256.425 181.453 256.731 181.261C257.038 181.068 257.38 180.972 257.756 180.972C258.356 180.972 258.818 181.163 259.144 181.545C259.472 181.928 259.636 182.469 259.636 183.168V183.567H256.76C256.79 183.931 256.91 184.218 257.122 184.43C257.336 184.641 257.605 184.747 257.927 184.747C258.38 184.747 258.749 184.564 259.034 184.198L259.567 184.706C259.391 184.969 259.155 185.174 258.859 185.32C258.566 185.464 258.237 185.536 257.87 185.536ZM257.752 181.765C257.481 181.765 257.262 181.86 257.093 182.05C256.928 182.24 256.822 182.504 256.776 182.843H258.66V182.77C258.638 182.439 258.55 182.189 258.395 182.021C258.241 181.85 258.026 181.765 257.752 181.765ZM261.458 185.455H260.47V179.206H261.458V185.455ZM262.353 183.213C262.353 182.782 262.439 182.394 262.61 182.05C262.781 181.703 263.021 181.437 263.33 181.252C263.639 181.065 263.994 180.972 264.396 180.972C264.99 180.972 265.471 181.163 265.84 181.545C266.211 181.928 266.412 182.435 266.442 183.067L266.446 183.299C266.446 183.733 266.362 184.12 266.194 184.462C266.028 184.804 265.79 185.068 265.478 185.255C265.169 185.443 264.811 185.536 264.404 185.536C263.783 185.536 263.285 185.33 262.911 184.918C262.539 184.503 262.353 183.951 262.353 183.262V183.213ZM263.342 183.299C263.342 183.752 263.436 184.107 263.623 184.364C263.81 184.619 264.07 184.747 264.404 184.747C264.737 184.747 264.996 184.617 265.181 184.356C265.368 184.096 265.461 183.715 265.461 183.213C265.461 182.768 265.365 182.416 265.173 182.155C264.983 181.895 264.724 181.765 264.396 181.765C264.073 181.765 263.817 181.894 263.627 182.151C263.437 182.406 263.342 182.789 263.342 183.299ZM271.136 183.299C271.136 183.979 270.982 184.523 270.673 184.93C270.363 185.334 269.949 185.536 269.428 185.536C268.945 185.536 268.559 185.377 268.268 185.06V187.147H267.28V181.053H268.191L268.232 181.501C268.522 181.148 268.917 180.972 269.416 180.972C269.953 180.972 270.373 181.172 270.677 181.574C270.983 181.972 271.136 182.527 271.136 183.238V183.299ZM270.152 183.213C270.152 182.774 270.064 182.425 269.888 182.168C269.714 181.91 269.464 181.781 269.139 181.781C268.735 181.781 268.445 181.948 268.268 182.282V184.234C268.447 184.576 268.74 184.747 269.147 184.747C269.462 184.747 269.707 184.621 269.883 184.369C270.062 184.114 270.152 183.728 270.152 183.213ZM272.906 181.053L272.935 181.513C273.244 181.152 273.667 180.972 274.204 180.972C274.792 180.972 275.195 181.197 275.412 181.647C275.732 181.197 276.182 180.972 276.763 180.972C277.248 180.972 277.609 181.106 277.845 181.374C278.083 181.643 278.205 182.039 278.211 182.562V185.455H277.222V182.591C277.222 182.311 277.161 182.107 277.039 181.977C276.917 181.846 276.715 181.781 276.433 181.781C276.208 181.781 276.024 181.842 275.88 181.964C275.739 182.084 275.64 182.241 275.583 182.436L275.587 185.455H274.598V182.558C274.585 182.04 274.32 181.781 273.805 181.781C273.409 181.781 273.128 181.943 272.963 182.265V185.455H271.974V181.053H272.906ZM281.164 185.536C280.538 185.536 280.029 185.339 279.639 184.946C279.251 184.55 279.057 184.024 279.057 183.368V183.246C279.057 182.806 279.141 182.414 279.309 182.07C279.48 181.723 279.719 181.453 280.025 181.261C280.332 181.068 280.673 180.972 281.05 180.972C281.65 180.972 282.112 181.163 282.438 181.545C282.766 181.928 282.93 182.469 282.93 183.168V183.567H280.054C280.083 183.931 280.204 184.218 280.416 184.43C280.63 184.641 280.898 184.747 281.221 184.747C281.674 184.747 282.043 184.564 282.328 184.198L282.861 184.706C282.684 184.969 282.448 185.174 282.153 185.32C281.86 185.464 281.53 185.536 281.164 185.536ZM281.046 181.765C280.775 181.765 280.555 181.86 280.387 182.05C280.222 182.24 280.116 182.504 280.07 182.843H281.953V182.77C281.932 182.439 281.844 182.189 281.689 182.021C281.534 181.85 281.32 181.765 281.046 181.765ZM284.618 181.053L284.647 181.562C284.972 181.168 285.399 180.972 285.928 180.972C286.845 180.972 287.311 181.496 287.327 182.546V185.455H286.339V182.603C286.339 182.324 286.278 182.118 286.156 181.985C286.036 181.849 285.84 181.781 285.566 181.781C285.167 181.781 284.87 181.962 284.675 182.322V185.455H283.686V181.053H284.618ZM289.577 179.983V181.053H290.354V181.785H289.577V184.242C289.577 184.411 289.61 184.533 289.675 184.609C289.742 184.682 289.862 184.718 290.033 184.718C290.147 184.718 290.262 184.705 290.378 184.678V185.443C290.153 185.505 289.936 185.536 289.728 185.536C288.968 185.536 288.588 185.117 288.588 184.279V181.785H287.864V181.053H288.588V179.983H289.577Z" fill="black"/>
<path d="M361.853 218.456L362.322 218.397L362.029 219.042L361.853 218.456Z" fill="#03695C"/>
<path d="M349.359 219.101L349.301 219.746L348.949 219.159L349.359 219.101Z" fill="#03695C"/>
<path d="M350.122 213.059L349.125 221.154L356.574 230.187L362.439 220.743L360.386 212.297L350.122 213.059Z" fill="#633F21"/>
<path d="M363.495 200.214L371.531 201.974L368.891 210.83L361.149 209.951L363.495 200.214Z" fill="#28170F"/>
<path d="M365.607 202.501L365.196 206.842L364.609 206.959V214.936H346.661L346.192 207.428L345.371 207.252L344.96 202.795L345.899 202.853L345.077 188.952H364.609V202.443L365.607 202.501Z" fill="#754C29"/>
<path d="M349.711 189.715L348.01 184.201L361.032 183.849L359.448 191.533L349.711 189.715Z" fill="#00998A"/>
<path d="M385.256 242.093H328.42L332.877 227.606L348.949 219.159L356.574 228.368L360.152 222.092L362.322 218.397L381.443 228.075L385.256 242.093Z" fill="#00998A"/>
<path d="M350.356 203.85L352.175 203.147L350.356 202.795L348.655 203.323L350.356 203.85Z" fill="white"/>
<path d="M349.77 202.971L349.653 203.674L350.356 203.85L351.06 203.674L350.826 202.912L350.356 202.795L349.77 202.971Z" fill="black"/>
<path d="M360.093 203.85L361.911 203.264L360.152 202.795L358.392 203.205L360.093 203.85Z" fill="white"/>
<path d="M359.565 202.912L359.331 203.616L360.093 203.85L360.738 203.733L360.621 202.912L360.152 202.795L359.565 202.912Z" fill="black"/>
<path d="M353.054 211.124L353.172 212.062H357.512L357.63 211.065L353.054 211.124Z" fill="white"/>
<path d="M354.169 208.367L356.222 208.25" stroke="#3C2415" stroke-width="0.2965" stroke-miterlimit="10" stroke-linecap="round"/>
<path d="M373.525 242.504L373.114 239.806" stroke="white" stroke-width="0.248051" stroke-miterlimit="10"/>
<path d="M338.449 242.504L338.801 239.806" stroke="white" stroke-width="0.248051" stroke-miterlimit="10"/>
<path d="M355.283 184.788H353.934V188.483H355.283V184.788Z" fill="#ED1C24"/>
<path d="M356.456 185.961H352.761V187.31H356.456V185.961Z" fill="#ED1C24"/>
<path d="M370.006 240.51H359.331V242.093H370.006V240.51Z" fill="#058575"/>
<path d="M384.686 246.346C400.056 230.977 400.056 206.057 384.686 190.687C369.316 175.317 344.397 175.317 329.027 190.687C313.657 206.057 313.657 230.977 329.027 246.346C344.397 261.716 369.316 261.716 384.686 246.346Z" stroke="black" stroke-width="0.293274" stroke-miterlimit="10"/>
<path d="M360.797 191.474L345.957 203.968L345.136 189.011L364.609 188.952L364.668 203.851L360.797 191.474Z" fill="#3C2415"/>
<path d="M253.928 30.2913L255.57 58.9734L275.102 60.7917L275.396 30.2913H253.928Z" fill="#754C29"/>
<path d="M259.383 56.8619L258.327 65.7775L266.539 75.7488L273.049 65.3082L270.703 55.9821L259.383 56.8619Z" fill="#754C29"/>
<path d="M298.154 88.8874H239.558L240.437 72.8746L258.092 63.6072L266.539 73.6958L270.527 66.8332L272.873 62.7274L292.699 69.0621L298.154 88.8874Z" fill="#F9ED32"/>
<path d="M263.723 32.5788L254.221 46.5386L253.928 30.2913H275.396L275.748 46.1867L263.723 32.5788Z" fill="#3C2415"/>
<path d="M292.699 69.0621L277.507 59.0322L276.627 29.4702L264.193 27.7106L252.344 30.6433L252.931 60.7918L239.03 71.4083L239.323 80.2652L246.127 88.8288H271.994L294.283 83.2566L292.699 69.0621ZM274.516 59.6187L255.57 58.9149L255.336 31.8164L274.223 31.5231L274.516 59.6187Z" fill="#F26522"/>
<path d="M259.676 46.4214L261.436 45.8936L259.676 45.483L257.975 45.8349L259.676 46.4214Z" fill="white"/>
<path d="M259.148 45.5416L258.914 46.2455L259.676 46.4214L260.321 46.3041L260.146 45.5416L259.676 45.483L259.148 45.5416Z" fill="black"/>
<path d="M269.765 46.3627L271.525 45.8348L269.765 45.3655L268.064 45.7761L269.765 46.3627Z" fill="white"/>
<path d="M269.178 45.4828L269.002 46.128L269.765 46.3627L270.41 46.2454L270.234 45.4828L269.765 45.3655L269.178 45.4828Z" fill="black"/>
<path d="M263.841 51.6417H265.952" stroke="#3C2415" stroke-width="0.2965" stroke-miterlimit="10" stroke-linecap="round"/>
<path d="M262.55 54.3398L263.489 56.8619L266.891 56.8033L267.653 54.2811L262.55 54.3398Z" fill="white"/>
<path d="M267.301 106.015C289.75 106.015 307.949 87.8159 307.949 65.3668C307.949 42.9177 289.75 24.7191 267.301 24.7191C244.852 24.7191 226.654 42.9177 226.654 65.3668C226.654 87.8159 244.852 106.015 267.301 106.015Z" stroke="black" stroke-width="0.293274" stroke-miterlimit="10"/>
<path d="M177.56 114.344L182.942 111.704L183.425 117.57" stroke="black" stroke-width="1.17309" stroke-miterlimit="10"/>
<path d="M216.272 257.402L210.465 257.989L213.515 263.385" stroke="black" stroke-width="1.17309" stroke-miterlimit="10"/>
<path d="M355.401 141.853L360.445 145.9L361.618 139.741" stroke="black" stroke-width="1.17309" stroke-miterlimit="10"/>
<path d="M218.16 246.61C218.555 246.807 219.049 247.054 219.493 247.351C220.382 247.943 220.876 248.536 221.024 249.177C221.172 249.819 221.073 250.56 220.58 251.301C220.086 252.091 219.444 252.535 218.703 252.683C217.963 252.831 217.074 252.584 216.185 251.992C215.741 251.696 215.395 251.449 215.099 251.202L218.16 246.61ZM216.037 251.153C216.185 251.301 216.382 251.449 216.629 251.597C217.913 252.436 219.098 252.189 219.938 250.906C220.678 249.819 220.481 248.684 219.197 247.844C218.901 247.647 218.604 247.499 218.456 247.449L216.037 251.153Z" fill="black"/>
<path d="M221.567 253.226L220.184 254.461L219.543 254.066L223.987 250.116L224.727 250.56L223.641 256.387L222.95 255.992L223.295 254.165L221.567 253.226ZM223.443 253.621L223.789 251.943C223.838 251.548 223.937 251.251 224.036 250.906C223.789 251.153 223.542 251.399 223.295 251.646L222.011 252.782L223.443 253.621Z" fill="black"/>
<path d="M227.147 252.584L225.616 251.794L225.912 251.251L229.616 253.128L229.319 253.671L227.789 252.881L225.517 257.325L224.875 256.979L227.147 252.584Z" fill="black"/>
<path d="M228.776 256.979L227.492 258.362L226.801 258.065L230.85 253.72L231.64 254.066L231.047 259.991L230.356 259.695L230.554 257.818L228.776 256.979ZM230.652 257.226L230.801 255.547C230.85 255.152 230.899 254.806 230.949 254.51C230.751 254.757 230.504 255.053 230.257 255.3L229.072 256.535L230.652 257.226Z" fill="black"/>
<path d="M235.64 255.843C236.084 255.942 236.578 256.041 237.121 256.238C238.108 256.584 238.701 257.078 239.047 257.67C239.343 258.263 239.442 259.003 239.096 259.843C238.8 260.682 238.257 261.324 237.615 261.62C236.923 261.917 236.035 261.917 234.998 261.522C234.504 261.324 234.109 261.176 233.763 261.028L235.64 255.843ZM234.652 260.781C234.8 260.88 235.047 260.979 235.343 261.077C236.825 261.62 237.911 261.077 238.405 259.645C238.849 258.411 238.454 257.374 236.973 256.831C236.627 256.683 236.331 256.633 236.133 256.633L234.652 260.781Z" fill="black"/>
<path d="M240.775 257.621C241.17 257.67 241.664 257.769 242.157 257.917C242.898 258.115 243.342 258.411 243.589 258.806C243.787 259.102 243.836 259.547 243.737 259.942C243.54 260.633 242.947 260.979 242.305 261.028C242.7 261.275 242.799 261.769 242.799 262.361C242.75 263.151 242.75 263.744 242.799 263.941L242.059 263.744C242.009 263.546 242.009 263.052 242.059 262.361C242.108 261.571 241.91 261.225 241.269 260.979L240.627 260.781L239.935 263.102L239.244 262.904L240.775 257.621ZM240.725 260.287L241.417 260.485C242.157 260.682 242.75 260.435 242.947 259.794C243.145 259.102 242.75 258.658 242.009 258.411C241.664 258.312 241.417 258.263 241.318 258.263L240.725 260.287Z" fill="black"/>
<path d="M245.713 258.905L244.33 264.336L243.639 264.139L245.021 258.707L245.713 258.905Z" fill="black"/>
<path d="M246.947 264.978L246.305 259.102L247.095 259.25L247.391 262.164C247.49 262.954 247.539 263.645 247.539 264.336C247.836 263.744 248.181 263.102 248.576 262.411L250.058 259.892L250.798 260.04L247.688 265.126L246.947 264.978Z" fill="black"/>
<path d="M253.761 263.447L251.588 263.102L251.292 265.126L253.712 265.472L253.613 266.064L250.502 265.62L251.341 260.04L254.353 260.485L254.255 261.077L251.983 260.732L251.736 262.509L253.909 262.855L253.761 263.447Z" fill="black"/>
<path d="M254.749 266.262L255.242 260.682L256.032 260.732L257.563 263.694C257.909 264.386 258.205 265.028 258.402 265.62C258.402 264.879 258.452 264.188 258.501 263.299L258.699 260.979L259.39 261.028L258.896 266.608L258.156 266.558L256.625 263.546C256.279 262.904 255.983 262.213 255.736 261.571H255.687C255.687 262.262 255.637 262.954 255.539 263.892L255.341 266.262H254.749Z" fill="black"/>
<path d="M263.241 264.978L262.649 266.756H261.908L263.785 261.127H264.673L266.648 266.706H265.858L265.266 264.929L263.241 264.978ZM265.068 264.386L264.525 262.756C264.377 262.41 264.328 262.065 264.229 261.719C264.13 262.065 264.081 262.41 263.933 262.756L263.39 264.386H265.068Z" fill="black"/>
<path d="M267.29 261.077C267.636 260.979 268.08 260.929 268.673 260.88C269.364 260.83 269.907 260.979 270.302 261.225C270.648 261.472 270.845 261.867 270.895 262.361C270.944 262.855 270.796 263.299 270.549 263.596C270.204 264.04 269.611 264.287 268.87 264.336C268.673 264.336 268.475 264.336 268.278 264.336L268.426 266.558L267.685 266.608L267.29 261.077ZM268.179 263.744C268.327 263.793 268.525 263.793 268.772 263.744C269.66 263.694 270.154 263.201 270.105 262.46C270.055 261.719 269.512 261.423 268.722 261.472C268.426 261.472 268.179 261.522 268.031 261.571L268.179 263.744Z" fill="black"/>
<path d="M271.537 260.732C271.882 260.633 272.327 260.534 272.919 260.435C273.611 260.337 274.154 260.435 274.549 260.682C274.894 260.929 275.141 261.275 275.191 261.769C275.24 262.262 275.141 262.707 274.944 263.003C274.598 263.447 274.006 263.744 273.314 263.842C273.117 263.892 272.919 263.892 272.722 263.892L273.018 266.114L272.277 266.213L271.537 260.732ZM272.623 263.349C272.771 263.349 272.969 263.349 273.216 263.349C274.104 263.25 274.549 262.756 274.45 261.966C274.351 261.225 273.759 260.929 272.969 261.028C272.672 261.077 272.426 261.127 272.277 261.176L272.623 263.349Z" fill="black"/>
<path d="M275.833 260.139C276.178 259.991 276.672 259.843 277.166 259.744C277.906 259.596 278.45 259.645 278.845 259.892C279.19 260.09 279.388 260.435 279.486 260.88C279.635 261.62 279.24 262.164 278.696 262.509C279.141 262.559 279.486 262.904 279.733 263.447C280.079 264.188 280.277 264.682 280.474 264.879L279.733 265.027C279.635 264.879 279.388 264.435 279.091 263.793C278.795 263.052 278.45 262.855 277.758 262.954L277.067 263.102L277.511 265.472L276.82 265.62L275.833 260.139ZM277.018 262.509L277.758 262.361C278.499 262.213 278.943 261.719 278.795 261.077C278.647 260.386 278.104 260.139 277.314 260.287C276.968 260.337 276.721 260.435 276.623 260.485L277.018 262.509Z" fill="black"/>
<path d="M285.461 260.633C285.955 262.509 285.066 263.793 283.684 264.139C282.252 264.534 280.968 263.694 280.523 262.015C280.079 260.287 280.82 258.855 282.301 258.51C283.782 258.164 285.017 259.053 285.461 260.633ZM281.264 261.867C281.56 263.052 282.499 263.892 283.585 263.595C284.721 263.299 285.066 262.114 284.721 260.88C284.424 259.793 283.585 258.806 282.4 259.152C281.215 259.448 280.918 260.682 281.264 261.867Z" fill="black"/>
<path d="M287.486 261.127V263.003L286.794 263.25V257.325L287.634 257.028L291.238 261.719L290.498 261.966L289.362 260.485L287.486 261.127ZM289.066 259.991L288.029 258.658C287.782 258.362 287.584 258.065 287.436 257.769C287.486 258.115 287.486 258.46 287.486 258.806V260.534L289.066 259.991Z" fill="black"/>
<path d="M295.682 259.744C295.485 259.991 295.04 260.287 294.398 260.534C292.917 261.127 291.436 260.633 290.744 258.954C290.103 257.325 290.744 255.794 292.374 255.103C293.016 254.856 293.51 254.806 293.707 254.856L293.756 255.448C293.46 255.448 293.065 255.498 292.621 255.646C291.386 256.14 290.893 257.226 291.436 258.608C291.93 259.892 293.016 260.386 294.3 259.892C294.695 259.744 295.09 259.448 295.287 259.25L295.682 259.744Z" fill="black"/>
<path d="M294.991 254.066L295.979 256.189L298.447 255.004L297.46 252.881L298.102 252.584L300.521 257.67L299.879 257.967L298.744 255.596L296.275 256.782L297.41 259.152L296.769 259.448L294.349 254.362L294.991 254.066Z" fill="black"/>
<path d="M301.608 251.449L300.126 252.288L299.83 251.745L303.484 249.721L303.78 250.264L302.299 251.103L304.718 255.448L304.076 255.794L301.608 251.449Z" fill="black"/>
<path d="M309.261 249.326C310.298 250.955 309.804 252.486 308.619 253.226C307.335 254.016 305.854 253.572 304.965 252.14C304.027 250.609 304.323 249.029 305.607 248.239C306.891 247.449 308.372 247.943 309.261 249.326ZM305.607 251.745C306.249 252.782 307.385 253.325 308.323 252.733C309.31 252.14 309.31 250.906 308.619 249.819C308.027 248.881 306.94 248.19 305.903 248.832C304.866 249.424 304.916 250.659 305.607 251.745Z" fill="black"/>
<path d="M224.483 275.447C224.184 275.447 223.635 275.297 223.036 274.948C221.639 274.15 221.091 272.703 221.989 271.056C222.837 269.509 224.483 269.06 226.03 269.908C226.629 270.258 226.978 270.607 227.078 270.807L226.629 271.256C226.429 271.006 226.18 270.707 225.731 270.507C224.583 269.859 223.386 270.158 222.637 271.455C221.939 272.653 222.238 273.85 223.436 274.499C223.835 274.698 224.284 274.848 224.583 274.898L224.483 275.447Z" fill="black"/>
<path d="M230.87 275.547C230.022 277.293 228.525 277.742 227.178 277.093C225.831 276.445 225.382 274.948 226.13 273.401C226.928 271.755 228.425 271.206 229.822 271.854C231.169 272.553 231.569 274.05 230.87 275.547ZM226.829 273.75C226.28 274.848 226.429 276.095 227.477 276.594C228.525 277.093 229.573 276.445 230.122 275.247C230.621 274.249 230.571 272.902 229.473 272.403C228.425 271.854 227.377 272.603 226.829 273.75Z" fill="black"/>
<path d="M236.059 278.091C236.309 277.343 236.608 276.445 236.907 275.796C236.458 276.345 236.009 276.894 235.46 277.542L233.514 279.738L233.015 279.538L233.165 276.694C233.215 275.846 233.265 275.097 233.365 274.399C233.065 275.048 232.716 275.896 232.317 276.694L231.269 278.889L230.62 278.64L233.065 273.501L233.914 273.85L233.814 276.744C233.764 277.492 233.714 278.141 233.664 278.74C234.013 278.241 234.413 277.742 234.911 277.193L236.857 274.998L237.706 275.347L235.959 280.736L235.311 280.486L236.059 278.091Z" fill="black"/>
<path d="M242.595 280.237C242.795 279.488 243.044 278.54 243.244 277.892C242.845 278.49 242.446 279.089 241.897 279.738L240.101 282.083L239.552 281.933L239.502 279.089C239.502 278.241 239.502 277.492 239.552 276.794C239.302 277.443 239.003 278.341 238.703 279.139L237.855 281.434L237.207 281.235L239.252 275.946L240.15 276.245L240.25 279.139C240.25 279.887 240.25 280.536 240.25 281.135C240.55 280.636 240.949 280.087 241.398 279.488L243.194 277.143L244.092 277.443L242.745 282.981L242.046 282.781L242.595 280.237Z" fill="black"/>
<path d="M245.988 277.842L245.24 281.135C244.94 282.382 245.389 283.031 246.138 283.18C246.936 283.38 247.585 282.931 247.884 281.733L248.633 278.44L249.331 278.59L248.583 281.833C248.184 283.53 247.136 284.029 245.938 283.729C244.791 283.48 244.092 282.632 244.491 280.885L245.24 277.642L245.988 277.842Z" fill="black"/>
<path d="M249.531 284.478L250.479 278.84L251.277 278.989L252.624 282.133C252.924 282.881 253.173 283.48 253.323 284.128C253.373 283.38 253.473 282.681 253.622 281.833L254.021 279.488L254.72 279.588L253.772 285.176L253.023 285.076L251.726 281.933C251.427 281.235 251.177 280.536 250.978 279.887H250.928C250.828 280.586 250.778 281.284 250.629 282.232L250.229 284.627L249.531 284.478Z" fill="black"/>
<path d="M256.566 279.788L255.917 285.426L255.169 285.326L255.818 279.688L256.566 279.788Z" fill="black"/>
<path d="M258.811 280.586L257.065 280.436L257.115 279.837L261.306 280.137L261.256 280.736L259.51 280.586L259.111 285.625L258.362 285.575L258.811 280.586Z" fill="black"/>
<path d="M263.202 285.925L263.252 283.53L261.506 280.237H262.354L263.102 281.833C263.302 282.282 263.452 282.632 263.651 283.031C263.801 282.682 264 282.282 264.25 281.883L265.098 280.336H265.946L264 283.58L263.951 285.975L263.202 285.925Z" fill="black"/>
<path d="M269.289 285.825L267.393 280.286L268.142 280.237L269.04 283.031C269.239 283.729 269.489 284.428 269.638 284.977C269.688 284.428 269.788 283.729 269.938 282.981L270.487 280.087L271.235 280.037L272.133 282.881C272.333 283.53 272.532 284.178 272.682 284.777C272.732 284.128 272.882 283.48 272.981 282.781L273.48 279.887L274.229 279.837L273.081 285.625L272.333 285.675L271.385 282.781C271.135 282.083 270.986 281.534 270.886 280.985C270.836 281.534 270.736 282.133 270.586 282.881L269.988 285.875L269.289 285.825Z" fill="black"/>
<path d="M278.22 282.133L276.025 282.482L276.324 284.528L278.769 284.129L278.869 284.727L275.726 285.226L274.877 279.638L277.921 279.189L278.021 279.788L275.726 280.137L276.025 281.933L278.22 281.584V282.133Z" fill="black"/>
<path d="M278.819 278.939L279.518 278.79L280.566 283.729L282.961 283.23L283.11 283.829L280.017 284.478L278.819 278.939Z" fill="black"/>
<path d="M282.561 278.141L283.26 277.942L284.557 282.831L286.902 282.232L287.052 282.831L284.008 283.63L282.561 278.141Z" fill="black"/>
<path d="M288.1 282.532L286.303 277.143L287.052 276.894L289.696 279.039C290.295 279.538 290.794 279.987 291.243 280.486C290.944 279.788 290.694 279.139 290.445 278.291L289.696 276.045L290.345 275.846L292.141 281.235L291.443 281.484L288.798 279.339C288.2 278.84 287.651 278.391 287.202 277.892C287.451 278.54 287.701 279.189 288 280.087L288.748 282.382L288.1 282.532Z" fill="black"/>
<path d="M295.285 277.043L293.239 277.842L293.987 279.738L296.282 278.84L296.532 279.388L293.588 280.586L291.493 275.297L294.337 274.149L294.586 274.698L292.441 275.546L293.089 277.193L295.135 276.395L295.285 277.043Z" fill="black"/>
<path d="M297.081 278.241C297.48 278.291 297.979 278.241 298.428 278.041C299.127 277.742 299.326 277.193 299.077 276.644C298.877 276.145 298.428 275.996 297.63 276.045C296.632 276.145 295.933 275.946 295.584 275.197C295.235 274.399 295.584 273.501 296.582 273.052C297.131 272.802 297.53 272.752 297.829 272.802L297.879 273.451C297.68 273.451 297.231 273.451 296.781 273.65C296.083 274 295.983 274.499 296.183 274.848C296.382 275.347 296.831 275.397 297.68 275.347C298.727 275.297 299.326 275.497 299.675 276.245C300.025 277.043 299.775 277.991 298.578 278.54C298.079 278.79 297.48 278.889 297.131 278.84L297.081 278.241Z" fill="black"/>
<path d="M300.923 276.395C301.322 276.445 301.821 276.345 302.27 276.095C302.919 275.746 303.118 275.197 302.869 274.698C302.619 274.249 302.22 274.1 301.422 274.199C300.424 274.349 299.725 274.199 299.326 273.451C298.927 272.653 299.276 271.754 300.224 271.256C300.723 271.006 301.172 270.906 301.472 270.906L301.571 271.555C301.372 271.555 300.923 271.555 300.474 271.804C299.775 272.154 299.725 272.702 299.925 273.052C300.174 273.501 300.573 273.601 301.422 273.501C302.42 273.401 303.068 273.551 303.467 274.299C303.867 275.097 303.667 276.045 302.469 276.644C301.971 276.894 301.372 277.043 301.023 276.993L300.923 276.395Z" fill="black"/>
<path d="M368.773 151.794L371.906 151.528C373.074 151.428 373.561 150.838 373.491 150.137C373.425 149.342 372.88 148.904 371.712 149.004L368.579 149.27L368.51 148.569L371.596 148.301C373.232 148.17 373.951 148.94 374.052 150.109C374.155 151.185 373.613 152.052 371.977 152.183L368.844 152.449L368.773 151.794Z" fill="black"/>
<path d="M373.607 146.738L368.359 147.538L368.244 146.789L370.645 144.726C371.221 144.233 371.699 143.876 372.224 143.521C371.519 143.683 370.909 143.803 370.067 143.914L367.864 144.258L367.746 143.602L372.995 142.801L373.11 143.504L370.71 145.567C370.182 146.015 369.654 146.464 369.129 146.819C369.785 146.701 370.396 146.582 371.287 146.426L373.536 146.083L373.607 146.738Z" fill="black"/>
<path d="M367.388 141.818L372.595 140.83L372.713 141.486L367.505 142.475L367.388 141.818Z" fill="black"/>
<path d="M367.557 139.586L367.923 141.137L367.36 141.258L366.464 137.452L367.027 137.331L367.392 138.928L371.997 137.873L372.161 138.531L367.557 139.586Z" fill="black"/>
<path d="M366.129 136.322L371.257 134.957L371.421 135.616L366.293 136.98L366.129 136.322Z" fill="black"/>
<path d="M367.681 131.806L368.313 133.785L370.149 133.242L369.479 131.028L370.044 130.861L370.927 133.688L365.84 135.24L365 132.508L365.565 132.34L366.194 134.413L367.796 133.908L367.164 131.928L367.681 131.806Z" fill="black"/>
<path d="M368.9 130.216C368.96 129.845 368.976 129.379 368.804 128.954C368.546 128.293 368.089 128.044 367.57 128.213C367.098 128.383 366.946 128.751 366.921 129.496C366.935 130.429 366.681 131.073 365.973 131.328C365.217 131.629 364.393 131.181 364.053 130.191C363.885 129.673 363.852 129.252 363.907 129.021L364.514 128.995C364.507 129.181 364.446 129.598 364.618 130.024C364.876 130.685 365.385 130.796 365.715 130.667C366.187 130.497 366.293 130.127 366.32 129.336C366.353 128.358 366.605 127.807 367.313 127.551C368.069 127.251 368.942 127.607 369.369 128.787C369.539 129.259 369.613 129.82 369.507 130.19L368.9 130.216Z" fill="black"/>
<path d="M362.73 126.604L361.56 124L362.08 123.785L362.991 125.773L364.601 125.036L363.778 123.19L364.298 122.974L365.121 124.82L367.3 123.822L367.605 124.438L362.73 126.604Z" fill="black"/>
<path d="M361.343 118.026C362.958 117.149 364.337 117.708 364.95 118.894C365.607 120.129 365.094 121.51 363.67 122.254C362.198 123.043 360.721 122.62 360.064 121.385C359.455 120.106 359.966 118.772 361.343 118.026ZM363.365 121.637C364.362 121.112 364.955 120.106 364.475 119.158C363.948 118.208 362.785 118.122 361.74 118.692C360.792 119.173 360.105 120.175 360.629 121.218C361.156 122.168 362.322 122.161 363.365 121.637Z" fill="black"/>
<path d="M358.715 118.543C358.49 118.302 358.179 117.872 357.912 117.49C357.514 116.87 357.39 116.4 357.452 115.936C357.511 115.565 357.755 115.247 358.087 115.072C358.659 114.718 359.307 114.834 359.76 115.222C359.682 114.8 359.835 114.385 360.269 113.981C360.8 113.439 361.185 113.079 361.286 112.85L361.638 113.468C361.54 113.604 361.248 113.967 360.767 114.417C360.236 114.958 360.13 115.328 360.438 115.851L360.792 116.422L362.743 115.23L363.097 115.801L358.715 118.543ZM360.41 116.689L360.056 116.118C359.658 115.498 359.105 115.293 358.581 115.648C358.009 116.002 357.989 116.607 358.387 117.226C358.564 117.512 358.697 117.703 358.789 117.753L360.41 116.689Z" fill="black"/>
<path d="M357.451 107.732C357.679 107.879 358.089 108.173 358.49 108.699C359.382 109.895 359.285 111.383 357.898 112.408C356.56 113.388 354.981 113.195 354.001 111.856C353.6 111.33 353.474 110.906 353.434 110.718L354.001 110.505C354.038 110.785 354.211 111.164 354.48 111.5C355.238 112.504 356.351 112.682 357.452 111.834C358.503 111.077 358.727 109.966 357.924 108.913C357.655 108.578 357.339 108.287 357.064 108.138L357.451 107.732Z" fill="black"/>
<path d="M352.441 109.752L354.121 108.318L352.462 106.397L350.782 107.831L350.334 107.303L354.366 103.851L354.815 104.379L352.942 105.994L354.601 107.915L356.474 106.3L356.922 106.828L352.889 110.28L352.441 109.752Z" fill="black"/>
<path d="M352.747 102.118L349.977 106.825L349.481 106.342L350.913 103.967C351.26 103.373 351.604 102.825 351.9 102.369C351.469 102.681 350.898 103.034 350.28 103.386L347.901 104.797L347.405 104.314L348.838 101.939C349.183 101.391 349.527 100.843 349.869 100.389C349.391 100.745 348.868 101.054 348.296 101.407L345.918 102.818L345.421 102.335L350.222 99.6082L350.718 100.091L349.284 102.513C348.938 103.107 348.643 103.563 348.302 103.971C348.733 103.66 349.208 103.396 349.826 103.044L352.299 101.59L352.747 102.118Z" fill="black"/>
<path d="M344.056 101.357C344.629 100.957 345.435 100.564 345.859 100.439L346.223 100.684C345.796 100.903 345.08 101.391 344.649 101.75L344.056 101.357Z" fill="black"/>
<path d="M346.519 97.4779C346.39 97.1473 346.171 96.7203 345.762 96.4267C345.217 95.9887 344.657 96.0162 344.317 96.4242C344.025 96.7872 344.057 97.2079 344.407 97.8724C344.894 98.6347 345.01 99.3379 344.571 99.929C344.036 100.563 343.149 100.626 342.333 99.9462C341.925 99.606 341.703 99.2722 341.573 98.9881L342.049 98.678C342.136 98.8674 342.311 99.1996 342.674 99.4916C343.219 99.9297 343.736 99.8074 343.933 99.4878C344.225 99.1248 344.146 98.7026 343.749 98.0365C343.266 97.181 343.193 96.5725 343.679 95.983C344.213 95.3486 345.104 95.1924 346.104 95.9722C346.511 96.3123 346.823 96.7424 346.952 97.0731L346.519 97.4779Z" fill="black"/>
<path d="M347.707 172.163L353.152 172.468L353.118 173.185L347.673 172.879L347.707 172.163Z" fill="black"/>
<path d="M353.218 171.083L347.762 171.016L347.75 170.249L350.514 168.513C351.155 168.112 351.744 167.805 352.284 167.543C351.562 167.604 350.891 167.621 350.031 167.58L347.733 167.567L347.717 166.896L353.173 166.962L353.187 167.681L350.425 169.37C349.834 169.725 349.192 170.126 348.605 170.386L348.603 170.433C349.274 170.417 349.946 170.401 350.856 170.396L353.201 170.411L353.218 171.083Z" fill="black"/>
<path d="M352.846 161.727C352.978 161.972 353.144 162.507 353.163 163.131C353.234 164.666 352.315 165.868 350.538 165.975C348.859 166.04 347.616 164.975 347.552 163.296C347.536 162.625 347.652 162.199 347.708 162.011L348.277 162.133C348.168 162.415 348.102 162.795 348.13 163.228C348.212 164.525 349.036 165.33 350.476 165.254C351.821 165.174 352.624 164.398 352.544 163.053C352.516 162.621 352.393 162.184 352.261 161.939L352.846 161.727Z" fill="black"/>
<path d="M347.601 161.239C347.474 160.898 347.403 160.368 347.33 159.886C347.271 159.117 347.341 158.641 347.598 158.27C347.803 157.993 348.148 157.769 348.581 157.742C349.302 157.68 349.809 158.087 350.071 158.627L350.119 158.629C350.235 158.203 350.585 157.885 351.12 157.718C351.85 157.466 352.385 157.299 352.583 157.165L352.644 157.886C352.496 157.975 352.057 158.146 351.375 158.401C350.645 158.654 350.39 158.977 350.456 159.602L350.52 160.276L352.877 160.052L352.939 160.773L347.601 161.239ZM349.992 160.299L349.931 159.578C349.871 158.809 349.411 158.404 348.786 158.47C348.064 158.532 347.846 159.096 347.908 159.817C347.94 160.154 347.976 160.395 348.067 160.495L349.992 160.299Z" fill="black"/>
<path d="M349.485 153.81L349.818 155.885L351.747 155.593L351.378 153.277L351.956 153.209L352.434 156.248L347.031 157.094L346.593 154.2L347.171 154.132L347.497 156.35L349.185 156.095L348.852 154.02L349.485 153.81Z" fill="black"/>
<path d="M349.926 151.58L351.737 151.762L351.894 152.487L346.181 151.786L346.028 150.965L351.003 148.04L351.16 148.765L349.584 149.696L349.926 151.58ZM348.997 149.956L347.568 150.798C347.225 150.974 346.929 151.151 346.635 151.281C346.97 151.297 347.304 151.313 347.639 151.328L349.304 151.551L348.997 149.956Z" fill="black"/>
<path d="M349.883 147.412C349.997 147.034 350.019 146.556 349.896 146.12C349.689 145.439 349.225 145.13 348.693 145.249C348.208 145.369 347.999 145.742 347.915 146.505C347.822 147.458 347.551 148.116 346.778 148.271C345.954 148.471 345.165 147.955 344.878 146.936C344.711 146.401 344.732 145.971 344.841 145.689L345.462 145.718C345.405 145.907 345.339 146.287 345.46 146.772C345.665 147.5 346.136 147.666 346.525 147.54C347.01 147.42 347.171 147.044 347.257 146.234C347.352 145.233 347.666 144.673 348.442 144.47C349.266 144.27 350.11 144.645 350.433 145.905C350.554 146.39 350.573 147.013 350.461 147.343L349.883 147.412Z" fill="black"/>
<path d="M346.3 141.161L346.972 143.156L348.819 142.573L348.111 140.337L348.693 140.173L349.609 143.089L344.406 144.759L343.486 141.938L344.068 141.774L344.733 143.912L346.387 143.368L345.715 141.373L346.3 141.161Z" fill="black"/>
<path d="M343.287 141.066C343.067 140.673 342.848 140.232 342.634 139.695C342.247 138.766 342.235 138 342.456 137.388C342.676 136.776 343.179 136.273 344.007 135.976C344.837 135.633 345.602 135.669 346.26 135.939C346.917 136.21 347.459 136.906 347.844 137.882C348.012 138.369 348.138 138.758 348.265 139.099L343.287 141.066ZM347.521 138.633C347.482 138.439 347.398 138.196 347.314 137.953C346.758 136.538 345.677 136.103 344.312 136.613C343.093 137.083 342.615 138.066 343.173 139.433C343.301 139.774 343.433 140.02 343.522 140.168L347.521 138.633Z" fill="black"/>
<path d="M340.045 133.682L339.74 133.045L343.023 131.476C344.344 130.868 345.043 131.284 345.435 132.117C345.567 132.363 345.649 132.654 345.64 132.845L345.057 133.009C345.064 132.866 344.98 132.622 344.893 132.427C344.634 131.84 344.213 131.628 343.232 132.109L340.045 133.682Z" fill="black"/>
<path d="M339.367 126.754C340.991 125.825 342.402 126.371 343.112 127.554C343.818 128.832 343.32 130.245 341.894 131.04C340.37 131.878 338.854 131.519 338.149 130.24C337.397 128.912 337.941 127.549 339.367 126.754ZM341.493 130.398C342.526 129.825 343.104 128.751 342.573 127.816C342.045 126.833 340.85 126.776 339.768 127.396C338.833 127.926 338.114 128.946 338.688 129.978C339.216 130.961 340.46 130.972 341.493 130.398Z" fill="black"/>
<path d="M336.657 127.344C336.428 127.142 336.111 126.744 335.843 126.348C335.44 125.754 335.317 125.317 335.337 124.887C335.353 124.553 335.56 124.228 335.905 124.004C336.349 123.738 336.922 123.765 337.432 124.125C337.264 123.638 337.3 122.873 337.944 122.425C338.339 122.156 338.724 122.126 339.104 122.192C339.625 122.313 340.082 122.765 340.574 123.507C340.843 123.903 341.018 124.246 341.105 124.442L336.657 127.344ZM338.131 125.546L337.774 125.003C337.373 124.361 336.804 124.239 336.361 124.505C335.817 124.862 335.888 125.392 336.291 125.986C336.47 126.234 336.607 126.384 336.65 126.482L338.131 125.546ZM340.354 124.119C340.313 123.973 340.176 123.823 340.042 123.625C339.639 123.032 339.036 122.62 338.394 123.021C337.753 123.421 337.862 124.145 338.263 124.786L338.575 125.28L340.354 124.119Z" fill="black"/>
<path d="M332.493 117.187C333.937 116.01 335.457 116.273 336.315 117.367C337.219 118.512 336.957 119.984 335.663 121.024C334.319 122.11 332.747 121.94 331.841 120.843C330.939 119.651 331.198 118.227 332.493 117.187ZM335.162 120.473C336.059 119.75 336.495 118.621 335.819 117.727C335.143 116.833 333.937 117.016 332.943 117.783C332.097 118.461 331.565 119.585 332.287 120.529C333.058 121.428 334.266 121.197 335.162 120.473Z" fill="black"/>
<path d="M329.904 118.261C329.626 118.057 329.305 117.754 328.941 117.354C328.486 116.854 328.269 116.364 328.242 115.932C328.212 115.548 328.424 115.127 328.774 114.808C329.124 114.489 329.516 114.316 329.898 114.334C330.423 114.359 330.983 114.673 331.438 115.173C331.575 115.324 331.712 115.474 331.8 115.622L333.402 114.165L333.857 114.665L329.904 118.261ZM331.4 115.986C331.311 115.838 331.222 115.69 331.038 115.538C330.446 114.887 329.827 114.81 329.277 115.311C328.727 115.811 328.843 116.392 329.341 116.99C329.569 117.24 329.705 117.39 329.846 117.445L331.4 115.986Z" fill="black"/>
<path d="M327.081 115.159C326.804 114.954 326.433 114.697 326.021 114.295C325.518 113.792 325.251 113.349 325.224 112.916C325.194 112.532 325.358 112.109 325.66 111.788C326.013 111.421 326.404 111.248 326.787 111.266C327.314 111.243 327.924 111.512 328.379 112.012C328.516 112.162 328.653 112.312 328.741 112.46L330.252 110.903L330.755 111.406L327.081 115.159ZM328.437 112.829C328.348 112.681 328.211 112.531 328.075 112.381C327.481 111.778 326.814 111.699 326.309 112.249C325.806 112.752 325.92 113.38 326.469 113.933C326.699 114.135 326.883 114.288 326.976 114.34L328.437 112.829Z" fill="black"/>
<path d="M322.235 107.268C323.451 105.841 324.985 105.818 326.043 106.73C327.149 107.644 327.173 109.177 326.108 110.42C324.994 111.708 323.453 111.875 322.347 110.961C321.196 109.996 321.218 108.513 322.235 107.268ZM325.507 109.961C326.267 109.087 326.467 107.899 325.641 107.142C324.812 106.432 323.647 106.76 322.835 107.727C322.126 108.556 321.828 109.787 322.702 110.546C323.576 111.306 324.745 110.882 325.507 109.961Z" fill="black"/>
<path d="M319.914 108.738C319.587 108.579 319.168 108.32 318.752 108.013C318.151 107.554 317.834 107.155 317.759 106.721C317.679 106.382 317.795 105.956 318.05 105.633C318.459 105.078 319.135 104.966 319.702 105.137C319.431 104.789 319.501 104.313 319.717 103.797C320.038 103.093 320.254 102.577 320.265 102.338L320.866 102.797C320.857 102.988 320.645 103.409 320.375 104.067C320.054 104.77 320.132 105.157 320.591 105.562L321.099 105.969L322.529 104.073L323.085 104.483L319.914 108.738ZM320.89 106.342L320.334 105.933C319.734 105.473 319.108 105.54 318.751 106.002C318.342 106.557 318.556 107.094 319.156 107.553C319.434 107.758 319.621 107.862 319.762 107.917L320.89 106.342Z" fill="black"/>
<path d="M315.918 105.149L317.311 106.077L316.951 106.587L313.611 104.322L313.97 103.812L315.363 104.74L318.089 100.751L318.692 101.162L315.918 105.149Z" fill="black"/>
<path d="M313.725 100.88L313.987 100.413L315.66 101.498L315.398 101.964L313.725 100.88Z" fill="black"/>
<path d="M152.993 153.656L158.634 154.414L158.557 155.152L152.916 154.394L152.993 153.656Z" fill="black"/>
<path d="M158.814 153.159L153.153 152.236L153.278 151.436L156.417 150.094C157.163 149.778 157.811 149.585 158.404 149.4C157.611 149.33 156.929 149.247 156.067 149.073L153.722 148.691L153.861 148.002L159.522 148.925L159.39 149.67L156.251 151.011C155.561 151.321 154.864 151.575 154.216 151.768C154.954 151.844 155.636 151.928 156.553 152.094L158.96 152.525L158.814 153.159Z" fill="black"/>
<path d="M160.397 143.774C160.486 144.043 160.5 144.602 160.361 145.292C160.049 146.843 158.772 147.842 156.931 147.453C155.2 147.051 154.243 145.657 154.645 143.927C154.784 143.237 155.012 142.817 155.157 142.631L155.701 142.955C155.508 143.204 155.328 143.562 155.217 144.024C154.933 145.348 155.567 146.39 157.063 146.709C158.442 146.986 159.491 146.408 159.768 145.029C159.879 144.567 159.879 144.119 159.783 143.794L160.397 143.774Z" fill="black"/>
<path d="M155.31 141.603C155.317 141.21 155.421 140.693 155.525 140.176C155.712 139.424 155.988 138.942 156.403 138.667C156.713 138.46 157.155 138.405 157.561 138.523C158.313 138.71 158.664 139.283 158.691 139.952C158.926 139.587 159.409 139.415 160.022 139.395C160.864 139.402 161.422 139.389 161.643 139.362L161.456 140.113C161.297 140.189 160.787 140.14 160.056 140.119C159.27 140.104 158.904 140.318 158.703 140.959L158.51 141.655L160.937 142.251L160.743 142.947L155.31 141.603ZM158.048 141.544L158.235 140.793C158.422 140.041 158.126 139.462 157.485 139.261C156.788 139.067 156.34 139.515 156.097 140.273C156.028 140.618 156 140.845 155.965 141.018L158.048 141.544Z" fill="black"/>
<path d="M160.206 135.002L159.577 137.153L161.555 137.748L162.268 135.363L162.847 135.515L161.94 138.597L156.473 136.977L157.339 134.012L157.918 134.165L157.246 136.433L158.991 136.945L159.621 134.794L160.206 135.002Z" fill="black"/>
<path d="M161.67 133.252L163.214 134.405L162.965 135.108L158.141 131.448L158.432 130.627L164.48 130.606L164.238 131.365L162.334 131.376L161.67 133.252ZM161.762 131.279L160.024 131.27C159.631 131.263 159.293 131.249 158.955 131.235C159.259 131.421 159.562 131.608 159.872 131.85L161.236 132.913L161.762 131.279Z" fill="black"/>
<path d="M163.854 129.62C164.157 129.358 164.503 128.979 164.669 128.51C164.918 127.807 164.739 127.269 164.153 127.061C163.629 126.902 163.257 127.06 162.718 127.687C162.083 128.438 161.399 128.803 160.689 128.499C159.869 128.208 159.47 127.249 159.906 126.243C160.12 125.712 160.41 125.34 160.61 125.147L161.106 125.534C160.955 125.665 160.658 125.982 160.492 126.45C160.187 127.16 160.525 127.623 160.932 127.741C161.4 127.907 161.821 127.686 162.36 127.059C163.05 126.302 163.685 125.999 164.45 126.296C165.271 126.587 165.773 127.477 165.262 128.773C165.047 129.304 164.716 129.793 164.405 130L163.854 129.62Z" fill="black"/>
<path d="M164.896 122.207L164.032 124.275L165.921 125.05L166.868 122.747L167.461 123.01L166.202 125.967L160.943 123.761L162.16 120.921L162.753 121.184L161.847 123.369L163.501 124.061L164.365 121.993L164.896 122.207Z" fill="black"/>
<path d="M162.692 119.791C162.803 119.329 163.024 118.853 163.238 118.322C163.681 117.371 164.226 116.799 164.861 116.497C165.503 116.249 166.227 116.215 167.061 116.616C167.895 117.017 168.474 117.618 168.728 118.315C168.982 119.011 168.871 119.922 168.38 120.935C168.159 121.41 167.931 121.831 167.745 122.134L162.692 119.791ZM167.58 121.258C167.67 121.079 167.808 120.838 167.946 120.596C168.61 119.17 168.184 117.99 166.764 117.381C165.571 116.801 164.44 117.165 163.769 118.537C163.59 118.895 163.513 119.185 163.479 119.357L167.58 121.258Z" fill="black"/>
<path d="M169.857 113.861L171.145 115.214L170.779 115.876L166.646 111.457L167.054 110.678L173.004 111.678L172.645 112.395L170.756 112.069L169.857 113.861ZM170.232 111.909L168.515 111.618C168.115 111.555 167.77 111.486 167.474 111.355C167.728 111.603 167.983 111.852 168.238 112.1L169.402 113.357L170.232 111.909Z" fill="black"/>
<path d="M175.299 107.584C175.278 107.867 175.125 108.446 174.745 108.997C173.909 110.389 172.405 110.912 170.827 109.931C169.311 108.998 168.885 107.37 169.756 105.805C170.129 105.199 170.481 104.875 170.695 104.793L171.143 105.241C170.88 105.386 170.583 105.703 170.355 106.123C169.658 107.274 169.973 108.468 171.248 109.262C172.455 109.953 173.662 109.748 174.353 108.542C174.588 108.176 174.754 107.707 174.768 107.37L175.299 107.584Z" fill="black"/>
<path d="M177.841 103.683C177.82 103.966 177.605 104.497 177.232 105.103C176.334 106.447 174.824 106.915 173.238 105.878C171.715 104.89 171.4 103.249 172.333 101.732C172.706 101.126 173.12 100.851 173.272 100.72L173.664 101.175C173.402 101.32 173.105 101.637 172.815 102.009C172.055 103.111 172.323 104.367 173.598 105.161C174.756 105.914 175.97 105.764 176.716 104.551C176.951 104.186 177.117 103.717 177.193 103.427L177.841 103.683Z" fill="black"/>
<path d="M177.998 99.0697L176.713 100.91L178.374 102.105L179.803 100.079L180.293 100.41L178.435 103.049L173.769 99.7616L175.531 97.2463L176.02 97.5779L174.687 99.4799L176.162 100.53L177.446 98.6898L177.998 99.0697Z" fill="black"/>
<path d="M180.094 99.2583C180.466 99.1001 180.881 98.8246 181.171 98.4526C181.599 97.8392 181.586 97.2806 181.09 96.8938C180.655 96.5554 180.214 96.6101 179.545 97.0853C178.716 97.6361 178.006 97.7801 177.331 97.3035C176.648 96.7717 176.525 95.7785 177.202 94.9103C177.534 94.421 177.899 94.2076 178.162 94.0631L178.506 94.5807C178.292 94.6632 177.926 94.8766 177.643 95.3039C177.16 95.924 177.394 96.4553 177.704 96.697C178.138 97.0354 178.572 96.9256 179.242 96.4504C180.125 95.8928 180.787 95.8108 181.463 96.2874C182.145 96.8191 182.378 97.7987 181.556 98.853C181.218 99.2871 180.707 99.6865 180.383 99.7827L180.094 99.2583Z" fill="black"/>
<path d="M182.649 95.9162C183.029 95.8132 183.443 95.5378 183.781 95.1037C184.271 94.5387 184.251 93.9249 183.755 93.5382C183.321 93.1997 182.935 93.2476 182.203 93.6744C181.368 94.17 180.603 94.3209 179.982 93.8375C179.293 93.2505 179.232 92.3056 179.964 91.4306C180.358 90.9896 180.717 90.721 180.986 90.6317L181.33 91.1493C181.116 91.2318 180.751 91.4452 180.461 91.8173C179.977 92.4375 180.149 92.9204 180.466 93.2173C180.9 93.5557 181.279 93.4527 182.011 93.0259C182.901 92.5234 183.563 92.4414 184.245 92.9732C184.928 93.505 185.113 94.5465 184.229 95.5525C183.89 95.9866 183.373 96.3308 183.049 96.427L182.649 95.9162Z" fill="black"/>
<path d="M183.9 87.9177L182.719 89.2405L182.271 88.7918L185.074 85.6431L185.522 86.0919L184.342 87.4147L188.124 90.812L187.634 91.3769L183.9 87.9177Z" fill="black"/>
<path d="M190.883 83.6909C192.289 85.0855 192.204 86.6647 191.21 87.6843C190.167 88.7659 188.595 88.7366 187.32 87.4939C186.046 86.2511 185.951 84.582 186.994 83.5004C188.147 82.4051 189.671 82.4964 190.883 83.6909ZM187.866 86.922C188.755 87.7644 189.968 88.0623 190.817 87.2287C191.611 86.402 191.344 85.1465 190.393 84.2558C189.566 83.4618 188.339 83.0536 187.442 83.9492C186.599 84.8379 186.977 86.0797 187.866 86.922Z" fill="black"/>
<path d="M171.781 163.442C171.796 163.104 171.789 162.601 171.886 162.028C171.963 161.291 172.239 160.808 172.592 160.484C172.895 160.223 173.33 160.113 173.84 160.162C174.35 160.21 174.716 160.445 174.977 160.749C175.315 161.211 175.452 161.867 175.369 162.549C175.341 162.777 175.306 162.949 175.216 163.129L177.499 163.462L177.422 164.2L171.781 163.442ZM174.651 163.087C174.685 162.914 174.775 162.735 174.803 162.507C174.921 161.652 174.563 161.024 173.77 160.955C173.033 160.878 172.584 161.326 172.459 162.126C172.445 162.463 172.417 162.691 172.43 162.801L174.651 163.087Z" fill="black"/>
<path d="M172.504 158.87C172.511 158.477 172.56 157.967 172.664 157.45C172.789 156.65 173.017 156.23 173.424 155.899C173.728 155.637 174.114 155.589 174.569 155.645C175.314 155.777 175.72 156.343 175.796 156.95C176.024 156.529 176.451 156.364 177.065 156.344C177.9 156.297 178.458 156.284 178.672 156.201L178.54 156.946C178.382 157.022 177.878 157.028 177.154 157.062C176.375 157.102 176.009 157.316 175.87 158.005L175.732 158.695L178.138 159.125L178.006 159.87L172.504 158.87ZM175.159 158.597L175.291 157.853C175.416 157.053 175.072 156.535 174.438 156.39C173.693 156.258 173.306 156.754 173.174 157.499C173.105 157.844 173.084 158.126 173.098 158.237L175.159 158.597Z" fill="black"/>
<path d="M173.413 153.547L178.991 154.705L178.859 155.45L173.281 154.292L173.413 153.547Z" fill="black"/>
<path d="M177.963 148.221C177.164 148.096 176.24 147.874 175.55 147.736C176.157 148.109 176.763 148.482 177.494 148.952L179.94 150.61L179.781 151.134L176.898 151.379C176.063 151.426 175.291 151.522 174.615 151.493C175.311 151.687 176.242 151.964 177.056 152.199L179.386 152.919L179.192 153.616L173.766 151.879L173.988 150.955L176.919 150.648C177.644 150.614 178.306 150.532 178.926 150.567C178.389 150.297 177.837 149.918 177.231 149.544L174.785 147.887L175.006 146.963L180.626 148.003L180.432 148.7L177.963 148.221Z" fill="black"/>
<path d="M179.435 145.63L180.972 146.728L180.785 147.479L175.872 143.998L176.1 143.129L182.121 142.888L181.879 143.646L179.982 143.713L179.435 145.63ZM179.417 143.671L177.686 143.717C177.293 143.71 176.955 143.696 176.617 143.682C176.92 143.868 177.223 144.055 177.527 144.241L178.939 145.243L179.417 143.671Z" fill="black"/>
<path d="M177.041 140.324C177.104 139.924 177.208 139.407 177.374 138.938C177.616 138.18 177.954 137.746 178.375 137.525C178.686 137.319 179.134 137.319 179.541 137.437C180.244 137.686 180.602 138.314 180.567 138.935C180.857 138.563 181.347 138.446 181.912 138.488C182.705 138.558 183.271 138.6 183.547 138.565L183.298 139.269C183.132 139.289 182.622 139.24 181.884 139.164C181.091 139.094 180.718 139.252 180.462 139.9L180.262 140.541L182.599 141.316L182.35 142.019L177.041 140.324ZM179.745 140.437L179.994 139.734C180.236 138.976 179.995 138.389 179.409 138.182C178.706 137.933 178.25 138.325 177.953 139.09C177.828 139.442 177.801 139.669 177.759 139.787L179.745 140.437Z" fill="black"/>
<path d="M184.28 136.794L182.046 135.95L178.356 136.463L178.653 135.698L180.426 135.534C180.922 135.473 181.309 135.425 181.702 135.432C181.385 135.135 181.123 134.832 180.799 134.48L179.628 133.168L179.926 132.403L182.309 135.357L184.604 136.249L184.28 136.794Z" fill="black"/>
<path d="M181.198 129.108L183.391 130.069L184.538 127.573L182.346 126.612L182.657 125.957L187.875 128.28L187.564 128.935L185.131 127.836L183.983 130.331L186.417 131.43L186.106 132.085L180.887 129.762L181.198 129.108Z" fill="black"/>
<path d="M187.315 123.307L186.327 125.279L188.174 126.171L189.301 123.958L189.838 124.228L188.401 127.095L183.321 124.531L184.717 121.781L185.255 122.05L184.225 124.139L185.838 124.947L186.826 122.976L187.315 123.307Z" fill="black"/>
<path d="M189.089 121.799L190.377 123.152L190.011 123.814L185.933 119.389L186.341 118.61L192.298 119.665L191.932 120.326L190.043 120L189.089 121.799ZM189.47 119.903L187.753 119.611C187.354 119.549 187.009 119.48 186.712 119.348C186.967 119.597 187.222 119.845 187.477 120.094L188.641 121.35L189.47 119.903Z" fill="black"/>
<path d="M187.82 116.074L188.193 115.467L192.548 118.065L193.799 115.949L194.343 116.274L192.72 118.996L187.82 116.074Z" fill="black"/>
<path d="M190.692 112.58L189.753 114.041L189.208 113.716L191.454 110.133L191.998 110.457L191.059 111.919L195.318 114.64L194.89 115.254L190.692 112.58Z" fill="black"/>
<path d="M192.365 108.899L194.329 110.281L195.897 108.014L193.933 106.632L194.361 106.019L199.027 109.307L198.599 109.92L196.393 108.4L194.825 110.668L197.031 112.187L196.602 112.801L191.937 109.513L192.365 108.899Z" fill="black"/>
<path d="M202.025 105.013C201.948 105.303 201.734 105.834 201.354 106.385C200.394 107.681 198.808 107.989 197.326 106.884C195.907 105.827 195.695 104.117 196.751 102.697C197.186 102.139 197.6 101.864 197.759 101.788L198.103 102.306C197.841 102.45 197.482 102.719 197.192 103.091C196.37 104.145 196.521 105.359 197.699 106.278C198.815 107.148 200.036 107.053 200.851 105.943C201.141 105.571 201.314 105.158 201.39 104.868L202.025 105.013Z" fill="black"/>
<path d="M201.951 102.613L202.936 104.228L202.446 104.793L199.286 99.6379L199.873 98.9489L205.519 101.107L205.035 101.727L203.27 101.049L201.951 102.613ZM202.678 100.786L201.03 100.15C200.678 100.026 200.32 99.8459 200.024 99.7145C200.223 99.9699 200.43 100.28 200.636 100.591L201.552 102.102L202.678 100.786Z" fill="black"/>
<path d="M201.896 96.7372C202.082 96.434 202.421 95.9999 202.766 95.621C203.312 95.0491 203.726 94.7737 204.222 94.7122C204.608 94.6644 205.015 94.7821 205.332 95.079C205.897 95.5692 205.931 96.2934 205.661 96.831C206.082 96.6108 206.537 96.6665 207.082 96.9912C207.805 97.4058 208.288 97.6822 208.515 97.71L208.025 98.275C207.853 98.2403 207.377 98.0191 206.771 97.646C206.047 97.2315 205.661 97.2793 205.157 97.7339L204.715 98.2369L206.548 99.9147L206.057 100.48L201.896 96.7372ZM204.288 97.9537L204.778 97.3887C205.323 96.8169 205.297 96.1479 204.849 95.6991C204.284 95.2088 203.69 95.3944 203.2 95.9594C202.952 96.2143 202.813 96.4555 202.765 96.5175L204.288 97.9537Z" fill="black"/>
<path d="M209.251 93.2488L207.712 94.8402L209.179 96.2832L210.919 94.4989L211.367 94.9477L209.13 97.2418L205.051 93.2649L207.185 91.0397L207.633 91.4884L205.989 93.1487L207.264 94.3915L208.804 92.8001L209.251 93.2488Z" fill="black"/>
<defs>
<linearGradient id="paint0_linear" x1="271.115" y1="-1.03971" x2="268.318" y2="362.202" gradientUnits="userSpaceOnUse">
<stop offset="0.19" stop-color="#CDECF7"/>
<stop offset="0.4218" stop-color="#DDF2F9"/>
<stop offset="0.6865" stop-color="#E8F6FB"/>
<stop offset="1" stop-color="#EBF7FB"/>
</linearGradient>
</defs>
</svg>
