<svg width="465" height="319" viewBox="0 0 465 319" fill="none" xmlns="http://www.w3.org/2000/svg">
<g opacity="0.55" clip-path="url(#clip0)">
<path d="M283.172 -287.887V-220.243C400.125 -219.295 494.637 -124.152 494.637 -6.88184C494.637 111.02 399.177 206.479 281.275 206.479C163.373 206.479 67.9139 111.02 67.9139 -6.88184C67.9139 -8.14621 68.23 -23.6347 68.23 -29.0082V-190.531C27.1382 -141.537 0.270508 -75.4736 0.270508 -6.88184C0.270508 148.319 126.075 274.439 281.591 274.439C437.108 274.439 562.912 148.635 562.912 -6.88184C562.28 -161.45 437.424 -286.938 283.172 -287.887Z" fill="#FF366C" fill-opacity="0.1"/>
<path d="M491.61 -242.904V-175.26C608.564 -174.312 703.075 -79.1689 703.075 38.1008C703.075 156.003 607.616 251.462 489.714 251.462C371.812 251.462 276.352 156.003 276.352 38.1008C276.352 36.8365 276.669 21.348 276.669 15.9745V-145.548C235.577 -96.5539 208.709 -30.4909 208.709 38.1008C208.709 193.301 334.513 319.422 490.03 319.422C645.547 319.422 771.351 193.618 771.351 38.1008C770.719 -116.468 645.863 -241.956 491.61 -242.904Z" fill="#0D56FB" fill-opacity="0.1"/>
</g>
<defs>
<clipPath id="clip0">
<rect width="465" height="319.012" fill="white" transform="translate(0 -0.505859)"/>
</clipPath>
</defs>
</svg>
