<svg width="112" height="112" viewBox="0 0 112 112" fill="none" xmlns="http://www.w3.org/2000/svg">
<path d="M111.219 40.2343L98.7058 7.70099C96.3347 1.55087 89.4268 -1.51253 83.2767 0.858566C83.1874 0.893065 83.0984 0.928496 83.0098 0.965093L20.4793 26.8858C14.5252 29.3283 11.5988 36.0679 13.8797 42.0858L15.5991 46.6751H11.655C5.22121 46.6823 0.00722611 51.8963 0 58.3301V100.288C0.00722611 106.722 5.22121 111.936 11.655 111.943H90.9091C97.3429 111.936 102.557 106.722 102.564 100.288V58.3301C102.56 57.6975 102.504 57.0663 102.396 56.443L104.561 55.5665C110.569 53.1043 113.521 46.3047 111.219 40.2343ZM11.655 50.405H90.9091C95.0946 50.4168 98.5473 53.6856 98.7879 57.8642H3.77622C4.01678 53.6854 7.46946 50.4166 11.655 50.405ZM30.3981 39.1714L42.8625 32.9374L45.4247 39.3467L32.9604 45.5788L30.3981 39.1714ZM98.8345 100.288C98.8294 104.663 95.2841 108.209 90.9091 108.214H11.655C7.27995 108.209 3.73473 104.663 3.7296 100.288V76.5122H98.8345V100.288ZM98.8345 72.7826H3.7296V61.5938H98.8345V72.7826ZM103.163 52.1206L101.214 52.9094C99.2012 49.0809 95.2345 46.6814 90.9091 46.6754H39.1086L48.6284 41.9145C49.4965 41.4812 49.8874 40.4546 49.5273 39.5537L45.572 29.6702C45.1895 28.714 44.1044 28.2488 43.1483 28.6311C43.1 28.6504 43.0527 28.6716 43.0063 28.6949L27.1946 36.6054C26.3273 37.0395 25.9373 38.0658 26.2977 38.9663L29.3821 46.6754H19.5804L17.3725 40.7863C15.8072 36.6516 17.8177 32.0222 21.9077 30.3434L84.4364 4.42267C88.6165 2.68934 93.4105 4.67279 95.1441 8.85297C95.1711 8.91801 95.1972 8.98351 95.2224 9.04924L107.735 41.5826C109.318 45.7539 107.29 50.4271 103.163 52.1206Z" fill="black"/>
<path d="M67.0804 102.97C70.5555 104.989 74.8466 104.989 78.3217 102.97C83.6648 106.074 90.5128 104.259 93.617 98.9162C96.7212 93.573 94.906 86.725 89.5629 83.6208C87.848 82.6245 85.8993 82.1019 83.9161 82.1066C81.9501 82.1075 80.0196 82.6299 78.3217 83.6208C72.9785 80.5166 66.1305 82.3315 63.0263 87.6747C59.9221 93.018 61.7373 99.8658 67.0804 102.97ZM81.4396 86.2914C82.2328 85.9991 83.0706 85.8453 83.9161 85.8364C88.0356 85.8364 91.3753 89.1761 91.3753 93.2956C91.3753 97.4152 88.0356 100.755 83.9161 100.755C83.0706 100.746 82.2328 100.592 81.4396 100.3C84.7412 96.2138 84.7412 90.3772 81.4396 86.2914ZM78.3217 88.4136C80.8081 91.1935 80.8081 95.3977 78.3217 98.1777C75.8352 95.3977 75.8352 91.1933 78.3217 88.4136ZM72.7273 85.8364C73.5727 85.8451 74.4105 85.9991 75.2037 86.2914C71.9021 90.3772 71.9021 96.2141 75.2037 100.3C74.4105 100.592 73.5727 100.746 72.7273 100.755C68.6077 100.755 65.268 97.4152 65.268 93.2956C65.268 89.1758 68.6077 85.8364 72.7273 85.8364Z" fill="black"/>
<path d="M78.6617 38.5416L80.1766 41.9497L97.967 34.0416L96.452 30.6335L78.6617 38.5416Z" fill="black"/>
<path d="M92.4819 22.7385L66.7853 34.5991L68.3476 37.9839L94.0442 26.1233L92.4819 22.7385Z" fill="black"/>
</svg>
