<svg width="106" height="105" viewBox="0 0 106 105" fill="none" xmlns="http://www.w3.org/2000/svg">
<g filter="url(#filter0_dd)">
<rect x="9" y="3" width="88" height="88" rx="4.125" fill="#ABF5D1"/>
<rect x="9.34375" y="3.34375" width="87.3125" height="87.3125" rx="3.78125" stroke="#00875A" stroke-width="0.6875"/>
</g>
<g clip-path="url(#clip0)">
<path d="M80.1163 39.2586L73.9716 23.2824C72.8072 20.2622 69.415 18.7579 66.3948 19.9222C66.351 19.9392 66.3072 19.9566 66.2637 19.9746L35.5568 32.7035C32.6329 33.9029 31.1959 37.2125 32.3159 40.1678L33.1603 42.4214H31.2234C28.064 42.425 25.5035 44.9854 25.5 48.1449V68.7493C25.5035 71.9087 28.064 74.4692 31.2234 74.4727H70.1429C73.3023 74.4692 75.8628 71.9087 75.8663 68.7493V48.1449C75.8645 47.8342 75.8369 47.5242 75.7839 47.2181L76.8471 46.7877C79.7971 45.5786 81.2469 42.2396 80.1163 39.2586ZM31.2234 44.2531H70.1429C72.1983 44.2589 73.8938 45.8641 74.0119 47.9161H27.3544C27.4725 45.864 29.168 44.2588 31.2234 44.2531ZM40.4277 38.7366L46.5485 35.6752L47.8068 38.8227L41.6859 41.8831L40.4277 38.7366ZM74.0348 68.7494C74.0323 70.8979 72.2913 72.6388 70.1429 72.6413H31.2234C29.075 72.6388 27.334 70.8979 27.3315 68.7494V57.0736H74.0348V68.7494ZM74.0348 55.2421H27.3315V49.7476H74.0348V55.2421ZM76.1603 45.0956L75.2033 45.4829C74.2149 43.6029 72.2669 42.4245 70.1429 42.4216H44.7051L49.38 40.0836C49.8063 39.8708 49.9983 39.3667 49.8214 38.9243L47.8791 34.0708C47.6913 33.6013 47.1584 33.3728 46.6889 33.5605C46.6652 33.57 46.6419 33.5804 46.6192 33.5919L38.8545 37.4765C38.4286 37.6896 38.2371 38.1936 38.414 38.6358L39.9287 42.4216H35.1154L34.0311 39.5296C33.2625 37.4992 34.2498 35.2258 36.2582 34.4014L66.9643 21.6725C69.0171 20.8213 71.3712 21.7953 72.2225 23.8481C72.2358 23.88 72.2486 23.9122 72.261 23.9445L78.4057 39.9206C79.183 41.9691 78.1873 44.2639 76.1603 45.0956Z" fill="black"/>
<path d="M58.4413 70.0658C60.1478 71.0572 62.255 71.0572 63.9615 70.0658C66.5854 71.5902 69.9482 70.6988 71.4726 68.0749C72.997 65.4511 72.1056 62.0882 69.4818 60.5638C68.6396 60.0746 67.6827 59.818 66.7088 59.8202C65.7433 59.8207 64.7953 60.0772 63.9615 60.5638C61.3377 59.0395 57.9748 59.9307 56.4504 62.5546C54.926 65.1785 55.8174 68.5413 58.4413 70.0658ZM65.4927 61.8753C65.8822 61.7318 66.2936 61.6562 66.7088 61.6519C68.7318 61.6519 70.3718 63.2919 70.3718 65.3149C70.3718 67.3379 68.7318 68.9779 66.7088 68.9779C66.2936 68.9735 65.8822 68.898 65.4927 68.7544C67.114 66.7479 67.114 63.8817 65.4927 61.8753ZM63.9615 62.9174C65.1826 64.2826 65.1826 66.3471 63.9615 67.7123C62.7405 66.3471 62.7405 64.2825 63.9615 62.9174ZM61.2143 61.6519C61.6294 61.6561 62.0408 61.7318 62.4304 61.8753C60.8091 63.8817 60.8091 66.748 62.4304 68.7544C62.0408 68.898 61.6294 68.9735 61.2143 68.9779C59.1913 68.9779 57.5513 67.3379 57.5513 65.3149C57.5513 63.2917 59.1913 61.6519 61.2143 61.6519Z" fill="black"/>
<path d="M64.1285 38.4265L64.8724 40.1001L73.6088 36.2166L72.8648 34.543L64.1285 38.4265Z" fill="black"/>
<path d="M70.9153 30.6663L58.2964 36.4907L59.0636 38.1529L71.6825 32.3285L70.9153 30.6663Z" fill="black"/>
</g>
<defs>
<filter id="filter0_dd" x="0.75" y="0.25" width="104.5" height="104.5" filterUnits="userSpaceOnUse" color-interpolation-filters="sRGB">
<feFlood flood-opacity="0" result="BackgroundImageFix"/>
<feColorMatrix in="SourceAlpha" type="matrix" values="0 0 0 0 0 0 0 0 0 0 0 0 0 0 0 0 0 0 127 0"/>
<feOffset/>
<feGaussianBlur stdDeviation="0.34375"/>
<feColorMatrix type="matrix" values="0 0 0 0 0.0352941 0 0 0 0 0.117647 0 0 0 0 0.258824 0 0 0 0.31 0"/>
<feBlend mode="normal" in2="BackgroundImageFix" result="effect1_dropShadow"/>
<feColorMatrix in="SourceAlpha" type="matrix" values="0 0 0 0 0 0 0 0 0 0 0 0 0 0 0 0 0 0 127 0"/>
<feOffset dy="5.5"/>
<feGaussianBlur stdDeviation="4.125"/>
<feColorMatrix type="matrix" values="0 0 0 0 0.0352941 0 0 0 0 0.117647 0 0 0 0 0.258824 0 0 0 0.15 0"/>
<feBlend mode="normal" in2="effect1_dropShadow" result="effect2_dropShadow"/>
<feBlend mode="normal" in="SourceGraphic" in2="effect2_dropShadow" result="shape"/>
</filter>
<clipPath id="clip0">
<rect width="55" height="55" fill="white" transform="translate(25.5 19.5)"/>
</clipPath>
</defs>
</svg>
