<svg width="536" height="360" viewBox="0 0 536 360" fill="none" xmlns="http://www.w3.org/2000/svg">
<path d="M526 0H10C4.47715 0 0 4.47716 0 10V350C0 355.523 4.47716 360 10 360H526C531.523 360 536 355.523 536 350V10C536 4.47715 531.523 0 526 0Z" fill="url(#paint0_linear)"/>
<path d="M276.185 97.1748L269.875 97.321L269.656 87.8966L273.874 87.7991L276.185 97.1748Z" fill="#3C2415"/>
<path d="M288.25 113.347L279.462 113.551L279.158 100.424L285.032 100.288L288.25 113.347Z" fill="#3C2415"/>
<path d="M281.395 61.1561C281.487 65.1113 277.572 63.6343 274.447 63.7065C271.324 63.7787 267.077 59.6456 266.986 55.6898L268.144 35.8714C268.051 31.9162 270.51 28.6515 273.634 28.5786C276.758 28.5058 279.365 31.6544 279.456 35.609L281.395 61.1561Z" fill="#F7941D"/>
<path d="M283.965 54.4597L222.288 55.891L226.033 217.243L287.709 215.811L283.965 54.4597Z" fill="#F15A29"/>
<path d="M261.884 161.723L248.925 162.023L249.097 169.428L262.056 169.127L261.884 161.723Z" fill="#FBB040"/>
<path d="M262.193 175.273L249.235 175.573L249.407 182.977L262.365 182.677L262.193 175.273Z" fill="#FBB040"/>
<path d="M262.496 187.928L249.538 188.228L249.71 195.634L262.668 195.333L262.496 187.928Z" fill="#FBB040"/>
<path d="M262.784 200.301L249.825 200.602L249.997 208.007L262.955 207.707L262.784 200.301Z" fill="#FBB040"/>
<path d="M279.383 166.761L268.776 168.688L268.62 161.964L279.266 161.718L279.383 166.761Z" fill="#FBB040"/>
<path d="M278.603 156.807L267.224 151.78L271.427 145.257L281.757 151.914L278.603 156.807Z" fill="#F7941D"/>
<path d="M278.986 131.253L267.307 135.542L271.085 142.321L281.82 136.339L278.986 131.253Z" fill="#F7941D"/>
<path d="M231.294 158.489L242.429 152.94L237.926 146.618L227.917 153.748L231.294 158.489Z" fill="#F7941D"/>
<path d="M229.728 132.98L241.592 136.723L238.133 143.67L227.132 138.192L229.728 132.98Z" fill="#F7941D"/>
<path d="M279.697 180.304L269.089 182.232L268.934 175.509L279.58 175.262L279.697 180.304Z" fill="#FBB040"/>
<path d="M279.983 192.679L269.376 194.607L269.221 187.883L279.867 187.635L279.983 192.679Z" fill="#FBB040"/>
<path d="M280.27 205.054L269.664 206.981L269.508 200.258L280.153 200.012L280.27 205.054Z" fill="#FBB040"/>
<path d="M231.614 167.868L242.299 169.302L242.142 162.578L231.497 162.825L231.614 167.868Z" fill="#FBB040"/>
<path d="M231.928 181.412L242.612 182.846L242.456 176.122L231.81 176.369L231.928 181.412Z" fill="#FBB040"/>
<path d="M232.214 193.787L242.9 195.221L242.743 188.497L232.098 188.743L232.214 193.787Z" fill="#FBB040"/>
<path d="M282.449 126.451L227.175 127.733L226.095 84.4243L280.919 74.2802L282.449 126.451Z" fill="#F9ED32"/>
<path d="M232.501 206.162L243.186 207.594L243.03 200.873L232.385 201.118L232.501 206.162Z" fill="#FBB040"/>
<path d="M277.084 87.7658L230.267 88.8523L230.995 120.226L277.812 119.139L277.084 87.7658Z" fill="white"/>
<path d="M251.314 69.3342C251.43 74.3261 247.477 78.4669 242.486 78.5823C237.495 78.6984 233.355 74.7451 233.239 69.7533C233.124 64.7627 237.076 60.6219 242.067 60.5065C247.058 60.3911 251.199 64.3437 251.314 69.3342Z" fill="#BCBEC0"/>
<path d="M267.938 65.1977C267.993 67.5521 266.127 69.5049 263.773 69.5597C261.42 69.6145 259.466 67.75 259.411 65.3956C259.357 63.0418 261.222 61.0891 263.576 61.0349C265.93 60.9788 267.883 62.8433 267.938 65.1977Z" fill="#998176"/>
<path d="M263.748 149.405C263.813 152.23 261.576 154.572 258.751 154.637L250.567 154.827C247.741 154.893 245.398 152.656 245.333 149.831L245.119 140.623C245.054 137.798 247.29 135.455 250.116 135.389L258.301 135.199C261.125 135.134 263.469 137.371 263.534 140.196L263.748 149.405Z" fill="#F7941D"/>
<path d="M242.072 63.0301C242.082 63.4653 241.738 63.8263 241.302 63.8366C240.867 63.8463 240.506 63.502 240.495 63.0669C240.485 62.6311 240.831 62.2707 241.266 62.2597C241.701 62.25 242.062 62.5943 242.072 63.0301Z" fill="#998176"/>
<path d="M238.337 64.4311C238.347 64.8663 238.002 65.2273 237.568 65.2376C237.132 65.2479 236.772 64.903 236.761 64.4672C236.751 64.0321 237.095 63.6717 237.531 63.6614C237.966 63.651 238.327 63.996 238.337 64.4311Z" fill="#998176"/>
<path d="M241.913 67.503C241.923 67.9382 241.579 68.2992 241.143 68.3096C240.708 68.3199 240.347 67.9743 240.336 67.5398C240.327 67.1046 240.672 66.7436 241.106 66.7333C241.542 66.7223 241.902 67.0672 241.913 67.503Z" fill="#998176"/>
<path d="M237.375 68.3089C237.385 68.7441 237.041 69.1057 236.605 69.1154C236.17 69.1257 235.809 68.7815 235.799 68.3456C235.789 67.9105 236.134 67.5488 236.569 67.5391C237.005 67.5295 237.366 67.8737 237.375 68.3089Z" fill="#998176"/>
<path d="M241.21 71.1998C241.221 71.6356 240.876 71.996 240.44 72.0057C240.005 72.016 239.644 71.6717 239.634 71.2359C239.624 70.8007 239.967 70.4391 240.403 70.4294C240.839 70.4197 241.2 70.7646 241.21 71.1998Z" fill="#998176"/>
<path d="M238.476 74.2421C238.487 74.6773 238.142 75.0383 237.707 75.0487C237.271 75.059 236.91 74.7141 236.9 74.2789C236.89 73.8437 237.235 73.4827 237.67 73.473C238.106 73.4621 238.467 73.807 238.476 74.2421Z" fill="#998176"/>
<path d="M244.237 73.2325C244.248 73.6677 243.902 74.0287 243.468 74.039C243.032 74.0493 242.671 73.7044 242.66 73.2693C242.65 72.8341 242.996 72.4731 243.431 72.4627C243.865 72.4524 244.227 72.7973 244.237 73.2325Z" fill="#998176"/>
<path d="M246.159 69.2444C246.169 69.6795 245.825 70.0405 245.389 70.0509C244.954 70.0612 244.593 69.7163 244.583 69.2811C244.573 68.8459 244.918 68.4843 245.353 68.4746C245.789 68.4643 246.15 68.8092 246.159 69.2444Z" fill="#998176"/>
<path d="M245.896 65.3949C245.906 65.83 245.561 66.1911 245.126 66.2014C244.691 66.211 244.329 65.8668 244.32 65.431C244.309 64.9965 244.654 64.6354 245.09 64.6245C245.524 64.6148 245.886 64.9597 245.896 65.3949Z" fill="#998176"/>
<path d="M249.952 66.5278C249.963 66.963 249.619 67.324 249.182 67.3343C248.748 67.3446 248.386 66.9997 248.376 66.5645C248.365 66.1294 248.711 65.7684 249.146 65.758C249.581 65.7477 249.942 66.0926 249.952 66.5278Z" fill="#998176"/>
<path d="M249.901 71.874C249.911 72.3092 249.567 72.6702 249.13 72.6805C248.695 72.6908 248.334 72.3453 248.324 71.9107C248.314 71.4756 248.659 71.1146 249.094 71.1036C249.53 71.0939 249.891 71.4388 249.901 71.874Z" fill="#998176"/>
<path d="M247.18 75.4425C247.19 75.8776 246.846 76.2393 246.41 76.249C245.974 76.2593 245.613 75.9144 245.603 75.4792C245.593 75.044 245.938 74.683 246.373 74.6733C246.809 74.6624 247.169 75.0073 247.18 75.4425Z" fill="#998176"/>
<path d="M245.999 62.3257C246.01 62.7609 245.665 63.1219 245.229 63.1323C244.795 63.1419 244.433 62.797 244.423 62.3625C244.413 61.9273 244.758 61.5663 245.193 61.556C245.628 61.5463 245.99 61.8906 245.999 62.3257Z" fill="#998176"/>
<path d="M235.617 71.8556C235.627 72.2908 235.283 72.6518 234.847 72.6621C234.412 72.6724 234.051 72.3275 234.041 71.8923C234.031 71.4572 234.375 71.0961 234.811 71.0858C235.246 71.0749 235.607 71.4198 235.617 71.8556Z" fill="#998176"/>
<path d="M242.203 76.2586C242.214 76.6938 241.869 77.0548 241.434 77.0651C240.998 77.0754 240.637 76.7305 240.628 76.2953C240.617 75.8602 240.962 75.4992 241.397 75.4888C241.832 75.4792 242.193 75.8234 242.203 76.2586Z" fill="#998176"/>
<path d="M259.384 212.558C259.395 213.041 258.228 213.46 256.777 213.495C255.326 213.527 254.14 213.162 254.128 212.678C254.117 212.195 255.285 211.777 256.736 211.743C258.188 211.709 259.373 212.074 259.384 212.558Z" fill="#C03126"/>
<path d="M234.305 105.253L232.916 104.877L233.167 104.076L234.545 104.611L234.438 103.073L235.303 103.063L235.233 104.634L236.562 104.076L236.832 104.88L235.426 105.289L236.365 106.45L235.67 106.957L234.853 105.679L234.073 106.931L233.367 106.464L234.305 105.253ZM238.631 105.67L239.31 105.662C239.634 105.658 239.872 105.575 240.026 105.411C240.18 105.248 240.255 105.032 240.252 104.765C240.249 104.506 240.169 104.306 240.011 104.163C239.857 104.021 239.644 103.952 239.374 103.955C239.13 103.958 238.927 104.028 238.764 104.165C238.601 104.299 238.52 104.473 238.523 104.688L237.249 104.703C237.245 104.368 237.331 104.067 237.507 103.8C237.686 103.531 237.936 103.319 238.258 103.165C238.583 103.012 238.94 102.933 239.331 102.928C240.01 102.92 240.544 103.077 240.933 103.399C241.322 103.717 241.519 104.162 241.526 104.732C241.53 105.026 241.443 105.298 241.267 105.547C241.09 105.796 240.857 105.988 240.568 106.124C240.931 106.249 241.202 106.439 241.381 106.696C241.564 106.953 241.657 107.257 241.661 107.61C241.668 108.18 241.464 108.64 241.051 108.988C240.641 109.337 240.093 109.515 239.408 109.524C238.768 109.531 238.241 109.368 237.828 109.035C237.419 108.702 237.211 108.257 237.204 107.702L238.478 107.687C238.481 107.928 238.573 108.124 238.754 108.274C238.938 108.425 239.163 108.499 239.427 108.496C239.73 108.492 239.966 108.41 240.134 108.25C240.306 108.086 240.39 107.872 240.387 107.607C240.379 106.966 240.023 106.65 239.317 106.658L238.643 106.666L238.631 105.67ZM246.305 106.938L247.033 106.93L247.045 107.957L246.317 107.966L246.333 109.354L245.059 109.369L245.043 107.98L242.411 108.011L242.344 107.209L244.971 102.95L246.258 102.935L246.305 106.938ZM243.611 106.97L245.031 106.953L245.005 104.687L244.922 104.834L243.611 106.97ZM252.047 103.582L249.631 109.316L248.287 109.331L250.71 103.915L247.518 103.952L247.506 102.92L252.038 102.867L252.047 103.582ZM253.951 105.023L252.562 104.647L252.813 103.846L254.19 104.381L254.084 102.844L254.948 102.833L254.878 104.404L256.208 103.846L256.477 104.65L255.071 105.059L256.011 106.221L255.316 106.727L254.498 105.449L253.719 106.702L253.012 106.234L253.951 105.023ZM257.177 106.07L257.51 102.803L261.107 102.761L261.12 103.824L258.567 103.854L258.424 105.236C258.725 105.07 259.046 104.986 259.387 104.982C259.998 104.975 260.48 105.159 260.831 105.534C261.182 105.909 261.362 106.437 261.37 107.119C261.375 107.534 261.291 107.906 261.118 108.238C260.949 108.566 260.702 108.823 260.378 109.009C260.054 109.192 259.67 109.286 259.226 109.292C258.838 109.296 258.477 109.222 258.143 109.071C257.809 108.916 257.543 108.697 257.346 108.414C257.152 108.131 257.046 107.808 257.03 107.443L258.291 107.429C258.321 107.696 258.416 107.903 258.576 108.051C258.74 108.196 258.951 108.267 259.209 108.264C259.497 108.261 259.718 108.156 259.872 107.948C260.025 107.738 260.099 107.443 260.095 107.064C260.091 106.699 259.998 106.421 259.816 106.229C259.635 106.037 259.379 105.943 259.05 105.947C258.747 105.95 258.503 106.033 258.317 106.194L258.194 106.31L257.177 106.07ZM266.338 104.407C266.342 104.718 266.267 104.995 266.114 105.238C265.961 105.481 265.749 105.676 265.477 105.823C265.791 105.969 266.04 106.174 266.225 106.436C266.411 106.696 266.505 107.003 266.51 107.359C266.516 107.929 266.328 108.382 265.943 108.719C265.559 109.053 265.034 109.224 264.366 109.231C263.699 109.239 263.168 109.079 262.773 108.752C262.379 108.424 262.178 107.977 262.171 107.41C262.167 107.054 262.255 106.743 262.434 106.476C262.613 106.21 262.856 106.001 263.163 105.85C262.888 105.709 262.671 105.519 262.512 105.28C262.357 105.041 262.277 104.766 262.273 104.454C262.267 103.907 262.444 103.47 262.805 103.143C263.165 102.812 263.659 102.643 264.285 102.636C264.908 102.629 265.404 102.785 265.772 103.104C266.143 103.42 266.332 103.854 266.338 104.407ZM265.23 107.281C265.227 107.002 265.143 106.78 264.98 106.614C264.816 106.448 264.598 106.367 264.324 106.37C264.054 106.373 263.839 106.46 263.679 106.629C263.519 106.796 263.441 107.02 263.444 107.302C263.448 107.575 263.53 107.795 263.69 107.961C263.851 108.126 264.072 108.208 264.354 108.204C264.631 108.201 264.846 108.118 265 107.954C265.157 107.791 265.233 107.566 265.23 107.281ZM265.065 104.483C265.062 104.233 264.994 104.034 264.859 103.886C264.725 103.735 264.538 103.66 264.297 103.663C264.059 103.666 263.875 103.742 263.744 103.89C263.613 104.039 263.55 104.242 263.553 104.501C263.556 104.757 263.624 104.962 263.758 105.116C263.892 105.27 264.08 105.346 264.321 105.343C264.562 105.34 264.746 105.26 264.874 105.103C265.004 104.945 265.068 104.739 265.065 104.483ZM269.877 107.271L269.026 107.281L268.73 109.092L267.923 109.102L268.22 107.29L267.219 107.302L267.21 106.544L268.343 106.53L268.549 105.276L267.526 105.288L267.517 104.521L268.676 104.507L268.977 102.669L269.779 102.66L269.479 104.498L270.334 104.488L270.635 102.65L271.441 102.64L271.141 104.478L272.107 104.467L272.115 105.234L271.013 105.247L270.808 106.502L271.795 106.49L271.804 107.248L270.684 107.262L270.388 109.073L269.581 109.082L269.877 107.271ZM269.15 106.521L270.001 106.511L270.206 105.256L269.351 105.266L269.15 106.521Z" fill="black"/>
<path d="M285.032 100.288L295.423 106.367L319.721 212.117L438.883 311.169L407.796 346.93L361.656 348L298.456 237.168L287.878 238.078L258.943 193.575L269.969 182.025L290.276 198.253L285.912 138.244L285.6 111.245L285.032 100.288Z" fill="#3C2415"/>
<path d="M225.646 55.8193L212.671 56.1198L187.476 199.255L65.1166 318.451L108.216 348L149.354 346.527L208.349 234.132L239.275 221.91L255.31 182.844L246.652 176.222L239.585 179.373L230.587 192.143L222.05 176.206L224.524 152.202L221.567 127.863L225.646 55.8193Z" fill="#3C2415"/>
<path d="M247.998 200.659L240.187 195.867L247.596 182.73L255.311 182.844L247.998 200.659Z" fill="#F1F2F2"/>
<path d="M176.61 209.722L195.458 233.805L206.228 238.172L199.625 250.753L186.984 245.873L166.94 219.037L176.61 209.722Z" fill="#58595B"/>
<path d="M160.991 218.762L177.669 204.872L179.781 207.44L163.368 222.477L160.991 218.762Z" fill="#4C4B4D"/>
<path d="M215.256 56.0598L213.05 72.8179L209.595 73.5973L212.671 56.1198L215.256 56.0598Z" fill="#F1F2F2"/>
<path opacity="0.5" d="M213.761 56.5741C222.373 56.5741 229.355 49.5927 229.355 40.9808C229.355 32.3688 222.373 25.3875 213.761 25.3875C205.149 25.3875 198.168 32.3688 198.168 40.9808C198.168 49.5927 205.149 56.5741 213.761 56.5741Z" fill="#FFF200"/>
<path opacity="0.4" d="M95.1633 32.7395C95.1633 37.4295 91.798 41.3355 87.3507 42.1701C85.9913 45.8181 82.4767 48.4115 78.3587 48.4115C74.1627 48.4115 70.5967 45.7195 69.2967 41.9661C65.2807 40.8181 62.342 37.1235 62.342 32.7395C62.342 27.4381 66.64 23.1401 71.9413 23.1401C74.6053 23.1401 77.0147 24.2255 78.7547 25.9808C80.4907 24.2255 82.9 23.1401 85.564 23.1401C90.8653 23.1401 95.1633 27.4381 95.1633 32.7395Z" fill="white"/>
<path opacity="0.4" d="M166.035 50.5974C166.121 44.886 170.291 40.19 175.723 39.2554C177.445 34.838 181.773 31.7434 186.789 31.8194C191.899 31.8967 196.192 35.2407 197.707 39.8354C202.577 41.3074 206.088 45.8614 206.007 51.2007C205.91 57.6574 200.597 62.8127 194.14 62.7154C190.895 62.666 187.98 61.3 185.894 59.1307C183.747 61.2367 180.793 62.514 177.548 62.4647C171.093 62.3674 165.937 57.054 166.035 50.5974Z" fill="white"/>
<path opacity="0.4" d="M191.67 59.3435C191.756 53.6321 195.927 48.9361 201.358 48.0015C203.081 43.5841 207.409 40.4895 212.425 40.5655C217.535 40.6428 221.828 43.9868 223.343 48.5815C228.213 50.0535 231.723 54.6075 231.643 59.9468C231.546 66.4035 226.232 71.5588 219.776 71.4615C216.531 71.4121 213.616 70.0461 211.53 67.8768C209.383 69.9828 206.429 71.2601 203.184 71.2108C196.728 71.1135 191.572 65.8008 191.67 59.3435Z" fill="white"/>
<path opacity="0.4" d="M304.819 26.8908C304.883 22.7034 307.941 19.2614 311.922 18.5754C313.185 15.3368 316.357 13.0681 320.035 13.1234C323.781 13.1801 326.929 15.6321 328.039 19.0001C331.609 20.0794 334.184 23.4181 334.125 27.3328C334.053 32.0661 330.158 35.8461 325.425 35.7748C323.046 35.7388 320.909 34.7368 319.379 33.1468C317.806 34.6908 315.64 35.6274 313.261 35.5914C308.528 35.5201 304.748 31.6248 304.819 26.8908Z" fill="white"/>
<path opacity="0.4" d="M21.54 66.2675C21.5773 63.8188 23.3653 61.8061 25.6933 61.4055C26.432 59.5121 28.2867 58.1855 30.4367 58.2181C32.6273 58.2508 34.468 59.6848 35.1173 61.6541C37.2047 62.2855 38.71 64.2375 38.6753 66.5268C38.6333 69.2941 36.356 71.5041 33.5887 71.4628C32.198 71.4415 30.948 70.8561 30.054 69.9261C29.134 70.8288 27.8673 71.3768 26.476 71.3554C23.7087 71.3134 21.4987 69.0355 21.54 66.2675Z" fill="white"/>
<path opacity="0.4" d="M356.319 64.0635C356.355 61.6148 358.143 59.6021 360.471 59.2015C361.21 57.3081 363.065 55.9815 365.215 56.0141C367.405 56.0468 369.247 57.4808 369.895 59.4501C371.983 60.0815 373.489 62.0335 373.454 64.3228C373.412 67.0901 371.135 69.3001 368.367 69.2588C366.976 69.2375 365.726 68.6521 364.831 67.7221C363.911 68.6248 362.645 69.1728 361.254 69.1515C358.486 69.1095 356.277 66.8315 356.319 64.0635Z" fill="white"/>
<path d="M164.044 32.7761C164.49 32.7701 164.937 32.8074 165.379 32.8754C165.823 32.9367 166.265 33.0261 166.701 33.1421C166.919 33.1974 167.133 33.2714 167.345 33.3481C167.561 33.4187 167.773 33.4994 167.979 33.5961C168.186 33.6894 168.399 33.7701 168.596 33.8874C168.794 34.0001 169.002 34.0987 169.193 34.2247L169.762 34.6167C169.943 34.7594 170.109 34.9227 170.282 35.0761C170.463 35.2227 170.605 35.4081 170.757 35.5841C170.906 35.7634 171.069 35.9321 171.183 36.1374L171.549 36.7354L171.823 37.3794C171.926 37.5914 171.99 37.8147 172.041 38.0421L172.208 38.7201L171.554 38.7207L171.714 38.0794L171.795 37.7594L171.921 37.4534C172.008 37.2507 172.083 37.0427 172.182 36.8461L172.525 36.2807C172.629 36.0854 172.79 35.9307 172.922 35.7561C173.059 35.5841 173.198 35.4147 173.362 35.2701C173.522 35.1227 173.669 34.9594 173.843 34.8287L174.364 34.4401C174.543 34.3187 174.731 34.2127 174.913 34.0987C175.093 33.9801 175.29 33.8947 175.48 33.7954C175.861 33.6007 176.256 33.4367 176.659 33.3007C177.061 33.1647 177.471 33.0521 177.884 32.9641C178.295 32.8694 178.714 32.8041 179.133 32.7754C178.318 32.9774 177.526 33.2454 176.775 33.5961C176.399 33.7667 176.026 33.9441 175.676 34.1594C175.501 34.2674 175.319 34.3607 175.157 34.4861C174.991 34.6061 174.821 34.7181 174.661 34.8441C174.349 35.1047 174.047 35.3721 173.777 35.6707C173.63 35.8087 173.509 35.9681 173.391 36.1294C173.277 36.2934 173.134 36.4367 173.049 36.6181L172.753 37.1354C172.667 37.3134 172.603 37.5021 172.526 37.6847L172.415 37.9607L172.347 38.2514L172.208 38.8307L171.887 40.1781L171.554 38.8321L171.402 38.2167C171.359 38.0087 171.305 37.8047 171.213 37.6147L170.974 37.0301L170.651 36.4881C170.557 36.2974 170.413 36.1414 170.284 35.9741C170.152 35.8087 170.03 35.6347 169.868 35.4954C169.713 35.3501 169.568 35.1934 169.406 35.0554L168.903 34.6561C168.732 34.5261 168.543 34.4201 168.363 34.3001C168.186 34.1754 167.988 34.0854 167.797 33.9821C167.607 33.8761 167.409 33.7847 167.207 33.7021C167.008 33.6141 166.807 33.5274 166.599 33.4594C165.781 33.1407 164.922 32.9194 164.044 32.7761Z" fill="black"/>
<path d="M337.973 13.1227C338.418 13.1167 338.866 13.1541 339.308 13.2221C339.752 13.2834 340.193 13.3727 340.629 13.4887C340.848 13.5441 341.061 13.6181 341.275 13.6947C341.489 13.7654 341.702 13.8461 341.907 13.9427C342.115 14.0361 342.328 14.1167 342.525 14.2341C342.723 14.3467 342.931 14.4454 343.122 14.5714L343.691 14.9634C343.871 15.1061 344.037 15.2694 344.211 15.4227C344.391 15.5694 344.533 15.7547 344.686 15.9307C344.835 16.1101 344.999 16.2787 345.112 16.4841L345.478 17.0821L345.753 17.7261C345.855 17.9381 345.919 18.1614 345.969 18.3887L346.137 19.0667L345.483 19.0674L345.643 18.4261L345.723 18.1061L345.849 17.8001C345.936 17.5974 346.011 17.3894 346.111 17.1927L346.454 16.6274C346.558 16.4321 346.719 16.2774 346.851 16.1027C346.987 15.9307 347.127 15.7614 347.291 15.6167C347.451 15.4694 347.598 15.3061 347.773 15.1754L348.293 14.7867C348.472 14.6654 348.659 14.5594 348.841 14.4454C349.021 14.3267 349.219 14.2414 349.409 14.1421C349.789 13.9474 350.185 13.7834 350.588 13.6474C350.991 13.5114 351.4 13.3987 351.813 13.3107C352.225 13.2161 352.643 13.1507 353.063 13.1221C352.247 13.3241 351.455 13.5921 350.705 13.9427C350.329 14.1134 349.955 14.2907 349.605 14.5061C349.431 14.6141 349.249 14.7074 349.086 14.8327C348.921 14.9527 348.75 15.0647 348.591 15.1907C348.279 15.4514 347.977 15.7187 347.707 16.0174C347.56 16.1554 347.439 16.3147 347.321 16.4761C347.207 16.6401 347.064 16.7834 346.978 16.9647L346.683 17.4821C346.597 17.6601 346.533 17.8487 346.456 18.0314L346.345 18.3074L346.277 18.5981L346.138 19.1774L345.817 20.5247L345.485 19.1787L345.332 18.5634C345.289 18.3554 345.235 18.1514 345.143 17.9614L344.904 17.3767L344.581 16.8347C344.487 16.6441 344.343 16.4881 344.214 16.3207C344.082 16.1554 343.96 15.9814 343.798 15.8421C343.644 15.6967 343.498 15.5401 343.336 15.4021L342.833 15.0027C342.662 14.8727 342.473 14.7667 342.293 14.6467C342.116 14.5221 341.918 14.4321 341.727 14.3287C341.537 14.2227 341.339 14.1314 341.137 14.0487C340.937 13.9607 340.737 13.8741 340.529 13.8061C339.709 13.4874 338.85 13.2661 337.973 13.1227Z" fill="black"/>
<path d="M416.721 55.2175C417.166 55.2115 417.614 55.2488 418.056 55.3168C418.5 55.3781 418.941 55.4675 419.377 55.5835C419.596 55.6388 419.809 55.7128 420.023 55.7895C420.237 55.8601 420.45 55.9408 420.655 56.0375C420.863 56.1308 421.076 56.2115 421.273 56.3288C421.471 56.4415 421.679 56.5401 421.87 56.6661L422.439 57.0581C422.619 57.2008 422.785 57.3641 422.959 57.5175C423.139 57.6641 423.281 57.8495 423.434 58.0255C423.583 58.2048 423.747 58.3735 423.86 58.5788L424.226 59.1768L424.501 59.8208C424.603 60.0328 424.667 60.2561 424.717 60.4835L424.885 61.1615L424.231 61.1621L424.391 60.5208L424.471 60.2008L424.597 59.8948C424.684 59.6921 424.759 59.4841 424.859 59.2875L425.202 58.7221C425.306 58.5268 425.467 58.3721 425.599 58.1975C425.735 58.0255 425.875 57.8561 426.039 57.7115C426.199 57.5641 426.346 57.4008 426.521 57.2701L427.041 56.8815C427.22 56.7601 427.407 56.6541 427.589 56.5401C427.769 56.4215 427.967 56.3361 428.157 56.2368C428.537 56.0421 428.933 55.8781 429.336 55.7421C429.739 55.6061 430.148 55.4935 430.561 55.4055C430.973 55.3108 431.391 55.2455 431.811 55.2168C430.995 55.4188 430.203 55.6868 429.453 56.0375C429.077 56.2081 428.703 56.3855 428.353 56.6008C428.179 56.7088 427.997 56.8021 427.834 56.9275C427.669 57.0475 427.498 57.1595 427.339 57.2855C427.027 57.5461 426.725 57.8135 426.455 58.1121C426.308 58.2501 426.187 58.4095 426.069 58.5708C425.955 58.7348 425.812 58.8781 425.726 59.0595L425.431 59.5768C425.345 59.7548 425.281 59.9435 425.204 60.1261L425.093 60.4021L425.025 60.6928L424.886 61.2721L424.565 62.6195L424.233 61.2735L424.08 60.6581C424.037 60.4501 423.983 60.2461 423.891 60.0561L423.652 59.4715L423.329 58.9295C423.235 58.7388 423.091 58.5828 422.962 58.4155C422.83 58.2501 422.708 58.0761 422.546 57.9368C422.392 57.7915 422.246 57.6348 422.084 57.4968L421.581 57.0975C421.41 56.9675 421.221 56.8615 421.041 56.7415C420.864 56.6168 420.666 56.5268 420.475 56.4235C420.285 56.3175 420.087 56.2261 419.885 56.1435C419.685 56.0555 419.485 55.9688 419.277 55.9008C418.457 55.5821 417.598 55.3608 416.721 55.2175Z" fill="black"/>
<path d="M104 67.3367C104.346 67.332 104.692 67.3607 105.035 67.414C105.379 67.4613 105.721 67.5307 106.059 67.6207C106.394 67.7167 106.729 67.8267 107.049 67.972C107.375 68.104 107.685 68.2787 107.99 68.4587L108.431 68.7627C108.571 68.8733 108.699 69 108.833 69.1187C108.973 69.2327 109.083 69.376 109.201 69.5127C109.317 69.6513 109.443 69.782 109.531 69.9413L109.815 70.4047L110.028 70.904C110.185 71.2327 110.229 71.596 110.326 71.9427L109.819 71.9433L109.943 71.446C109.977 71.2787 110.03 71.1167 110.103 70.9607C110.171 70.804 110.229 70.642 110.306 70.49L110.571 70.052C110.652 69.9007 110.777 69.7807 110.879 69.646C110.985 69.5127 111.092 69.382 111.22 69.27C111.453 69.0233 111.725 68.824 111.997 68.6273C112.278 68.4473 112.561 68.2693 112.861 68.128C113.156 67.9773 113.463 67.85 113.774 67.7447C114.086 67.6393 114.403 67.5527 114.723 67.484C115.042 67.4107 115.366 67.3593 115.691 67.338C115.06 67.494 114.446 67.702 113.865 67.974C113.573 68.106 113.284 68.244 113.013 68.41C112.735 68.5647 112.479 68.7533 112.227 68.9407C111.985 69.1427 111.751 69.35 111.541 69.5807C111.427 69.6873 111.333 69.8113 111.243 69.936C111.155 70.0627 111.043 70.174 110.977 70.3147L110.749 70.7153C110.682 70.8533 110.633 71 110.573 71.1413C110.507 71.2807 110.462 71.4273 110.434 71.58L110.327 72.0287L110.107 72.9487L109.819 72.03C109.722 71.718 109.697 71.3813 109.555 71.086L109.37 70.6327L109.119 70.2133C109.047 70.066 108.935 69.9447 108.835 69.8153C108.733 69.6873 108.639 69.552 108.513 69.444C108.286 69.2047 108.029 68.9973 107.765 68.794C107.491 68.606 107.212 68.4187 106.909 68.272C106.613 68.1113 106.299 67.9827 105.98 67.8673C105.347 67.6193 104.681 67.448 104 67.3367Z" fill="black"/>
<path d="M258.031 62.5154C258.377 62.5107 258.723 62.5394 259.065 62.5927C259.409 62.6401 259.751 62.7094 260.089 62.7994C260.425 62.8954 260.759 63.0054 261.079 63.1507C261.406 63.2827 261.715 63.4574 262.021 63.6374L262.461 63.9414C262.601 64.0521 262.729 64.1787 262.864 64.2974C263.004 64.4114 263.114 64.5547 263.232 64.6914C263.347 64.8301 263.474 64.9607 263.562 65.1201L263.846 65.5834L264.059 66.0827C264.215 66.4114 264.259 66.7747 264.357 67.1214L263.85 67.122L263.974 66.6247C264.008 66.4574 264.061 66.2954 264.134 66.1394C264.202 65.9827 264.26 65.8207 264.337 65.6687L264.602 65.2307C264.683 65.0794 264.807 64.9594 264.909 64.8247C265.015 64.6914 265.123 64.5607 265.251 64.4487C265.484 64.202 265.756 64.0027 266.027 63.8061C266.309 63.6261 266.591 63.448 266.892 63.3067C267.187 63.156 267.493 63.0287 267.805 62.9234C268.117 62.8181 268.434 62.7314 268.754 62.6627C269.073 62.5894 269.397 62.5381 269.722 62.5167C269.091 62.6727 268.477 62.8807 267.895 63.1527C267.604 63.2847 267.315 63.4227 267.043 63.5887C266.765 63.7434 266.51 63.9321 266.257 64.1194C266.015 64.3214 265.781 64.5287 265.572 64.7594C265.458 64.8661 265.364 64.99 265.273 65.1147C265.185 65.2414 265.074 65.3527 265.008 65.4934L264.779 65.8941C264.713 66.0321 264.663 66.1787 264.603 66.3201C264.538 66.4594 264.493 66.6061 264.465 66.7587L264.357 67.2074L264.137 68.1274L263.85 67.2087C263.753 66.8967 263.728 66.5601 263.586 66.2647L263.401 65.8114L263.15 65.392C263.077 65.2447 262.965 65.1234 262.866 64.994C262.764 64.866 262.669 64.7307 262.544 64.6227C262.317 64.3834 262.06 64.1761 261.796 63.9727C261.522 63.7847 261.243 63.5974 260.939 63.4507C260.644 63.2901 260.329 63.1614 260.011 63.0461C259.377 62.7981 258.711 62.6267 258.031 62.5154Z" fill="black"/>
<path d="M536 293.574H0V360H536V293.574Z" fill="#89796E"/>
<defs>
<linearGradient id="paint0_linear" x1="271.115" y1="-2.04462" x2="268.304" y2="362.071" gradientUnits="userSpaceOnUse">
<stop offset="0.19" stop-color="#CDECF7"/>
<stop offset="0.4218" stop-color="#DDF2F9"/>
<stop offset="0.6865" stop-color="#E8F6FB"/>
<stop offset="1" stop-color="#EBF7FB"/>
</linearGradient>
</defs>
</svg>
