<svg width="360" height="244" viewBox="0 0 360 244" fill="none" xmlns="http://www.w3.org/2000/svg">
<path d="M360 0H0V244H360V0Z" fill="url(#paint0_linear)"/>
<path opacity="0.5" d="M191.633 39.036C197.575 39.036 202.393 34.2189 202.393 28.2766C202.393 22.3344 197.575 17.5172 191.633 17.5172C185.691 17.5172 180.874 22.3344 180.874 28.2766C180.874 34.2189 185.691 39.036 191.633 39.036Z" fill="#FFF200"/>
<path opacity="0.4" d="M109.8 22.5902C109.8 25.8263 107.478 28.5215 104.41 29.0974C103.472 31.6145 101.047 33.4039 98.2053 33.4039C95.31 33.4039 92.8495 31.5464 91.9525 28.9566C89.1814 28.1645 87.1538 25.6152 87.1538 22.5902C87.1538 18.9323 90.1194 15.9667 93.7773 15.9667C95.6155 15.9667 97.2779 16.7156 98.4785 17.9267C99.6763 16.7156 101.339 15.9667 103.177 15.9667C106.835 15.9667 109.8 18.9323 109.8 22.5902Z" fill="white"/>
<path opacity="0.4" d="M158.702 34.9121C158.761 30.9713 161.639 27.7311 165.386 27.0861C166.575 24.0382 169.561 21.9029 173.022 21.9553C176.548 22.0087 179.51 24.316 180.555 27.4863C183.916 28.502 186.338 31.6443 186.283 35.3284C186.216 39.7835 182.549 43.3407 178.094 43.2735C175.856 43.2395 173.844 42.2969 172.405 40.8001C170.923 42.2532 168.885 43.1346 166.646 43.1006C162.192 43.0334 158.635 39.3672 158.702 34.9121Z" fill="white"/>
<path opacity="0.4" d="M176.39 40.9469C176.449 37.0061 179.328 33.7658 183.075 33.1209C184.263 30.073 187.25 27.9376 190.711 27.9901C194.237 28.0434 197.199 30.3508 198.244 33.5211C201.605 34.5368 204.027 37.6791 203.972 41.3632C203.904 45.8183 200.238 49.3755 195.783 49.3083C193.544 49.2743 191.533 48.3317 190.093 46.8349C188.612 48.288 186.574 49.1694 184.335 49.1354C179.88 49.0682 176.322 45.4025 176.39 40.9469Z" fill="white"/>
<path opacity="0.4" d="M254.463 18.5545C254.507 15.6652 256.617 13.2902 259.364 12.8169C260.236 10.5822 262.424 9.01682 264.962 9.055C267.547 9.0941 269.719 10.786 270.485 13.1099C272.948 13.8546 274.725 16.1583 274.684 18.8594C274.635 22.1254 271.947 24.7336 268.681 24.6844C267.04 24.6596 265.565 23.9682 264.51 22.8711C263.424 23.9365 261.929 24.5828 260.288 24.5579C257.022 24.5087 254.414 21.8209 254.463 18.5545Z" fill="white"/>
<path opacity="0.4" d="M59.0004 45.7245C59.0261 44.0349 60.2599 42.6462 61.8662 42.3697C62.3759 41.0633 63.6556 40.1479 65.1391 40.1705C66.6506 40.193 67.9207 41.1825 68.3687 42.5413C69.809 42.9769 70.8477 44.3238 70.8238 45.9034C70.7948 47.8129 69.2234 49.3378 67.314 49.3093C66.3544 49.2945 65.4919 48.8907 64.875 48.249C64.2402 48.8718 63.3662 49.2499 62.4062 49.2352C60.4968 49.2062 58.9719 47.6344 59.0004 45.7245Z" fill="white"/>
<path opacity="0.4" d="M289.998 44.2037C290.023 42.5142 291.257 41.1254 292.863 40.849C293.373 39.5426 294.652 38.6272 296.136 38.6497C297.647 38.6722 298.918 39.6617 299.366 41.0205C300.806 41.4562 301.845 42.803 301.821 44.3827C301.792 46.2921 300.221 47.817 298.311 47.7885C297.351 47.7738 296.489 47.3699 295.871 46.7282C295.237 47.3511 294.363 47.7292 293.403 47.7145C291.493 47.6855 289.969 46.1137 289.998 44.2037Z" fill="white"/>
<path d="M106.978 22.6155C107.286 22.6113 107.594 22.6371 107.899 22.684C108.206 22.7263 108.51 22.788 108.811 22.868C108.962 22.9062 109.109 22.9572 109.256 23.0101C109.404 23.0589 109.551 23.1146 109.693 23.1813C109.836 23.2457 109.983 23.3013 110.119 23.3823C110.255 23.46 110.399 23.5281 110.531 23.615L110.923 23.8855C111.048 23.984 111.163 24.0967 111.282 24.2025C111.407 24.3037 111.505 24.4315 111.61 24.553C111.713 24.6767 111.825 24.7931 111.904 24.9348L112.156 25.3474L112.346 25.7918C112.416 25.938 112.461 26.0921 112.496 26.249L112.611 26.7168L112.16 26.7173L112.27 26.2748L112.326 26.054L112.413 25.8428C112.473 25.703 112.525 25.5595 112.593 25.4238L112.83 25.0337C112.902 24.8989 113.013 24.7922 113.104 24.6717C113.198 24.553 113.294 24.4361 113.407 24.3363C113.518 24.2347 113.619 24.122 113.739 24.0318L114.099 23.7636C114.222 23.6799 114.352 23.6068 114.477 23.5281C114.601 23.4462 114.738 23.3873 114.869 23.3188C115.131 23.1845 115.404 23.0713 115.682 22.9775C115.96 22.8836 116.242 22.8059 116.528 22.7452C116.811 22.6799 117.1 22.6348 117.39 22.615C116.827 22.7544 116.28 22.9393 115.763 23.1813C115.503 23.299 115.245 23.4214 115.004 23.57C114.883 23.6445 114.757 23.7089 114.646 23.7954C114.532 23.8782 114.414 23.9554 114.304 24.0424C114.088 24.2222 113.88 24.4067 113.694 24.6128C113.592 24.708 113.509 24.8179 113.428 24.9293C113.349 25.0424 113.25 25.1413 113.191 25.2664L112.987 25.6234C112.928 25.7462 112.884 25.8764 112.83 26.0024L112.754 26.1929L112.707 26.3934L112.611 26.7932L112.389 27.7228L112.16 26.7941L112.055 26.3695C112.025 26.226 111.988 26.0852 111.925 25.9541L111.76 25.5507L111.537 25.1767C111.472 25.0452 111.372 24.9375 111.284 24.8221C111.192 24.708 111.108 24.5879 110.996 24.4918C110.89 24.3915 110.789 24.2834 110.678 24.1882L110.33 23.9127C110.213 23.823 110.082 23.7498 109.958 23.667C109.836 23.581 109.699 23.5189 109.567 23.4476C109.436 23.3745 109.3 23.3114 109.161 23.2544C109.023 23.1937 108.884 23.1339 108.741 23.087C108.177 22.8671 107.584 22.7144 106.978 22.6155Z" fill="black"/>
<path d="M226.989 9.05466C227.296 9.05052 227.605 9.07628 227.91 9.1232C228.216 9.16552 228.521 9.22716 228.822 9.3072C228.973 9.34538 229.119 9.39644 229.267 9.44934C229.415 9.4981 229.562 9.55376 229.704 9.62046C229.847 9.68486 229.994 9.74052 230.13 9.82148C230.266 9.89922 230.41 9.9673 230.542 10.0542L230.934 10.3247C231.059 10.4232 231.173 10.5359 231.293 10.6417C231.418 10.7429 231.516 10.8707 231.621 10.9922C231.723 11.1159 231.837 11.2323 231.915 11.374L232.167 11.7866L232.357 12.231C232.427 12.3772 232.471 12.5313 232.506 12.6882L232.622 13.156L232.171 13.1565L232.281 12.714L232.337 12.4932L232.423 12.282C232.483 12.1422 232.535 11.9987 232.604 11.863L232.841 11.4729C232.913 11.3381 233.023 11.2314 233.115 11.1109C233.209 10.9922 233.305 10.8753 233.418 10.7755C233.529 10.6739 233.63 10.5612 233.751 10.471L234.11 10.2028C234.233 10.1191 234.362 10.046 234.488 9.9673C234.612 9.88542 234.748 9.82654 234.88 9.758C235.142 9.62368 235.415 9.51052 235.693 9.41668C235.971 9.32284 236.254 9.2451 236.539 9.18438C236.823 9.11906 237.111 9.07398 237.401 9.0542C236.838 9.19358 236.292 9.3785 235.774 9.62046C235.515 9.73822 235.257 9.86058 235.015 10.0092C234.895 10.0837 234.769 10.1481 234.657 10.2346C234.543 10.3174 234.425 10.3946 234.316 10.4816C234.1 10.6614 233.891 10.8459 233.706 11.052C233.604 11.1472 233.521 11.2571 233.439 11.3685C233.361 11.4816 233.262 11.5805 233.202 11.7056L232.999 12.0626C232.939 12.1854 232.895 12.3156 232.842 12.4416L232.766 12.6321L232.718 12.8326L232.623 13.2324L232.401 14.162L232.172 13.2333L232.067 12.8087C232.037 12.6652 231.999 12.5244 231.936 12.3933L231.771 11.9899L231.548 11.6159C231.483 11.4844 231.384 11.3767 231.295 11.2613C231.204 11.1472 231.12 11.0271 231.008 10.931C230.902 10.8307 230.801 10.7226 230.689 10.6274L230.342 10.3519C230.224 10.2622 230.094 10.189 229.97 10.1062C229.848 10.0202 229.711 9.9581 229.579 9.8868C229.448 9.81366 229.312 9.75064 229.172 9.6936C229.034 9.63288 228.896 9.57308 228.752 9.52616C228.187 9.30628 227.594 9.15356 226.989 9.05466Z" fill="black"/>
<path d="M281.325 38.0999C281.632 38.0958 281.941 38.1216 282.246 38.1685C282.553 38.2108 282.857 38.2724 283.158 38.3525C283.309 38.3907 283.456 38.4417 283.603 38.4946C283.751 38.5434 283.898 38.599 284.04 38.6657C284.183 38.7301 284.33 38.7858 284.466 38.8668C284.602 38.9445 284.746 39.0126 284.878 39.0995L285.27 39.37C285.395 39.4684 285.509 39.5811 285.629 39.6869C285.754 39.7881 285.852 39.916 285.957 40.0375C286.06 40.1612 286.173 40.2776 286.251 40.4193L286.503 40.8319L286.693 41.2763C286.763 41.4225 286.808 41.5766 286.843 41.7335L286.958 42.2013L286.507 42.2018L286.617 41.7592L286.673 41.5385L286.759 41.3273C286.819 41.1875 286.871 41.0439 286.94 40.9082L287.177 40.5182C287.249 40.3834 287.36 40.2767 287.451 40.1561C287.545 40.0375 287.641 39.9206 287.754 39.8208C287.865 39.7191 287.966 39.6064 288.087 39.5163L288.446 39.2481C288.569 39.1644 288.699 39.0912 288.824 39.0126C288.948 38.9307 289.085 38.8718 289.216 38.8033C289.478 38.669 289.752 38.5558 290.029 38.462C290.307 38.3681 290.59 38.2904 290.875 38.2297C291.159 38.1643 291.447 38.1193 291.737 38.0995C291.174 38.2389 290.628 38.4238 290.11 38.6657C289.851 38.7835 289.593 38.9059 289.351 39.0544C289.231 39.129 289.105 39.1934 288.993 39.2798C288.879 39.3626 288.761 39.4399 288.652 39.5269C288.436 39.7067 288.228 39.8912 288.042 40.0973C287.94 40.1925 287.857 40.3024 287.775 40.4137C287.697 40.5269 287.598 40.6258 287.538 40.7509L287.335 41.1079C287.275 41.2307 287.231 41.3609 287.178 41.4869L287.102 41.6774L287.055 41.8779L286.959 42.2777L286.737 43.2073L286.508 42.2786L286.403 41.854C286.373 41.7105 286.336 41.5697 286.273 41.4386L286.107 41.0352L285.884 40.6612C285.819 40.5297 285.72 40.422 285.631 40.3066C285.54 40.1925 285.456 40.0724 285.344 39.9763C285.238 39.876 285.137 39.7679 285.026 39.6727L284.678 39.3972C284.56 39.3075 284.43 39.2343 284.306 39.1515C284.184 39.0655 284.047 39.0034 283.915 38.9321C283.784 38.8589 283.648 38.7959 283.508 38.7389C283.37 38.6782 283.232 38.6184 283.088 38.5714C282.523 38.3516 281.93 38.1988 281.325 38.0999Z" fill="black"/>
<path d="M65.5475 46.4624C65.7863 46.4592 66.025 46.4789 66.2615 46.5157C66.4988 46.5484 66.7348 46.5962 66.968 46.6583C67.1994 46.7246 67.4303 46.8005 67.6511 46.9008C67.8765 46.9918 68.09 47.1124 68.3006 47.2366L68.6047 47.4463C68.7013 47.5227 68.7896 47.6101 68.8825 47.692C68.9791 47.7706 69.055 47.8695 69.1365 47.9638C69.216 48.0595 69.3034 48.1497 69.3642 48.2596L69.5601 48.5793L69.7069 48.9238C69.815 49.1506 69.8453 49.4013 69.9125 49.6405L69.5629 49.641L69.6484 49.2978C69.6719 49.1824 69.7082 49.0706 69.7588 48.9629C69.8058 48.8548 69.8458 48.7431 69.8987 48.6382L70.0818 48.336C70.1374 48.2315 70.2234 48.1487 70.2938 48.0558C70.367 47.9638 70.441 47.8737 70.5293 47.7964C70.6903 47.6262 70.878 47.4886 71.0652 47.3529C71.2594 47.2287 71.4544 47.1059 71.6619 47.0084C71.8652 46.9044 72.0768 46.8166 72.2916 46.7439C72.5069 46.6712 72.7258 46.6114 72.9466 46.564C73.1665 46.5134 73.3901 46.478 73.6146 46.4633C73.1789 46.5709 72.7553 46.7145 72.3542 46.9021C72.1531 46.9932 71.9535 47.0884 71.7663 47.203C71.5745 47.3097 71.3983 47.4399 71.2239 47.5691C71.057 47.7085 70.8955 47.8516 70.7511 48.0107C70.6724 48.0843 70.6075 48.1699 70.545 48.2559C70.4843 48.3433 70.4074 48.4201 70.3619 48.5172L70.2041 48.7937C70.1581 48.8889 70.1241 48.9901 70.0827 49.0876C70.0376 49.1837 70.0063 49.2849 69.987 49.3903L69.9129 49.6999L69.7611 50.3347L69.5629 49.7008C69.4957 49.4855 69.4787 49.2532 69.3807 49.0494L69.2528 48.7366L69.0799 48.4473C69.0297 48.3456 68.9525 48.2619 68.8839 48.1727C68.8135 48.0843 68.7482 47.991 68.6617 47.9164C68.5049 47.7513 68.3278 47.6082 68.1456 47.4679C67.9566 47.3382 67.7638 47.209 67.5545 47.1078C67.3507 46.9969 67.1336 46.9081 66.9137 46.8285C66.4767 46.6574 66.0172 46.5392 65.5475 46.4624Z" fill="black"/>
<path d="M171.829 43.1356C172.067 43.1324 172.306 43.1522 172.543 43.189C172.78 43.2216 173.016 43.2695 173.249 43.3316C173.481 43.3978 173.711 43.4737 173.932 43.574C174.158 43.6651 174.371 43.7856 174.582 43.9098L174.886 44.1195C174.982 44.1959 175.071 44.2833 175.164 44.3652C175.26 44.4438 175.336 44.5427 175.418 44.637C175.497 44.7327 175.585 44.8229 175.645 44.9328L175.841 45.2525L175.988 45.5971C176.096 45.8238 176.126 46.0745 176.194 46.3137L175.844 46.3142L175.93 45.971C175.953 45.8556 175.989 45.7438 176.04 45.6362C176.087 45.5281 176.127 45.4163 176.18 45.3114L176.363 45.0092C176.419 44.9048 176.505 44.822 176.575 44.729C176.648 44.637 176.722 44.5469 176.811 44.4696C176.972 44.2994 177.159 44.1619 177.346 44.0262C177.541 43.902 177.736 43.7791 177.943 43.6816C178.146 43.5777 178.358 43.4898 178.573 43.4171C178.788 43.3444 179.007 43.2846 179.228 43.2373C179.448 43.1867 179.671 43.1512 179.896 43.1365C179.46 43.2442 179.036 43.3877 178.635 43.5754C178.434 43.6664 178.235 43.7617 178.047 43.8762C177.856 43.9829 177.679 44.1131 177.505 44.2424C177.338 44.3817 177.177 44.5248 177.032 44.684C176.954 44.7576 176.889 44.8431 176.826 44.9291C176.765 45.0165 176.689 45.0934 176.643 45.1904L176.485 45.4669C176.439 45.5621 176.405 45.6633 176.364 45.7608C176.319 45.857 176.287 45.9582 176.268 46.0635L176.194 46.3731L176.042 47.0079L175.844 46.374C175.777 46.1587 175.76 45.9264 175.662 45.7226L175.534 45.4098L175.361 45.1205C175.311 45.0188 175.234 44.9351 175.165 44.8459C175.095 44.7576 175.029 44.6642 174.943 44.5897C174.786 44.4245 174.609 44.2815 174.427 44.1412C174.238 44.0114 174.045 43.8822 173.836 43.781C173.632 43.6701 173.415 43.5813 173.195 43.5018C172.757 43.3306 172.298 43.2124 171.829 43.1356Z" fill="black"/>
<path d="M275.188 87.7252H145.008V179.816H275.188V87.7252Z" fill="#754C29"/>
<path d="M286.78 77.1249L275.189 87.7252H145.008L132.163 77.1249H137.199L140.199 75.9464L145.008 77.446L149.413 75.9464L153.914 77.2321L157.771 75.9464L162.914 77.2321L168.486 75.9464L173.201 77.446L177.701 75.9464L182.952 77.6608L187.559 75.9464L192.488 78.4106L197.202 75.9464L202.56 78.4106L209.471 75.9464L214.775 78.4106L220.776 75.9464L226.776 78.4106L232.133 75.9464L237.214 78.4106L243.277 75.9464L247.348 78.4106L253.349 75.9464L258.278 78.4106L264.278 75.9464L270.278 78.4106L275.189 75.9464L279.348 77.7119L283.565 75.9464L286.78 77.1249Z" fill="#3C2415"/>
<path d="M275.134 109.101H145.008V113.571H275.134V109.101Z" fill="#684221"/>
<path d="M275.134 124.099H145.008V128.568H275.134V124.099Z" fill="#684221"/>
<path d="M275.134 139.622H145.008V144.092H275.134V139.622Z" fill="#684221"/>
<path d="M275.134 154.288H145.008V158.757H275.134V154.288Z" fill="#684221"/>
<path d="M254.939 106.047H219.168V179.815H254.939V106.047Z" fill="#3C2415"/>
<path d="M290.388 186.525L254.938 179.815V106.047L290.388 100.591V186.525Z" fill="#A97C50"/>
<path d="M193.774 108.857H168.737V113.815H193.774V108.857Z" fill="#A97C50"/>
<path d="M193.774 113.815H168.737V118.773H193.774V113.815Z" fill="#C49A6C"/>
<path d="M193.774 118.773H168.737V123.731H193.774V118.773Z" fill="#A97C50"/>
<path d="M193.774 123.855H168.737V128.812H193.774V123.855Z" fill="#C49A6C"/>
<path d="M193.774 128.812H168.737V133.77H193.774V128.812Z" fill="#A97C50"/>
<path d="M286.78 182.453L258.278 176.881V108.52L286.78 104.877V182.453Z" fill="#8B5E3C"/>
<path d="M288.28 149.451L256.777 146.022V142.931L288.28 144.737V149.451Z" fill="#603913"/>
<path d="M137.199 77.1249L148.556 87.7252" stroke="#603913" stroke-width="0.964344" stroke-miterlimit="10"/>
<path d="M279.348 77.7119L270.921 87.7252" stroke="#603913" stroke-width="0.964344" stroke-miterlimit="10"/>
<path d="M202.238 78.4107L203.631 87.7252" stroke="#603913" stroke-width="0.964344" stroke-miterlimit="10"/>
<path d="M214.775 78.4107V87.7252" stroke="#603913" stroke-width="0.964344" stroke-miterlimit="10"/>
<path d="M226.776 78.4107L225.704 87.7252" stroke="#603913" stroke-width="0.964344" stroke-miterlimit="10"/>
<path d="M237.214 78.4107L235.347 87.7252" stroke="#603913" stroke-width="0.964344" stroke-miterlimit="10"/>
<path d="M247.348 78.4107L244.027 87.7252" stroke="#603913" stroke-width="0.964344" stroke-miterlimit="10"/>
<path d="M258.278 78.4107L253.349 87.7252" stroke="#603913" stroke-width="0.964344" stroke-miterlimit="10"/>
<path d="M270.278 78.4107L263.849 87.7252" stroke="#603913" stroke-width="0.964344" stroke-miterlimit="10"/>
<path d="M264.278 75.9464L258.278 87.7252" stroke="#603913" stroke-width="0.964344" stroke-miterlimit="10"/>
<path d="M253.349 75.9464L248.741 87.7252" stroke="#603913" stroke-width="0.964344" stroke-miterlimit="10"/>
<path d="M243.277 75.9464L240.317 87.7252" stroke="#603913" stroke-width="0.964344" stroke-miterlimit="10"/>
<path d="M232.133 75.9464L230.419 87.7252" stroke="#603913" stroke-width="0.964344" stroke-miterlimit="10"/>
<path d="M220.776 75.9464L219.81 87.7252" stroke="#603913" stroke-width="0.964344" stroke-miterlimit="10"/>
<path d="M209.471 75.9464V87.7252" stroke="#603913" stroke-width="0.964344" stroke-miterlimit="10"/>
<path d="M192.488 78.4107L195.595 87.7252" stroke="#603913" stroke-width="0.964344" stroke-miterlimit="10"/>
<path d="M182.952 77.6609L187.988 87.7252" stroke="#603913" stroke-width="0.964344" stroke-miterlimit="10"/>
<path d="M173.201 77.446L180.916 87.7252" stroke="#603913" stroke-width="0.964344" stroke-miterlimit="10"/>
<path d="M162.914 77.2322L171.487 87.7252" stroke="#603913" stroke-width="0.964344" stroke-miterlimit="10"/>
<path d="M153.914 77.2322L162.486 87.7252" stroke="#603913" stroke-width="0.964344" stroke-miterlimit="10"/>
<path d="M145.008 77.446L154.557 87.7252" stroke="#603913" stroke-width="0.964344" stroke-miterlimit="10"/>
<path d="M167.843 75.9464L176.523 87.7252" stroke="#603913" stroke-width="0.964344" stroke-miterlimit="10"/>
<path d="M275.134 96.1212H145.008V100.591H275.134V96.1212Z" fill="#684221"/>
<path d="M238.381 171.96L242.289 188.451H244.511L243.755 171.96H238.381Z" fill="#8B5E3C"/>
<path d="M242.121 187.595L239.236 192.848L242.901 195.169L244.511 194.436L244.511 187.595H242.121Z" fill="#8B5E3C"/>
<path d="M252.23 171.96L248.321 188.451H246.099L246.855 171.96H252.23Z" fill="#8B5E3C"/>
<path d="M235.571 163.287L235.204 173.304L240.701 174.158L244.366 172.937L244.511 161.454L235.571 163.287Z" fill="#FBB040"/>
<path d="M244.511 162.065L245.122 172.184L249.641 172.937L253.818 171.838L253.452 160.233L244.511 162.065Z" fill="#FBB040"/>
<path d="M234.899 129.939L232.517 145.697L236.365 147.071V129.939H234.899Z" fill="#262262"/>
<path d="M253.68 129.939L256.063 145.697L252.214 147.071V129.939H253.68Z" fill="#262262"/>
<path d="M242.982 194.333L240.228 190.737L240.829 189.947L242.941 193.074L244.511 190.513L244.816 191.586L242.982 194.333Z" fill="#F15A29"/>
<path d="M242.961 193.704V195.169" stroke="#F15A29" stroke-width="0.732918" stroke-miterlimit="10"/>
<path d="M248.489 187.595L251.375 192.848L247.71 195.169L246.099 194.436V187.595H248.489Z" fill="#8B5E3C"/>
<path d="M247.628 194.333L245.974 191.855L246.099 190.589L247.67 193.074L250.23 189.718L250.383 190.737L247.628 194.333Z" fill="#F15A29"/>
<path d="M247.649 193.704V195.169" stroke="#F15A29" stroke-width="0.732918" stroke-miterlimit="10"/>
<path d="M242.228 127.496L241.507 129.939L240.518 130.428L244.511 136.169L248.737 130.55L247.729 129.939L247.283 127.496H242.228Z" fill="#8B5E3C"/>
<path d="M241.507 129.939L244.512 134.091L247.729 129.939H253.222V152.477L254.307 164.203L249.557 162.554L234.716 164.203L235.427 152.11L234.899 129.939H241.118" fill="#2B3990"/>
<path d="M253.375 161.454L253.863 166.586L252.214 169.639L249.343 167.074L250.199 164.203L249.343 163.165L251.298 160.233L253.143 146.74L255.665 145.839L253.375 161.454Z" fill="#8B5E3C"/>
<path d="M248.462 116.869H240.885V128.107H248.462V116.869Z" fill="#8B5E3C"/>
<path d="M240.885 123.831L241.873 118.578H247.298L248.462 123.953V116.869H240.885V123.831Z" fill="black"/>
<path d="M241.812 122.121H240.224V124.197H241.812V122.121Z" fill="#8B5E3C"/>
<path d="M235.204 161.454L234.716 166.586L236.365 169.639L239.236 167.074L238.381 164.203L239.236 163.165L237.281 160.233L236.365 147.071L233.264 145.924L235.204 161.454Z" fill="#8B5E3C"/>
<path d="M249.256 122.121H247.668V124.197H249.256V122.121Z" fill="#8B5E3C"/>
<path d="M246.21 126.254H243.137V126.877H246.21V126.254Z" fill="white"/>
<path d="M244.511 187.595H244.931V194.436L243.603 195.856L242.515 195.902L238.381 193.344L241.446 187.595H242.121L239.342 192.742L242.961 195.169L244.511 194.253V187.595Z" fill="#F15A29"/>
<path d="M246.248 187.595H245.828V194.436L247.156 195.856L248.245 195.902L252.379 193.344L249.191 187.595H248.489L251.275 192.787L247.798 195.169L246.248 194.253V187.595Z" fill="#F15A29"/>
<path d="M242.25 122.032L243.052 121.798L243.341 121.885L243.827 122.032L243.022 122.266L242.25 122.032Z" fill="white"/>
<path d="M243.216 122.214L243.241 121.854L243.052 121.798L242.809 121.857L242.792 122.196L243.022 122.266L243.216 122.214Z" fill="black"/>
<path d="M245.7 122.032L246.502 121.798L246.791 121.885L247.278 122.032L246.473 122.266L245.7 122.032Z" fill="white"/>
<path d="M246.666 122.214L246.691 121.854L246.502 121.798L246.259 121.857L246.242 122.196L246.473 122.266L246.666 122.214Z" fill="black"/>
<path d="M251.79 184.909L252.459 190.039L252.125 191.139L252.459 194.62L255.88 195.292L256.734 194.864L254.358 190.588L254.658 184.909H251.79Z" fill="#754C29" stroke="#754C29" stroke-width="0.183218" stroke-miterlimit="10"/>
<path d="M254.276 151.377L254.459 152.537L254.276 153.53L255.101 156.37L257.528 159.623L260.551 155.271V153.542L260.046 153.488L259.086 151.377H254.276Z" fill="#6D4624"/>
<path d="M260.141 147.591V149.453H259.39V151.806H252.673V143.377H259.39V147.591H260.141Z" fill="#754C29" stroke="#754C29" stroke-width="0.183218" stroke-miterlimit="10"/>
<path d="M262.045 184.909L261.376 190.039L261.71 191.139L261.376 194.62L257.955 195.292L257.101 194.864L259.477 190.588L259.177 184.909H262.045Z" fill="#754C29" stroke="#754C29" stroke-width="0.183218" stroke-miterlimit="10"/>
<path d="M263.912 185.824H249.191L251.207 169.352V152.538L254.406 152.883L254.915 154.95L257.528 157.882L259.789 155.21L260.046 153.488L262.567 153.759L261.955 169.396H261.926L263.912 185.824Z" fill="#006838"/>
<path d="M253.711 158.889L252.673 162.311L254.062 168.54L255.238 170.677L255.365 173.72L252.612 173.06V169.273L250.23 162.432L250.718 158.156L253.711 158.889Z" fill="#754C29" stroke="#754C29" stroke-width="0.183218" stroke-miterlimit="10"/>
<path d="M254.062 152.845V159.623L250.23 158.523L251.207 152.537L254.062 152.845Z" fill="#044C29"/>
<path d="M263.483 158.156L263.911 163.409L259.025 169.395L258.291 171.349L256.887 172.326L255.665 171.838L257.925 167.684L261.223 162.86L261.712 159.623L263.483 158.156Z" fill="#754C29" stroke="#754C29" stroke-width="0.183218" stroke-miterlimit="10"/>
<path d="M262.567 153.759L263.911 158.645L261.223 160.233V153.759H262.567Z" fill="#044C29"/>
<path d="M255.91 194.832L252.274 192.698L252.286 191.855L255.047 193.475L255.259 192.209L255.849 193.214L255.91 194.832Z" fill="#EE2A7B"/>
<path d="M252.322 190.492L252.274 189.947L250.949 190.308L252.274 194.832L254.627 196.177L256.734 195.536L256.917 195.016L256.734 194.864L255.787 195.26L252.459 194.62L252.125 191.139L252.322 190.492Z" fill="#EE2A7B"/>
<path d="M257.925 194.832L261.561 192.698L261.549 191.855L258.788 193.475L258.576 192.209L257.986 193.214L257.925 194.832Z" fill="#EE2A7B"/>
<path d="M261.514 190.492L261.561 189.947L262.886 190.308L261.561 194.832L259.209 196.177L257.101 195.536L256.917 195.016L257.101 194.864L258.047 195.26L261.376 194.62L261.71 191.139L261.514 190.492Z" fill="#EE2A7B"/>
<path d="M252.673 144.323H257.849L258.902 146.659L259.391 148.536L260.964 145.88V142.948L258.078 141.437L252.993 142.628L252.307 143.376L252.673 144.323Z" fill="#594A42"/>
<path d="M261.856 140.831L259.247 142.049L260.451 144.63L263.06 143.412L261.856 140.831Z" fill="#594A42"/>
<path d="M259.788 149.178V151.377" stroke="#9B8579" stroke-width="0.184184" stroke-miterlimit="10"/>
<path d="M255.665 150.094H253.467V150.644H255.665V150.094Z" fill="white"/>
<path d="M245.7 122.032L246.502 121.798L246.791 121.885L247.277 122.032L246.472 122.266L245.7 122.032Z" fill="white"/>
<path d="M246.666 122.214L246.691 121.854L246.502 121.798L246.259 121.857L246.242 122.196L246.472 122.266L246.666 122.214Z" fill="black"/>
<path d="M255.242 146.889L255.91 146.694L256.15 146.767L256.554 146.889L255.885 147.083L255.242 146.889Z" fill="white"/>
<path d="M256.046 147.04L256.066 146.741L255.91 146.694L255.707 146.744L255.693 147.025L255.885 147.083L256.046 147.04Z" fill="black"/>
<path d="M252.798 146.889L253.465 146.694L253.706 146.767L254.109 146.889L253.44 147.083L252.798 146.889Z" fill="white"/>
<path d="M253.601 147.04L253.621 146.741L253.465 146.694L253.262 146.744L253.248 147.025L253.44 147.083L253.601 147.04Z" fill="black"/>
<path d="M204.771 161.237H201.345V163.035H204.771V161.237Z" fill="#D1D3D4"/>
<path d="M214.369 161.41V164.341H213.695V162.16H208.435V164.341H207.694V161.41H214.369Z" fill="#27AAE1"/>
<path d="M217.811 162.83H200.471V180.097H217.811V162.83Z" fill="#27AAE1"/>
<path d="M215.4 166.37H202.724V177.106H215.4V166.37Z" fill="#1F93BC"/>
<path d="M188.154 161.558H184.728V163.357H188.154V161.558Z" fill="#D1D3D4"/>
<path d="M197.752 161.732V164.662H197.078V162.481H191.818V164.662H191.077V161.732H197.752Z" fill="#8DC63F"/>
<path d="M201.194 163.151H183.854V180.419H201.194V163.151Z" fill="#8DC63F"/>
<path d="M198.782 166.691H186.106V177.427H198.782V166.691Z" fill="#39B54A"/>
<path d="M188.154 161.558H184.728V163.357H188.154V161.558Z" fill="#D1D3D4"/>
<path d="M197.752 161.732V164.662H197.078V162.481H191.818V164.662H191.077V161.732H197.752Z" fill="#8DC63F"/>
<path d="M201.194 163.151H183.854V180.419H201.194V163.151Z" fill="#8DC63F"/>
<path d="M198.782 166.691H186.106V177.427H198.782V166.691Z" fill="#39B54A"/>
<path d="M195.699 144.307H192.273V146.106H195.699V144.307Z" fill="#D1D3D4"/>
<path d="M205.296 144.481V147.411H204.622V145.23H199.362V147.411H198.622V144.481H205.296Z" fill="#F9ED32"/>
<path d="M208.739 145.901H191.398V163.168H208.739V145.901Z" fill="#F9ED32"/>
<path d="M206.327 149.44H193.651V160.176H206.327V149.44Z" fill="#D7DF23"/>
<path d="M165.912 161.021H162.486V162.82H165.912V161.021Z" fill="#D1D3D4"/>
<path d="M175.509 161.195V164.126H174.835V161.944H169.575V164.126H168.835V161.195H175.509Z" fill="#F9ED32"/>
<path d="M178.952 162.615H161.612V179.882H178.952V162.615Z" fill="#F9ED32"/>
<path d="M176.541 166.155H163.864V176.89H176.541V166.155Z" fill="#D7DF23"/>
<path d="M83.2986 161.303H79.8726V163.101H83.2986V161.303Z" fill="#D1D3D4"/>
<path d="M93.2314 161.108V164.038H92.5566V161.858H87.297V164.038H86.5564V161.108H93.2314Z" fill="#27AAE1"/>
<path d="M96.6736 162.528H79.333V179.795H96.6736V162.528Z" fill="#27AAE1"/>
<path d="M94.2623 166.068H81.5856V176.804H94.2623V166.068Z" fill="#1F93BC"/>
<path d="M93.9332 200.897L96.3891 199.933L96.8152 201.525L93.9917 201.088L93.9332 200.897Z" fill="#0D2817"/>
<path d="M97.5259 136.882L97.8458 136.275L97.6218 136.254L97.5259 136.882Z" fill="#E98B24"/>
<path d="M111.256 195.63L108.208 196.675L108.911 197.688L111.352 195.908L111.256 195.63Z" fill="#0D2817"/>
<path d="M57.8415 145.752H51.2463V197.375H57.8415V145.752Z" fill="#414042"/>
<path d="M57.7846 197.261L60.7979 194.646L61.0255 147.571L57.6139 147.117L57.7846 197.261Z" stroke="#414042" stroke-width="0.170581" stroke-miterlimit="10" stroke-linejoin="round"/>
<path d="M87.6332 145.752H81.038V197.375H87.6332V145.752Z" fill="#414042"/>
<path d="M87.6332 197.261L90.5893 194.646L90.8173 147.571L87.4056 147.117L87.6332 197.261Z" stroke="#414042" stroke-width="0.170581" stroke-miterlimit="10" stroke-linejoin="round"/>
<path d="M80.0146 161.216H73.4198V212.839H80.0146V161.216Z" fill="#414042"/>
<path d="M80.0146 212.84L82.9714 210.111L83.1982 163.035L79.7874 162.581L80.0146 212.84Z" stroke="#603913" stroke-width="0.170581" stroke-miterlimit="10"/>
<path d="M95.9908 199.479L97.1849 205.107L119.187 205.448L119.017 202.72L115.435 201.696L107.418 196.011L95.9908 199.479Z" fill="#1C110B"/>
<path d="M42.605 161.216H36.0098V212.839H42.605V161.216Z" fill="#414042"/>
<path d="M85.485 202.794L82.0045 203.402L82.2174 202.336L85.4906 202.549L85.485 202.794Z" fill="#0D2817"/>
<path d="M32.712 157.52L72.2826 158.176L72.7943 162.978L32.712 162.76V157.52Z" fill="#414042"/>
<path d="M67.2937 201.355L69.2979 201.44L69.1268 202.592L67.2782 201.522L67.2937 201.355Z" fill="#0D2817"/>
<path d="M69.5534 200.502L68.3593 204.084L80.6401 214.829L90.7031 215L91.0445 212.612L87.1785 210.395L82.2321 203.402V199.991L69.5534 200.502Z" fill="#1C110B"/>
<path d="M43.7987 140.464L94.285 140.635L111.341 195.897L93.9953 201.089L87.1216 179.864L89.6737 144.2L43.7987 140.464Z" fill="#0A381E"/>
<path d="M62.7309 89.6369L55.7382 87.4194L53.35 97.8237L61.1103 105.094L63.5836 102.94L63.442 96.6865L63.1149 95.3647L62.7309 89.6369Z" fill="#6D4426"/>
<path d="M65.5735 160.761L37.829 157.862L37.6583 157.094L39.7151 139.727L89.6737 144.2L85.4873 202.791L67.2781 201.522L69.4893 166.556L70.2358 164.058L68.0186 163.661L68.0755 162.011L65.9714 161.784L65.5735 160.761Z" fill="#054927"/>
<path d="M61.0661 100.191C64.3512 99.8674 63.2016 95.3062 63.2016 95.3062L70.2358 94.8116L71.5015 95.6067L75.4176 142.126L95.6502 140.806L106.225 165.026L94.5699 168.153L92.4093 196.239L69.8948 165.026L57.9553 200.502L63.584 162.296L36.806 157.691L42.8609 96.9715L53.7972 95.9477C53.7972 95.9477 57.06 100.255 60.8126 100.255C60.86 100.255 61.0876 105.034 61.1326 105.03L61.0661 100.191Z" fill="#FBB040"/>
<path d="M116.117 130.998L113.985 135.774L104.007 137.65L98.8903 136.371L77.5767 134.457L76.0348 134.835L74.3294 123.92L70.4065 94.9241L72.7362 95.9475L73.7871 99.229L76.574 125.021L99.3952 129.985L102.244 128.07L103.496 129.548L108.442 130.23L116.117 130.998Z" fill="#2C190F"/>
<path d="M98.9758 128.61L97.5259 136.882L74.1587 134.835L69.8948 94.8104L73.1353 94.5828L77.7406 124.09L98.9758 128.61Z" fill="#FAA739"/>
<path d="M67.4333 139.254L78.7083 146.748L107.622 145.992L97.1881 138.024L67.4333 139.254Z" fill="#E6E7E8"/>
<path d="M78.9657 146.092L107.29 145.725L107.742 147.037L78.7883 147.616L78.9657 146.092Z" fill="#D1D3D4"/>
<path d="M79.3505 146.423L67.9765 139.261L67.7664 140.552L79.1993 147.721L79.3505 146.423Z" fill="#D1D3D4"/>
<path d="M79.4467 134.835V134.839L79.2622 134.812L79.4467 134.835Z" fill="#8B5E3C"/>
<path d="M98.9759 128.61L99.0395 129.91L98.7622 129.847L98.9759 128.61Z" fill="#E98B24"/>
<path d="M82.2035 129.435L85.8992 135.12L86.8374 134.674L83.1131 129.037L82.2035 129.435Z" fill="#2B3990"/>
<path d="M92.2652 140.894L91.7539 141.488L39.0231 140.976L39.0263 140.955L37.4876 140.976L42.7753 96.971L53.4797 96.9301L50.5662 131.267L78.7059 134.744L79.2622 134.812L80.923 135.061L85.8693 133.188L90.7886 134.137L91.1877 135.439L90.6466 135.689L91.8049 136.248L91.8968 137.792L90.7612 137.694L92.0953 138.493L91.8697 139.649L91.5562 140.004L92.0611 140.256L92.2652 140.894Z" fill="#6D4426"/>
<path d="M79.2622 134.812L78.7059 134.744V134.73L79.2622 134.812Z" fill="#8B5E3C"/>
<path d="M83.0848 129.662L83.8806 129.349L85.4444 131.652" stroke="#2B3990" stroke-width="0.352024" stroke-miterlimit="10" stroke-linecap="round" stroke-linejoin="round"/>
<path d="M78.8766 132.448L77.287 141.546L37.0344 140.976L38.5214 127.163L42.7753 96.971L53.7765 95.9261L51.4739 128.525L78.8766 132.448Z" fill="#FAA739"/>
<path d="M32.712 157.52L37.1753 154.223L36.7774 157.691L32.712 157.52Z" fill="#2A2A2D"/>
<path d="M42.605 212.697L45.5611 210.11L45.8456 162.808L42.605 162.893V212.697Z" stroke="#414042" stroke-width="0.170581" stroke-miterlimit="10" stroke-linejoin="round"/>
<path d="M71.8274 76.5034L70.9182 76.8873L71.0037 76.0772L71.8274 76.5034Z" fill="#016456"/>
<path d="M56.2925 73.7212L56.9745 74.3714L57.1456 73.5613L56.2925 73.7212Z" fill="#016456"/>
<path d="M70.2015 82.4766L70.8056 86.5085L69.666 86.2698L68.588 93.9107L53.4423 90.9364L58.0098 68.1935L71.829 70.9326L70.2015 82.4766Z" fill="#6D4426"/>
<path d="M63.7547 77.3847L63.3282 81.4496L61.6228 81.7906L62.1345 77.7826L58.8936 78.3794V81.8762L54.5441 84.2071L57.0461 72.1542L71.3447 76.2475L63.7547 77.3847Z" fill="#3C2415"/>
<path d="M73.0776 67.975L71.829 76.5032L56.2905 73.7334L57.9418 65.2394L64.3954 66.4056L64.607 65.9286L66.0841 66.2115L66.0327 66.7025L73.0776 67.975Z" fill="#078C7F"/>
<path d="M66.3558 80.0939L68.4309 79.7012L69.7511 80.5427L67.8647 80.7676L66.3558 80.0939Z" fill="white"/>
<path d="M69.7806 80.5401L69.0703 80.6252L68.5725 80.6965L68.2602 80.2842L68.5865 79.7869L69.0417 80.0853L69.7806 80.5401Z" fill="black"/>
<path d="M68.7225 89.5203C68.4313 89.5286 68.1424 89.5127 67.8535 89.4948C67.5662 89.4666 67.2782 89.4475 66.9925 89.4033L66.9602 89.3981L66.9415 89.3763C66.6932 89.0834 66.4597 88.7778 66.2468 88.4539C66.5369 88.7106 66.8062 88.9851 67.0613 89.2724L67.0104 89.2457C67.2988 89.2668 67.5837 89.3126 67.8702 89.35C68.1555 89.3973 68.4404 89.4467 68.7225 89.5203Z" fill="#3C2415"/>
<path d="M57.9553 200.502L68.189 185.493L69.8948 165.025L57.9553 200.502Z" fill="#F29B27"/>
<path d="M106.224 165.025L103.325 169.801L102.017 166.162L106.224 165.025Z" fill="#F29B27"/>
<path d="M63.2001 95.3078L63.1149 95.3647L63.3851 96.4593L63.2999 95.72L63.2001 95.3078Z" fill="#DC7D27"/>
<path d="M117.481 129.953C117.141 130.003 116.805 130.049 116.474 130.09C116.475 131.457 113.879 132.727 110.609 132.848C105.61 133.034 104.619 131.158 104.619 131.155C104.13 130.061 104.521 129.187 104.521 129.187L104.816 129.706C105.633 128.726 107.77 127.952 110.321 127.824C112.131 127.73 113.772 127.983 114.904 128.456C115.614 128.322 116.382 128.194 117.18 128.079C119.531 127.74 121.638 127.588 122.977 127.631L124.318 127.227C124.318 127.227 124.705 127.804 123.972 128.221C122.773 128.902 119.927 129.601 117.481 129.953Z" fill="#05776C"/>
<path d="M116.011 128.912C116.082 130.166 113.557 131.314 110.371 131.476C107.185 131.638 104.544 130.753 104.473 129.498C104.401 128.244 106.926 127.096 110.112 126.934C113.299 126.772 115.939 127.657 116.011 128.912Z" fill="#00A79D"/>
<path d="M124.317 127.224C124.401 127.742 121.274 128.625 117.33 129.195C113.388 129.765 110.124 129.807 110.04 129.289C109.956 128.77 113.084 127.888 117.027 127.318C120.97 126.748 124.234 126.706 124.317 127.224Z" fill="#00A79D"/>
<path d="M113.789 128.614C113.826 128.924 112.669 129.303 111.203 129.461C109.738 129.619 108.52 129.496 108.482 129.186C108.444 128.876 109.602 128.497 111.068 128.339C112.533 128.181 113.751 128.304 113.789 128.614Z" fill="white"/>
<path d="M124.206 128.055C123.904 128.366 122.661 128.779 122.661 128.779L122.682 128.096L121.599 126.872C122.696 126.817 124.079 126.733 124.328 127.209C124.462 127.426 124.508 127.743 124.206 128.055Z" fill="#FFF200"/>
<path d="M107.881 129.396C107.898 129.649 107.567 129.875 107.14 129.902C106.714 129.928 106.354 129.745 106.336 129.493C106.319 129.24 106.65 129.013 107.077 128.987C107.503 128.96 107.863 129.143 107.881 129.396Z" fill="#D7DF23"/>
<path d="M107.639 129.398C107.65 129.569 107.427 129.722 107.139 129.738C106.852 129.757 106.609 129.633 106.598 129.463C106.586 129.292 106.809 129.14 107.097 129.122C107.384 129.104 107.627 129.228 107.639 129.398Z" fill="#C5C62F"/>
<path d="M102.216 128.12L105.105 127.047L107.646 129.321L105.713 130.06L104.405 129.492L102.799 130.143L102.216 128.12Z" fill="#2C190F"/>
<path d="M62.3521 100.294L63.0723 115.392L59.8314 116.244L59.6098 100.532C59.2409 100.464 56.3378 99.8188 53.718 96.4454C53.7622 96.0463 53.7761 95.9265 53.7761 95.9265C53.7761 95.9265 56.304 99.3449 59.6026 100.099C59.6062 100.099 59.6102 100.102 59.613 100.102C59.6229 100.105 59.6368 100.109 59.6607 100.116C59.7697 100.14 60.0733 100.184 60.8337 100.187L61.1099 105.369L61.0689 100.187C62.031 100.034 62.3247 99.7201 62.3247 99.7201C62.3247 99.7201 63.8391 98.9526 63.2008 95.3058C63.477 95.3058 63.6477 95.2855 63.6477 95.2855C63.6477 95.2855 64.4367 98.9936 62.3521 100.294Z" fill="#F7941E"/>
<path d="M59.6603 100.112V100.116C59.6365 100.109 59.6231 100.106 59.6134 100.103C59.6302 100.106 59.6435 100.109 59.6603 100.112Z" fill="#F7941E"/>
<path d="M59.8318 100.424L60.599 100.467L61.1536 107.332L61.324 100.51L62.0911 100.382L62.8165 115.178L60.0873 115.861L59.8318 100.424Z" fill="#E77D25"/>
<path d="M52.4973 111.81L51.8153 120.338" stroke="#8B5E3C" stroke-width="0.170581" stroke-miterlimit="10"/>
<path d="M77.7406 124.09L77.0582 126.819" stroke="#8B5E3C" stroke-width="0.170581" stroke-miterlimit="10"/>
<path d="M51.4739 128.525L50.1095 130.913" stroke="#8B5E3C" stroke-width="0.170581" stroke-miterlimit="10"/>
<path d="M74.3294 131.766L78.8488 132.363L78.5082 134.238" stroke="#8B5E3C" stroke-width="0.170581" stroke-miterlimit="10"/>
<path d="M57.3051 68.4974L58.3536 67.6909L58.8653 68.885L60.1728 67.2361L60.5707 69.1691L61.3096 68.5436L61.7075 69.4536L63.1292 67.7478L63.5275 69.7377L64.0953 69.1691L64.5505 69.9084L65.7446 68.5436L66.1425 70.3063L66.9952 69.3967L67.45 70.5335L68.6442 68.7143L68.8714 70.8749L69.8379 70.0787L69.9517 71.0456L71.373 69.226L71.6571 71.159L72.7517 70.2243L72.5384 71.7702L57.1877 69.1476L57.3051 68.4974Z" fill="#4AC0B2"/>
<path d="M63.5836 162.296L66.4835 161.273" stroke="#754C29" stroke-width="0.170581" stroke-miterlimit="10"/>
<path d="M57.8419 66.0989L72.965 68.7712L72.8472 69.4568L57.6712 66.7244L57.8419 66.0989Z" fill="#00A79D"/>
<path d="M57.2514 68.7642L72.5703 71.5037L72.4425 72.2605L57.134 69.4036L57.2514 68.7642Z" fill="#00A79D"/>
<path d="M57.1201 71.4646L58.0297 70.6688L58.5414 71.8625L59.8493 70.2136L60.2472 72.147L60.9865 71.5215L61.3848 72.4311L62.8057 70.7253L63.2036 72.7156L63.7726 72.147L64.227 72.8859L65.4207 71.5215L65.8186 73.2838L66.6718 72.3742L67.1269 73.5114L68.3207 71.6922L68.5483 73.8524L69.5144 73.0566L69.6286 74.0231L71.0495 72.2039L71.334 74.1369L72.3037 73.2627L72.0693 74.7975L56.836 71.8625L57.1201 71.4646Z" fill="#4AC0B2"/>
<path d="M56.7047 71.6135L72.1441 74.3392L72.0267 75.1071L56.5909 72.2394L56.7047 71.6135Z" fill="#00A79D"/>
<path d="M94.6264 168.266L94.9674 162.296" stroke="#8B5E3C" stroke-width="0.170581" stroke-miterlimit="10" stroke-linecap="round" stroke-linejoin="round"/>
<defs>
<linearGradient id="paint0_linear" x1="181.539" y1="-1.89751" x2="178.904" y2="245.902" gradientUnits="userSpaceOnUse">
<stop offset="0.19" stop-color="#CDECF7"/>
<stop offset="0.4218" stop-color="#DDF2F9"/>
<stop offset="0.6865" stop-color="#E8F6FB"/>
<stop offset="1" stop-color="#EBF7FB"/>
</linearGradient>
</defs>
</svg>
