<svg width="18" height="18" viewBox="0 0 18 18" fill="none" xmlns="http://www.w3.org/2000/svg">
<g clip-path="url(#clip0)">
<path d="M9.00196 17.9967C13.9719 17.9967 18.0009 13.9691 18.0009 9.00081C18.0009 4.0325 13.9719 0.00488281 9.00196 0.00488281C4.032 0.00488281 0.00305176 4.0325 0.00305176 9.00081C0.00305176 13.9691 4.032 17.9967 9.00196 17.9967Z" fill="#FFEB00"/>
<path d="M9.00106 0.00390625C9.00001 0.00390625 8.99892 0.00394139 8.99786 0.00394139V17.9956C8.99892 17.9956 9.00001 17.9957 9.00106 17.9957C13.971 17.9957 18 13.9681 18 8.99976C18 4.03142 13.971 0.00390625 9.00106 0.00390625Z" fill="#FFBB00"/>
<path d="M9.00452 13.2754C7.98447 13.2754 6.99473 12.9968 6.14233 12.4698C5.30939 11.9548 4.62231 11.2132 4.15545 10.3252C4.01999 10.0675 4.11901 9.74884 4.37669 9.61337C4.63433 9.47795 4.95307 9.57697 5.0885 9.83461C5.87421 11.329 7.33815 12.2212 9.00452 12.2212C10.6815 12.2212 12.1413 11.3348 12.9095 9.85007C13.0432 9.59152 13.3611 9.49032 13.6198 9.62413C13.8783 9.7579 13.9795 10.0759 13.8458 10.3345C12.893 12.176 11.0832 13.2754 9.00452 13.2754Z" fill="#132C63"/>
<path d="M7.11701 6.0282C6.82592 6.0282 6.58993 5.79221 6.58993 5.50111C6.58993 5.08183 6.24883 4.7407 5.82951 4.7407C5.4102 4.7407 5.0691 5.08183 5.0691 5.50111C5.0691 5.79221 4.8331 6.0282 4.54201 6.0282C4.25092 6.0282 4.01492 5.79221 4.01492 5.50111C4.01492 4.50056 4.82892 3.68652 5.82951 3.68652C6.8301 3.68652 7.6441 4.50056 7.6441 5.50111C7.6441 5.79221 7.40811 6.0282 7.11701 6.0282Z" fill="#132C63"/>
<path d="M13.4536 6.02771C13.1625 6.02771 12.9265 5.79172 12.9265 5.50062C12.9265 5.08134 12.5854 4.74021 12.1661 4.74021C11.7468 4.74021 11.4057 5.08134 11.4057 5.50062C11.4057 5.79172 11.1697 6.02771 10.8787 6.02771C10.5876 6.02771 10.3516 5.79172 10.3516 5.50062C10.3516 4.50007 11.1656 3.68604 12.1661 3.68604C13.1667 3.68604 13.9807 4.50007 13.9807 5.50062C13.9807 5.79172 13.7447 6.02771 13.4536 6.02771Z" fill="#000F35"/>
<path d="M3.0037 11.4721C2.57532 10.7125 1.60382 10.4343 0.838387 10.8519C0.0721054 11.2699 -0.218953 12.2072 0.175801 12.9856L0.629062 13.8796C0.976132 14.5641 1.15956 15.3315 1.15956 16.0988V17.4663C1.15956 17.7574 1.39555 17.9934 1.68665 17.9934H3.87266C4.16375 17.9934 4.39975 17.7574 4.39975 17.4663V15.5122C4.39975 14.4881 4.13378 13.4753 3.63058 12.5832L3.0037 11.4721Z" fill="#FFF69A"/>
<path d="M17.1573 10.8514C16.3919 10.4339 15.4204 10.712 14.992 11.4715L14.3651 12.5828C13.862 13.4748 13.5959 14.4876 13.5959 15.5117V17.4659C13.5959 17.757 13.8319 17.993 14.123 17.993H16.309C16.6001 17.993 16.8361 17.757 16.8361 17.4659V16.0984C16.8361 15.331 17.0196 14.5636 17.3666 13.8792L17.8199 12.9852C18.2146 12.2066 17.9236 11.2693 17.1573 10.8514Z" fill="#FFEB00"/>
<path d="M13.6198 9.62401C13.3611 9.4902 13.0432 9.59141 12.9095 9.84996C12.1413 11.3347 10.6815 12.2211 9.0045 12.2211C9.00229 12.2211 9.00011 12.221 8.99789 12.221V13.2752C9.00011 13.2752 9.00229 13.2753 9.0045 13.2753C11.0832 13.2753 12.893 12.1759 13.8457 10.3344C13.9795 10.0758 13.8783 9.75779 13.6198 9.62401Z" fill="#000F35"/>
<path d="M4.38744 10.5917C5.12605 10.5917 5.72481 9.99296 5.72481 9.25436C5.72481 8.51575 5.12605 7.91699 4.38744 7.91699C3.64884 7.91699 3.05008 8.51575 3.05008 9.25436C3.05008 9.99296 3.64884 10.5917 4.38744 10.5917Z" fill="#FF001E"/>
<path d="M13.9807 10.5917C14.7193 10.5917 15.3181 9.99296 15.3181 9.25436C15.3181 8.51575 14.7193 7.91699 13.9807 7.91699C13.2421 7.91699 12.6433 8.51575 12.6433 9.25436C12.6433 9.99296 13.2421 10.5917 13.9807 10.5917Z" fill="#C30010"/>
</g>
<defs>
<clipPath id="clip0">
<rect width="18" height="18" fill="white"/>
</clipPath>
</defs>
</svg>
