<svg width="652" height="502" viewBox="0 0 652 502" fill="none" xmlns="http://www.w3.org/2000/svg">
<path opacity="0.5" d="M273.615 55.6185C284.638 55.6185 293.574 46.6824 293.574 35.6591C293.574 24.6357 284.638 15.6996 273.615 15.6996C262.591 15.6996 253.655 24.6357 253.655 35.6591C253.655 46.6824 262.591 55.6185 273.615 55.6185Z" fill="#FFF200"/>
<path opacity="0.4" d="M121.809 25.1103C121.809 31.1135 117.501 36.1131 111.809 37.1815C110.069 41.851 105.57 45.1704 100.299 45.1704C94.9282 45.1704 90.3638 41.7247 88.6998 36.9204C83.5593 35.451 79.7978 30.7218 79.7978 25.1103C79.7978 18.3246 85.2992 12.8231 92.0849 12.8231C95.4949 12.8231 98.5788 14.2123 100.806 16.4592C103.028 14.2123 106.112 12.8231 109.522 12.8231C116.308 12.8231 121.809 18.3246 121.809 25.1103Z" fill="white"/>
<path opacity="0.4" d="M212.524 47.9685C212.634 40.658 217.973 34.6471 224.925 33.4507C227.13 27.7966 232.67 23.8354 239.09 23.9327C245.631 24.0316 251.126 28.312 253.065 34.1931C259.299 36.0773 263.793 41.9064 263.689 48.7408C263.565 57.0053 256.764 63.6041 248.499 63.4795C244.346 63.4164 240.614 61.6679 237.944 58.8912C235.197 61.5868 231.415 63.2218 227.261 63.1587C218.999 63.0341 212.4 56.233 212.524 47.9685Z" fill="white"/>
<path opacity="0.4" d="M245.338 59.1633C245.448 51.8528 250.787 45.8419 257.738 44.6456C259.943 38.9914 265.483 35.0302 271.904 35.1275C278.444 35.2265 283.94 39.5068 285.879 45.388C292.112 47.2721 296.606 53.1012 296.503 59.9356C296.379 68.2001 289.577 74.799 281.313 74.6744C277.16 74.6112 273.429 72.8627 270.758 70.086C268.011 72.7817 264.23 74.4167 260.076 74.3535C251.812 74.2289 245.212 67.4287 245.338 59.1633Z" fill="white"/>
<path opacity="0.4" d="M390.169 17.6239C390.25 12.2642 394.164 7.8584 399.26 6.98032C400.877 2.83482 404.937 -0.0690707 409.644 0.00175598C414.44 0.0742893 418.47 3.21285 419.89 7.52389C424.46 8.90544 427.756 13.1789 427.68 18.1897C427.588 24.2484 422.602 29.0868 416.544 28.9955C413.499 28.9494 410.763 27.6668 408.806 25.6316C406.792 27.6079 404.019 28.8069 400.974 28.7608C394.916 28.6695 390.077 23.6835 390.169 17.6239Z" fill="white"/>
<path opacity="0.4" d="M27.5712 68.0261C27.619 64.8918 29.9077 62.3156 32.8875 61.8027C33.833 59.3792 36.207 57.6811 38.959 57.7229C41.763 57.7647 44.1191 59.6003 44.9502 62.121C47.622 62.9291 49.5488 65.4277 49.5045 68.358C49.4507 71.9002 46.5357 74.729 42.9935 74.6761C41.2135 74.6488 39.6135 73.8996 38.4691 72.7092C37.2915 73.8646 35.6702 74.566 33.8893 74.5387C30.3471 74.4849 27.5183 71.5691 27.5712 68.0261Z" fill="white"/>
<path opacity="0.4" d="M456.088 65.205C456.135 62.0707 458.423 59.4945 461.403 58.9817C462.349 56.5582 464.723 54.8601 467.475 54.9019C470.279 54.9437 472.636 56.7792 473.466 59.3C476.139 60.1081 478.066 62.6066 478.021 65.537C477.967 69.0792 475.052 71.908 471.509 71.855C469.729 71.8277 468.129 71.0785 466.984 69.8881C465.807 71.0435 464.186 71.745 462.405 71.7177C458.862 71.6639 456.034 68.7481 456.088 65.205Z" fill="white"/>
<path d="M116.573 25.1571C117.144 25.1494 117.717 25.1972 118.282 25.2843C118.851 25.3628 119.415 25.4771 119.974 25.6256C120.253 25.6964 120.527 25.7911 120.799 25.8893C121.074 25.9797 121.346 26.083 121.609 26.2067C121.875 26.3262 122.148 26.4294 122.4 26.5796C122.653 26.7238 122.919 26.8501 123.164 27.0114L123.892 27.5132C124.123 27.6958 124.336 27.9048 124.558 28.1011C124.789 28.2888 124.972 28.5261 125.166 28.7513C125.356 28.9809 125.565 29.1968 125.711 29.4596L126.179 30.2251L126.531 31.0494C126.662 31.3207 126.744 31.6066 126.809 31.8976L127.023 32.7654L126.186 32.7663L126.391 31.9454L126.494 31.5358L126.655 31.1441C126.767 30.8847 126.863 30.6184 126.99 30.3667L127.429 29.6431C127.562 29.3931 127.768 29.1951 127.937 28.9715C128.112 28.7513 128.29 28.5346 128.5 28.3494C128.705 28.1608 128.893 27.9518 129.116 27.7845L129.783 27.287C130.011 27.1317 130.252 26.996 130.485 26.8501C130.715 26.6982 130.968 26.589 131.211 26.4619C131.698 26.2127 132.204 26.0028 132.72 25.8287C133.235 25.6546 133.759 25.5104 134.288 25.3977C134.815 25.2766 135.351 25.1929 135.887 25.1562C134.844 25.4148 133.83 25.7579 132.869 26.2067C132.388 26.4252 131.91 26.6521 131.462 26.9278C131.238 27.066 131.005 27.1855 130.797 27.3459C130.586 27.4995 130.367 27.6429 130.163 27.8041C129.763 28.1378 129.376 28.48 129.032 28.8623C128.843 29.0389 128.689 29.2429 128.538 29.4494C128.392 29.6593 128.208 29.8428 128.099 30.0749L127.721 30.7371C127.611 30.9649 127.529 31.2064 127.43 31.4402L127.287 31.7935L127.2 32.1655L127.023 32.9071L126.612 34.6317L126.186 32.9088L125.991 32.1212C125.937 31.8549 125.867 31.5938 125.75 31.3506L125.443 30.6022L125.03 29.9085C124.909 29.6644 124.725 29.4647 124.56 29.2505C124.391 29.0389 124.235 28.8162 124.028 28.6379C123.83 28.4518 123.644 28.2513 123.436 28.0747L122.792 27.5635C122.574 27.3971 122.331 27.2614 122.102 27.1078C121.875 26.9483 121.621 26.8331 121.376 26.7008C121.133 26.5651 120.881 26.4482 120.622 26.3424C120.367 26.2297 120.109 26.1188 119.843 26.0318C118.797 25.6239 117.697 25.3406 116.573 25.1571Z" fill="black"/>
<path d="M339.202 0.000853678C339.772 -0.00682632 340.345 0.0409605 340.911 0.128C341.479 0.206507 342.044 0.320854 342.602 0.469333C342.882 0.54016 343.154 0.63488 343.428 0.733014C343.703 0.823467 343.975 0.92672 344.238 1.05045C344.503 1.16992 344.777 1.27317 345.028 1.42336C345.282 1.56757 345.548 1.69387 345.793 1.85515L346.521 2.35691C346.752 2.53952 346.965 2.74859 347.186 2.94485C347.418 3.13259 347.599 3.36981 347.795 3.59509C347.985 3.82464 348.195 4.04053 348.34 4.30336L348.809 5.0688L349.16 5.89312C349.291 6.16448 349.373 6.45035 349.437 6.74133L349.652 7.60917L348.815 7.61003L349.019 6.78912L349.123 6.37952L349.283 5.98784C349.395 5.72843 349.491 5.46219 349.618 5.21045L350.058 4.48683C350.191 4.2368 350.397 4.03883 350.566 3.81525C350.741 3.59509 350.919 3.37835 351.129 3.19317C351.334 3.00459 351.522 2.79552 351.746 2.62827L352.412 2.13077C352.641 1.97547 352.881 1.83979 353.114 1.69387C353.344 1.54197 353.597 1.43275 353.841 1.3056C354.327 1.05643 354.834 0.846507 355.349 0.672427C355.865 0.498347 356.389 0.354133 356.918 0.241493C357.444 0.12032 357.979 0.0366933 358.517 0C357.473 0.25856 356.46 0.6016 355.499 1.05045C355.018 1.26891 354.54 1.49589 354.092 1.77152C353.868 1.90976 353.635 2.02923 353.427 2.18965C353.216 2.34325 352.997 2.48661 352.794 2.64789C352.393 2.98155 352.007 3.32373 351.662 3.70603C351.474 3.88267 351.319 4.08661 351.168 4.29312C351.022 4.50304 350.839 4.68651 350.729 4.91861L350.351 5.5808C350.24 5.80864 350.159 6.05013 350.06 6.28395L349.919 6.63723L349.831 7.00928L349.653 7.75083L349.242 9.47541L348.817 7.75253L348.622 6.96491C348.567 6.69867 348.497 6.43755 348.38 6.19435L348.074 5.44597L347.66 4.75221C347.54 4.50816 347.355 4.30848 347.191 4.09429C347.022 3.88267 346.866 3.65995 346.658 3.4816C346.461 3.29557 346.274 3.09504 346.067 2.9184L345.423 2.40725C345.204 2.24085 344.963 2.10517 344.732 1.95157C344.505 1.792 344.252 1.6768 344.007 1.54453C343.764 1.40885 343.511 1.29195 343.252 1.18613C342.997 1.07349 342.74 0.96256 342.473 0.87552C341.425 0.467627 340.325 0.18432 339.202 0.000853678Z" fill="black"/>
<path d="M439.999 53.8821C440.569 53.8744 441.143 53.9222 441.708 54.0092C442.277 54.0877 442.842 54.2021 443.4 54.3506C443.68 54.4214 443.952 54.5161 444.226 54.6142C444.501 54.7047 444.773 54.8079 445.036 54.9317C445.301 55.0511 445.574 55.1544 445.826 55.3046C446.079 55.4488 446.345 55.5751 446.59 55.7364L447.318 56.2381C447.549 56.4207 447.762 56.6298 447.984 56.8261C448.215 57.0138 448.397 57.251 448.592 57.4763C448.782 57.7059 448.992 57.9218 449.138 58.1846L449.606 58.95L449.958 59.7744C450.088 60.0457 450.17 60.3316 450.235 60.6226L450.449 61.4904L449.613 61.4913L449.817 60.6703L449.92 60.2608L450.08 59.8691C450.192 59.6097 450.289 59.3434 450.416 59.0917L450.855 58.3681C450.988 58.118 451.194 57.9201 451.363 57.6965C451.538 57.4763 451.716 57.2596 451.926 57.0744C452.131 56.8858 452.32 56.6767 452.543 56.5095L453.21 56.012C453.438 55.8567 453.678 55.721 453.911 55.5751C454.141 55.4232 454.394 55.314 454.638 55.1868C455.124 54.9377 455.631 54.7277 456.147 54.5537C456.662 54.3796 457.186 54.2354 457.715 54.1227C458.242 54.0015 458.777 53.9179 459.314 53.8812C458.271 54.1398 457.257 54.4828 456.296 54.9317C455.816 55.1501 455.337 55.3771 454.889 55.6527C454.665 55.791 454.432 55.9105 454.224 56.0709C454.013 56.2245 453.794 56.3678 453.591 56.5291C453.191 56.8628 452.804 57.205 452.46 57.5873C452.271 57.7639 452.116 57.9678 451.965 58.1744C451.82 58.3843 451.636 58.5677 451.526 58.7998L451.149 59.462C451.038 59.6899 450.956 59.9314 450.858 60.1652L450.716 60.5185L450.628 60.8905L450.451 61.6321L450.039 63.3566L449.615 61.6338L449.419 60.8461C449.365 60.5799 449.295 60.3188 449.178 60.0756L448.871 59.3272L448.457 58.6334C448.337 58.3894 448.153 58.1897 447.988 57.9755C447.819 57.7639 447.663 57.5412 447.456 57.3628C447.258 57.1768 447.072 56.9763 446.864 56.7996L446.22 56.2885C446.002 56.1221 445.76 55.9864 445.53 55.8328C445.303 55.6732 445.049 55.558 444.804 55.4258C444.561 55.2901 444.308 55.1732 444.049 55.0674C443.794 54.9547 443.537 54.8438 443.271 54.7567C442.222 54.3489 441.122 54.0655 439.999 53.8821Z" fill="black"/>
<path d="M39.7167 69.3949C40.1596 69.3889 40.6025 69.4256 41.0411 69.4939C41.4814 69.5545 41.9192 69.6432 42.3518 69.7584C42.781 69.8813 43.2094 70.0221 43.619 70.2081C44.0371 70.3771 44.4331 70.6007 44.8239 70.8311L45.388 71.2202C45.5672 71.3619 45.731 71.524 45.9034 71.6759C46.0826 71.8218 46.2234 72.0053 46.3744 72.1802C46.5221 72.3577 46.6842 72.5249 46.7968 72.7289L47.1603 73.322L47.4326 73.9611C47.6331 74.3818 47.6894 74.8469 47.814 75.2906L47.1655 75.2915L47.3242 74.6549C47.3677 74.4407 47.4351 74.2333 47.529 74.0336C47.616 73.8331 47.6903 73.6257 47.7884 73.4312L48.128 72.8705C48.2313 72.6768 48.3909 72.5232 48.5214 72.3509C48.6571 72.1802 48.7945 72.0129 48.9583 71.8696C49.257 71.5539 49.6051 71.2987 49.9524 71.047C50.3126 70.8166 50.6744 70.5887 51.0592 70.4078C51.4364 70.215 51.8289 70.052 52.2274 69.9172C52.6268 69.7823 53.033 69.6714 53.4426 69.5835C53.8505 69.4896 54.2652 69.4239 54.6816 69.3966C53.8735 69.5963 53.0876 69.8625 52.3435 70.2107C51.9706 70.3797 51.6002 70.5563 51.2529 70.7688C50.8971 70.9668 50.5703 71.2083 50.2469 71.448C49.9371 71.7066 49.6376 71.972 49.3696 72.2672C49.2237 72.4038 49.1034 72.5625 48.9873 72.7221C48.8747 72.8842 48.7322 73.0267 48.6477 73.2068L48.355 73.7196C48.2697 73.8963 48.2065 74.084 48.1297 74.2649C48.0461 74.4432 47.9881 74.631 47.9522 74.8264L47.8149 75.4007L47.5332 76.5783L47.1655 75.4024C47.0409 75.003 47.0093 74.5721 46.8275 74.1941L46.5903 73.6138L46.2695 73.0771C46.1765 72.8885 46.0331 72.7332 45.9059 72.5676C45.7754 72.4038 45.6542 72.2305 45.4938 72.0923C45.2028 71.786 44.8743 71.5206 44.5363 71.2603C44.1856 71.0197 43.8281 70.7799 43.4398 70.5921C43.0618 70.3865 42.659 70.2218 42.2511 70.0742C41.4405 69.7567 40.588 69.5374 39.7167 69.3949Z" fill="black"/>
<path d="M236.876 63.2235C237.319 63.2176 237.762 63.2542 238.2 63.3225C238.641 63.3831 239.078 63.4718 239.511 63.587C239.94 63.7099 240.369 63.8507 240.778 64.0368C241.196 64.2057 241.592 64.4293 241.983 64.6597L242.547 65.0488C242.726 65.1905 242.89 65.3526 243.063 65.5045C243.242 65.6504 243.383 65.8339 243.534 66.0088C243.681 66.1863 243.843 66.3536 243.956 66.5575L244.32 67.1506L244.592 67.7897C244.792 68.2104 244.849 68.6755 244.973 69.1192L244.325 69.1201L244.483 68.4835C244.527 68.2693 244.594 68.0619 244.688 67.8622C244.775 67.6617 244.85 67.4544 244.948 67.2598L245.287 66.6992C245.391 66.5055 245.55 66.3518 245.681 66.1795C245.816 66.0088 245.954 65.8416 246.118 65.6982C246.416 65.3825 246.764 65.1273 247.112 64.8756C247.472 64.6452 247.834 64.4173 248.218 64.2364C248.596 64.0436 248.988 63.8806 249.387 63.7458C249.786 63.6109 250.192 63.5 250.602 63.4121C251.01 63.3183 251.424 63.2525 251.841 63.2252C251.033 63.4249 250.247 63.6912 249.503 64.0393C249.13 64.2083 248.759 64.3849 248.412 64.5974C248.056 64.7954 247.73 65.0369 247.406 65.2766C247.096 65.5352 246.797 65.8006 246.529 66.0958C246.383 66.2324 246.263 66.3911 246.147 66.5507C246.034 66.7128 245.891 66.8553 245.807 67.0354L245.514 67.5482C245.429 67.7249 245.366 67.9126 245.289 68.0935C245.205 68.2719 245.147 68.4596 245.111 68.655L244.974 69.2293L244.692 70.4069L244.325 69.231C244.2 68.8316 244.169 68.4007 243.987 68.0227L243.75 67.4424L243.429 66.9057C243.336 66.7171 243.192 66.5618 243.065 66.3962C242.935 66.2324 242.813 66.0592 242.653 65.9209C242.362 65.6146 242.034 65.3492 241.696 65.0889C241.345 64.8483 240.987 64.6085 240.599 64.4208C240.221 64.2151 239.818 64.0504 239.41 63.9028C238.599 63.5853 237.747 63.366 236.876 63.2235Z" fill="black"/>
<path d="M418.347 259.064C426.083 259.064 432.353 252.794 432.353 245.059C432.353 237.323 426.083 231.053 418.347 231.053C410.612 231.053 404.342 237.323 404.342 245.059C404.342 252.794 410.612 259.064 418.347 259.064Z" fill="#87B74B"/>
<path d="M372.347 268.306L374.685 274.54L390.79 283.631" stroke="#DBE691" stroke-width="0.922283" stroke-miterlimit="10" stroke-linecap="round"/>
<path d="M392.465 296.492C410.822 296.492 425.703 281.611 425.703 263.254C425.703 244.897 410.822 230.016 392.465 230.016C374.108 230.016 359.227 244.897 359.227 263.254C359.227 281.611 374.108 296.492 392.465 296.492Z" fill="#7FAA42"/>
<path d="M392.09 264.409L377.802 254.797L375.982 249.862" stroke="#DBE691" stroke-width="0.922283" stroke-miterlimit="10" stroke-linecap="round"/>
<path d="M398.583 346.498L382.996 346.278L391.828 252.46H392.87L398.583 346.498Z" fill="#577635"/>
<path d="M393.129 289.089L407.415 280.776L410.533 274.801" stroke="#00AEEF" stroke-width="0.922283" stroke-miterlimit="10"/>
<path d="M412.871 281.554L407.415 280.776" stroke="#00AEEF" stroke-width="0.922283" stroke-miterlimit="10"/>
<path d="M374.685 274.541L371.047 275.58" stroke="#D7DF23" stroke-width="0.922283" stroke-miterlimit="10"/>
<path d="M392.09 269.085L406.637 259.733L407.935 256.097" stroke="#00AEEF" stroke-width="0.922283" stroke-miterlimit="10"/>
<path d="M405.597 260.513L412.092 260.253" stroke="#00AEEF" stroke-width="0.922283" stroke-miterlimit="10"/>
<path d="M542.719 298.429C547.322 298.429 551.053 294.697 551.053 290.094C551.053 285.491 547.322 281.76 542.719 281.76C538.116 281.76 534.384 285.491 534.384 290.094C534.384 294.697 538.116 298.429 542.719 298.429Z" fill="#87B74B"/>
<path d="M377.802 254.797L372.605 257.395" stroke="#D7DF23" stroke-width="0.922283" stroke-miterlimit="10" stroke-linecap="round"/>
<path d="M527.32 320.7C538.243 320.7 547.098 311.845 547.098 300.921C547.098 289.998 538.243 281.143 527.32 281.143C516.396 281.143 507.541 289.998 507.541 300.921C507.541 311.845 516.396 320.7 527.32 320.7Z" fill="#7FAA42"/>
<path d="M527.715 316.293L536.215 311.346L538.07 307.791" stroke="#DBE691" stroke-width="0.548779" stroke-miterlimit="10" stroke-linecap="round"/>
<path d="M539.462 311.811L536.215 311.346" stroke="#DBE691" stroke-width="0.548779" stroke-miterlimit="10" stroke-linecap="round"/>
<path d="M515.348 303.927L516.738 307.637L526.321 313.047" stroke="#DBE691" stroke-width="0.548779" stroke-miterlimit="10"/>
<path d="M527.094 304.391L535.753 298.826L536.524 296.663" stroke="#DBE691" stroke-width="0.548779" stroke-miterlimit="10" stroke-linecap="round"/>
<path d="M535.134 299.291L538.997 299.135" stroke="#DBE691" stroke-width="0.548779" stroke-miterlimit="10" stroke-linecap="round" stroke-linejoin="round"/>
<path d="M527.094 301.61L518.595 295.89L517.513 292.953" stroke="#DBE691" stroke-width="0.548779" stroke-miterlimit="10"/>
<path d="M530.96 350.455L521.687 350.323L526.942 294.498H527.56L530.96 350.455Z" fill="#577635"/>
<path d="M496.932 226.929H513.9L505.363 237.069L496.932 226.929Z" fill="#3B1F0E"/>
<path d="M580.68 348.743L579.942 285.003H427.842L427.681 351.075C444.002 352.824 464.981 356.564 502.869 356.32C548.332 356.03 580.68 348.743 580.68 348.743Z" fill="#6B3F18"/>
<path d="M587.772 288.662C587.772 288.662 548.525 300.446 504.229 300.85C459.932 301.257 421.854 289.068 421.854 289.068L501.509 232.463L505.591 236.543L509.438 232.445L587.772 288.662Z" fill="#3B1F0E"/>
<path d="M523.568 356.03L523.56 317.56C523.56 317.56 515.498 318.532 503.84 318.532C492.182 318.532 483.926 317.56 483.926 317.56L484.318 356.03" fill="#A3733F"/>
<path d="M440.173 315.433L432.518 313.793L432.492 309.443L440.5 310.95L440.173 315.433Z" fill="#493521"/>
<path d="M448.455 317.141L440.26 315.439V310.956L448.697 312.498L448.455 317.141Z" fill="#493521"/>
<path d="M444.28 320.852L436.24 319.306L436.514 314.701L444.522 316.208L444.28 320.852Z" fill="#493521"/>
<path d="M461.94 329.429L454.172 328.457L453.77 324.127L461.878 324.933L461.94 329.429Z" fill="#493521"/>
<path d="M470.338 330.412L462.026 329.427L461.638 324.96L470.177 325.764L470.338 330.412Z" fill="#493521"/>
<path d="M466.5 334.472L458.356 333.625L458.23 329.015L466.338 329.823L466.5 334.472Z" fill="#493521"/>
<path d="M456.49 304.94L448.894 303.049L449.011 298.701L456.967 300.47L456.49 304.94Z" fill="#5D3113"/>
<path d="M464.71 306.919L456.577 304.948L456.725 300.467L465.105 302.287L464.71 306.919Z" fill="#493521"/>
<path d="M460.417 310.49L452.43 308.68L452.857 304.086L460.81 305.856L460.417 310.49Z" fill="#5D3113"/>
<path d="M441.735 341.863L433.966 340.891L433.565 336.56L441.674 337.368L441.735 341.863Z" fill="#493521"/>
<path d="M450.134 342.846L441.822 341.861L441.433 337.393L449.971 338.198L450.134 342.846Z" fill="#493521"/>
<path d="M446.332 347.481L438.152 346.061L438.025 341.449L446.133 342.257L446.332 347.481Z" fill="#88BC40"/>
<path d="M539.105 339.727L546.872 338.754L547.275 334.423L539.165 335.231L539.105 339.727Z" fill="#5D3113"/>
<path d="M530.707 340.71L539.019 339.724L539.407 335.257L530.868 336.061L530.707 340.71Z" fill="#5D3113"/>
<path d="M534.507 345.343L542.689 343.924L542.815 339.313L534.705 340.121L534.507 345.343Z" fill="#5D3113"/>
<path d="M552.565 316.96L560.249 315.45L560.345 311.1L552.312 312.472L552.565 316.96Z" fill="#5D3113"/>
<path d="M544.257 318.528L552.48 316.965L552.555 312.48L544.095 313.881L544.257 318.528Z" fill="#5D3113"/>
<path d="M548.374 322.885L556.435 320.898L556.237 316.29L548.205 317.661L548.374 322.885Z" fill="#5D3113"/>
<path d="M570.43 299.463L577.959 297.32L577.697 292.977L569.803 295.009L570.43 299.463Z" fill="#5D3113"/>
<path d="M562.279 301.714L570.344 299.475L570.047 295.001L561.73 297.096L562.279 301.714Z" fill="#5D3113"/>
<path d="M566.742 305.715L574.612 303.066L574.033 298.489L566.142 300.521L566.742 305.715Z" fill="#5D3113"/>
<path d="M570.05 344.161L577.72 342.594L577.788 338.244L569.767 339.673L570.05 344.161Z" fill="#5D3113"/>
<path d="M561.751 345.786L569.964 344.164L570.006 339.68L561.557 341.14L561.751 345.786Z" fill="#88BC40"/>
<path d="M565.898 350.115L573.947 348.069L573.718 343.462L565.695 344.891L565.898 350.115Z" fill="#88BC40"/>
<path d="M503.063 234.212L427.39 290.458L433.218 292.206L504.035 235.378L503.063 234.212Z" fill="#A97C50"/>
<path d="M508.115 233.629L582.137 290.166L576.892 291.623L506.657 234.796L508.115 233.629Z" fill="#A97C50"/>
<path d="M505.2 235.96L462.652 297.743L468.482 298.618L505.492 236.252L505.2 235.96Z" fill="#A97C50"/>
<path d="M505.492 236.252L546 296.869L540.171 298.035L505.492 236.252Z" fill="#A97C50"/>
<path d="M505.492 236.252L509.572 300.367L503.743 300.657L505.492 236.252Z" fill="#A97C50"/>
<path d="M500.879 292.918C490.044 292.918 480.497 292.293 472.499 291.438C446.498 288.657 430.839 282.901 430.684 282.845L432.022 281.905C432.177 281.964 446.8 287.522 472.668 290.284C496.54 292.832 533.255 293.6 577.705 281.437L578.989 282.334C549.229 290.477 522.535 292.918 500.879 292.918Z" fill="#A97C50"/>
<path d="M501.94 275.546C477.393 275.546 461.381 272.245 449.354 269.443L450.592 268.588C471.446 273.45 504.885 279.969 558.754 267.863L560.121 268.759C537.074 273.939 520.158 275.546 501.94 275.546Z" fill="#A97C50"/>
<path d="M498.61 257.959C487.12 257.959 480.178 257.04 468.988 255.568L470.098 254.629C489.319 257.156 505.35 258.889 538.692 253.391L540.015 254.373C524.638 256.91 513.712 257.959 498.61 257.959Z" fill="#A97C50"/>
<path d="M498.583 243.096C494.348 243.096 491.183 243.133 487.002 242.935L488.367 241.912C500.894 242.501 508.569 242.238 521.32 241.057L522.686 241.997C514.14 242.786 507.083 243.096 498.583 243.096Z" fill="#A97C50"/>
<path d="M405.745 353.093C408.982 353.093 411.607 345.639 411.607 336.443C411.607 327.247 408.982 319.793 405.745 319.793C402.507 319.793 399.882 327.247 399.882 336.443C399.882 345.639 402.507 353.093 405.745 353.093Z" fill="#609E4A"/>
<path d="M417.366 343.458C412.05 350.961 405.599 355.528 402.957 353.655C400.312 351.783 402.482 344.184 407.801 336.681C413.117 329.176 419.568 324.61 422.21 326.483C424.855 328.357 422.685 335.956 417.366 343.458Z" fill="#50843C"/>
<path d="M420.318 351.151C412.32 355.687 404.542 357.083 402.944 354.265C401.346 351.448 406.535 345.489 414.535 340.952C422.537 336.416 430.313 335.02 431.911 337.839C433.508 340.659 428.321 346.617 420.318 351.151Z" fill="#609E4A"/>
<path d="M420.181 355.883C411.016 356.63 403.373 354.62 403.111 351.389C402.847 348.162 410.065 344.945 419.233 344.2C428.4 343.454 436.04 345.463 436.303 348.691C436.565 351.921 429.348 355.14 420.181 355.883Z" fill="#50843C"/>
<path d="M385.73 326.487C383.088 328.358 385.256 335.958 390.573 343.463C395.889 350.967 402.34 355.533 404.982 353.661C407.623 351.79 405.455 344.189 400.139 336.685C394.822 329.181 388.371 324.615 385.73 326.487Z" fill="#609E4A"/>
<path d="M387.635 351.151C395.634 355.687 403.412 357.083 405.008 354.265C406.608 351.448 401.418 345.489 393.418 340.952C385.418 336.416 377.64 335.02 376.041 337.839C374.445 340.659 379.633 346.617 387.635 351.151Z" fill="#50843C"/>
<path d="M387.772 355.883C396.937 356.63 404.58 354.62 404.841 351.389C405.107 348.162 397.887 344.945 388.721 344.2C379.554 343.454 371.914 345.463 371.651 348.691C371.389 351.921 378.605 355.14 387.772 355.883Z" fill="#609E4A"/>
<path d="M476.797 350.569C476.797 351.271 476.717 351.953 476.554 352.603H437.447C437.234 352.014 437.12 351.374 437.12 350.701C437.12 347.535 439.685 344.973 442.849 344.973C445.615 344.973 447.925 346.935 448.455 349.551C449.156 349.551 449.808 349.724 450.387 350.029C451.364 347.802 453.604 346.244 456.197 346.244C457.459 346.244 458.639 346.612 459.635 347.261C460.947 343.973 464.152 341.665 467.897 341.665C472.81 341.666 476.797 345.655 476.797 350.569Z" fill="#7FAA42"/>
<path d="M466.723 350.191C466.723 350.661 466.683 351.132 466.601 351.576H427.137C427.081 351.206 427.047 350.818 427.047 350.421C427.047 346.601 429.798 343.502 433.184 343.502C434.444 343.502 435.614 343.927 436.587 344.664C437.748 342.052 440.137 340.272 442.896 340.272C443.49 340.272 444.081 340.356 444.635 340.51C446.289 338.252 448.792 336.812 451.59 336.812C455.418 336.812 458.69 339.505 459.984 343.307C460.188 343.28 460.384 343.27 460.59 343.27C463.975 343.27 466.723 346.372 466.723 350.191Z" fill="#609E4A"/>
<path d="M378.146 350.277C378.146 351.079 378.054 351.859 377.867 352.603H333.152C332.908 351.929 332.779 351.197 332.779 350.429C332.779 346.809 335.711 343.879 339.328 343.879C342.491 343.879 345.133 346.124 345.738 349.113C346.541 349.113 347.285 349.312 347.949 349.662C349.065 347.115 351.626 345.332 354.59 345.332C356.033 345.332 357.383 345.754 358.522 346.496C360.023 342.738 363.687 340.099 367.969 340.099C373.586 340.099 378.146 344.658 378.146 350.277Z" fill="#50843C"/>
<path d="M366.63 349.845C366.63 350.383 366.581 350.922 366.488 351.427H321.364C321.298 351.004 321.261 350.56 321.261 350.108C321.261 345.74 324.406 342.197 328.277 342.197C329.717 342.197 331.055 342.682 332.168 343.527C333.497 340.541 336.229 338.504 339.38 338.504C340.064 338.504 340.737 338.599 341.372 338.778C343.262 336.193 346.125 334.548 349.323 334.548C353.702 334.548 357.443 337.627 358.921 341.975C359.154 341.943 359.378 341.932 359.614 341.932C363.485 341.933 366.63 345.478 366.63 349.845Z" fill="#609E4A"/>
<path d="M645.288 350.569C645.288 351.271 645.206 351.953 645.043 352.603H605.937C605.722 352.014 605.61 351.374 605.61 350.701C605.61 347.535 608.173 344.973 611.338 344.973C614.103 344.973 616.417 346.935 616.945 349.551C617.646 349.551 618.298 349.724 618.878 350.029C619.854 347.802 622.092 346.244 624.685 346.244C625.948 346.244 627.128 346.612 628.125 347.261C629.437 343.973 632.642 341.665 636.387 341.665C641.298 341.666 645.288 345.655 645.288 350.569Z" fill="#7FAA42"/>
<path d="M481.483 351.31H315.526V356.163H481.483V351.31Z" fill="#7FAA42"/>
<path d="M635.215 350.191C635.215 350.661 635.173 351.132 635.09 351.576H595.627C595.57 351.206 595.537 350.818 595.537 350.421C595.537 346.601 598.288 343.502 601.674 343.502C602.934 343.502 604.104 343.927 605.075 344.664C606.238 342.052 608.626 340.272 611.385 340.272C611.98 340.272 612.571 340.356 613.125 340.51C614.779 338.252 617.282 336.812 620.08 336.812C623.908 336.812 627.18 339.505 628.473 343.307C628.678 343.28 628.874 343.27 629.08 343.27C632.465 343.27 635.215 346.372 635.215 350.191Z" fill="#87B74B"/>
<path d="M590.899 350.277C590.899 351.079 590.807 351.859 590.619 352.603H545.904C545.661 351.929 545.532 351.197 545.532 350.429C545.532 346.809 548.464 343.879 552.08 343.879C555.244 343.879 557.886 346.124 558.491 349.113C559.292 349.113 560.039 349.312 560.702 349.662C561.818 347.115 564.379 345.332 567.344 345.332C568.785 345.332 570.135 345.754 571.275 346.496C572.774 342.738 576.439 340.099 580.722 340.099C586.337 340.099 590.899 344.658 590.899 350.277Z" fill="#7FAA42"/>
<path d="M579.382 349.845C579.382 350.383 579.333 350.922 579.24 351.427H534.115C534.05 351.004 534.014 350.56 534.014 350.108C534.014 345.74 537.159 342.197 541.031 342.197C542.469 342.197 543.807 342.682 544.919 343.527C546.251 340.541 548.979 338.504 552.132 338.504C552.816 338.504 553.489 338.599 554.124 338.778C556.014 336.193 558.877 334.548 562.075 334.548C566.454 334.548 570.194 337.627 571.674 341.975C571.907 341.943 572.13 341.932 572.366 341.932C576.238 341.933 579.382 345.478 579.382 349.845Z" fill="#87B74B"/>
<path d="M651.071 351.31H527.228V356.163H651.071V351.31Z" fill="#7FAA42"/>
<path d="M78.6864 173.409L80.8218 173.974L79.9421 174.979L78.6864 173.409Z" fill="#04594F"/>
<path d="M100.633 178.247L99.4602 193.157L103.816 178.687L100.633 178.247Z" fill="#04594F"/>
<path d="M48.1623 427.036L53.0522 421.451L53.3073 333.492H48.1623V427.036Z" stroke="#6B6B6A" stroke-width="0.935438" stroke-miterlimit="10" stroke-linejoin="round"/>
<path d="M132.952 124.784L123.99 150.265L123.549 159.162L121.202 158.198L114.224 178.048L102.362 173.877L98.7894 199.798L75.1786 180.826L84.9069 167.739L81.8104 166.654L100.539 113.381L132.952 124.784Z" fill="#5E391F"/>
<path d="M79.2658 399.205L82.204 395.82V331.985H79.1878L79.2658 399.205Z" stroke="#6B6B6A" stroke-width="0.935438" stroke-miterlimit="10" stroke-linejoin="round"/>
<path d="M79.1878 318.081H66.4554V399.84H79.1878V318.081Z" fill="#6B6B6A"/>
<path d="M133.47 370.353H40.3188V381.748H133.47V370.353Z" fill="#777677"/>
<path d="M48.3602 318.081H32.2762V427.316H48.3602V318.081Z" fill="#6B6B6A"/>
<path d="M146.371 319.085H130.288V428.322H146.371V319.085Z" fill="#6B6B6A"/>
<path d="M55.732 292.614L35.6278 311.38L34.9571 326.12L87.9 326.792L99.9627 318.75L85.2191 295.294L55.732 292.614Z" fill="#848281"/>
<path d="M119.397 314.73H32.2762V333.492H119.397V314.73Z" fill="#777677"/>
<path d="M163.71 208.843H152.825V257.765H163.71V208.843Z" fill="#6B6B6A"/>
<path d="M166.31 214.562H136.152V225.243H166.31V214.562Z" fill="#777677"/>
<path d="M53.0522 369.179L127.208 368.57L125.572 370.441L48.1623 370.674L53.0522 369.179Z" fill="#6B6B6A"/>
<path d="M146.372 428.153L151.064 422.289L151.564 333.829L146.037 333.326L146.372 428.153Z" fill="#8E6039"/>
<path d="M174.184 381.242V398.33L202.331 410.896L218.916 411.903L218.413 405.872L197.807 389.285L198.31 383.254L174.184 381.242Z" fill="#5E391F"/>
<path d="M139 422.457L139.501 444.575L207.524 445.075L206.352 439.043L170.163 425.475L166.644 419.945L139 422.457Z" fill="#5E391F"/>
<path d="M146.205 234.312L166.31 262.147L146.372 268.592L125.43 240.342L146.205 234.312Z" fill="#5E391F"/>
<path d="M208.523 276.788L201.074 385.515L172.345 383.083L167.729 312.393L66.12 284.571L111.487 250.541L139.095 265.127L208.523 276.788Z" fill="#039688"/>
<path d="M170.665 422.457L139.178 424.966L136.989 425.138L136.949 424.971L115.739 337.353L40.7388 291.526L70.3425 250.529L159.608 312.714L170.665 422.457Z" fill="#039688"/>
<path d="M150.226 236.322L125.43 251.427L117.474 181.832L129.492 184.425L150.226 236.322Z" fill="#088C7F"/>
<path d="M23.5684 219.569L26.3295 220.699L25.6588 222.917L23.5684 219.569Z" fill="#04594F"/>
<path d="M36.9682 295.969L45.5133 229.074L23.5684 219.569L44.5072 165.87L78.6864 173.409L99.293 194.52L103.063 178.687L128.151 184.131L133.367 221.242L139.095 265.127L36.9682 295.969Z" fill="#00A79D"/>
<path d="M204.615 392.9L202.406 393.056L203.825 394.161L204.615 392.9Z" fill="#1B2550"/>
<path d="M92.5876 143.22L87.2457 146.749L78.3433 150.138L78.1761 151.417L87.7175 148.112L92.5876 143.22Z" fill="#20100B"/>
<path d="M22.4226 234.889L20.4213 240.598L20.3201 240.557L22.4226 234.889Z" fill="#C49A6C"/>
<path d="M24.513 229.217L22.4226 234.889L24.403 229.199L24.513 229.217Z" fill="#C49A6C"/>
<path d="M150.226 236.322L149.456 238.815L148.368 237.454L150.226 236.322Z" fill="#04594F"/>
<path d="M36.9683 295.969L50.8739 297.641L44.1729 293.116L36.9683 295.969Z" fill="#04594F"/>
<path d="M139.095 426.476L139.063 424.971L136.989 425.138L139.095 426.476Z" fill="#045147"/>
<path d="M168.969 423.65L170.665 422.457L168.341 422.612L168.969 423.65Z" fill="#045147"/>
<path d="M172.345 383.083L174.184 384.511V383.189L172.345 383.083Z" fill="#045147"/>
<path d="M197.994 386.772L201.074 385.515L198.12 385.262L197.994 386.772Z" fill="#25326A"/>
<path d="M175.357 426.311L166.98 434.687H145.869L138.846 429.806L139.501 444.575H208.637L208.865 438.374L175.357 426.311Z" fill="#1F110A"/>
<path d="M204.615 392.9L199.483 397.496L180.384 392.466L174.017 386.75L174.184 398.33L202.331 410.896L220.259 411.903L220.926 404.53L204.615 392.9Z" fill="#1F110A"/>
<path d="M87.2732 151.75L111.404 132.823L127.963 129.511L121.813 122.887L94.8429 123.36L87.2732 151.75Z" fill="#20100B"/>
<path d="M88.8501 146.545L112.823 126.673L132.696 131.088L135.535 124.464L132.065 118.787L107.642 109.688L94.5449 115.3L85.3797 138.975L88.8501 146.545Z" fill="#00A79D"/>
<path d="M114.187 139.878L120.025 140.384L122.92 143.623L117.714 142.808L114.187 139.878Z" fill="white"/>
<path d="M123.003 143.637L121.04 143.332L119.659 143.149L119.132 141.814L120.377 140.73L121.369 141.868L123.003 143.637Z" fill="black"/>
<path d="M88.2189 144.653L110.93 125.095L133.326 129.196L132.696 131.088L112.508 127.934L88.8501 146.545L88.2189 144.653Z" fill="white"/>
<path d="M104.937 162.001L108.407 165.787L112.508 166.732" stroke="#603913" stroke-width="0.473162" stroke-miterlimit="10"/>
<path d="M175.357 426.311L174.49 427.281L173.07 426.81L175.357 426.311Z" fill="#170F0D"/>
<path d="M88.8501 146.545L85.0575 151.029L76.8324 155.866L77.479 157.157L85.5424 151.996L89.5736 147.318L88.8501 146.545Z" fill="#20100B"/>
<path d="M88.2838 150.545L86.0262 154.415L85.2202 163.769L83.9304 164.252L84.897 154.092L88.4454 149.093L88.2838 150.545Z" fill="#20100B"/>
<path d="M89.8958 149.093L89.7352 153.77L93.6059 164.576L91.9938 165.22L88.6059 153.77L88.4454 149.093H89.8958Z" fill="#20100B"/>
<path d="M379.651 438.963L379.182 346.821H374.037L374.367 435.025L379.651 438.963Z" stroke="#58595B" stroke-width="0.935438" stroke-miterlimit="10" stroke-linejoin="round"/>
<path d="M398.397 217.222L351.414 216.217L353.258 225.429L397.225 229.953L398.397 217.222Z" fill="#777677"/>
<path d="M364.145 259.777L391.696 262.419L389.685 274.65L361.297 270.664L364.145 259.777Z" fill="#777677"/>
<path d="M395.646 330.143H379.557V439.381H395.646V330.143Z" fill="#414042"/>
<path d="M344.714 339.525H328.626V409.221H344.714V339.525Z" fill="#6B6B6A"/>
<path d="M378.89 322.435L380.901 335.001L280.377 334.832V321.431H345.777L340.69 312.052L356.96 310.045L378.89 322.435Z" fill="#848281"/>
<path d="M394.663 338.315L379.672 335.336L395.646 213.2L407.93 214.375L394.663 338.315Z" fill="#6B6B6A"/>
<path d="M395.475 330.815H278.368V349.577H395.475V330.815Z" fill="#777677"/>
<path d="M329.136 408.561L323.055 404.351L323.422 349.576H329.659L329.136 408.561Z" stroke="#58595B" stroke-width="0.935438" stroke-miterlimit="10"/>
<path d="M255.747 339.525H239.663V409.221H255.747V339.525Z" fill="#414042"/>
<path d="M240.167 409.391L233.633 405.872L233.128 345.052L240.67 347.065L240.167 409.391Z" stroke="#414042" stroke-width="0.483828" stroke-miterlimit="10"/>
<path d="M229.366 368.804L263.869 444.853L282.406 441.86L264.445 363.061L229.366 368.804Z" fill="#5E391F"/>
<path d="M180.521 338.187L183.873 434.016L201.968 436.03L216.711 344.886L180.521 338.187Z" fill="#5E391F"/>
<path d="M249.945 219.242L251.486 219.332L250.936 224.143H250.223L249.945 219.242Z" fill="#8D8C35"/>
<path d="M245.267 253.743L228.606 249.053L236.461 219.903H245.193L245.267 253.743Z" fill="#B5C941"/>
<path d="M267.956 210.648L272.393 227.234L250.16 230.252L251.408 219.41L249.275 212.155L267.956 210.648Z" fill="#472710"/>
<path d="M347.085 330.388L287.907 331.513L279.703 375.039L201.968 373.704L168.794 327.462L195.937 278.707H196.408L196.439 278.204L348.73 265.64L357.781 320.428L347.085 330.388Z" fill="#CE202C"/>
<path d="M266.639 290.604L265.631 323.778L274.345 325.953L283.728 293.954L266.639 290.604Z" fill="#472710"/>
<path d="M249.756 279.794L248.269 325.361L247.204 332.488L224.414 332.156L235.725 324.325L231.079 274.469L249.756 279.794Z" fill="#20100B"/>
<path d="M284.396 180.696L280.079 198.792L285.736 212.194L284.396 180.696Z" fill="#D2942A"/>
<path d="M350.743 291.774L282.888 270.664L285.403 233.305L279.371 216.217L284.396 180.696L287.042 178.827L289.091 188.066L297.132 189.075L312.546 163.94V160.803L314.301 161.012L343.375 180.696L363.743 238.815L365.678 290.604L350.743 291.774Z" fill="#F6BA19"/>
<path d="M295.455 277.201L286.407 297.638L268.646 295.969L228.301 274.416L235.161 261.648L237.151 219.903L250.066 219.174L250.776 224.143L271.124 222.328L270.649 218.938L280.438 219.242L285.403 233.305L290.248 262.121L295.455 277.201Z" fill="#BFD752"/>
<path d="M184.545 430.667L153.046 449.432L146.345 452.114L147.014 455.461L204.649 454.796L201.968 431.337L184.545 430.667Z" fill="#5E391F"/>
<path d="M264.865 442.027L235.943 464.556L229.778 467.191L229.375 471.456L251.559 470.875L286.407 458.144L282.236 440.531L264.865 442.027Z" fill="#5E391F"/>
<path d="M231.298 249.772L228.183 274.416L234.135 278.204L228.543 274.499L235.204 261.558L235.704 251L231.298 249.772Z" fill="#472710"/>
<path d="M258.956 320.059L273.848 317.458L274.003 329.756L266.374 332.057L258.956 320.059Z" fill="#20100B"/>
<path d="M279.086 257.184L278.368 256.092V242.855H279.371L279.086 257.184Z" fill="#8D8C35"/>
<path d="M275.014 251.399L274.354 252.533L274.008 238.166H275.014V251.399Z" fill="#8D8C35"/>
<path d="M266.639 248.719L266.154 250.166L265.631 235.483H266.639V248.719Z" fill="#8D8C35"/>
<path d="M259.268 250.059L258.586 251.191L258.263 236.823H259.268V250.059Z" fill="#8D8C35"/>
<path d="M251.171 249.219L250.554 247.711V236.656H251.562L251.171 249.219Z" fill="#8D8C35"/>
<path d="M238.324 249.724L237.687 250.561L237.319 238.665H238.324V249.724Z" fill="#8D8C35"/>
<path d="M244.859 250.393L244.153 251.427L243.854 237.158H244.859V250.393Z" fill="#8D8C35"/>
<path d="M281.883 249.388L281.217 250.639L280.879 236.153H281.883V249.388Z" fill="#8D8C35"/>
<path d="M241.172 255.104L240.526 256.238L240.67 242.248L241.675 242.288L241.172 255.104Z" fill="#8D8C35"/>
<path d="M285.161 251.979L284.396 250.561V243.523H285.403L285.161 251.979Z" fill="#8D8C35"/>
<path d="M247.703 249.589L246.911 250.401L247.204 241.481L248.207 241.545L247.703 249.589Z" fill="#8D8C35"/>
<path d="M255.587 255.055L254.743 254.078V241.513H255.748L255.587 255.055Z" fill="#8D8C35"/>
<path d="M235.895 245.66L244.188 241.513H267.309L287.43 245.349L285.923 236.39L276.356 234.479L243.183 235.483L236.208 237.87L235.895 245.66Z" fill="#A3AF39"/>
<path d="M262.921 248.353L262.282 247.042V241.513H263.287L262.921 248.353Z" fill="#8D8C35"/>
<path d="M270.02 252.848L269.32 252.044L269.823 241.99L270.823 242.043L270.02 252.848Z" fill="#8D8C35"/>
<path d="M279.703 375.039L266.639 374.708L268.313 379.734L279.703 375.039Z" fill="#9B1C1F"/>
<path d="M168.794 327.462L181.527 354.937L181.193 343.881L168.794 327.462Z" fill="#9B1C1F"/>
<path d="M319.245 216.886L321.841 216.385L320.166 213.367L319.245 216.886Z" fill="#077FA0"/>
<path d="M350.743 202.394L347.085 205.215L348.314 201.923L350.743 202.394Z" fill="#C0832B"/>
<path d="M287.042 178.827L288.92 186.979L288.669 178.687L287.042 178.827Z" fill="#C0832B"/>
<path d="M312.546 160.803L311.705 161.095L312.629 163.022L312.546 160.803Z" fill="#C0832B"/>
<path d="M229.778 467.19L235.943 464.556L243.852 454.796L257.592 468.53L250.891 471.546L229.375 471.456L229.778 467.19Z" fill="black"/>
<path d="M248.21 471.427H290.095V468.981H252.565L248.21 471.427Z" fill="black"/>
<path d="M146.009 451.441L152.172 448.808L162.093 440.72L175.163 453.787L167.119 455.799L145.604 455.706L146.009 451.441Z" fill="black"/>
<path d="M164.438 455.682H206.326V453.232H168.794L164.438 455.682Z" fill="black"/>
<path d="M282.325 298.748L286.407 297.638L282.764 297.242L282.325 298.748Z" fill="#078979"/>
<path d="M228.543 274.374L231.246 276.037L231.288 277.452L228.543 274.374Z" fill="#8D8C35"/>
<path d="M228.606 249.053L231.004 251.987L231.246 249.807L228.606 249.053Z" fill="#8D8C35"/>
<path d="M270.688 212.052L241.315 216.57L239.334 206.719L237.294 207.347L238.21 201.118L234.179 181.107L264.486 175.906L270.688 212.052Z" fill="#472710"/>
<path d="M233.507 186.288H250.541L263.078 194.571L269.465 203.797L264.49 175.909L234.176 181.109L233.507 186.288Z" fill="#20100B"/>
<path d="M275.853 213.26C275.418 213.26 275.028 212.961 274.929 212.519L273.036 204.002C273.026 203.947 273.015 203.892 273.015 203.837L272.08 181.885L268.778 177.342L263.871 177.771C263.349 177.822 262.889 177.43 262.844 176.91C262.799 176.389 263.186 175.931 263.702 175.884L269.144 175.411C269.483 175.382 269.799 175.53 269.991 175.798L273.778 181.003C273.888 181.153 273.949 181.334 273.958 181.52L274.9 203.675L276.776 212.111C276.889 212.62 276.567 213.126 276.057 213.238C275.991 213.252 275.921 213.26 275.853 213.26Z" fill="#20100B"/>
<path d="M234.923 195.517C234.471 195.517 234.07 195.188 233.992 194.725L233.045 189.048C233.017 188.869 233.037 188.686 233.11 188.52L235.239 183.551C235.446 183.071 236.001 182.848 236.483 183.055C236.963 183.26 237.185 183.817 236.979 184.297L234.959 189.009L235.859 194.415C235.945 194.929 235.597 195.418 235.082 195.503C235.028 195.513 234.976 195.517 234.923 195.517Z" fill="#20100B"/>
<path d="M276.801 201.904C276.788 201.904 276.775 201.904 276.764 201.904C276.241 201.883 275.834 201.444 275.854 200.92L276.08 195.085L269.87 186.119C269.851 186.089 269.833 186.058 269.813 186.025L266.512 179.833L264.063 181.407C263.625 181.691 263.038 181.565 262.757 181.124C262.473 180.685 262.603 180.098 263.041 179.815L266.355 177.686C266.575 177.544 266.845 177.5 267.103 177.567C267.357 177.635 267.576 177.805 267.701 178.038L271.46 185.087L277.816 194.268C277.932 194.437 277.991 194.639 277.982 194.842L277.745 200.995C277.726 201.504 277.307 201.904 276.801 201.904Z" fill="#20100B"/>
<path d="M272.067 207.346C271.626 207.346 271.232 207.036 271.141 206.587L267.355 187.897C267.341 187.826 267.334 187.752 267.334 187.68L267.784 173.793L264.163 172.969L261.605 180.218C261.429 180.709 260.89 180.971 260.398 180.795C259.903 180.62 259.645 180.081 259.82 179.588L262.659 171.543C262.819 171.09 263.298 170.828 263.76 170.936L268.965 172.118C269.407 172.219 269.714 172.619 269.7 173.071L269.229 187.629L272.994 206.21C273.099 206.721 272.768 207.222 272.254 207.324C272.195 207.339 272.13 207.346 272.067 207.346Z" fill="#20100B"/>
<path d="M234.688 193.859C235.733 193.859 236.58 193.012 236.58 191.967C236.58 190.922 235.733 190.075 234.688 190.075C233.643 190.075 232.796 190.922 232.796 191.967C232.796 193.012 233.643 193.859 234.688 193.859Z" fill="#ED1C24"/>
<path d="M275.144 212.078C276.19 212.078 277.037 211.23 277.037 210.184C277.037 209.139 276.19 208.291 275.144 208.291C274.098 208.291 273.25 209.139 273.25 210.184C273.25 211.23 274.098 212.078 275.144 212.078Z" fill="#ED1C24"/>
<path d="M271.123 205.216C272.168 205.216 273.015 204.369 273.015 203.324C273.015 202.279 272.168 201.431 271.123 201.431C270.077 201.431 269.23 202.279 269.23 203.324C269.23 204.369 270.077 205.216 271.123 205.216Z" fill="#ED1C24"/>
<path d="M276.801 200.485C277.846 200.485 278.693 199.637 278.693 198.592C278.693 197.547 277.846 196.7 276.801 196.7C275.756 196.7 274.908 197.547 274.908 198.592C274.908 199.637 275.756 200.485 276.801 200.485Z" fill="#ED1C24"/>
<path d="M261.185 176.354L266.512 179.833L265.443 182.031L263.04 179.815L257.874 176.826L261.185 176.354Z" fill="#D7DF23"/>
<path d="M270.649 218.938H270.177L271.124 222.328L270.649 218.938Z" fill="#8D8C35"/>
<path d="M247.036 195.588L242.869 195.861L240.757 198.124L244.477 197.623L247.036 195.588Z" fill="white"/>
<path d="M240.697 198.134L242.099 197.945L243.09 197.837L243.484 196.892L242.611 196.1L241.886 196.898L240.697 198.134Z" fill="black"/>
<path d="M315.804 169.638L301.819 189.414L288.415 192.763L289.062 163.792L276.584 168.114L269.763 148.722L266.47 149.068V139.348L257.855 114.84L292.158 102.979L310.893 156.244L309.52 156.72L315.804 169.638Z" fill="#5E391F"/>
<path d="M258.465 116.618L304.834 137.2L292.16 102.977L257.855 114.844L258.465 116.618Z" fill="#2E1A14"/>
<path d="M292.16 102.977L261.303 118.038L258.465 116.618L257.855 114.844L292.16 102.977Z" fill="#140D0C"/>
<path d="M258.287 120.521C259.821 120.521 261.066 119.277 261.066 117.742C261.066 116.208 259.821 114.964 258.287 114.964C256.752 114.964 255.508 116.208 255.508 117.742C255.508 119.277 256.752 120.521 258.287 120.521Z" fill="#140D0C"/>
<path d="M273.25 123.479L292.179 102.896L277.154 125.254L273.25 123.479Z" fill="#140D0C"/>
<path d="M292.179 103.37L291.941 131.878L288.393 130.103L292.179 103.37Z" fill="#140D0C"/>
<path d="M292.296 103.251L304.834 137.2L299.865 135.307L292.296 103.251Z" fill="#140D0C"/>
<path d="M292.59 108.043C295.073 108.043 297.085 106.03 297.085 103.547C297.085 101.065 295.073 99.0521 292.59 99.0521C290.108 99.0521 288.095 101.065 288.095 103.547C288.095 106.03 290.108 108.043 292.59 108.043Z" fill="#140D0C"/>
<path d="M274.719 128.205C276.255 128.205 277.499 126.96 277.499 125.425C277.499 123.89 276.255 122.645 274.719 122.645C273.184 122.645 271.939 123.89 271.939 125.425C271.939 126.96 273.184 128.205 274.719 128.205Z" fill="#140D0C"/>
<path d="M289.516 134.597C291.05 134.597 292.294 133.353 292.294 131.818C292.294 130.284 291.05 129.04 289.516 129.04C287.981 129.04 286.737 130.284 286.737 131.818C286.737 133.353 287.981 134.597 289.516 134.597Z" fill="#140D0C"/>
<path d="M302.231 139.742C303.765 139.742 305.009 138.498 305.009 136.963C305.009 135.429 303.765 134.185 302.231 134.185C300.696 134.185 299.452 135.429 299.452 136.963C299.452 138.498 300.696 139.742 302.231 139.742Z" fill="#140D0C"/>
<path d="M275.991 134.284L271.069 134.606L268.576 137.278L272.972 136.686L275.991 134.284Z" fill="white"/>
<path d="M268.504 137.288L270.159 137.068L271.329 136.939L271.794 135.823L270.765 134.888L269.909 135.83L268.504 137.288Z" fill="black"/>
<path d="M1 278.204L166.31 259.777L420.512 297.323L241.675 333.326L1 278.204Z" fill="#CBB08A"/>
<path d="M319.183 279.601L319.106 279.642L243.921 309.401L232.88 317.151L220.182 319.048L216.378 315.416L216.894 314.22L215.784 314.793L211.657 310.485L212.785 309.404L210.635 309.418L207.379 305.517L208.526 304.416L206.118 303.919L204.114 299.246L212.187 292.939L228.761 289.246L236.647 292.345L296.522 261.146L317.301 196.119L342.132 196.1L348.314 201.952L319.801 277.664L319.183 279.601Z" fill="#5E391F"/>
<path d="M312.379 207.346L318.666 197.555L350.743 202.395L344.039 180.027L333.987 174.666L317.318 175.168L308.27 193.011L312.379 207.346Z" fill="#EAAA21"/>
<path d="M420.512 297.323V308.279L239.663 347.857L239.925 332.926L420.512 297.323Z" fill="#C09F7C"/>
<path d="M1 278.204L239.925 332.926L239.663 347.642L1 289.637V278.204Z" fill="#C09F7C"/>
<path d="M315.056 203.145L312.379 207.346H313.713L315.056 203.145Z" fill="#C0832B"/>
<path d="M319.245 210.184L344.499 215.127L331.004 253.743L307.545 244.613L319.245 210.184Z" fill="black"/>
<path d="M319.245 210.184L307.545 244.613L304.834 244.292L315.804 208.843L319.245 210.184Z" fill="#58595B"/>
<path d="M331.004 253.743L328.317 255.055L329.147 252.848L331.004 253.743Z" fill="black"/>
<path d="M343.745 214.087L344.499 215.127L343.432 214.918L343.745 214.087Z" fill="black"/>
<path d="M315.804 208.843L312.629 208.291L301.168 243.396L304.834 244.292L315.804 208.843Z" fill="black"/>
<path d="M301.168 243.396L302.151 243.523L301.907 244.292L301.168 243.396Z" fill="black"/>
<path d="M313.589 207.731L312.63 208.291L313.37 208.42L313.589 207.731Z" fill="black"/>
<path d="M237.412 278.627L255.081 282.739L251.123 284.8L236.956 281.5L208.594 283.009C208.139 283.019 207.684 282.835 207.395 282.467L198.792 271.823L186.86 270.855L187.092 267.951L199.651 268.977C200.048 269.017 200.415 269.21 200.658 269.52L209.183 280.067L237.003 278.586C237.141 278.588 237.276 278.597 237.412 278.627Z" fill="#414042"/>
<path d="M326.02 251.987L308.265 262.08C308.032 262.213 307.772 262.273 307.491 262.273L280.667 261.266L276.476 271.592L272.489 273.663L278.353 259.235C278.586 258.663 279.156 258.315 279.755 258.326L307.189 259.352L322.826 250.566L326.02 251.987Z" fill="#414042"/>
<path d="M133.731 278.894L133.279 282.511L130.606 284.2L126.84 285.846H108.722L15.9822 259.571L26.3295 220.699L45.5133 229.074L44.5204 240.598L110.113 268.154L123.977 265.301L135.044 270.162L134.265 273.966L136.417 276.143L133.731 278.894Z" fill="#5E391F"/>
<path d="M26.3295 435.413L7.7571 429.607V291.278L27.4687 295.878L26.3295 435.413Z" fill="#B5916D"/>
<path d="M240.485 474.142L218.916 470.206L219.318 342.334L239.663 347.642L240.485 474.142Z" fill="#B5916D"/>
<path d="M240.485 474.142L251.559 470.875L251.562 345.052L239.663 347.642L240.485 474.142Z" fill="#AF8966"/>
<path d="M26.3295 435.413L38.5099 431.635V298.752L27.4687 295.878L26.3295 435.413Z" fill="#AF8966"/>
<path d="M407.93 311.033L407.667 437.732L387.868 443.329L387.604 315.483L407.93 311.033Z" fill="#B5916D"/>
<path d="M387.969 442.814L374.201 438.624L374.037 318.451L387.604 315.483L387.969 442.814Z" fill="#AF8966"/>
<path d="M186.72 257.087L166.623 291.809L136.703 286.173L155.064 255.305L186.72 257.087Z" fill="#AABFCC"/>
<path d="M186.72 257.087L188.647 281.928L169.324 295.555L137.1 287.367L136.703 286.173L166.623 291.809L186.72 257.087Z" fill="#B6CCDA"/>
<path d="M156.709 257.262L144.651 276.872L170.775 280.761L183.424 258.778L156.709 257.262Z" fill="#9FB6C1"/>
<path d="M168.797 259.354L180.96 260.435L170.008 279.21L157.697 277.697L168.797 259.354Z" fill="#B6CCDA"/>
<path d="M157.427 259.155L164.373 259.915L162.366 262.738L155.669 261.975L157.427 259.155Z" fill="#B6CCDA"/>
<path d="M154.236 263.802L161.183 264.56L159.175 267.383L152.479 266.622L154.236 263.802Z" fill="#B6CCDA"/>
<path d="M151.3 268.968L158.249 269.725L156.237 272.55L149.543 271.787L151.3 268.968Z" fill="#B6CCDA"/>
<path d="M161.438 282.031L158.497 286.777L148.222 284.753L150.156 280.781L161.438 282.031Z" fill="white"/>
<path d="M106.73 259.155H86.7311V260.557H106.73V259.155Z" fill="#D1D3D4"/>
<path d="M108.037 260.32H85.5622V289.503H108.037V260.32Z" fill="white"/>
<path d="M107.843 254.692H85.6194V259.416H107.843V254.692Z" fill="#939598"/>
<path d="M86.9807 254.692H86.0636V259.416H86.9807V254.692Z" fill="#808285"/>
<path d="M88.8555 254.692H87.9396V259.416H88.8555V254.692Z" fill="#808285"/>
<path d="M91.355 254.692H90.439V259.416H91.355V254.692Z" fill="#808285"/>
<path d="M93.6476 254.692H92.7306V259.416H93.6476V254.692Z" fill="#808285"/>
<path d="M95.6478 254.692H94.7319V259.416H95.6478V254.692Z" fill="#808285"/>
<path d="M97.7173 254.692H96.8002V259.416H97.7173V254.692Z" fill="#808285"/>
<path d="M99.7582 254.692H98.8422V259.416H99.7582V254.692Z" fill="#808285"/>
<path d="M102.05 254.692H101.134V259.416H102.05V254.692Z" fill="#808285"/>
<path d="M104.634 254.692H103.717V259.416H104.634V254.692Z" fill="#808285"/>
<path d="M107.188 254.692H106.271V259.416H107.188V254.692Z" fill="#808285"/>
<path opacity="0.7" d="M106.73 263.027H86.7311V284.39H106.73V263.027Z" fill="#F15A29"/>
<path d="M115.26 216.775L91.8843 213.814L90.8221 222.197L114.198 225.158L115.26 216.775Z" fill="white"/>
</svg>
