<svg width="359" height="244" viewBox="0 0 359 244" fill="none" xmlns="http://www.w3.org/2000/svg">
<path d="M359 0H0V244H359V0Z" fill="url(#paint0_linear)"/>
<path opacity="0.5" d="M187.046 37.8924C193.332 37.8924 198.429 32.796 198.429 26.5092C198.429 20.2225 193.332 15.1261 187.046 15.1261C180.759 15.1261 175.663 20.2225 175.663 26.5092C175.663 32.796 180.759 37.8924 187.046 37.8924Z" fill="#FFF200"/>
<path opacity="0.4" d="M100.469 20.493C100.469 23.9167 98.0125 26.7681 94.766 27.3774C93.7737 30.0404 91.208 31.9335 88.2018 31.9335C85.1387 31.9335 82.5355 29.9684 81.5865 27.2285C78.6549 26.3904 76.5096 23.6933 76.5096 20.493C76.5096 16.623 79.6472 13.4855 83.5172 13.4855C85.4619 13.4855 87.2207 14.2778 88.4909 15.5592C89.7582 14.2778 91.517 13.4855 93.4617 13.4855C97.3317 13.4855 100.469 16.623 100.469 20.493Z" fill="white"/>
<path opacity="0.4" d="M152.205 33.5294C152.268 29.3601 155.313 25.932 159.278 25.2497C160.535 22.0251 163.695 19.766 167.356 19.8214C171.086 19.8779 174.22 22.319 175.326 25.6731C178.881 26.7477 181.444 30.0721 181.385 33.9698C181.314 38.6832 177.436 42.4466 172.722 42.3755C170.354 42.3395 168.225 41.3423 166.703 39.7587C165.136 41.2961 162.979 42.2285 160.61 42.1925C155.898 42.1215 152.134 38.2427 152.205 33.5294Z" fill="white"/>
<path opacity="0.4" d="M170.919 39.914C170.982 35.7447 174.027 32.3167 177.991 31.6344C179.249 28.4097 182.408 26.1506 186.07 26.2061C189.8 26.2625 192.934 28.7037 194.04 32.0578C197.595 33.1323 200.158 36.4567 200.1 40.3545C200.029 45.0678 196.149 48.8312 191.436 48.7602C189.068 48.7241 186.94 47.727 185.417 46.1434C183.85 47.6807 181.693 48.6132 179.324 48.5772C174.611 48.5061 170.848 44.6279 170.919 39.914Z" fill="white"/>
<path opacity="0.4" d="M253.518 16.2235C253.564 13.1667 255.797 10.6541 258.703 10.1533C259.625 7.78906 261.941 6.13294 264.625 6.17333C267.36 6.2147 269.658 8.00466 270.469 10.4633C273.075 11.2512 274.954 13.6884 274.911 16.5461C274.859 20.0015 272.015 22.7609 268.56 22.7088C266.824 22.6825 265.263 21.9511 264.147 20.7904C262.998 21.9175 261.417 22.6013 259.68 22.575C256.225 22.5229 253.466 19.6793 253.518 16.2235Z" fill="white"/>
<path opacity="0.4" d="M46.7242 44.9685C46.7514 43.181 48.0567 41.7117 49.7561 41.4192C50.2953 40.0371 51.6492 39.0686 53.2187 39.0925C54.8179 39.1163 56.1616 40.1631 56.6356 41.6008C58.1594 42.0616 59.2583 43.4866 59.233 45.1578C59.2023 47.178 57.5399 48.7913 55.5197 48.7611C54.5045 48.7455 53.592 48.3182 52.9394 47.6393C52.2678 48.2983 51.3431 48.6983 50.3275 48.6827C48.3073 48.6521 46.694 46.9891 46.7242 44.9685Z" fill="white"/>
<path opacity="0.4" d="M291.113 43.3596C291.139 41.5721 292.445 40.1028 294.144 39.8103C294.683 38.4282 296.037 37.4597 297.607 37.4836C299.206 37.5074 300.55 38.5543 301.024 39.9919C302.548 40.4527 303.647 41.8777 303.621 43.5489C303.591 45.5691 301.928 47.1824 299.908 47.1522C298.892 47.1366 297.98 46.7093 297.327 46.0304C296.655 46.6894 295.731 47.0894 294.715 47.0738C292.695 47.0432 291.082 45.3802 291.113 43.3596Z" fill="white"/>
<path d="M97.483 20.5198C97.8086 20.5154 98.1352 20.5426 98.4578 20.5923C98.7819 20.6371 99.1041 20.7023 99.4224 20.787C99.582 20.8273 99.7378 20.8814 99.893 20.9373C100.05 20.9889 100.205 21.0478 100.355 21.1184C100.507 21.1865 100.662 21.2454 100.806 21.331C100.951 21.4133 101.102 21.4853 101.242 21.5773L101.657 21.8635C101.789 21.9676 101.91 22.0868 102.037 22.1988C102.169 22.3058 102.273 22.4411 102.384 22.5696C102.492 22.7005 102.612 22.8237 102.694 22.9735L102.961 23.4101L103.162 23.8802C103.237 24.035 103.284 24.198 103.321 24.364L103.443 24.8589L102.965 24.8594L103.082 24.3912L103.141 24.1576L103.233 23.9342C103.297 23.7863 103.352 23.6344 103.424 23.4909L103.674 23.0782C103.75 22.9356 103.868 22.8227 103.964 22.6952C104.064 22.5696 104.165 22.446 104.285 22.3404C104.402 22.2328 104.51 22.1136 104.637 22.0182L105.017 21.7345C105.147 21.6459 105.284 21.5685 105.417 21.4853C105.549 21.3987 105.693 21.3364 105.831 21.2639C106.109 21.1218 106.398 21.0021 106.692 20.9028C106.986 20.8035 107.285 20.7213 107.586 20.657C107.887 20.5879 108.192 20.5402 108.498 20.5193C107.903 20.6667 107.325 20.8624 106.777 21.1184C106.502 21.243 106.23 21.3724 105.974 21.5296C105.847 21.6084 105.714 21.6766 105.595 21.7681C105.475 21.8557 105.35 21.9374 105.234 22.0294C105.005 22.2197 104.785 22.4149 104.588 22.6329C104.481 22.7336 104.393 22.8499 104.307 22.9677C104.223 23.0874 104.119 23.1921 104.056 23.3244L103.841 23.7021C103.778 23.832 103.731 23.9698 103.675 24.1031L103.594 24.3046L103.544 24.5168L103.443 24.9397L103.208 25.9232L102.965 24.9407L102.854 24.4915C102.823 24.3396 102.783 24.1907 102.717 24.052L102.542 23.6252L102.306 23.2295C102.237 23.0903 102.132 22.9765 102.038 22.8543C101.942 22.7336 101.853 22.6066 101.735 22.5049C101.622 22.3988 101.516 22.2844 101.397 22.1837L101.03 21.8922C100.905 21.7973 100.767 21.7199 100.636 21.6323C100.507 21.5413 100.362 21.4756 100.222 21.4002C100.084 21.3228 99.9397 21.2561 99.7923 21.1958C99.6468 21.1315 99.4998 21.0682 99.3479 21.0186C98.7513 20.786 98.124 20.6244 97.483 20.5198Z" fill="black"/>
<path d="M224.451 6.17285C224.776 6.16847 225.103 6.19572 225.426 6.24536C225.75 6.29014 226.072 6.35535 226.39 6.44003C226.55 6.48042 226.705 6.53444 226.861 6.59041C227.018 6.642 227.173 6.70088 227.323 6.77145C227.475 6.83958 227.63 6.89847 227.774 6.98412C227.918 7.06637 228.07 7.1384 228.21 7.23038L228.625 7.51654C228.757 7.62068 228.878 7.73992 229.005 7.85185C229.137 7.95892 229.24 8.09421 229.352 8.22269C229.46 8.3536 229.58 8.47673 229.663 8.62662L229.93 9.06316L230.13 9.53328C230.205 9.68804 230.252 9.85108 230.288 10.017L230.411 10.512L229.934 10.5125L230.05 10.0443L230.109 9.81068L230.2 9.5873C230.264 9.43936 230.319 9.28752 230.392 9.14395L230.642 8.73126C230.718 8.58866 230.836 8.47576 230.932 8.34825C231.032 8.22269 231.133 8.09908 231.253 7.99347C231.37 7.88592 231.477 7.76668 231.605 7.6713L231.985 7.38757C232.115 7.299 232.252 7.22162 232.385 7.1384C232.516 7.05177 232.661 6.98948 232.8 6.91696C233.077 6.77486 233.366 6.65514 233.66 6.55586C233.954 6.45658 234.253 6.37433 234.555 6.31009C234.855 6.24098 235.16 6.19329 235.467 6.17236C234.871 6.31982 234.293 6.51546 233.745 6.77145C233.471 6.89604 233.198 7.02549 232.943 7.18268C232.815 7.26152 232.682 7.32966 232.564 7.42115C232.443 7.50875 232.318 7.59051 232.203 7.68249C231.974 7.87278 231.754 8.06793 231.557 8.28596C231.45 8.3867 231.362 8.50301 231.275 8.62078C231.192 8.7405 231.088 8.84514 231.025 8.97751L230.81 9.35516C230.746 9.4851 230.7 9.62283 230.644 9.75618L230.563 9.95766L230.513 10.1698L230.412 10.5928L230.177 11.5763L229.935 10.5937L229.823 10.1445C229.792 9.9927 229.752 9.84378 229.686 9.70508L229.511 9.27827L229.275 8.88261C229.206 8.74342 229.101 8.62954 229.007 8.50739C228.911 8.3867 228.822 8.25968 228.703 8.15796C228.591 8.05187 228.484 7.9375 228.366 7.83676L227.999 7.54525C227.874 7.45035 227.736 7.37297 227.605 7.28537C227.476 7.19436 227.331 7.12866 227.191 7.05323C227.053 6.97585 226.909 6.90918 226.761 6.84883C226.615 6.78459 226.469 6.72132 226.317 6.67168C225.719 6.43906 225.091 6.27748 224.451 6.17285Z" fill="black"/>
<path d="M281.937 36.902C282.262 36.8976 282.589 36.9249 282.912 36.9745C283.236 37.0193 283.558 37.0845 283.876 37.1692C284.036 37.2096 284.191 37.2636 284.347 37.3195C284.504 37.3711 284.659 37.43 284.809 37.5006C284.961 37.5687 285.116 37.6276 285.26 37.7132C285.405 37.7955 285.556 37.8675 285.696 37.9595L286.111 38.2457C286.243 38.3498 286.364 38.469 286.491 38.581C286.623 38.688 286.726 38.8233 286.838 38.9518C286.946 39.0827 287.066 39.2059 287.149 39.3557L287.416 39.7923L287.616 40.2624C287.691 40.4172 287.738 40.5802 287.775 40.7462L287.897 41.2411L287.42 41.2416L287.536 40.7734L287.595 40.5398L287.686 40.3164C287.75 40.1685 287.805 40.0166 287.878 39.8731L288.128 39.4604C288.204 39.3178 288.322 39.2049 288.418 39.0774C288.518 38.9518 288.619 38.8282 288.739 38.7226C288.856 38.615 288.963 38.4958 289.091 38.4004L289.471 38.1167C289.602 38.0281 289.738 37.9507 289.871 37.8675C290.003 37.7809 290.147 37.7186 290.286 37.6461C290.563 37.504 290.852 37.3843 291.146 37.285C291.44 37.1857 291.739 37.1035 292.041 37.0392C292.341 36.9701 292.646 36.9224 292.953 36.9015C292.357 37.0489 291.779 37.2446 291.231 37.5006C290.957 37.6252 290.684 37.7546 290.429 37.9118C290.301 37.9907 290.168 38.0588 290.05 38.1503C289.93 38.2379 289.804 38.3196 289.689 38.4116C289.46 38.6019 289.24 38.7971 289.043 39.0151C288.936 39.1158 288.848 39.2321 288.762 39.3499C288.678 39.4696 288.574 39.5743 288.511 39.7066L288.296 40.0843C288.233 40.2142 288.186 40.352 288.13 40.4853L288.049 40.6868L287.999 40.899L287.898 41.3219L287.663 42.3054L287.421 41.3229L287.309 40.8737C287.278 40.7218 287.238 40.5729 287.172 40.4342L286.997 40.0074L286.761 39.6117C286.692 39.4725 286.587 39.3587 286.493 39.2365C286.397 39.1158 286.308 38.9888 286.189 38.8871C286.077 38.781 285.97 38.6666 285.852 38.5659L285.485 38.2744C285.36 38.1795 285.222 38.1021 285.091 38.0145C284.962 37.9235 284.817 37.8578 284.677 37.7824C284.539 37.705 284.395 37.6383 284.247 37.578C284.101 37.5137 283.955 37.4504 283.803 37.4008C283.205 37.1682 282.577 37.0066 281.937 36.902Z" fill="black"/>
<path d="M53.6509 45.7491C53.9035 45.7457 54.156 45.7667 54.4062 45.8056C54.6573 45.8401 54.907 45.8908 55.1537 45.9565C55.3985 46.0265 55.6428 46.1068 55.8764 46.2129C56.1149 46.3093 56.3407 46.4368 56.5636 46.5682L56.8853 46.7901C56.9875 46.8709 57.0809 46.9634 57.1792 47.05C57.2814 47.1332 57.3617 47.2379 57.4479 47.3376C57.532 47.4388 57.6245 47.5342 57.6888 47.6505L57.8961 47.9888L58.0513 48.3533C58.1657 48.5932 58.1978 48.8585 58.2689 49.1115L57.899 49.112L57.9895 48.749C58.0143 48.6268 58.0528 48.5085 58.1063 48.3947C58.156 48.2803 58.1983 48.162 58.2543 48.0511L58.448 47.7313C58.5068 47.6209 58.5978 47.5333 58.6723 47.435C58.7497 47.3376 58.828 47.2422 58.9215 47.1605C59.0918 46.9804 59.2904 46.8349 59.4884 46.6913C59.6938 46.5599 59.9002 46.43 60.1197 46.3268C60.3348 46.2168 60.5586 46.1239 60.7859 46.047C61.0137 45.9701 61.2453 45.9068 61.4789 45.8567C61.7115 45.8032 61.9481 45.7657 62.1856 45.7501C61.7247 45.864 61.2765 46.0158 60.8521 46.2144C60.6394 46.3108 60.4282 46.4115 60.2301 46.5327C60.0272 46.6456 59.8408 46.7833 59.6563 46.9201C59.4797 47.0675 59.3089 47.2189 59.1561 47.3873C59.0728 47.4651 59.0042 47.5556 58.938 47.6467C58.8738 47.7391 58.7925 47.8204 58.7443 47.9231L58.5774 48.2156C58.5287 48.3163 58.4927 48.4234 58.4489 48.5265C58.4012 48.6283 58.3681 48.7353 58.3477 48.8468L58.2693 49.1743L58.1087 49.8459L57.899 49.1753C57.8279 48.9475 57.8099 48.7017 57.7063 48.4862L57.571 48.1552L57.388 47.8491C57.3349 47.7416 57.2532 47.653 57.1807 47.5586C57.1062 47.4651 57.0371 47.3663 56.9456 47.2875C56.7797 47.1128 56.5923 46.9614 56.3996 46.813C56.1996 46.6758 55.9956 46.539 55.7742 46.4319C55.5586 46.3146 55.3289 46.2207 55.0963 46.1365C54.6339 45.9555 54.1478 45.8304 53.6509 45.7491Z" fill="black"/>
<path d="M166.093 42.2295C166.346 42.2261 166.598 42.247 166.849 42.2859C167.1 42.3205 167.349 42.3711 167.596 42.4368C167.841 42.5069 168.085 42.5872 168.319 42.6933C168.557 42.7896 168.783 42.9171 169.006 43.0485L169.328 43.2705C169.43 43.3513 169.523 43.4437 169.622 43.5303C169.724 43.6136 169.804 43.7182 169.89 43.818C169.974 43.9192 170.067 44.0146 170.131 44.1309L170.338 44.4691L170.494 44.8336C170.608 45.0736 170.64 45.3388 170.711 45.5919L170.341 45.5924L170.432 45.2293C170.457 45.1071 170.495 44.9889 170.549 44.875C170.598 44.7606 170.641 44.6424 170.697 44.5314L170.89 44.2117C170.949 44.1012 171.04 44.0136 171.115 43.9153C171.192 43.818 171.27 43.7226 171.364 43.6408C171.534 43.4607 171.733 43.3152 171.931 43.1717C172.136 43.0403 172.343 42.9103 172.562 42.8072C172.777 42.6972 173.001 42.6042 173.228 42.5273C173.456 42.4504 173.688 42.3872 173.921 42.337C174.154 42.2835 174.39 42.246 174.628 42.2305C174.167 42.3443 173.719 42.4962 173.294 42.6947C173.082 42.7911 172.871 42.8918 172.673 43.013C172.47 43.1259 172.283 43.2637 172.099 43.4004C171.922 43.5479 171.751 43.6992 171.598 43.8676C171.515 43.9455 171.447 44.036 171.38 44.127C171.316 44.2195 171.235 44.3007 171.187 44.4034L171.02 44.6959C170.971 44.7967 170.935 44.9037 170.891 45.0069C170.844 45.1086 170.811 45.2157 170.79 45.3271L170.712 45.6546L170.551 46.3262L170.341 45.6556C170.27 45.4279 170.252 45.1821 170.149 44.9665L170.013 44.6356L169.83 44.3295C169.777 44.2219 169.696 44.1333 169.623 44.0389C169.549 43.9455 169.479 43.8467 169.388 43.7678C169.222 43.5931 169.035 43.4418 168.842 43.2933C168.642 43.1561 168.438 43.0193 168.217 42.9123C168.001 42.795 167.771 42.7011 167.539 42.6169C167.076 42.4358 166.59 42.3108 166.093 42.2295Z" fill="black"/>
<g clip-path="url(#clip0)">
<path d="M200.439 107.936L195.66 108.047L195.494 100.908L198.689 100.834L200.439 107.936Z" fill="#3C2415"/>
<path d="M206.082 81.9502C206.159 85.2577 202.885 84.0225 200.273 84.0825C197.661 84.1436 194.109 80.6867 194.033 77.3793L195.002 60.8075C194.925 57.5006 196.98 54.7701 199.592 54.7095C202.204 54.6485 204.384 57.281 204.461 60.5884L206.082 81.9502Z" fill="#F7941E"/>
<path d="M208.23 76.3507L156.658 77.5475L159.789 212.467L211.362 211.271L208.23 76.3507Z" fill="#F15A29"/>
<path d="M189.765 166.046L178.929 166.297L179.072 172.489L189.909 172.238L189.765 166.046Z" fill="#FBB040"/>
<path d="M190.027 177.371L179.191 177.623L179.335 183.815L190.171 183.563L190.027 177.371Z" fill="#FBB040"/>
<path d="M190.272 187.964L179.436 188.214L179.579 194.406L190.415 194.155L190.272 187.964Z" fill="#FBB040"/>
<path d="M190.521 198.302L179.685 198.553L179.828 204.745L190.664 204.493L190.521 198.302Z" fill="#FBB040"/>
<path d="M204.4 170.255L195.53 171.867L195.4 166.244L204.302 166.038L204.4 170.255Z" fill="#FBB040"/>
<path d="M203.748 161.932L194.232 157.729L197.747 152.274L206.384 157.841L203.748 161.932Z" fill="#F7941E"/>
<path d="M204.068 140.565L194.302 144.151L197.461 149.819L206.438 144.817L204.068 140.565Z" fill="#F7941E"/>
<path d="M164.189 163.339L173.499 158.699L169.734 153.412L161.364 159.374L164.189 163.339Z" fill="#F7941E"/>
<path d="M162.878 142.009L172.8 145.138L169.907 150.948L160.709 146.366L162.878 142.009Z" fill="#F7941E"/>
<path d="M204.662 181.581L195.792 183.192L195.663 177.57L204.564 177.364L204.662 181.581Z" fill="#FBB040"/>
<path d="M204.901 191.928L196.033 193.54L195.902 187.917L204.804 187.71L204.901 191.928Z" fill="#FBB040"/>
<path d="M205.142 202.276L196.273 203.887L196.142 198.266L205.044 198.059L205.142 202.276Z" fill="#FBB040"/>
<path d="M164.456 171.181L173.39 172.381L173.26 166.758L164.358 166.964L164.456 171.181Z" fill="#FBB040"/>
<path d="M164.718 182.507L173.653 183.705L173.522 178.084L164.62 178.289L164.718 182.507Z" fill="#FBB040"/>
<path d="M164.958 192.855L173.893 194.054L173.762 188.431L164.86 188.637L164.958 192.855Z" fill="#FBB040"/>
<path d="M206.963 136.549L160.744 137.62L159.841 101.406L205.685 92.9246L206.963 136.549Z" fill="#F9ED32"/>
<path d="M165.198 203.202L174.133 204.4L174.002 198.779L165.101 198.985L165.198 203.202Z" fill="#FBB040"/>
<path d="M202.478 104.199L163.331 105.108L163.94 131.342L203.087 130.433L202.478 104.199Z" fill="white"/>
<path d="M173.372 96.5221C177.546 96.5221 180.93 93.138 180.93 88.9635C180.93 84.7891 177.546 81.405 173.372 81.405C169.197 81.405 165.813 84.7891 165.813 88.9635C165.813 93.138 169.197 96.5221 173.372 96.5221Z" fill="#BCBEC0"/>
<path d="M191.265 88.9781C193.234 88.9781 194.831 87.3815 194.831 85.412C194.831 83.4425 193.234 81.8459 191.265 81.8459C189.295 81.8459 187.699 83.4425 187.699 85.412C187.699 87.3815 189.295 88.9781 191.265 88.9781Z" fill="#998176"/>
<path d="M191.326 155.742C191.38 158.104 189.51 160.063 187.147 160.118L180.303 160.277C177.941 160.331 175.982 158.461 175.927 156.099L175.749 148.399C175.693 146.036 177.563 144.077 179.926 144.023L186.77 143.864C189.132 143.809 191.092 145.68 191.147 148.042L191.326 155.742Z" fill="#F7941E"/>
<path d="M172.542 84.1919C172.906 84.1919 173.201 83.8967 173.201 83.5326C173.201 83.1684 172.906 82.8732 172.542 82.8732C172.178 82.8732 171.883 83.1684 171.883 83.5326C171.883 83.8967 172.178 84.1919 172.542 84.1919Z" fill="#998176"/>
<path d="M169.419 85.3634C169.783 85.3634 170.078 85.0682 170.078 84.704C170.078 84.3399 169.783 84.0447 169.419 84.0447C169.055 84.0447 168.759 84.3399 168.759 84.704C168.759 85.0682 169.055 85.3634 169.419 85.3634Z" fill="#998176"/>
<path d="M172.409 87.9321C172.773 87.9321 173.068 87.6369 173.068 87.2727C173.068 86.9086 172.773 86.6134 172.409 86.6134C172.044 86.6134 171.749 86.9086 171.749 87.2727C171.749 87.6369 172.044 87.9321 172.409 87.9321Z" fill="#998176"/>
<path d="M168.614 88.6058C168.978 88.6058 169.274 88.3106 169.274 87.9464C169.274 87.5823 168.978 87.2871 168.614 87.2871C168.25 87.2871 167.955 87.5823 167.955 87.9464C167.955 88.3106 168.25 88.6058 168.614 88.6058Z" fill="#998176"/>
<path d="M171.821 91.0232C172.185 91.0232 172.48 90.728 172.48 90.3639C172.48 89.9997 172.185 89.7045 171.821 89.7045C171.457 89.7045 171.162 89.9997 171.162 90.3639C171.162 90.728 171.457 91.0232 171.821 91.0232Z" fill="#998176"/>
<path d="M169.536 93.5673C169.9 93.5673 170.195 93.2721 170.195 92.908C170.195 92.5439 169.9 92.2487 169.536 92.2487C169.171 92.2487 168.876 92.5439 168.876 92.908C168.876 93.2721 169.171 93.5673 169.536 93.5673Z" fill="#998176"/>
<path d="M174.352 92.7227C174.716 92.7227 175.012 92.4275 175.012 92.0633C175.012 91.6992 174.716 91.404 174.352 91.404C173.988 91.404 173.693 91.6992 173.693 92.0633C173.693 92.4275 173.988 92.7227 174.352 92.7227Z" fill="#998176"/>
<path d="M175.96 89.3883C176.324 89.3883 176.619 89.0931 176.619 88.729C176.619 88.3648 176.324 88.0696 175.96 88.0696C175.595 88.0696 175.3 88.3648 175.3 88.729C175.3 89.0931 175.595 89.3883 175.96 89.3883Z" fill="#998176"/>
<path d="M175.739 86.1687C176.103 86.1687 176.398 85.8735 176.398 85.5094C176.398 85.1452 176.103 84.85 175.739 84.85C175.375 84.85 175.08 85.1452 175.08 85.5094C175.08 85.8735 175.375 86.1687 175.739 86.1687Z" fill="#998176"/>
<path d="M179.13 87.117C179.495 87.117 179.79 86.8218 179.79 86.4577C179.79 86.0935 179.495 85.7983 179.13 85.7983C178.766 85.7983 178.471 86.0935 178.471 86.4577C178.471 86.8218 178.766 87.117 179.13 87.117Z" fill="#998176"/>
<path d="M179.088 91.5871C179.452 91.5871 179.747 91.2919 179.747 90.9278C179.747 90.5636 179.452 90.2684 179.088 90.2684C178.724 90.2684 178.429 90.5636 178.429 90.9278C178.429 91.2919 178.724 91.5871 179.088 91.5871Z" fill="#998176"/>
<path d="M176.813 94.5709C177.177 94.5709 177.472 94.2757 177.472 93.9116C177.472 93.5475 177.177 93.2523 176.813 93.2523C176.449 93.2523 176.154 93.5475 176.154 93.9116C176.154 94.2757 176.449 94.5709 176.813 94.5709Z" fill="#998176"/>
<path d="M175.826 83.6027C176.19 83.6027 176.485 83.3075 176.485 82.9434C176.485 82.5792 176.19 82.2841 175.826 82.2841C175.462 82.2841 175.166 82.5792 175.166 82.9434C175.166 83.3075 175.462 83.6027 175.826 83.6027Z" fill="#998176"/>
<path d="M167.145 91.5711C167.509 91.5711 167.804 91.2759 167.804 90.9117C167.804 90.5476 167.509 90.2524 167.145 90.2524C166.78 90.2524 166.485 90.5476 166.485 90.9117C166.485 91.2759 166.78 91.5711 167.145 91.5711Z" fill="#998176"/>
<path d="M172.652 95.2528C173.016 95.2528 173.31 94.9578 173.31 94.594C173.31 94.2301 173.016 93.9352 172.652 93.9352C172.288 93.9352 171.993 94.2301 171.993 94.594C171.993 94.9578 172.288 95.2528 172.652 95.2528Z" fill="#998176"/>
<path d="M167.069 116.018L165.318 115.54L165.562 114.664L167.317 115.269L167.219 113.288L168.1 113.268L168.089 115.279L169.786 114.606L170.071 115.475L168.315 116.041L169.491 117.575L168.79 118.133L167.68 116.499L166.681 118.142L165.948 117.634L167.069 116.018ZM172.517 116.842L173.318 116.824C173.821 116.804 174.213 116.663 174.495 116.399C174.777 116.135 174.913 115.784 174.903 115.346C174.88 114.363 174.379 113.883 173.4 113.906C172.939 113.916 172.574 114.057 172.303 114.329C172.037 114.596 171.909 114.947 171.919 115.381L170.853 115.405C170.838 114.741 171.067 114.184 171.54 113.735C172.018 113.283 172.631 113.047 173.38 113.03C174.171 113.012 174.796 113.207 175.255 113.615C175.714 114.023 175.952 114.599 175.969 115.344C175.978 115.709 175.867 116.065 175.637 116.413C175.41 116.76 175.096 117.023 174.693 117.201C175.157 117.336 175.518 117.57 175.775 117.902C176.036 118.234 176.173 118.644 176.184 119.132C176.201 119.884 175.969 120.487 175.488 120.94C175.007 121.393 174.373 121.629 173.585 121.647C172.798 121.665 172.152 121.467 171.647 121.052C171.145 120.637 170.887 120.081 170.87 119.382L171.942 119.357C171.952 119.798 172.104 120.148 172.398 120.407C172.692 120.665 173.081 120.788 173.565 120.777C174.08 120.765 174.47 120.622 174.737 120.347C175.003 120.071 175.131 119.682 175.119 119.179C175.108 118.692 174.949 118.321 174.644 118.067C174.338 117.812 173.903 117.688 173.338 117.693L172.537 117.712L172.517 116.842ZM182.135 118.515L183.298 118.488L183.318 119.358L182.155 119.385L182.2 121.332L181.129 121.357L181.083 119.41L177.264 119.498L177.25 118.871L180.871 112.971L182.005 112.945L182.135 118.515ZM178.454 118.601L181.063 118.54L180.968 114.427L180.846 114.661L178.454 118.601ZM184.717 117.066L185.047 112.875L189.344 112.775L189.366 113.76L185.974 113.839L185.773 116.131C186.179 115.88 186.642 115.748 187.165 115.736C187.929 115.718 188.541 115.957 189.003 116.454C189.463 116.947 189.704 117.623 189.724 118.483C189.744 119.347 189.526 120.034 189.069 120.544C188.615 121.05 187.97 121.313 187.133 121.333C186.392 121.35 185.782 121.158 185.304 120.758C184.826 120.358 184.546 119.796 184.464 119.072L185.472 119.049C185.549 119.527 185.728 119.886 186.01 120.125C186.292 120.361 186.66 120.473 187.113 120.463C187.608 120.451 187.992 120.273 188.265 119.929C188.541 119.584 188.672 119.115 188.659 118.519C188.646 117.959 188.482 117.513 188.166 117.182C187.855 116.847 187.446 116.686 186.939 116.698C186.475 116.708 186.112 116.819 185.852 117.028L185.575 117.265L184.717 117.066ZM194.604 118.681L193.083 118.716L192.677 121.089L191.854 121.108L192.26 118.735L190.883 118.767L190.865 117.978L192.391 117.943L192.741 115.895L191.255 115.929L191.237 115.128L192.878 115.09L193.295 112.683L194.119 112.664L193.702 115.071L195.223 115.036L195.639 112.629L196.469 112.609L196.052 115.017L197.227 114.989L197.246 115.79L195.915 115.821L195.565 117.869L196.861 117.839L196.879 118.628L195.434 118.662L195.028 121.034L194.198 121.053L194.604 118.681ZM193.215 117.924L194.736 117.888L195.086 115.84L193.565 115.875L193.215 117.924Z" fill="#726658"/>
<path d="M185.491 209.328C186.705 209.299 187.681 208.949 187.672 208.544C187.662 208.14 186.671 207.834 185.457 207.863C184.243 207.891 183.267 208.242 183.277 208.646C183.286 209.051 184.277 209.356 185.491 209.328Z" fill="#C03126"/>
<path d="M209.352 117.149L218.041 122.233L238.358 210.66L338 293.485L312.005 323.388L273.424 324.282L220.576 231.607L211.731 232.368L187.537 195.155L196.756 185.497L213.736 199.066L210.088 148.887L209.827 126.311L209.352 117.149Z" fill="#3C2415"/>
<path d="M158.233 79.9647L147.384 80.2159L126.315 199.903L24 299.573L60.0392 324.282L94.4378 323.051L143.77 229.067L169.629 218.848L183.038 186.181L175.798 180.644L169.888 183.278L162.365 193.956L155.226 180.631L157.295 160.559L154.822 140.207L158.233 79.9647Z" fill="#3C2415"/>
<path d="M176.924 201.077L170.392 197.072L176.587 186.086L183.038 186.182L176.924 201.077Z" fill="#F1F2F2"/>
<path d="M117.229 208.656L132.99 228.794L141.996 232.446L136.474 242.966L125.905 238.885L109.143 216.446L117.229 208.656Z" fill="#58595B"/>
<path d="M104.169 216.216L118.116 204.601L119.881 206.748L106.157 219.322L104.169 216.216Z" fill="#4C4B4D"/>
<path d="M149.545 80.1664L147.7 94.1791L144.811 94.831L147.384 80.2163L149.545 80.1664Z" fill="#F1F2F2"/>
</g>
<defs>
<linearGradient id="paint0_linear" x1="181.035" y1="-1.89751" x2="178.393" y2="245.902" gradientUnits="userSpaceOnUse">
<stop offset="0.19" stop-color="#CDECF7"/>
<stop offset="0.4218" stop-color="#DDF2F9"/>
<stop offset="0.6865" stop-color="#E8F6FB"/>
<stop offset="1" stop-color="#EBF7FB"/>
</linearGradient>
<clipPath id="clip0">
<rect width="209" height="209" fill="white" transform="translate(76 35)"/>
</clipPath>
</defs>
</svg>
