<svg width="359" height="244" viewBox="0 0 359 244" fill="none" xmlns="http://www.w3.org/2000/svg">
<path d="M359 0H0V244H359V0Z" fill="url(#paint0_linear)"/>
<path opacity="0.5" d="M187.046 37.8924C193.332 37.8924 198.429 32.796 198.429 26.5092C198.429 20.2225 193.332 15.1261 187.046 15.1261C180.759 15.1261 175.663 20.2225 175.663 26.5092C175.663 32.796 180.759 37.8924 187.046 37.8924Z" fill="#FFF200"/>
<path opacity="0.4" d="M100.469 20.493C100.469 23.9167 98.0125 26.7681 94.766 27.3774C93.7737 30.0404 91.208 31.9335 88.2018 31.9335C85.1387 31.9335 82.5355 29.9684 81.5865 27.2285C78.6549 26.3904 76.5096 23.6933 76.5096 20.493C76.5096 16.623 79.6472 13.4855 83.5172 13.4855C85.4619 13.4855 87.2207 14.2778 88.4909 15.5592C89.7582 14.2778 91.517 13.4855 93.4617 13.4855C97.3317 13.4855 100.469 16.623 100.469 20.493Z" fill="white"/>
<path opacity="0.4" d="M152.205 33.5294C152.268 29.3601 155.313 25.932 159.278 25.2497C160.535 22.0251 163.695 19.766 167.356 19.8214C171.086 19.8779 174.22 22.319 175.326 25.6731C178.881 26.7477 181.444 30.0721 181.385 33.9698C181.314 38.6832 177.436 42.4466 172.722 42.3755C170.354 42.3395 168.225 41.3423 166.703 39.7587C165.136 41.2961 162.979 42.2285 160.61 42.1925C155.898 42.1215 152.134 38.2427 152.205 33.5294Z" fill="white"/>
<path opacity="0.4" d="M170.919 39.914C170.982 35.7447 174.027 32.3167 177.991 31.6344C179.249 28.4097 182.408 26.1506 186.07 26.2061C189.8 26.2625 192.934 28.7037 194.04 32.0578C197.595 33.1323 200.158 36.4567 200.1 40.3545C200.029 45.0678 196.149 48.8312 191.436 48.7602C189.068 48.7241 186.94 47.727 185.417 46.1434C183.85 47.6807 181.693 48.6132 179.324 48.5772C174.611 48.5061 170.848 44.6279 170.919 39.914Z" fill="white"/>
<path opacity="0.4" d="M253.518 16.2235C253.564 13.1667 255.797 10.6541 258.703 10.1533C259.625 7.78906 261.941 6.13294 264.625 6.17333C267.36 6.2147 269.658 8.00466 270.469 10.4633C273.075 11.2512 274.954 13.6884 274.911 16.5461C274.859 20.0015 272.015 22.7609 268.56 22.7088C266.824 22.6825 265.263 21.9511 264.147 20.7904C262.998 21.9175 261.417 22.6013 259.68 22.575C256.225 22.5229 253.466 19.6793 253.518 16.2235Z" fill="white"/>
<path opacity="0.4" d="M46.7242 44.9685C46.7514 43.181 48.0567 41.7117 49.7561 41.4192C50.2953 40.0371 51.6492 39.0686 53.2187 39.0925C54.8179 39.1163 56.1616 40.1631 56.6356 41.6008C58.1594 42.0616 59.2583 43.4866 59.233 45.1578C59.2023 47.178 57.5399 48.7913 55.5197 48.7611C54.5045 48.7455 53.592 48.3182 52.9394 47.6393C52.2678 48.2983 51.3431 48.6983 50.3275 48.6827C48.3073 48.6521 46.694 46.9891 46.7242 44.9685Z" fill="white"/>
<path opacity="0.4" d="M291.113 43.3596C291.139 41.5721 292.445 40.1028 294.144 39.8103C294.683 38.4282 296.037 37.4597 297.607 37.4836C299.206 37.5074 300.55 38.5543 301.024 39.9919C302.548 40.4527 303.647 41.8777 303.621 43.5489C303.591 45.5691 301.928 47.1824 299.908 47.1522C298.892 47.1366 297.98 46.7093 297.327 46.0304C296.655 46.6894 295.731 47.0894 294.715 47.0738C292.695 47.0432 291.082 45.3802 291.113 43.3596Z" fill="white"/>
<path d="M97.483 20.5198C97.8086 20.5154 98.1352 20.5426 98.4578 20.5923C98.7819 20.6371 99.1041 20.7023 99.4224 20.787C99.582 20.8273 99.7378 20.8814 99.893 20.9373C100.05 20.9889 100.205 21.0478 100.355 21.1184C100.507 21.1865 100.662 21.2454 100.806 21.331C100.951 21.4133 101.102 21.4853 101.242 21.5773L101.657 21.8635C101.789 21.9676 101.91 22.0868 102.037 22.1988C102.169 22.3058 102.273 22.4411 102.384 22.5696C102.492 22.7005 102.612 22.8237 102.694 22.9735L102.961 23.4101L103.162 23.8802C103.237 24.035 103.284 24.198 103.321 24.364L103.443 24.8589L102.965 24.8594L103.082 24.3912L103.141 24.1576L103.233 23.9342C103.297 23.7863 103.352 23.6344 103.424 23.4909L103.674 23.0782C103.75 22.9356 103.868 22.8227 103.964 22.6952C104.064 22.5696 104.165 22.446 104.285 22.3404C104.402 22.2328 104.51 22.1136 104.637 22.0182L105.017 21.7345C105.147 21.6459 105.284 21.5685 105.417 21.4853C105.549 21.3987 105.693 21.3364 105.831 21.2639C106.109 21.1218 106.398 21.0021 106.692 20.9028C106.986 20.8035 107.285 20.7213 107.586 20.657C107.887 20.5879 108.192 20.5402 108.498 20.5193C107.903 20.6667 107.325 20.8624 106.777 21.1184C106.502 21.243 106.23 21.3724 105.974 21.5296C105.847 21.6084 105.714 21.6766 105.595 21.7681C105.475 21.8557 105.35 21.9374 105.234 22.0294C105.005 22.2197 104.785 22.4149 104.588 22.6329C104.481 22.7336 104.393 22.8499 104.307 22.9677C104.223 23.0874 104.119 23.1921 104.056 23.3244L103.841 23.7021C103.778 23.832 103.731 23.9698 103.675 24.1031L103.594 24.3046L103.544 24.5168L103.443 24.9397L103.208 25.9232L102.965 24.9407L102.854 24.4915C102.823 24.3396 102.783 24.1907 102.717 24.052L102.542 23.6252L102.306 23.2295C102.237 23.0903 102.132 22.9765 102.038 22.8543C101.942 22.7336 101.853 22.6066 101.735 22.5049C101.622 22.3988 101.516 22.2844 101.397 22.1837L101.03 21.8922C100.905 21.7973 100.767 21.7199 100.636 21.6323C100.507 21.5413 100.362 21.4756 100.222 21.4002C100.084 21.3228 99.9397 21.2561 99.7923 21.1958C99.6468 21.1315 99.4998 21.0682 99.3479 21.0186C98.7513 20.786 98.124 20.6244 97.483 20.5198Z" fill="black"/>
<path d="M224.451 6.17285C224.776 6.16847 225.103 6.19572 225.426 6.24536C225.75 6.29014 226.072 6.35535 226.39 6.44003C226.55 6.48042 226.705 6.53444 226.861 6.59041C227.018 6.642 227.173 6.70088 227.323 6.77145C227.475 6.83958 227.63 6.89847 227.774 6.98412C227.918 7.06637 228.07 7.1384 228.21 7.23038L228.625 7.51654C228.757 7.62068 228.878 7.73992 229.005 7.85185C229.137 7.95892 229.24 8.09421 229.352 8.22269C229.46 8.3536 229.58 8.47673 229.663 8.62662L229.93 9.06316L230.13 9.53328C230.205 9.68804 230.252 9.85108 230.288 10.017L230.411 10.512L229.934 10.5125L230.05 10.0443L230.109 9.81068L230.2 9.5873C230.264 9.43936 230.319 9.28752 230.392 9.14395L230.642 8.73126C230.718 8.58866 230.836 8.47576 230.932 8.34825C231.032 8.22269 231.133 8.09908 231.253 7.99347C231.37 7.88592 231.477 7.76668 231.605 7.6713L231.985 7.38757C232.115 7.299 232.252 7.22162 232.385 7.1384C232.516 7.05177 232.661 6.98948 232.8 6.91696C233.077 6.77486 233.366 6.65514 233.66 6.55586C233.954 6.45658 234.253 6.37433 234.555 6.31009C234.855 6.24098 235.16 6.19329 235.467 6.17236C234.871 6.31982 234.293 6.51546 233.745 6.77145C233.471 6.89604 233.198 7.02549 232.943 7.18268C232.815 7.26152 232.682 7.32966 232.564 7.42115C232.443 7.50875 232.318 7.59051 232.203 7.68249C231.974 7.87278 231.754 8.06793 231.557 8.28596C231.45 8.3867 231.362 8.50301 231.275 8.62078C231.192 8.7405 231.088 8.84514 231.025 8.97751L230.81 9.35516C230.746 9.4851 230.7 9.62283 230.644 9.75618L230.563 9.95766L230.513 10.1698L230.412 10.5928L230.177 11.5763L229.935 10.5937L229.823 10.1445C229.792 9.9927 229.752 9.84378 229.686 9.70508L229.511 9.27827L229.275 8.88261C229.206 8.74342 229.101 8.62954 229.007 8.50739C228.911 8.3867 228.822 8.25968 228.703 8.15796C228.591 8.05187 228.484 7.9375 228.366 7.83676L227.999 7.54525C227.874 7.45035 227.736 7.37297 227.605 7.28537C227.476 7.19436 227.331 7.12866 227.191 7.05323C227.053 6.97585 226.909 6.90918 226.761 6.84883C226.615 6.78459 226.469 6.72132 226.317 6.67168C225.719 6.43906 225.091 6.27748 224.451 6.17285Z" fill="black"/>
<path d="M281.937 36.902C282.262 36.8976 282.589 36.9249 282.912 36.9745C283.236 37.0193 283.558 37.0845 283.876 37.1692C284.036 37.2096 284.191 37.2636 284.347 37.3195C284.504 37.3711 284.659 37.43 284.809 37.5006C284.961 37.5687 285.116 37.6276 285.26 37.7132C285.405 37.7955 285.556 37.8675 285.696 37.9595L286.111 38.2457C286.243 38.3498 286.364 38.469 286.491 38.581C286.623 38.688 286.726 38.8233 286.838 38.9518C286.946 39.0827 287.066 39.2059 287.149 39.3557L287.416 39.7923L287.616 40.2624C287.691 40.4172 287.738 40.5802 287.775 40.7462L287.897 41.2411L287.42 41.2416L287.536 40.7734L287.595 40.5398L287.686 40.3164C287.75 40.1685 287.805 40.0166 287.878 39.8731L288.128 39.4604C288.204 39.3178 288.322 39.2049 288.418 39.0774C288.518 38.9518 288.619 38.8282 288.739 38.7226C288.856 38.615 288.963 38.4958 289.091 38.4004L289.471 38.1167C289.602 38.0281 289.738 37.9507 289.871 37.8675C290.003 37.7809 290.147 37.7186 290.286 37.6461C290.563 37.504 290.852 37.3843 291.146 37.285C291.44 37.1857 291.739 37.1035 292.041 37.0392C292.341 36.9701 292.646 36.9224 292.953 36.9015C292.357 37.0489 291.779 37.2446 291.231 37.5006C290.957 37.6252 290.684 37.7546 290.429 37.9118C290.301 37.9907 290.168 38.0588 290.05 38.1503C289.93 38.2379 289.804 38.3196 289.689 38.4116C289.46 38.6019 289.24 38.7971 289.043 39.0151C288.936 39.1158 288.848 39.2321 288.762 39.3499C288.678 39.4696 288.574 39.5743 288.511 39.7066L288.296 40.0843C288.233 40.2142 288.186 40.352 288.13 40.4853L288.049 40.6868L287.999 40.899L287.898 41.3219L287.663 42.3054L287.421 41.3229L287.309 40.8737C287.278 40.7218 287.238 40.5729 287.172 40.4342L286.997 40.0074L286.761 39.6117C286.692 39.4725 286.587 39.3587 286.493 39.2365C286.397 39.1158 286.308 38.9888 286.189 38.8871C286.077 38.781 285.97 38.6666 285.852 38.5659L285.485 38.2744C285.36 38.1795 285.222 38.1021 285.091 38.0145C284.962 37.9235 284.817 37.8578 284.677 37.7824C284.539 37.705 284.395 37.6383 284.247 37.578C284.101 37.5137 283.955 37.4504 283.803 37.4008C283.205 37.1682 282.577 37.0066 281.937 36.902Z" fill="black"/>
<path d="M53.6509 45.7491C53.9035 45.7457 54.156 45.7667 54.4062 45.8056C54.6573 45.8401 54.907 45.8908 55.1537 45.9565C55.3985 46.0265 55.6428 46.1068 55.8764 46.2129C56.1149 46.3093 56.3407 46.4368 56.5636 46.5682L56.8853 46.7901C56.9875 46.8709 57.0809 46.9634 57.1792 47.05C57.2814 47.1332 57.3617 47.2379 57.4479 47.3376C57.532 47.4388 57.6245 47.5342 57.6888 47.6505L57.8961 47.9888L58.0513 48.3533C58.1657 48.5932 58.1978 48.8585 58.2689 49.1115L57.899 49.112L57.9895 48.749C58.0143 48.6268 58.0528 48.5085 58.1063 48.3947C58.156 48.2803 58.1983 48.162 58.2543 48.0511L58.448 47.7313C58.5068 47.6209 58.5978 47.5333 58.6723 47.435C58.7497 47.3376 58.828 47.2422 58.9215 47.1605C59.0918 46.9804 59.2904 46.8349 59.4884 46.6913C59.6938 46.5599 59.9002 46.43 60.1197 46.3268C60.3348 46.2168 60.5586 46.1239 60.7859 46.047C61.0137 45.9701 61.2453 45.9068 61.4789 45.8567C61.7115 45.8032 61.9481 45.7657 62.1856 45.7501C61.7247 45.864 61.2765 46.0158 60.8521 46.2144C60.6394 46.3108 60.4282 46.4115 60.2301 46.5327C60.0272 46.6456 59.8408 46.7833 59.6563 46.9201C59.4797 47.0675 59.3089 47.2189 59.1561 47.3873C59.0728 47.4651 59.0042 47.5556 58.938 47.6467C58.8738 47.7391 58.7925 47.8204 58.7443 47.9231L58.5774 48.2156C58.5287 48.3163 58.4927 48.4234 58.4489 48.5265C58.4012 48.6283 58.3681 48.7353 58.3477 48.8468L58.2693 49.1743L58.1087 49.8459L57.899 49.1753C57.8279 48.9475 57.8099 48.7017 57.7063 48.4862L57.571 48.1552L57.388 47.8491C57.3349 47.7416 57.2532 47.653 57.1807 47.5586C57.1062 47.4651 57.0371 47.3663 56.9456 47.2875C56.7797 47.1128 56.5923 46.9614 56.3996 46.813C56.1996 46.6758 55.9956 46.539 55.7742 46.4319C55.5586 46.3146 55.3289 46.2207 55.0963 46.1365C54.6339 45.9555 54.1478 45.8304 53.6509 45.7491Z" fill="black"/>
<path d="M166.093 42.2295C166.346 42.2261 166.598 42.247 166.849 42.2859C167.1 42.3205 167.349 42.3711 167.596 42.4368C167.841 42.5069 168.085 42.5872 168.319 42.6933C168.557 42.7896 168.783 42.9171 169.006 43.0485L169.328 43.2705C169.43 43.3513 169.523 43.4437 169.622 43.5303C169.724 43.6136 169.804 43.7182 169.89 43.818C169.974 43.9192 170.067 44.0146 170.131 44.1309L170.338 44.4691L170.494 44.8336C170.608 45.0736 170.64 45.3388 170.711 45.5919L170.341 45.5924L170.432 45.2293C170.457 45.1071 170.495 44.9889 170.549 44.875C170.598 44.7606 170.641 44.6424 170.697 44.5314L170.89 44.2117C170.949 44.1012 171.04 44.0136 171.115 43.9153C171.192 43.818 171.27 43.7226 171.364 43.6408C171.534 43.4607 171.733 43.3152 171.931 43.1717C172.136 43.0403 172.343 42.9103 172.562 42.8072C172.777 42.6972 173.001 42.6042 173.228 42.5273C173.456 42.4504 173.688 42.3872 173.921 42.337C174.154 42.2835 174.39 42.246 174.628 42.2305C174.167 42.3443 173.719 42.4962 173.294 42.6947C173.082 42.7911 172.871 42.8918 172.673 43.013C172.47 43.1259 172.283 43.2637 172.099 43.4004C171.922 43.5479 171.751 43.6992 171.598 43.8676C171.515 43.9455 171.447 44.036 171.38 44.127C171.316 44.2195 171.235 44.3007 171.187 44.4034L171.02 44.6959C170.971 44.7967 170.935 44.9037 170.891 45.0069C170.844 45.1086 170.811 45.2157 170.79 45.3271L170.712 45.6546L170.551 46.3262L170.341 45.6556C170.27 45.4279 170.252 45.1821 170.149 44.9665L170.013 44.6356L169.83 44.3295C169.777 44.2219 169.696 44.1333 169.623 44.0389C169.549 43.9455 169.479 43.8467 169.388 43.7678C169.222 43.5931 169.035 43.4418 168.842 43.2933C168.642 43.1561 168.438 43.0193 168.217 42.9123C168.001 42.795 167.771 42.7011 167.539 42.6169C167.076 42.4358 166.59 42.3108 166.093 42.2295Z" fill="black"/>
<path d="M323 176.203V220.674H31V176.203L40.1649 182.674L49.4724 172.999L64.982 180.606L70.531 173.553H75.13L78.0967 176.203L85.8673 173.553L91.9365 166.636L96.6046 176.203L104.234 173.553H109.58H114.807H120.035L125.261 169.36L133.1 176.204L139.207 173.553H146.089H151.847H159.16L161.028 176.204H168.496L174.098 173.553H179.362L182.502 176.204H197.725H208.463C208.463 176.204 210.642 175.892 212.678 176.204C214.713 176.516 219.836 169.36 219.836 169.36H221.714L238.807 180.605L250.342 173.552H252.403H257.538H259.897H266.098L268.364 169.36L278.817 173.552C278.817 173.552 282.42 173.08 284.045 173.552C285.67 174.024 289.273 173.552 289.273 173.552V176.203L298.023 171.364L310.068 181.679L323 176.203Z" fill="#C49A6C"/>
<path d="M212.041 194.531H204.883V198.348H212.041V194.531Z" fill="#B78C62"/>
<path d="M208.462 198.984H201.304V202.803H208.462V198.984Z" fill="#B78C62"/>
<path d="M219.836 207.298H212.678V211.116H219.836V207.298Z" fill="#B78C62"/>
<path d="M226.995 207.298H219.836V211.116H226.995V207.298Z" fill="#B78C62"/>
<path d="M223.415 211.752H216.256V215.57H223.415V211.752Z" fill="#B78C62"/>
<path d="M78.0962 184.389H67.6416V189.965H78.0962V184.389Z" fill="#B78C62"/>
<path d="M88.5503 184.389H78.0957V189.965H88.5503V184.389Z" fill="#B78C62"/>
<path d="M83.3235 189.881H72.8689V195.457H83.3235V189.881Z" fill="#B78C62"/>
<path d="M104.233 201.977H93.778V207.553H104.233V201.977Z" fill="#B78C62"/>
<path d="M99.0054 207.976H88.5508V213.551H99.0054V207.976Z" fill="#B78C62"/>
<path d="M284.046 180.605H273.591V186.18H284.046V180.605Z" fill="#B78C62"/>
<path d="M294.499 180.605H284.046V186.18H294.499V180.605Z" fill="#B78C62"/>
<path d="M289.273 186.097H278.818V191.673H289.273V186.097Z" fill="#B78C62"/>
<path d="M46.4429 195.36H35.9883V200.935H46.4429V195.36Z" fill="#B78C62"/>
<path d="M56.8965 195.36H46.4424V200.935H56.8965V195.36Z" fill="#B78C62"/>
<path d="M51.6707 200.851H41.2151V206.427H51.6707V200.851Z" fill="#B78C62"/>
<path d="M273.591 203.166H263.136V208.742H273.591V203.166Z" fill="#B78C62"/>
<path d="M284.046 203.166H273.591V208.742H284.046V203.166Z" fill="#B78C62"/>
<path d="M278.818 209.165H268.363V214.742H278.818V209.165Z" fill="#B78C62"/>
<path d="M130.488 182.91H120.034V188.488H130.488V182.91Z" fill="#B78C62"/>
<path d="M125.262 194.992H114.806V189.418L125.262 188.404V194.992Z" fill="#B78C62"/>
<path d="M235.228 194.848H228.07V198.667H235.228V194.848Z" fill="#B78C62"/>
<path d="M242.387 194.848H235.228V198.667H242.387V194.848Z" fill="#B78C62"/>
<path d="M238.807 199.303H231.649V203.12H238.807V199.303Z" fill="#B78C62"/>
<path d="M204.883 194.531H197.724V198.348H204.883V194.531Z" fill="#B78C62"/>
<path d="M93.7781 201.977H83.3235V207.553H93.7781V201.977Z" fill="#B78C62"/>
<path d="M120.034 182.91H109.579V188.488H120.034V182.91Z" fill="#B78C62"/>
<path d="M203.861 131.386H154.066V220.581H203.861V131.386Z" fill="#3C2415"/>
<path d="M198.715 92.5134L199.88 92.2599L200.022 92.2297L212.679 89.4688L220.932 87.6711L243.108 82.8385L244.151 82.6107L245.453 82.327L261.576 78.8113L275.202 75.8431V82.327" stroke="#DA1C5C" stroke-width="0.414981" stroke-miterlimit="10" stroke-linejoin="round"/>
<path d="M275.156 189.965H203.814V220.674H275.156V189.965Z" fill="#9B8579"/>
<path d="M154.066 189.965H145.728V220.581H154.066V189.965Z" fill="#9B8579"/>
<path d="M250.648 180.06H203.861V189.965H250.648V180.06Z" fill="#754C29"/>
<path d="M267.87 170.586H221.084V180.492H267.87V170.586Z" fill="#6B4525"/>
<path d="M221.59 170.586H203.766V180.492H221.59V170.586Z" fill="#754C29"/>
<path d="M275.202 180.06H250.553V189.965H275.202V180.06Z" fill="#6B4525"/>
<path d="M257.253 160.867H210.466V170.772H257.253V160.867Z" fill="#754C29"/>
<path d="M221.59 151.023H203.766V160.928H221.59V151.023Z" fill="#754C29"/>
<path d="M267.87 151.14H221.084V161.045H267.87V151.14Z" fill="#6B4525"/>
<path d="M253.76 141.411H206.974V151.315H253.76V141.411Z" fill="#754C29"/>
<path d="M275.202 141.411H253.575V151.315H275.202V141.411Z" fill="#6B4525"/>
<path d="M275.449 151.14H267.674V161.045H275.449V151.14Z" fill="#754C29"/>
<path d="M275.202 160.867H256.727V170.772H275.202V160.867Z" fill="#6B4525"/>
<path d="M210.941 160.867H203.861V170.772H210.941V160.867Z" fill="#6B4525"/>
<path d="M153.944 180.06H145.728V189.965H153.944V180.06Z" fill="#6B4525"/>
<path d="M153.944 150.364H145.728V160.269H153.944V150.364Z" fill="#6B4525"/>
<path d="M149.891 170.173H145.784V180.078H149.891V170.173Z" fill="#6B4525"/>
<path d="M147.076 160.269H145.728V170.173H147.076V160.269Z" fill="#6B4525"/>
<path d="M153.944 140.46H152.596V150.364H153.944V140.46Z" fill="#6B4525"/>
<path d="M153.971 170.173H149.864V180.078H153.971V170.173Z" fill="#754C29"/>
<path d="M153.971 131.615H149.864V140.46H153.971V131.615Z" fill="#754C29"/>
<path d="M157.073 121.796H145.784V131.7H157.073V121.796Z" fill="#754C29"/>
<path d="M149.891 131.615H145.784V140.46H149.891V131.615Z" fill="#6B4525"/>
<path d="M153.944 160.269H147.076V170.173H153.944V160.269Z" fill="#754C29"/>
<path d="M152.596 140.46H145.728V150.364H152.596V140.46Z" fill="#754C29"/>
<path d="M275.449 170.586H267.516V180.492H275.449V170.586Z" fill="#754C29"/>
<path d="M275.202 131.615H263.882V141.52H275.202V131.615Z" fill="#754C29"/>
<path d="M275.202 111.938H269.035V121.842H275.202V111.938Z" fill="#754C29"/>
<path d="M275.202 121.795H250.047V131.699H275.202V121.795Z" fill="#6B4525"/>
<path d="M250.553 121.796H203.766V131.7H250.553V121.796Z" fill="#754C29"/>
<path d="M253.76 102.184H206.974V112.089H253.76V102.184Z" fill="#754C29"/>
<path d="M275.449 92.2598H228.662V102.164H275.449V92.2598Z" fill="#754C29"/>
<path d="M275.202 75.8431V82.327H245.453L261.576 78.8113L275.202 75.8431Z" fill="#754C29"/>
<path d="M228.803 92.2598V102.163H182.015V96.1551L198.867 92.2598H228.803Z" fill="#6B4525"/>
<path d="M275.449 82.3245H259.465V92.2292H275.449V82.3245Z" fill="#6B4525"/>
<path d="M220.932 87.671V92.2296H200.022L212.679 89.4688L220.932 87.671Z" fill="#603913"/>
<path d="M259.463 82.327V92.2297H220.932V87.6711L243.108 82.8385L244.151 82.6107L245.453 82.327H259.463Z" fill="#754C29"/>
<path d="M182.015 96.1551V102.163H154.443L182.015 96.1551Z" fill="#754C29"/>
<path d="M203.862 121.796H157.074V131.7H203.862V121.796Z" fill="#6B4525"/>
<path d="M222.603 111.976H175.815V121.881H222.603V111.976Z" fill="#754C29"/>
<path d="M264.077 131.615H217.291V141.52H264.077V131.615Z" fill="#6B4525"/>
<path d="M218.117 131.615H203.766V141.52H218.117V131.615Z" fill="#754C29"/>
<path d="M207.053 141.411H203.766V151.315H207.053V141.411Z" fill="#6B4525"/>
<path d="M269.39 111.938H222.603V121.842H269.39V111.938Z" fill="#6B4525"/>
<path d="M275.203 102.124H253.76V112.028H275.203V102.124Z" fill="#6B4525"/>
<path d="M207.053 102.184H160.265V112.09H207.053V102.184Z" fill="#6B4525"/>
<path d="M160.77 102.183V112.091H145.726V103.824L152.596 102.183H160.77Z" fill="#754C29"/>
<path d="M175.815 111.938H145.728V121.842H175.815V111.938Z" fill="#6B4525"/>
<path d="M295.351 74.0463L131.043 109.285L130.004 100.543L294.312 65.2688L295.351 74.0463Z" fill="#2D1910"/>
<path d="M262.925 192.119H257.738V194.842H262.925V192.119Z" fill="#D1D3D4"/>
<path d="M282.668 194.531H256.416V220.674H282.668V194.531Z" fill="#1C75BC"/>
<path d="M279.524 199.891H260.332V216.144H279.524V199.891Z" fill="#005994"/>
<path d="M273.08 165.781H267.893V168.504H273.08V165.781Z" fill="#D1D3D4"/>
<path d="M287.225 165.973V170.41H286.205V167.108H278.241V170.41H277.12V165.973H287.225Z" fill="#F9ED32"/>
<path d="M292.823 168.192H266.57V194.337H292.823V168.192Z" fill="#F9ED32"/>
<path d="M289.678 173.552H270.487V189.805H289.678V173.552Z" fill="#D7DF23"/>
<path d="M289.313 192.119H284.126V194.842H289.313V192.119Z" fill="#D1D3D4"/>
<path d="M303.844 192.382V196.819H302.823V193.517H294.859V196.819H293.738V192.382H303.844Z" fill="#27AAE1"/>
<path d="M309.055 194.531H282.802V220.674H309.055V194.531Z" fill="#27AAE1"/>
<path d="M305.405 199.891H286.212V216.144H305.405V199.891Z" fill="#1F93BC"/>
<path d="M87.8967 186.646H60.509V220.674H87.8967V186.646Z" fill="#E6E7E8"/>
<path d="M87.8967 183.948H60.509V186.646H87.8967V183.948Z" fill="#BCBEC0"/>
<path d="M88.9868 188.098H59.4194V188.951H88.9868V188.098Z" fill="#BCBEC0"/>
<path d="M88.9868 189.942H59.4194V190.795H88.9868V189.942Z" fill="#BCBEC0"/>
<path d="M88.9868 191.672H59.4194V192.525H88.9868V191.672Z" fill="#BCBEC0"/>
<path d="M82.6694 191.613L65.4477 211.752L59.4194 211.115L60.509 209.207" stroke="#BCBEC0" stroke-width="1.51962" stroke-miterlimit="10"/>
<path d="M68.1758 219.939L69.2907 219.03L69.1789 165.56L67.172 165.359L68.1758 219.939Z" stroke="#242426" stroke-width="0.254545" stroke-miterlimit="10"/>
<path d="M75.0358 202.889L76.1507 201.981L76.0397 148.511L74.0324 148.309L75.0358 202.889Z" stroke="#242426" stroke-width="0.254545" stroke-miterlimit="10"/>
<path d="M111.467 219.939L110.352 218.971L110.463 162.042L112.47 161.827L111.467 219.939Z" stroke="#242426" stroke-width="0.226497" stroke-miterlimit="10"/>
<path d="M104.506 205.209L103.39 204.243L103.502 147.313L105.51 147.098L104.506 205.209Z" stroke="#242426" stroke-width="0.226497" stroke-miterlimit="10"/>
<path d="M119.23 148.208H60.4463V154.866H119.23V148.208Z" fill="#414042"/>
<path d="M68.5847 152.647H64.3473V219.771H68.5847V152.647Z" fill="#414042"/>
<path d="M115.195 152.647H110.957V220.04H115.195V152.647Z" fill="#414042"/>
<path d="M75.3776 152.647H71.1401V205.915H75.3776V152.647Z" fill="#414042"/>
<path d="M108.334 152.647H104.097V205.915H108.334V152.647Z" fill="#414042"/>
<path d="M109.853 124.726L69.8674 124.575L73.5025 116.244L70.3087 80.1814L70.1417 78.298L70.2888 75.2127L109.399 75.1982L107.884 118.062L109.853 124.726Z" fill="#C49A6C"/>
<path d="M62.4461 158.048L62.2945 158.648L62.877 159.046L115.195 156.75L117.275 155.51L116.819 153.958L62.4461 158.048Z" fill="#024D75"/>
<path d="M78.9021 205.196L82.1054 220.868L76.0119 220.814L69.3417 203.879L102.112 148.544L116.216 154.864L116.365 155.17L78.9021 205.196Z" fill="#5E391F"/>
<path d="M94.6686 75.1981L83.5368 75.4251L84.4839 67.4735H94.2526L94.6686 75.1981Z" fill="#A97C50"/>
<path d="M108.469 204.373L108.191 205.07L101.857 220.828L95.8369 220.915L98.986 205.928L62.7357 158.536L63.317 157.668L75.7758 150.171L108.427 204.302L108.469 204.373Z" fill="#5E391F"/>
<path d="M118.183 143.355L117.275 155.474L62.2945 158.655L61.8404 144.114L70.0186 121.771L69.2601 109.581L72.4406 96.7039L70.1748 75.1981L79.2567 75.0482L81.3787 91.5559L97.2815 91.4059L99.7039 75.0482L109.246 75.1981L107.732 96.781L108.469 108.862L109.275 118.009L118.183 143.355Z" fill="#0C65A1"/>
<path d="M108.486 204.329L108.468 204.373L108.427 204.302L108.486 204.329Z" fill="#8B5E3C"/>
<path d="M118.865 219.519V221H100.235L93.3424 220.978L92.738 219.087L96.6001 215.148L102.798 219.519H118.865Z" fill="#ED1C24"/>
<path d="M85.5043 218.933L84.7093 220.978H77.6293L59 221V219.519L75.3581 219.577L81.3787 215.602L85.5043 218.933Z" fill="#ED1C24"/>
<path d="M97.3039 71.8698L80.691 71.9365L80.8927 54.898L86.8114 48.7333L96.9675 52.5249L97.3039 71.8698Z" fill="#6D4426"/>
<path d="M96.0929 49.6746L98.3293 58.635C90.1457 54.282 87.5559 51.9284 86.7381 49.0565C86.5107 52.919 82.9518 56.3261 80.604 57.6892V49.2835L84.2552 48.1947L89.0975 46.8495L96.0929 49.6746Z" fill="#341C10"/>
<path d="M86.7314 48.7051L86.845 51.6586L88.6629 55.9748L86.325 51.6118L86.7314 48.7051Z" fill="#341C10"/>
<path d="M67.1414 133.208L69.6213 133.189L68.3151 131.257L67.7466 131.201L67.1414 133.208Z" fill="#7CB242"/>
<path d="M98.7444 140.203L85.1965 142.22L77.387 125.948L90.3785 124.234L98.7444 140.203Z" fill="#E48025"/>
<path d="M98.2477 141.169L98.7299 140.203L85.2408 142.162L98.2477 141.169Z" fill="#B66128"/>
<path d="M85.5814 142.901L71.8863 143.128L66.9897 127.301L79.3748 125.975L85.5814 142.901Z" fill="#F7941E"/>
<path d="M106.483 170.221L106.347 171.688L101.889 171.711L96.2594 165.45L89.3867 141.538L98.1051 140.288L101.485 163.519L104.692 169.53L106.483 170.221Z" fill="#472710"/>
<path d="M71.9124 143.128L84.8998 143.583L85.5436 142.901L71.9124 143.128Z" fill="#B66128"/>
<path d="M109.545 72.1966L100.263 68.7041L97.4382 49.2938L88.863 45L80.2875 49.085L77.6641 68.985L69.7262 73.036L66.3646 88.6844L72.6872 92.8543L67.7085 100.687L91.7884 110.88L103.088 103.477L113.311 89.4915L109.545 72.1966ZM96.5304 66.9938L88.7619 71.332L81.3969 66.9938L81.834 50.3473L88.9633 47.4804L95.6898 49.9434L96.5304 66.9938Z" fill="#FBB040"/>
<path d="M80.7018 171.654L82.591 172.814L82.0333 174.058L77.8891 173.408L73.2001 166.302L75.3582 143.015L84.6728 142.901L78.5023 166.756L80.7018 171.654Z" fill="#472710"/>
<path d="M70.6248 100.341L88.0895 100.791L88.3451 107.005L70.4731 108.066L70.6248 100.341Z" fill="#472710"/>
<path d="M92.6203 115.542L94.4038 129.269L68.2015 131.541L67.1414 133.208L66.2324 128.361L67.2379 115.765L62.4445 113.366L68.9601 100.339L74.1082 100.416L74.7143 105.036L84.1044 104.884L84.8617 100.685L91.4971 100.794H91.5249L97.2815 113.516L92.6203 115.542Z" fill="#8DC63F"/>
<path d="M97.5086 115.524L88.0982 129.368L84.7101 127.3L90.3524 115.184L92.6617 115.487L96.7516 113.745L97.5086 115.524Z" fill="#341B0F"/>
<path d="M77.0613 126.202L72.7828 127.717L62.067 117.455L63.0895 113.707L66.8385 115.487L68.8068 115.941L77.0613 126.202Z" fill="#472710"/>
<path d="M63.2393 115.938L63.2217 115.929L63.2258 115.92L63.2393 115.938Z" fill="#A97C50"/>
<path d="M86.5624 129.325L86.1829 129.185L86.0984 129.144L86.0947 129.153L86.1829 129.185L86.5342 129.342L87.2042 129.653L91.1591 131.565L91.1143 132.397L90.3433 132.84L85.0531 130.274L85.0212 130.262L84.7262 130.065L84.7022 130.108L85.0212 130.262L85.0494 130.278L86.4617 131.218L89.2661 132.558L89.1414 133.313L88.5038 133.745L84.7706 132.127L83.5646 131.214L83.1846 130.807L84.4441 132.159L87.386 133.446L86.5301 134.411L83.2534 133.264L81.8125 132.211L78.7409 128.635L77.9144 125.48L77.8584 125.52L63.7416 110.476L67.1236 89.0876L72.9548 92.8531L72.6321 96.8967L71.3809 107.231L82.8905 121.445L82.9709 121.517L90.7878 125.424L89.3428 126.513L85.8523 125.419L86.5425 126.666L87.8335 127.772L92.4827 130.016L91.3086 131.077L86.5624 129.325Z" fill="#6D4426"/>
<path d="M71.4091 75.7707L75.0661 78.6141L78.7111 81.4736L85.9924 87.2025L85.9393 87.183L90.0761 87.2725L94.212 87.386L94.1499 87.4096L100.726 81.2755L104.019 78.2134L107.325 75.165L104.073 78.2714L100.808 81.3634L94.27 87.5372L94.2439 87.5617L94.2079 87.5608L90.0711 87.473L85.9352 87.3611L85.9049 87.3603L85.8817 87.3421L78.6352 81.5693L75.0159 78.6779L71.4091 75.7707Z" fill="#F79F2B"/>
<path d="M115.521 111.937L87.1718 126.315L86.1386 129.693L81.365 131.662L81.4048 131.767L79.7182 132.344L76.2518 132.474L75.7194 131.299L78.907 130.936L79.4721 130.613L80.1702 130.456L80.6748 130.339L80.5087 130.02L80.0289 130.294L79.4721 130.613L78.6046 130.811L74.561 131.255L74.0808 130.654L74.1852 129.895L77.2606 129.443L78.8871 128.962L78.9194 128.955L79.2666 128.902L79.2583 128.854L78.9194 128.955L78.883 128.958L73.072 129.846L72.4667 129.192L72.6685 128.386L77.0103 127.728L77.7449 127.63L78.1244 127.582L78.2213 127.579L78.2172 127.57L78.1244 127.582L77.7209 127.607L72.6685 127.877L71.861 126.517L76.966 125.747L78.5279 125.072L79.557 124.083L75.8967 124.096L74.8394 122.631L83.4995 121.09L107.732 104.734L107.107 98.1677L112.858 90.129L115.521 111.937Z" fill="#6D4426"/>
<path d="M78.1244 127.582L77.7449 127.63L77.7208 127.607L78.1244 127.582Z" fill="#7A4F30"/>
<path d="M78.2213 127.579L78.1244 127.582L78.2172 127.57L78.2213 127.579Z" fill="#7A4F30"/>
<path d="M78.919 128.955L78.8871 128.962L78.883 128.958L78.919 128.955Z" fill="#7A4F30"/>
<path d="M79.2666 128.902L78.9194 128.955L79.2583 128.854L79.2666 128.902Z" fill="#7A4F30"/>
<path d="M80.6748 130.339L80.1701 130.456L80.0289 130.294L80.5086 130.02L80.6748 130.339Z" fill="#7A4F30"/>
<path d="M84.222 97.3607L84.8774 100.741L84.3737 103.313L75.7753 103.672L76.2277 98.3409L73.3583 98.773L72.8218 92.1832L71.3809 92.0096L72.4423 89.4347V81.8643H84.1048L84.9284 97.0259L84.222 97.3607Z" fill="#472710"/>
<path d="M110.352 80.21L106.825 84.6927L103.271 89.1542L99.7002 93.6021L96.1091 98.0335L96.0838 98.0645L96.0453 98.0716L90.3893 99.097L84.7263 100.085L90.3624 98.9536L96.0055 97.8603L95.9417 97.8984L99.5138 93.4518L103.107 89.0217L106.716 84.6052L110.352 80.21Z" fill="#F79F2B"/>
<path d="M71.6849 82.7714L78.6526 83.5284L77.8948 86.4061L79.5612 89.8895L81.0758 88.5265L82.7417 89.4354L81.2275 92.3131L85.3315 96.3521L86.0735 82.0137L72.4423 80.499L71.6849 82.7714Z" fill="#20100B"/>
<path d="M83.5157 58.8476L85.0569 58.5696L86.4634 59.0145L85.0175 59.2925L83.5157 58.8476Z" fill="white"/>
<path d="M84.6285 58.6392L84.4888 59.1397L85.0175 59.2925L85.5039 59.2093L85.4069 58.6529L85.0568 58.5696L84.6285 58.6392Z" fill="black"/>
<path d="M90.5778 58.8476L92.1189 58.5696L93.5259 59.0145L92.0796 59.2925L90.5778 58.8476Z" fill="white"/>
<path d="M91.6902 58.6392L91.5514 59.1397L92.0796 59.2925L92.566 59.2093L92.4691 58.6529L92.119 58.5696L91.6902 58.6392Z" fill="black"/>
<path d="M87.1603 66.1118L88.6592 66.7362L90.0865 66.1118L88.6944 66.3546L87.1603 66.1118Z" fill="white"/>
<path d="M88.0389 63.2271L88.6944 63.5295L89.3506 63.278" stroke="#3C2415" stroke-width="0.201763" stroke-miterlimit="10" stroke-linecap="round" stroke-linejoin="round"/>
<path d="M66.4996 88.6844L67.1385 89.1045L66.9197 90.5508L66.4996 88.6844Z" fill="#E48E25"/>
<path d="M113.31 89.4915L113.041 91.8282L112.857 90.1308L113.31 89.4915Z" fill="#D78628"/>
<path d="M78.0681 71.3319C79.864 71.8241 81.6555 72.3329 83.4432 72.8536L88.7963 74.4462L88.7246 74.447C90.2414 73.9528 91.7527 73.4432 93.2736 72.9618L95.5543 72.2367L97.8417 71.5333L95.5891 72.3432L93.33 73.1316C91.8244 73.6586 90.3093 74.1582 88.7992 74.6728L88.7636 74.6848L88.7271 74.6736L83.3864 73.0384C81.6099 72.4832 79.8367 71.9157 78.0681 71.3319Z" fill="#F79F2B"/>
<path d="M85.3316 96.3523L84.8613 95.8141V96.6878L85.3316 96.3523Z" fill="#3B2111"/>
<path d="M117.885 147.267L119.23 148.208L117.817 148.275L117.885 147.267Z" fill="#242426"/>
<path d="M61.9427 147.316L60.4463 148.208H61.9763L61.9427 147.316Z" fill="#242426"/>
<path d="M78.2213 127.579L78.1244 127.582L78.2172 127.57L78.2213 127.579Z" fill="#7A4F30"/>
<path d="M78.2213 127.579L78.1244 127.582L78.2172 127.57L78.2213 127.579Z" fill="#7A4F30"/>
<path d="M79.2666 128.902L78.9194 128.955L79.2583 128.854L79.2666 128.902Z" fill="#7A4F30"/>
<path d="M79.2666 128.902L78.9194 128.955L79.2583 128.854L79.2666 128.902Z" fill="#7A4F30"/>
<path d="M80.6748 130.339L80.1702 130.456L79.4721 130.613L80.0289 130.294L80.5087 130.02L80.6748 130.339Z" fill="#7A4F30"/>
<path d="M80.6748 130.339L80.1702 130.456L79.4721 130.613L80.0289 130.294L80.5087 130.02L80.6748 130.339Z" fill="#7A4F30"/>
<path d="M73.4644 88.8083L74.7624 88.3165L75.9555 88.6231L74.7959 89.0913L73.4644 88.8083Z" fill="white"/>
<path d="M75.1676 88.9616L75.1423 88.3816L74.7624 88.3165L74.3601 88.4827V89.0121L74.7959 89.0913L75.1676 88.9616Z" fill="black"/>
<path d="M73.7635 95.8807L74.5701 96.15L75.8482 95.5447" stroke="#20100B" stroke-width="0.249242" stroke-miterlimit="10" stroke-linejoin="round"/>
<defs>
<linearGradient id="paint0_linear" x1="181.035" y1="-1.89751" x2="178.393" y2="245.902" gradientUnits="userSpaceOnUse">
<stop offset="0.19" stop-color="#CDECF7"/>
<stop offset="0.4218" stop-color="#DDF2F9"/>
<stop offset="0.6865" stop-color="#E8F6FB"/>
<stop offset="1" stop-color="#EBF7FB"/>
</linearGradient>
</defs>
</svg>
