<svg width="536" height="360" viewBox="0 0 536 360" fill="none" xmlns="http://www.w3.org/2000/svg">
<rect width="536" height="360" rx="10" fill="#C4C4C4"/>
<path d="M526 0H10C4.47715 0 0 4.47716 0 10V350C0 355.523 4.47716 360 10 360H526C531.523 360 536 355.523 536 350V10C536 4.47715 531.523 0 526 0Z" fill="url(#paint0_linear)"/>
<path opacity="0.5" d="M213.761 56.574C222.373 56.574 229.355 49.5926 229.355 40.9807C229.355 32.3687 222.373 25.3873 213.761 25.3873C205.149 25.3873 198.168 32.3687 198.168 40.9807C198.168 49.5926 205.149 56.574 213.761 56.574Z" fill="#FFF200"/>
<path opacity="0.4" d="M95.1633 32.7393C95.1633 37.4293 91.798 41.3353 87.3506 42.17C85.9913 45.818 82.4766 48.4113 78.3586 48.4113C74.1626 48.4113 70.5966 45.7193 69.2966 41.966C65.2806 40.818 62.342 37.1233 62.342 32.7393C62.342 27.438 66.64 23.14 71.9413 23.14C74.6053 23.14 77.0146 24.2253 78.7547 25.9807C80.4907 24.2253 82.9 23.14 85.564 23.14C90.8653 23.14 95.1633 27.438 95.1633 32.7393Z" fill="white"/>
<path opacity="0.4" d="M166.035 50.5973C166.121 44.886 170.291 40.19 175.723 39.2553C177.445 34.838 181.773 31.7433 186.789 31.8193C191.899 31.8967 196.192 35.2407 197.707 39.8353C202.577 41.3073 206.088 45.8613 206.007 51.2007C205.91 57.6573 200.597 62.8127 194.14 62.7153C190.895 62.666 187.98 61.3 185.894 59.1307C183.747 61.2367 180.793 62.514 177.548 62.4647C171.093 62.3673 165.937 57.054 166.035 50.5973Z" fill="white"/>
<path opacity="0.4" d="M191.67 59.3433C191.756 53.632 195.927 48.936 201.358 48.0013C203.081 43.584 207.409 40.4893 212.425 40.5653C217.535 40.6427 221.828 43.9867 223.343 48.5813C228.213 50.0533 231.723 54.6073 231.643 59.9467C231.546 66.4033 226.232 71.5587 219.776 71.4613C216.531 71.412 213.616 70.046 211.53 67.8767C209.383 69.9827 206.429 71.26 203.184 71.2107C196.728 71.1133 191.572 65.8007 191.67 59.3433Z" fill="white"/>
<path opacity="0.4" d="M304.819 26.8907C304.883 22.7033 307.941 19.2613 311.922 18.5753C313.185 15.3367 316.357 13.068 320.035 13.1233C323.781 13.18 326.929 15.632 328.039 19C331.609 20.0793 334.184 23.418 334.125 27.3327C334.053 32.066 330.158 35.846 325.425 35.7747C323.046 35.7387 320.909 34.7367 319.379 33.1467C317.806 34.6907 315.64 35.6273 313.261 35.5913C308.528 35.52 304.748 31.6247 304.819 26.8907Z" fill="white"/>
<path opacity="0.4" d="M21.54 66.2673C21.5773 63.8187 23.3653 61.806 25.6933 61.4053C26.432 59.512 28.2867 58.1853 30.4367 58.218C32.6273 58.2507 34.468 59.6847 35.1173 61.654C37.2047 62.2853 38.71 64.2373 38.6753 66.5267C38.6333 69.294 36.356 71.504 33.5887 71.4627C32.198 71.4413 30.948 70.856 30.054 69.926C29.134 70.8287 27.8673 71.3767 26.476 71.3553C23.7087 71.3133 21.4987 69.0353 21.54 66.2673Z" fill="white"/>
<path opacity="0.4" d="M356.319 64.0633C356.355 61.6147 358.143 59.602 360.471 59.2013C361.21 57.308 363.065 55.9813 365.215 56.014C367.405 56.0467 369.247 57.4807 369.895 59.45C371.983 60.0813 373.489 62.0333 373.454 64.3227C373.412 67.09 371.135 69.3 368.367 69.2587C366.976 69.2373 365.726 68.652 364.831 67.722C363.911 68.6247 362.645 69.1727 361.254 69.1513C358.486 69.1093 356.277 66.8313 356.319 64.0633Z" fill="white"/>
<path d="M164.044 32.776C164.49 32.77 164.937 32.8074 165.379 32.8754C165.823 32.9367 166.265 33.026 166.701 33.142C166.919 33.1974 167.133 33.2714 167.345 33.348C167.561 33.4187 167.773 33.4994 167.979 33.596C168.186 33.6894 168.399 33.77 168.596 33.8874C168.794 34 169.002 34.0987 169.193 34.2247L169.762 34.6167C169.943 34.7594 170.109 34.9227 170.282 35.076C170.463 35.2227 170.605 35.408 170.757 35.584C170.906 35.7634 171.069 35.932 171.183 36.1374L171.549 36.7354L171.823 37.3794C171.926 37.5914 171.99 37.8147 172.041 38.042L172.208 38.72L171.554 38.7207L171.714 38.0794L171.795 37.7594L171.921 37.4534C172.008 37.2507 172.083 37.0427 172.182 36.846L172.525 36.2807C172.629 36.0854 172.79 35.9307 172.922 35.756C173.059 35.584 173.198 35.4147 173.362 35.27C173.522 35.1227 173.669 34.9594 173.843 34.8287L174.364 34.44C174.543 34.3187 174.731 34.2127 174.913 34.0987C175.093 33.98 175.29 33.8947 175.48 33.7954C175.861 33.6007 176.256 33.4367 176.659 33.3007C177.061 33.1647 177.471 33.052 177.884 32.964C178.295 32.8694 178.714 32.804 179.133 32.7754C178.318 32.9774 177.526 33.2454 176.775 33.596C176.399 33.7667 176.026 33.944 175.676 34.1594C175.501 34.2674 175.319 34.3607 175.157 34.486C174.991 34.606 174.821 34.718 174.661 34.844C174.349 35.1047 174.047 35.372 173.777 35.6707C173.63 35.8087 173.509 35.968 173.391 36.1294C173.277 36.2934 173.134 36.4367 173.049 36.618L172.753 37.1354C172.667 37.3134 172.603 37.502 172.526 37.6847L172.415 37.9607L172.347 38.2514L172.208 38.8307L171.887 40.178L171.554 38.832L171.402 38.2167C171.359 38.0087 171.305 37.8047 171.213 37.6147L170.974 37.03L170.651 36.488C170.557 36.2974 170.413 36.1414 170.284 35.974C170.152 35.8087 170.03 35.6347 169.868 35.4954C169.713 35.35 169.568 35.1934 169.406 35.0554L168.903 34.656C168.732 34.526 168.543 34.42 168.363 34.3C168.186 34.1754 167.988 34.0854 167.797 33.982C167.607 33.876 167.409 33.7847 167.207 33.702C167.008 33.614 166.807 33.5274 166.599 33.4594C165.781 33.1407 164.922 32.9194 164.044 32.776Z" fill="black"/>
<path d="M337.973 13.1227C338.418 13.1167 338.866 13.154 339.308 13.222C339.752 13.2833 340.193 13.3727 340.629 13.4887C340.848 13.544 341.061 13.618 341.275 13.6947C341.489 13.7653 341.702 13.846 341.907 13.9427C342.115 14.036 342.328 14.1167 342.525 14.234C342.723 14.3467 342.931 14.4453 343.122 14.5713L343.691 14.9633C343.871 15.106 344.037 15.2693 344.211 15.4227C344.391 15.5693 344.533 15.7547 344.686 15.9307C344.835 16.11 344.999 16.2787 345.112 16.484L345.478 17.082L345.753 17.726C345.855 17.938 345.919 18.1613 345.969 18.3887L346.137 19.0667L345.483 19.0673L345.643 18.426L345.723 18.106L345.849 17.8C345.936 17.5973 346.011 17.3893 346.111 17.1927L346.454 16.6273C346.558 16.432 346.719 16.2773 346.851 16.1027C346.987 15.9307 347.127 15.7613 347.291 15.6167C347.451 15.4693 347.598 15.306 347.773 15.1753L348.293 14.7867C348.472 14.6653 348.659 14.5593 348.841 14.4453C349.021 14.3267 349.219 14.2413 349.409 14.142C349.789 13.9473 350.185 13.7833 350.588 13.6473C350.991 13.5113 351.4 13.3987 351.813 13.3107C352.225 13.216 352.643 13.1507 353.063 13.122C352.247 13.324 351.455 13.592 350.705 13.9427C350.329 14.1133 349.955 14.2907 349.605 14.506C349.431 14.614 349.249 14.7073 349.086 14.8327C348.921 14.9527 348.75 15.0647 348.591 15.1907C348.279 15.4513 347.977 15.7187 347.707 16.0173C347.56 16.1553 347.439 16.3147 347.321 16.476C347.207 16.64 347.064 16.7833 346.978 16.9647L346.683 17.482C346.597 17.66 346.533 17.8487 346.456 18.0313L346.345 18.3073L346.277 18.598L346.138 19.1773L345.817 20.5247L345.485 19.1787L345.332 18.5633C345.289 18.3553 345.235 18.1513 345.143 17.9613L344.904 17.3767L344.581 16.8347C344.487 16.644 344.343 16.488 344.214 16.3207C344.082 16.1553 343.96 15.9813 343.798 15.842C343.644 15.6967 343.498 15.54 343.336 15.402L342.833 15.0027C342.662 14.8727 342.473 14.7667 342.293 14.6467C342.116 14.522 341.918 14.432 341.727 14.3287C341.537 14.2227 341.339 14.1313 341.137 14.0487C340.937 13.9607 340.737 13.874 340.529 13.806C339.709 13.4873 338.85 13.266 337.973 13.1227Z" fill="black"/>
<path d="M416.721 55.2173C417.166 55.2113 417.614 55.2487 418.056 55.3167C418.5 55.378 418.941 55.4673 419.377 55.5833C419.596 55.6387 419.809 55.7127 420.023 55.7893C420.237 55.86 420.45 55.9407 420.655 56.0373C420.863 56.1307 421.076 56.2113 421.273 56.3287C421.471 56.4413 421.679 56.54 421.87 56.666L422.439 57.058C422.619 57.2007 422.785 57.364 422.959 57.5173C423.139 57.664 423.281 57.8493 423.434 58.0253C423.583 58.2047 423.747 58.3733 423.86 58.5787L424.226 59.1767L424.501 59.8207C424.603 60.0327 424.667 60.256 424.717 60.4833L424.885 61.1613L424.231 61.162L424.391 60.5207L424.471 60.2007L424.597 59.8947C424.684 59.692 424.759 59.484 424.859 59.2873L425.202 58.722C425.306 58.5267 425.467 58.372 425.599 58.1973C425.735 58.0253 425.875 57.856 426.039 57.7113C426.199 57.564 426.346 57.4007 426.521 57.27L427.041 56.8813C427.22 56.76 427.407 56.654 427.589 56.54C427.769 56.4213 427.967 56.336 428.157 56.2367C428.537 56.042 428.933 55.878 429.336 55.742C429.739 55.606 430.148 55.4933 430.561 55.4053C430.973 55.3107 431.391 55.2453 431.811 55.2167C430.995 55.4187 430.203 55.6867 429.453 56.0373C429.077 56.208 428.703 56.3853 428.353 56.6007C428.179 56.7087 427.997 56.802 427.834 56.9273C427.669 57.0473 427.498 57.1593 427.339 57.2853C427.027 57.546 426.725 57.8133 426.455 58.112C426.308 58.25 426.187 58.4093 426.069 58.5707C425.955 58.7347 425.812 58.878 425.726 59.0593L425.431 59.5767C425.345 59.7547 425.281 59.9433 425.204 60.126L425.093 60.402L425.025 60.6927L424.886 61.272L424.565 62.6193L424.233 61.2733L424.08 60.658C424.037 60.45 423.983 60.246 423.891 60.056L423.652 59.4713L423.329 58.9293C423.235 58.7387 423.091 58.5827 422.962 58.4153C422.83 58.25 422.708 58.076 422.546 57.9367C422.392 57.7913 422.246 57.6347 422.084 57.4967L421.581 57.0973C421.41 56.9673 421.221 56.8613 421.041 56.7413C420.864 56.6167 420.666 56.5267 420.475 56.4233C420.285 56.3173 420.087 56.226 419.885 56.1433C419.685 56.0553 419.485 55.9687 419.277 55.9007C418.457 55.582 417.598 55.3607 416.721 55.2173Z" fill="black"/>
<path d="M104 67.3367C104.346 67.332 104.692 67.3607 105.035 67.414C105.379 67.4613 105.721 67.5307 106.059 67.6207C106.394 67.7167 106.729 67.8267 107.049 67.972C107.375 68.104 107.685 68.2787 107.99 68.4587L108.431 68.7627C108.571 68.8733 108.699 69 108.833 69.1187C108.973 69.2327 109.083 69.376 109.201 69.5127C109.317 69.6513 109.443 69.782 109.531 69.9413L109.815 70.4047L110.028 70.904C110.185 71.2327 110.229 71.596 110.326 71.9427L109.819 71.9433L109.943 71.446C109.977 71.2787 110.03 71.1167 110.103 70.9607C110.171 70.804 110.229 70.642 110.306 70.49L110.571 70.052C110.652 69.9007 110.777 69.7807 110.879 69.646C110.985 69.5127 111.092 69.382 111.22 69.27C111.453 69.0233 111.725 68.824 111.997 68.6273C112.278 68.4473 112.561 68.2693 112.861 68.128C113.156 67.9773 113.463 67.85 113.774 67.7447C114.086 67.6393 114.403 67.5527 114.723 67.484C115.042 67.4107 115.366 67.3593 115.691 67.338C115.06 67.494 114.446 67.702 113.865 67.974C113.573 68.106 113.284 68.244 113.013 68.41C112.735 68.5647 112.479 68.7533 112.227 68.9407C111.985 69.1427 111.751 69.35 111.541 69.5807C111.427 69.6873 111.333 69.8113 111.243 69.936C111.155 70.0627 111.043 70.174 110.977 70.3147L110.749 70.7153C110.682 70.8533 110.633 71 110.573 71.1413C110.507 71.2807 110.462 71.4273 110.434 71.58L110.327 72.0287L110.107 72.9487L109.819 72.03C109.722 71.718 109.697 71.3813 109.555 71.086L109.37 70.6327L109.119 70.2133C109.047 70.066 108.935 69.9447 108.835 69.8153C108.733 69.6873 108.639 69.552 108.513 69.444C108.286 69.2047 108.029 68.9973 107.765 68.794C107.491 68.606 107.212 68.4187 106.909 68.272C106.613 68.1113 106.299 67.9827 105.98 67.8673C105.347 67.6193 104.681 67.448 104 67.3367Z" fill="black"/>
<path d="M258.031 62.5154C258.377 62.5107 258.723 62.5394 259.065 62.5927C259.409 62.64 259.751 62.7094 260.089 62.7994C260.425 62.8954 260.759 63.0054 261.079 63.1507C261.406 63.2827 261.715 63.4574 262.021 63.6374L262.461 63.9414C262.601 64.052 262.729 64.1787 262.864 64.2974C263.004 64.4114 263.114 64.5547 263.232 64.6914C263.347 64.83 263.474 64.9607 263.562 65.12L263.846 65.5834L264.059 66.0827C264.215 66.4114 264.259 66.7747 264.357 67.1214L263.85 67.122L263.974 66.6247C264.008 66.4574 264.061 66.2954 264.134 66.1394C264.202 65.9827 264.26 65.8207 264.337 65.6687L264.602 65.2307C264.683 65.0794 264.807 64.9594 264.909 64.8247C265.015 64.6914 265.123 64.5607 265.251 64.4487C265.484 64.202 265.756 64.0027 266.027 63.806C266.309 63.626 266.591 63.448 266.892 63.3067C267.187 63.156 267.493 63.0287 267.805 62.9234C268.117 62.818 268.434 62.7314 268.754 62.6627C269.073 62.5894 269.397 62.538 269.722 62.5167C269.091 62.6727 268.477 62.8807 267.895 63.1527C267.604 63.2847 267.315 63.4227 267.043 63.5887C266.765 63.7434 266.51 63.932 266.257 64.1194C266.015 64.3214 265.781 64.5287 265.572 64.7594C265.458 64.866 265.364 64.99 265.273 65.1147C265.185 65.2414 265.074 65.3527 265.008 65.4934L264.779 65.894C264.713 66.032 264.663 66.1787 264.603 66.32C264.538 66.4594 264.493 66.606 264.465 66.7587L264.357 67.2074L264.137 68.1274L263.85 67.2087C263.753 66.8967 263.728 66.56 263.586 66.2647L263.401 65.8114L263.15 65.392C263.077 65.2447 262.965 65.1234 262.866 64.994C262.764 64.866 262.669 64.7307 262.544 64.6227C262.317 64.3834 262.06 64.176 261.796 63.9727C261.522 63.7847 261.243 63.5974 260.939 63.4507C260.644 63.29 260.329 63.1614 260.011 63.046C259.377 62.798 258.711 62.6267 258.031 62.5154Z" fill="black"/>
<path d="M536 293.574H0V360H536V293.574Z" fill="#89796E"/>
<path d="M259.997 144.324H279.062L269.471 155.717L259.997 144.324Z" fill="#3B1F0E"/>
<path d="M354.094 294.517L353.265 209.575H182.368L182.187 295.731C200.302 295.414 354.094 294.517 354.094 294.517Z" fill="#6B3F18"/>
<path d="M362.063 213.686C362.063 213.686 317.966 226.925 268.195 227.381C218.425 227.838 175.64 214.144 175.64 214.144L265.139 150.543L269.723 155.127L274.047 150.522L362.063 213.686Z" fill="#3B1F0E"/>
<path d="M288.52 295.05L288.51 246.155H243.979L244.418 295.753" fill="#3C2415"/>
<path d="M266.887 152.508L181.861 215.704L188.409 217.669L267.977 153.817L266.887 152.508Z" fill="#A97C50"/>
<path d="M272.563 151.852L355.73 215.375L349.837 217.014L270.923 153.163L272.563 151.852Z" fill="#A97C50"/>
<path d="M269.287 154.472L221.479 223.89L228.03 224.874L269.614 154.8L269.287 154.472Z" fill="#A97C50"/>
<path d="M269.614 154.8L315.128 222.907L308.58 224.218L269.614 154.8Z" fill="#A97C50"/>
<path d="M269.614 154.8L274.198 226.837L267.65 227.163L269.614 154.8Z" fill="#A97C50"/>
<path d="M264.431 218.467C252.256 218.467 241.53 217.765 232.543 216.805C203.331 213.681 185.735 207.214 185.561 207.15L187.065 206.095C187.239 206.161 203.669 212.406 232.734 215.509C259.556 218.371 300.807 219.236 350.75 205.569L352.193 206.577C318.756 215.726 288.765 218.467 264.431 218.467Z" fill="#A97C50"/>
<path d="M265.623 198.95C238.043 198.95 220.051 195.241 206.539 192.091L207.929 191.132C231.362 196.593 268.933 203.919 329.458 190.317L330.994 191.323C305.099 197.143 286.093 198.95 265.623 198.95Z" fill="#A97C50"/>
<path d="M261.882 179.189C248.973 179.189 241.173 178.157 228.6 176.503L229.846 175.447C251.444 178.287 269.453 180.236 306.915 174.058L308.402 175.161C291.127 178.011 278.849 179.189 261.882 179.189Z" fill="#A97C50"/>
<path d="M261.851 162.489C257.093 162.489 253.537 162.529 248.839 162.307L250.373 161.157C264.447 161.821 273.071 161.523 287.398 160.197L288.932 161.253C279.331 162.141 271.403 162.489 261.851 162.489Z" fill="#A97C50"/>
<path d="M224.918 241.414H192.419V269.549H224.918V241.414Z" fill="#3C2415"/>
<path d="M338.795 241.414H306.295V269.549H338.795V241.414Z" fill="#3C2415"/>
<path d="M241.883 167.631C241.883 177.43 233.941 185.375 224.138 185.375C214.336 185.375 206.395 177.43 206.395 167.631C206.395 157.83 214.336 149.885 224.138 149.885C233.941 149.885 241.883 157.83 241.883 167.631Z" fill="#87B74B"/>
<path d="M165.861 197.082L168.824 204.981L189.227 216.497" stroke="#DBE691" stroke-width="1.16847" stroke-miterlimit="10" stroke-linecap="round"/>
<path d="M191.349 232.791C214.606 232.791 233.459 213.938 233.459 190.682C233.459 167.426 214.606 148.573 191.349 148.573C168.093 148.573 149.24 167.426 149.24 190.682C149.24 213.938 168.093 232.791 191.349 232.791Z" fill="#7FAA42"/>
<path d="M190.875 192.145L172.773 179.968L170.467 173.716" stroke="#DBE691" stroke-width="1.16847" stroke-miterlimit="10" stroke-linecap="round"/>
<path d="M192.801 223.41L210.9 212.88L214.239 205.311" stroke="#D7DF23" stroke-width="1.16847" stroke-miterlimit="10"/>
<path d="M217.813 213.867L210.289 212.88" stroke="#D7DF23" stroke-width="1.16847" stroke-miterlimit="10"/>
<path d="M190.875 198.069L209.303 186.221L211.56 181.615" stroke="#D7DF23" stroke-width="1.16847" stroke-miterlimit="10"/>
<path d="M190.875 219.264L172.773 207.088L170.467 200.837" stroke="#DBE691" stroke-width="1.16847" stroke-miterlimit="10" stroke-linecap="round"/>
<path d="M207.986 187.209L216.825 186.881" stroke="#D7DF23" stroke-width="1.16847" stroke-miterlimit="10"/>
<path d="M199.712 296.141L179.965 295.863L191.153 177.007H192.473L199.712 296.141Z" fill="#577635"/>
<path d="M172.773 179.968L166.189 183.26" stroke="#D7DF23" stroke-width="1.16847" stroke-miterlimit="10" stroke-linecap="round"/>
<path d="M172.773 207.088L166.189 210.379" stroke="#D7DF23" stroke-width="1.16847" stroke-miterlimit="10" stroke-linecap="round"/>
<path d="M393.749 207.5C393.749 214.207 388.319 219.643 381.611 219.643C374.907 219.643 369.473 214.207 369.473 207.5C369.473 200.797 374.907 195.363 381.611 195.363C388.319 195.363 393.749 200.797 393.749 207.5Z" fill="#87B74B"/>
<path d="M387.99 223.27C387.99 239.179 375.089 252.075 359.179 252.075C343.272 252.075 330.376 239.179 330.376 223.27C330.376 207.362 343.272 194.469 359.179 194.469C375.089 194.469 387.99 207.362 387.99 223.27Z" fill="#7FAA42"/>
<path d="M359.757 245.657L372.138 238.454L374.838 233.276" stroke="#DBE691" stroke-width="0.799267" stroke-miterlimit="10" stroke-linecap="round"/>
<path d="M376.867 239.131L372.138 238.454" stroke="#DBE691" stroke-width="0.799267" stroke-miterlimit="10" stroke-linecap="round"/>
<path d="M341.746 227.647L343.77 233.051L357.728 240.931" stroke="#DBE691" stroke-width="0.799267" stroke-miterlimit="10"/>
<path d="M358.851 228.323L371.464 220.219L372.587 217.069" stroke="#DBE691" stroke-width="0.799267" stroke-miterlimit="10" stroke-linecap="round"/>
<path d="M370.563 220.896L376.188 220.669" stroke="#DBE691" stroke-width="0.799267" stroke-miterlimit="10" stroke-linecap="round" stroke-linejoin="round"/>
<path d="M358.851 224.273L346.473 215.941L344.899 211.664" stroke="#DBE691" stroke-width="0.799267" stroke-miterlimit="10"/>
<path d="M364.483 295.413L350.978 295.223L358.631 213.914H359.532L364.483 295.413Z" fill="#577635"/>
<path d="M343.729 273.632H339.712V275.741H343.729V273.632Z" fill="#D1D3D4"/>
<path d="M354.985 273.836V277.273H354.194V274.714H348.025V277.273H347.157V273.836H354.985Z" fill="#27AAE1"/>
<path d="M359.021 275.5H338.687V295.749H359.021V275.5Z" fill="#27AAE1"/>
<path d="M356.193 279.652H341.328V292.241H356.193V279.652Z" fill="#1F93BC"/>
<path d="M122.605 273.641H118.488V275.803H122.605V273.641Z" fill="#D1D3D4"/>
<path d="M134.139 273.85V277.371H133.329V274.75H127.007V277.371H126.117V273.85H134.139Z" fill="#F9ED32"/>
<path d="M138.277 275.555H117.436V296.307H138.277V275.555Z" fill="#F9ED32"/>
<path d="M135.379 279.809H120.145V292.713H135.379V279.809Z" fill="#D7DF23"/>
<path d="M381.635 268.249H359.492V295.761H381.635V268.249Z" fill="#E6E7E8"/>
<path d="M381.635 266.067H359.492V268.249H381.635V266.067Z" fill="#BCBEC0"/>
<path d="M382.515 269.423H358.61V270.113H382.515V269.423Z" fill="#BCBEC0"/>
<path d="M382.515 270.913H358.61V271.603H382.515V270.913Z" fill="#BCBEC0"/>
<path d="M382.515 272.313H358.61V273.002H382.515V272.313Z" fill="#BCBEC0"/>
<path d="M377.407 272.265L363.485 288.547L358.61 288.032L359.492 286.489" stroke="#BCBEC0" stroke-width="1.2286" stroke-miterlimit="10"/>
<path d="M101.842 144.247H101.327L100.986 146.645L101.585 146.73L101.842 144.247Z" fill="#356E42"/>
<path d="M133.008 258.8L128.575 324.366L135.561 322.082L139.592 257.455L133.008 258.8Z" fill="#333335"/>
<path d="M128.686 324.069L124.062 321.331L128.172 255.976L133.008 258.799L128.686 324.069Z" stroke="#414042" stroke-width="0.256889" stroke-miterlimit="10" stroke-linejoin="round"/>
<path d="M108.662 222.948L107.022 261.647L104.228 288.512L111.214 286.23L115.246 221.605L108.662 222.948Z" fill="#6D4629"/>
<path d="M104.026 288.277L100.197 284.749L100.942 270.295L105.566 269.011L104.026 288.277Z" stroke="#414042" stroke-width="0.256889" stroke-miterlimit="10" stroke-linejoin="round"/>
<path d="M87.9265 132.43L75.639 149.567L100.629 154.674L101.452 149.332L101.274 146.612L102.107 137.946L87.9265 132.43Z" fill="#6D4426"/>
<path d="M173.278 224.095L171.933 276.493L100.46 299.339L106.337 261.475L56.1227 252.584L55.3171 224.095H173.278Z" fill="#FFDE17"/>
<path d="M128.71 213.521L126.42 213.955L73.4896 258.866L56.2942 252.755L55.3516 224L64.2187 145.805L78.6877 145.95C80.1884 146.925 88.7416 152.238 96.199 152.117C102.526 152.021 101.705 148.829 101.401 146.661L114.2 148.223L128.71 213.521Z" fill="#C3E4CF"/>
<path d="M97.4046 214.059L116.214 224.807L178.019 223.195L153.834 211.371L146.443 210.565L97.4046 214.059Z" fill="white"/>
<path d="M116.012 224.605L115.947 228.836L177.212 226.958L178.019 223.195L116.012 224.605Z" fill="#ADADAF"/>
<path d="M97.4046 214.059L97.1358 218.359L115.947 228.836L116.113 224.605L97.4046 214.059Z" fill="#BCBEC0"/>
<path d="M167.806 218.359L157.933 213.522L154.804 216.945L152.918 216.606L154.033 213.522L153.827 212.933L153.648 213.097L124.671 204.887L125.405 198.619L132.686 194.618L159.196 207.758L159.387 207.723L162.727 209.947L167.806 218.359Z" fill="#6D4426"/>
<path d="M128.686 213.18L148.809 223.027H146.926L126.889 213.264L128.686 213.18Z" fill="#C3E4CF"/>
<path d="M134.535 184.688L140.167 204.558L142.68 203.79L137.048 183.92L134.535 184.688Z" fill="#2E3192"/>
<path d="M136.908 213.436L156.345 222.599H154.462L136.222 213.863L136.908 213.436Z" fill="#C3E4CF"/>
<path d="M78.8503 120.442L66.1766 125.58L87.0706 132.43L88.7196 125.113L84.0138 122.106L78.8503 120.442Z" fill="#FFDE17"/>
<path d="M133.824 194.425L125.406 198.617L112.503 148.014L115.408 148.223L133.824 194.425Z" fill="#A7D2B5"/>
<path d="M146.188 208.168L146.573 210.872L145.032 212.609L142.714 214.536L136.924 214.73L128.401 213.537L59.5851 215.536L64.6206 146.208L78.7285 146.008L85.4794 149.331L84.7761 198.609L127.585 205.005L136.734 200.247L145.418 201.605L145.613 204.501L147.539 205.656L146.188 208.168Z" fill="#684126"/>
<path d="M77.6516 111.023L69.4313 115.645L82.2487 128.121L85.779 121.752L84.0139 114.855L77.6516 111.023Z" fill="#F9D10F"/>
<path d="M100.629 299.509L172.102 276.204L170.829 279.221L102.375 299.778L100.629 299.509Z" fill="#D8B628"/>
<path d="M156.849 335.899L156.9 327.977L148.963 283.802L168.847 277.315L167.731 326.678L180.8 333.622L183.125 333.469L183.288 336.045L156.849 335.899Z" fill="#6D4426"/>
<path d="M130.491 355.763L96.3622 355.495L98.6636 343.355L104.453 298.124L128.088 290.502L110.198 344.423L110.362 344.448L127.502 352.86L130.271 352.478L130.491 355.763Z" fill="#6D4426"/>
<path d="M84.4063 115.916L80.6807 120.515L87.151 126.882L90.2882 119.806L84.4063 115.916Z" fill="#E1B724"/>
<path d="M128.356 351.147H126.047V353.029H128.356V351.147Z" fill="#39B54A"/>
<path d="M85.9843 196.19L59.3823 203.848L64.2187 145.806L78.3366 145.874L81.551 147.621L85.5818 149.534L85.9843 196.19Z" fill="#B0DBBF"/>
<path d="M183.93 335.493H151.591V336.239H183.93V335.493Z" fill="#39B54A"/>
<path d="M181.514 332.204H179.594V333.767H181.514V332.204Z" fill="#39B54A"/>
<path d="M180.163 333.696L165.663 335.829L163.175 335.687L179.806 332.845L180.163 333.696Z" fill="#39B54A"/>
<path d="M131.262 355.102H92.366V356H131.262V355.102Z" fill="#39B54A"/>
<path d="M101.456 146.645C101.456 146.645 101.922 148.947 101.334 150.055C101.368 147.588 101.251 146.612 101.251 146.612L101.456 146.645Z" fill="#97C6A6"/>
<path d="M126.732 352.943L109.292 355.508L106.301 355.336L126.304 351.917L126.732 352.943Z" fill="#39B54A"/>
<path d="M136.096 184.346C136.697 184.376 137.299 184.392 137.898 184.434L137.948 184.437L137.962 184.489C138.165 185.2 138.367 185.911 138.55 186.626C138.739 187.341 138.93 188.054 139.101 188.773C139.458 190.207 139.79 191.647 140.075 193.1C139.633 191.688 139.237 190.263 138.866 188.833C138.672 188.12 138.5 187.401 138.325 186.684C138.144 185.967 137.983 185.246 137.821 184.525L137.885 184.579C137.287 184.513 136.693 184.423 136.096 184.346Z" fill="#70A981"/>
<path d="M85.9843 196.191L84.7246 198.054L84.7748 196.542L85.9843 196.191Z" fill="#79B58E"/>
<path d="M59.3823 203.848L60.4567 203.512L60.3895 204.519L59.3823 203.848Z" fill="#79B58E"/>
<path d="M56.7118 252.92L50.2622 253.475L78.3266 267.532L106.675 261.486L79.9385 256.918L73.489 258.8L56.7118 252.92Z" fill="#333335"/>
<path d="M78.3266 267.532L77.6516 275.603L105.395 269.094L106.337 261.56L78.3266 267.532Z" stroke="#414042" stroke-width="0.256889" stroke-miterlimit="10"/>
<path d="M77.6541 275.863L49.8427 259.739L50.2452 253.425L78.3266 267.532L77.6541 275.863Z" stroke="#414042" stroke-width="0.256889" stroke-miterlimit="10"/>
<path d="M50.2452 253.561L53.3365 172.409L61.2102 171.99L55.3509 224.001L56.7625 253.021L50.2452 253.561Z" fill="#414042"/>
<path d="M76.3329 275.656L76.2324 341.372L83.0525 338.632L82.9262 273.635L76.3329 275.656Z" fill="#333335"/>
<path d="M76.3203 341.181L72.0522 337.962L71.5059 273.534L76.471 275.952L76.3203 341.181Z" stroke="#414042" stroke-width="0.256889" stroke-miterlimit="10" stroke-linejoin="round"/>
<path d="M53.4371 261.738L51.363 307.277L58.1723 305.421L59.9199 265.516L53.4371 261.738Z" fill="#333335"/>
<path d="M51.4716 307.117L47.9733 304.012L49.989 259.607L53.5042 261.733L51.4716 307.117Z" stroke="#414042" stroke-width="0.256889" stroke-miterlimit="10" stroke-linecap="round" stroke-linejoin="round"/>
<path d="M73.489 258.866L79.8041 256.918L76.5118 256.245L73.489 258.866Z" fill="#87C19D"/>
<path d="M87.5974 246.571L117.019 253.828L111.39 296.326L119.842 293.53L124.88 250.604L92.6354 242.541L87.5974 246.571Z" fill="#662D91"/>
<path d="M82.0541 103.004L75.0827 110.338L88.3272 120.868L88.1312 114.147L82.0541 103.004Z" fill="#FFDE17"/>
<path d="M103.518 233.271L134.15 243.55L127.146 290.846L135.195 288.362L141.608 240.124L108.556 229.24L103.518 233.271Z" fill="#301E56"/>
<path d="M131.531 228.232L155.513 236.294L148.895 283.824L156.259 281.512L162.97 232.868L146.443 227.829L131.531 228.232Z" fill="#662D91"/>
<path d="M87.7387 96.636L79.6999 99.8203L88.5237 121.222L97.3462 111.847L87.7387 96.636Z" fill="#F9D10F"/>
<path d="M119.439 123.182L119.562 131.691L116.371 131.233L112.216 145.257L85.1874 134.656L97.2815 95.4046L125.235 104.294L119.439 123.182Z" fill="#6D4426"/>
<path d="M101.944 120.741L96.9239 118.993L94.5332 125.86L99.5537 127.608L101.944 120.741Z" fill="#7F5333"/>
<path d="M88.4401 127.977L98.3741 119.585L103.34 122.497L121.665 109.995L90.4953 115.304L86.7277 129.348L88.4401 127.977Z" fill="black"/>
<path d="M78.7649 144.075L79.5354 144.14L79.0858 144.814L78.7649 144.075Z" fill="#356E42"/>
<path d="M124.747 110.509L88.7836 121.639L87.5849 96.1224L101.113 93.3827L126.118 102.117L124.747 110.509Z" fill="#FFDE17"/>
<path d="M113.202 118.783L116.479 119.4L118.079 121.149L115.161 120.424L113.202 118.783Z" fill="white"/>
<path d="M118.125 121.161L117.025 120.889L116.25 120.712L115.965 120.034L116.673 119.59L117.222 120.203L118.125 121.161Z" fill="black"/>
<path d="M113.016 136.54L110.533 135.768L109.677 134.314" stroke="#3C2415" stroke-width="0.205524" stroke-miterlimit="10"/>
<path d="M124.748 110.509L122.564 112.907L123.186 110.98L124.748 110.509Z" fill="#F4CC13"/>
<path d="M98.9374 126.852C99.1645 126.852 99.3487 126.668 99.3487 126.44C99.3487 126.213 99.1645 126.029 98.9374 126.029C98.7102 126.029 98.5261 126.213 98.5261 126.44C98.5261 126.668 98.7102 126.852 98.9374 126.852Z" fill="white"/>
<path d="M133.824 194.425L133.659 195.115L133.041 194.819L133.824 194.425Z" fill="#44935D"/>
<path d="M144.785 213.436L164.223 222.599H162.339L144.1 213.863L144.785 213.436Z" fill="#C3E4CF"/>
<path d="M78.7649 144.075L92.1237 170.022L91.6094 177.986L102.655 192.37L107.022 195.195L104.711 196.226L101.113 193.913L89.8103 179.013L90.0672 170.792L78.272 145.852L78.7649 144.075Z" fill="#70A981"/>
<path d="M103.168 146.901L109.591 170.535V177.47L112.417 187.49L112.161 193.142L109.848 193.656L110.876 188.004L107.279 177.47L107.794 170.278L101.627 147.672L101.456 146.645L101.842 144.247L103.168 146.901Z" fill="#70A981"/>
<path d="M101.456 196.823L114.986 191.686L120.466 204.016L103.854 201.619L101.456 196.823Z" fill="#50895D"/>
<path d="M104.711 199.392L114.645 195.797L118.754 203.845L105.738 201.789L104.711 199.392Z" fill="white"/>
<path d="M168.761 227.309L170.646 229.191L168.761 277.4L172.039 276.601L173.385 227.136L168.761 227.309Z" fill="#301E56"/>
<path d="M105.738 265.585L105.052 298.037L100.429 299.58L105.738 265.585Z" fill="#301E56"/>
<path d="M120.766 100.019L100.856 106.827L90.5808 121.084L88.719 121.727L88.2694 116.075L96.2329 103.744L113.702 97.8347L120.766 100.019Z" fill="#662D91"/>
<path d="M125.904 104L108.563 110.166L105.61 116.46L112.931 114.213L113.959 111.45L125.261 108.368L125.904 104Z" fill="#662D91"/>
<path d="M97.5176 94.2392L90.5808 98.349L88.0125 107.854L87.5849 96.1224L97.5176 94.2392Z" fill="#662D91"/>
<path d="M80.5627 101.688L87.8844 104.258L88.1413 109.588L82.6173 107.084L80.5627 101.688Z" fill="#301E56"/>
<path d="M83.6453 109.651H80.8202L79.7922 114.019L76.196 111.193L76.9018 108.496L81.3973 103.551L83.6453 109.651Z" fill="#662D91"/>
<path d="M72.9207 119.03L78.5074 119.157L81.8474 115.817L83.6452 117.102L80.6807 120.515L81.8474 121.47L77.4801 123.524L72.9207 119.03Z" fill="#301E56"/>
<path d="M71.8287 123.267L74.7819 128.341L66.1766 125.58L71.8287 123.267Z" fill="#662D91"/>
<path d="M84.7761 198.609L82.3617 200.592" stroke="#A97C50" stroke-width="0.256889" stroke-miterlimit="10" stroke-linecap="round"/>
<path d="M85.7004 172.59V192.37" stroke="#70A981" stroke-width="0.256889" stroke-miterlimit="10"/>
<defs>
<linearGradient id="paint0_linear" x1="271.115" y1="-2.04462" x2="268.304" y2="362.071" gradientUnits="userSpaceOnUse">
<stop offset="0.19" stop-color="#CDECF7"/>
<stop offset="0.4218" stop-color="#DDF2F9"/>
<stop offset="0.6865" stop-color="#E8F6FB"/>
<stop offset="1" stop-color="#EBF7FB"/>
</linearGradient>
</defs>
</svg>
