<svg width="176" height="348" viewBox="0 0 176 348" fill="none" xmlns="http://www.w3.org/2000/svg">
<g clip-path="url(#clip0)">
<path d="M7.46267 208.896L7.22605 208.946C5.75645 209.22 4.33667 208.258 4.05023 206.784L2.55573 198.864L8.12275 197.801L9.61725 205.722C9.90369 207.184 8.94472 208.608 7.46267 208.896Z" fill="#E1BDA7"/>
<path d="M1.012 200.3L10.9131 200.25C10.8882 196.152 10.7138 190.78 10.5146 184.547C9.99148 168.456 9.28159 146.418 11.0501 134.787C14.6618 111.075 20.9885 100.431 26.705 93.1603C30.4039 88.4505 38.9973 81.0546 55.0632 84.3653L57.0559 74.6332C41.5131 71.4225 27.6142 75.945 18.9211 87.0138C7.31382 101.793 3.47793 118.696 1.24862 133.287C-0.656864 145.831 0.0405708 167.482 0.601009 184.872C0.812731 191.03 0.98709 196.353 1.012 200.3Z" fill="#F2F2F2"/>
<path d="M174.064 155.674L174.038 155.919C173.882 157.417 172.538 158.493 171.055 158.329L163.063 157.47L163.664 151.82L171.655 152.679C173.137 152.844 174.22 154.177 174.064 155.674Z" fill="#E1BDA7"/>
<path d="M165.55 159.748L167.058 149.936C163.033 149.308 157.703 148.616 151.534 147.83C135.607 145.786 113.776 142.981 102.59 139.375C79.8057 132.022 70.3212 124.072 64.0498 117.26C59.9965 112.859 54.0642 103.164 59.8483 87.7886L50.5785 84.2612C44.97 99.1424 47.2213 113.613 56.7629 123.976C69.5005 137.819 85.5484 144.3 99.5633 148.829C111.618 152.717 133.061 155.468 150.288 157.684C156.393 158.465 161.655 159.141 165.55 159.748Z" fill="#F2F2F2"/>
<path d="M62.1748 174.951C76.2271 174.951 87.6187 163.525 87.6187 149.429C87.6187 135.333 76.2271 123.905 62.1748 123.905C48.1225 123.905 36.7308 135.333 36.7308 149.429C36.7308 163.525 48.1225 174.951 62.1748 174.951Z" fill="#1FD1C4"/>
<path d="M87.7183 345.206L86.4355 341.484L78.5644 337.273V333.9C78.5644 331.976 77.0077 330.427 75.1022 330.427C73.1968 330.427 71.6399 331.989 71.6399 333.9V337.76H71.6151L71.6399 337.81V344.095H78.5769V344.045L87.7183 345.206Z" fill="#E1BDA7"/>
<path d="M71.6143 337.76C71.6143 337.76 75.7241 343.494 85.8992 343.494C87.3813 343.494 85.0274 340.434 86.4472 340.858C86.5593 340.896 88.9256 341.646 88.9505 341.659C90.6194 342.283 92.9981 342.97 97.1579 345.593C98.1666 346.231 97.7556 347.78 96.5725 347.805C92.0392 347.892 82.0757 347.917 69.9952 347.043C69.9828 347.043 69.1235 341.634 71.6143 337.76Z" fill="#CACACA"/>
<path d="M74.9644 336.999C78.7131 336.999 81.7395 333.951 81.7395 330.202V236.342C81.7395 236.18 81.7395 236.03 81.727 235.868L75.9359 153.464C75.6743 149.716 72.4487 146.893 68.7 147.155C64.9637 147.417 62.149 150.665 62.4106 154.413L68.1769 236.58V330.202C68.1894 333.951 71.2282 336.999 74.9644 336.999Z" fill="#01665F"/>
<path d="M26.7559 342.246L26.9178 338.31L21.1266 331.501L22.3596 328.366C23.057 326.579 22.1852 324.555 20.4043 323.856C18.6233 323.156 16.6057 324.03 15.9083 325.817L14.501 329.416H14.4761V329.466L12.1845 335.312L18.6358 337.86L18.6607 337.81L26.7559 342.246Z" fill="#E1BDA7"/>
<path d="M14.4761 329.415C14.4761 329.415 16.2197 336.261 25.6849 339.997C27.0549 340.534 25.9838 336.836 27.1545 337.735C27.2417 337.798 29.1721 339.372 29.197 339.397C30.5296 340.584 32.485 342.108 35.3992 346.08C36.1091 347.043 35.1625 348.341 34.0417 347.917C29.7949 346.331 20.504 342.707 9.58167 337.473C9.58167 337.461 10.7524 332.114 14.4761 329.415Z" fill="#CACACA"/>
<path d="M20.3525 330.414C23.0551 330.414 25.6207 328.777 26.6668 326.092L60.8661 238.728C60.9283 238.579 60.9782 238.429 61.0279 238.279L85.6624 159.46C86.7833 155.875 84.7905 152.064 81.2162 150.941C77.6418 149.816 73.8433 151.815 72.7225 155.401L48.1503 233.994L14.0382 321.132C12.6682 324.631 14.387 328.578 17.8742 329.952C18.6836 330.265 19.5305 330.414 20.3525 330.414Z" fill="#01665F"/>
<path d="M102.453 244.075L27.3416 243.551L44.3415 127.404L85.2286 127.116L102.453 244.075Z" fill="#CACACA"/>
<path d="M69.5715 47.9607H61.4017C62.3979 53.4452 62.0866 62.4526 60.0939 69.4861C59.0727 73.0841 61.8002 76.6571 65.4866 76.6571C69.173 76.6571 71.888 73.0841 70.8793 69.4861C68.8865 62.465 68.5877 53.4452 69.5715 47.9607Z" fill="#E1BDA7"/>
<path d="M84.5803 112.737C83.5092 107.24 81.0434 100.619 83.4968 95.7962C85.315 92.2358 86.3239 87.9382 85.1657 84.0154C83.7832 79.3555 79.6235 77.7313 76.0243 74.4582C75.0403 73.5587 72.5371 70.8727 71.603 69.2861C71.4535 69.0237 71.0924 68.9738 70.8807 69.1862C69.6353 70.4604 65.7745 73.5337 60.195 70.0857C59.6595 69.7483 58.9745 69.7733 58.4639 70.1606C55.4499 72.4844 52.5107 75.1204 51.6141 78.8932C50.3811 84.1278 50.132 89.5623 50.5679 94.9093C51.4521 105.778 53.1086 120.47 45.8228 129.415L45.7107 131.414C45.7107 131.414 86.0748 127.791 86.0997 127.791C86.7723 127.529 85.0287 116.147 84.9165 115.048C84.8543 114.298 84.7298 113.536 84.5803 112.737Z" fill="#01665F"/>
<path d="M84.5183 131.939H44.7272C43.5565 131.939 42.61 130.989 42.61 129.815V127.741C42.61 126.567 43.5565 125.617 44.7272 125.617H84.5183C85.689 125.617 86.6355 126.567 86.6355 127.741V129.815C86.6355 130.989 85.689 131.939 84.5183 131.939Z" fill="black"/>
<path d="M90.4699 261.34C89.3739 261.215 87.431 227.085 87.2069 224.599C84.6163 195.977 83.8442 166.931 79.0867 138.572L68.6252 76.2195L57.8025 65.2756C47.7396 66.9871 41.8487 75.7697 41.5872 92.0481C41.1637 118.171 27.4143 190.78 17.3139 231.058C14.6487 241.701 21.3118 252.434 32.0098 254.731C32.0223 254.731 90.4574 261.34 90.4699 261.34Z" fill="#F2F2F2"/>
<path d="M59.4078 102.817L58.1997 103.217L57.1162 99.3692C57.0041 99.0318 57.1908 98.6696 57.5147 98.5697C57.8509 98.4572 58.2122 98.6446 58.3118 98.9694L59.4078 102.817Z" fill="#1FD1C4"/>
<path d="M67.0752 99.697L54.275 101.766L54.6099 103.851L67.4101 101.781L67.0752 99.697Z" fill="#DDDDDD"/>
<path d="M57.6791 104.354L56.4212 104.554L55.6117 99.4945C55.5619 99.1571 55.786 98.8448 56.1099 98.7949L56.1596 98.7824C56.496 98.7323 56.8073 98.9572 56.8571 99.2821L57.6791 104.354Z" fill="black"/>
<path d="M57.5537 64.2014L55.5238 74.1833L61.8255 77.4939L54.353 83.9528L80.756 149.816L68.5259 76.1071L57.5537 64.2014Z" fill="white"/>
<path d="M71.0648 108.634C71.3535 108.625 71.5382 107.007 71.4771 105.021C71.416 103.035 71.1326 101.432 70.8438 101.441C70.5551 101.45 70.3705 103.067 70.4315 105.054C70.4925 107.04 70.776 108.643 71.0648 108.634Z" fill="#868686"/>
<path d="M70.249 108.67L71.0829 108.645L70.8616 101.44L70.0276 101.466L70.249 108.67Z" fill="#868686"/>
<path d="M70.2424 108.66C70.5312 108.651 70.7158 107.033 70.6547 105.047C70.5937 103.061 70.3101 101.458 70.0213 101.467C69.7327 101.476 69.5481 103.093 69.609 105.08C69.6701 107.066 69.9537 108.669 70.2424 108.66Z" fill="#CACACA"/>
<path d="M69.9684 107.46C70.209 107.452 70.3711 106.373 70.3305 105.049C70.2897 103.725 70.0617 102.657 69.8212 102.665C69.5805 102.672 69.4184 103.752 69.4591 105.076C69.4998 106.4 69.7278 107.467 69.9684 107.46Z" fill="#868686"/>
<path d="M69.292 107.494L69.989 107.472L69.8414 102.665L69.1442 102.686L69.292 107.494Z" fill="#868686"/>
<path d="M69.2838 107.486C69.5244 107.478 69.6865 106.399 69.6458 105.075C69.605 103.751 69.377 102.684 69.1365 102.691C68.8958 102.698 68.7337 103.778 68.7745 105.102C68.8151 106.426 69.0431 107.493 69.2838 107.486Z" fill="#CACACA"/>
<path d="M68.5144 105.603C68.5891 105.603 68.6764 105.578 68.751 105.541C68.9627 105.416 69.025 105.141 68.9005 104.929C68.7386 104.654 52.3738 77.2067 61.4777 63.302C61.6147 63.0896 61.5525 62.8148 61.3532 62.6774C61.1415 62.54 60.8675 62.6024 60.7305 62.8023C56.8199 68.7739 56.8697 78.0438 60.8675 89.6123C63.8689 98.2949 68.091 105.316 68.1284 105.378C68.2155 105.528 68.3525 105.603 68.5144 105.603Z" fill="#01665F"/>
<path d="M68.3285 105.841C68.8581 105.841 69.2875 105.41 69.2875 104.879C69.2875 104.347 68.8581 103.917 68.3285 103.917C67.7989 103.917 67.3696 104.347 67.3696 104.879C67.3696 105.41 67.7989 105.841 68.3285 105.841Z" fill="#01665F"/>
<path d="M87.1701 347.342C87.2075 347.33 87.2324 347.305 87.2697 347.292C87.3071 347.305 87.332 347.33 87.3694 347.342C87.332 347.38 87.3071 347.417 87.2697 347.467C87.2448 347.417 87.2075 347.392 87.1701 347.342Z" fill="#F3F3F3"/>
<path d="M25.4724 344.045C25.5098 344.045 25.5472 344.032 25.5845 344.032C25.6094 344.057 25.6343 344.095 25.6592 344.12C25.6094 344.145 25.572 344.17 25.5223 344.195C25.5098 344.145 25.4849 344.095 25.4724 344.045Z" fill="#F3F3F3"/>
<path d="M55.2245 31.7947C55.2245 41.052 61.8875 55.1191 70.0949 55.1191C78.3021 55.1191 84.9651 41.052 84.9651 31.7947C84.9651 22.5374 78.3021 16.4782 70.0824 16.4907C61.875 16.4907 55.2245 22.5374 55.2245 31.7947Z" fill="#E1BDA7"/>
<path d="M83.8072 44.725C83.1471 45.6369 81.8394 45.8118 80.868 45.0997C79.8965 44.4001 79.6475 43.0883 80.3075 42.1763C80.9676 41.2643 81.3537 42.3887 82.3126 43.0884C83.2716 43.8005 84.4548 43.8129 83.8072 44.725Z" fill="#E1BDA7"/>
<path d="M69.5459 37.0039C69.5707 37.0039 69.5832 37.0039 69.6081 37.0039C69.8821 36.9789 70.1312 36.7916 70.2806 36.4792C70.4301 36.1919 70.4923 35.8295 70.455 35.4548C70.3927 34.7052 70.044 34.1431 69.4836 33.9307L69.359 34.268C69.7949 34.4304 70.0565 34.8677 70.1062 35.4798C70.1312 35.7921 70.0814 36.092 69.9692 36.3169C69.907 36.4292 69.7825 36.6291 69.5832 36.6416C69.3216 36.6666 69.0975 36.3543 69.0103 36.1544C68.7612 35.6672 68.5994 34.7926 69.0103 34.3554L68.7487 34.1055C68.1759 34.7052 68.4 35.7671 68.6865 36.3293C68.8982 36.7665 69.2096 37.0039 69.5459 37.0039Z" fill="#CACACA"/>
<path opacity="0.5" d="M69.0742 31.5822C69.3605 32.7815 69.5723 34.1933 69.4727 34.8804C69.4353 35.1802 69.3233 35.4176 69.1239 35.0803C68.9247 34.7305 68.7254 34.0934 68.5387 33.5937C68.1027 32.4443 67.6668 31.0825 67.4427 29.6959C67.2807 28.6838 67.3928 28.2717 67.6046 28.2217C67.9533 28.1342 68.6009 29.6333 69.0742 31.5822Z" fill="#E1BDA7"/>
<path d="M82.3378 47.0484C81.3913 46.2114 80.0587 46.5737 79.7972 46.6612C79.5729 46.5862 78.203 46.2114 77.2565 47.0484C77.2565 47.0484 77.543 48.7599 79.7972 48.7599C82.0514 48.7724 82.3378 47.0484 82.3378 47.0484Z" fill="#F3656E"/>
<path d="M79.8081 48.022C80.8044 48.022 81.6139 47.8847 81.6139 47.1858H78.0147C78.0022 47.8847 78.8117 48.022 79.8081 48.022Z" fill="white"/>
<path d="M50.7051 28.9587C58.6769 28.9587 65.1395 22.4761 65.1395 14.4794C65.1395 6.48263 58.6769 0 50.7051 0C42.7331 0 36.2706 6.48263 36.2706 14.4794C36.2706 22.4761 42.7331 28.9587 50.7051 28.9587Z" fill="#75512E"/>
<path d="M82.9499 20.0886C79.5873 10.5815 70.5705 6.78359 62.139 9.78191C53.7075 12.7802 49.0621 21.4129 52.4123 30.92L56.6217 42.8509C56.6217 42.8509 64.4305 37.254 65.6261 23.9239C65.651 23.6616 70.6327 29.171 80.2722 25.7604L84.3447 24.3113L82.9499 20.0886Z" fill="#75512E"/>
<path d="M74.9781 10.6566L54.2791 36.0673C53.9055 36.5546 53.1458 36.4296 52.9465 35.8549L50.9663 30.1831C50.8792 29.9207 50.929 29.6334 51.1158 29.421L70.1459 8.79511C70.3201 8.59521 70.5817 8.52026 70.8308 8.58272L74.6169 9.59466C75.0777 9.7071 75.2645 10.2693 74.9781 10.6566Z" fill="#FFB41E"/>
<path d="M78.0411 29.4462C79.4236 29.2463 80.5818 29.0339 81.765 29.0089C82.3503 28.9839 82.9232 29.0214 83.521 29.0964C84.1313 29.1464 84.7166 29.3213 85.4141 29.4462C85.028 28.859 84.48 28.3718 83.8199 28.0845C83.1723 27.7846 82.4376 27.6347 81.7276 27.6597C81.0053 27.6847 80.3078 27.8596 79.6727 28.1469C79.05 28.4592 78.4646 28.8715 78.0411 29.4462Z" fill="#75512E"/>
<path d="M81.9522 32.5566C82.2892 32.5566 82.5625 32.2825 82.5625 31.9444C82.5625 31.6063 82.2892 31.3323 81.9522 31.3323C81.6151 31.3323 81.342 31.6063 81.342 31.9444C81.342 32.2825 81.6151 32.5566 81.9522 32.5566Z" fill="black"/>
</g>
<defs>
<clipPath id="clip0">
<rect width="176" height="348" fill="white"/>
</clipPath>
</defs>
</svg>
