<svg width="172" height="360" viewBox="0 0 172 360" fill="none" xmlns="http://www.w3.org/2000/svg">
<path d="M62.6555 35.0345L69.3994 33.333C69.7088 37.9939 71.8124 45.2534 74.8956 50.5537C76.4733 53.2657 74.9575 56.7304 71.9155 57.5038C68.8735 58.2772 65.8934 55.9364 65.9965 52.8017C66.2028 46.6661 64.6044 39.2829 62.6555 35.0345Z" fill="#FFD56F"/>
<path d="M51.5291 20.6287C50.8176 28.0841 55.396 39.9529 62.3874 40.6232C69.3788 41.2935 76.133 30.5073 76.8445 23.0519C77.556 15.5965 72.3589 10.1828 65.3675 9.51253C58.3761 8.84226 52.2406 13.1732 51.5291 20.6287Z" fill="#FFD56F"/>
<path d="M51.5291 20.6287C50.8176 28.0841 55.396 39.9529 62.3874 40.6232C69.3788 41.2935 76.133 30.5073 76.8445 23.0519C77.556 15.5965 72.3589 10.1828 65.3675 9.51253C58.3761 8.84226 52.2406 13.1732 51.5291 20.6287Z" fill="#FFD56F"/>
<path d="M54.3943 33.8691C53.2291 33.7557 52.301 33.4257 52.4144 32.2605L56.6526 32.6626C56.5391 33.8382 55.5698 33.9825 54.3943 33.8691Z" fill="#FFD56F"/>
<path d="M77.7201 56.6682L87.5679 56.3692C88.0422 56.3588 88.4238 55.9567 88.4031 55.472C88.3928 54.9977 87.9907 54.6162 87.506 54.6368L77.6583 54.9358C77.483 54.9461 77.3386 55.0905 77.3489 55.2658L77.3798 56.3485C77.3902 56.5342 77.5448 56.6682 77.7201 56.6682Z" fill="#16877C"/>
<path d="M84.7941 55.3277C85.0004 55.3174 85.155 55.1524 85.155 54.9462L85.1344 54.41C85.1241 54.2038 84.9591 54.0491 84.7529 54.0491C84.5467 54.0594 84.392 54.2244 84.392 54.4306L84.4126 54.9668C84.4229 55.1731 84.5982 55.3277 84.7941 55.3277Z" fill="#CACACA"/>
<path d="M85.775 55.2967C85.9812 55.2864 86.1359 55.1214 86.1359 54.9152L86.1153 54.379C86.1049 54.1727 85.9399 54.0181 85.7337 54.0181C85.5275 54.0284 85.3728 54.1934 85.3728 54.3996L85.3934 54.9358C85.4037 55.1421 85.5687 55.2967 85.775 55.2967Z" fill="#CACACA"/>
<path d="M86.7541 55.2659C86.9603 55.2556 87.115 55.0906 87.115 54.8844L87.0944 54.3482C87.0841 54.142 86.9191 53.9873 86.7128 53.9873C86.5066 53.9976 86.3519 54.1626 86.3519 54.3688L86.3726 54.905C86.3829 55.1113 86.5479 55.2763 86.7541 55.2659Z" fill="#CACACA"/>
<g opacity="0.5">
<path opacity="0.5" d="M65.2534 23.8358C65.0266 24.7329 64.8719 25.7848 64.975 26.3003C65.0162 26.5272 65.1194 26.7231 65.2947 26.4653C65.4596 26.2178 65.6349 25.7435 65.7896 25.3826C66.1608 24.537 66.5218 23.5368 66.6867 22.4953C66.8105 21.7322 66.6971 21.4229 66.5011 21.3713C66.1815 21.2888 65.6246 22.3922 65.2534 23.8358Z" fill="#FFD56F"/>
</g>
<path d="M67.7394 139.792C80.4621 139.792 90.7759 129.478 90.7759 116.755C90.7759 104.032 80.4621 93.7185 67.7394 93.7185C55.0167 93.7185 44.7029 104.032 44.7029 116.755C44.7029 129.478 55.0167 139.792 67.7394 139.792Z" fill="#868686"/>
<path d="M64.1397 355.69L63.0157 344.491L53.4773 344.512C51.9511 350.018 46.3415 350.657 43.413 351.709C42.784 351.936 41.959 352.173 40.7732 352.431C37.0712 353.266 33.3899 354.514 31.8431 357.195C31.6782 357.494 31.575 357.773 31.5544 358.041C31.5029 358.268 31.4719 358.494 31.4719 358.732V358.969C31.4719 359.536 31.9772 359.99 32.5959 359.99H49.7341C50.2806 359.99 50.7137 359.587 50.7137 359.103V359.041L52.7658 358.701V359.154C52.7658 359.618 53.1473 360 53.6113 360H63.9644C64.3665 360 64.6965 359.67 64.6965 359.268V356.411C64.6965 356.061 64.4593 355.772 64.1397 355.69Z" fill="black"/>
<path d="M49.2603 346.43L42.6195 251.778C41.5264 236.238 41.4955 220.471 42.5164 204.921L48.6519 111.537L65.5013 112.641L59.3658 206.024C58.3965 220.822 58.4275 235.815 59.4689 250.592L66.1097 345.244L49.2603 346.43Z" fill="#868686"/>
<path d="M61.0365 55.7817C61.8821 55.9055 62.7483 56.0086 63.6145 56.0911C61.9852 73.9614 54.6948 92.1308 41.9597 107.908C41.7226 108.207 41.1864 108.413 40.5161 108.465C39.2065 108.557 37.8969 108.63 36.577 108.671C36.2676 108.681 35.9273 108.568 35.783 108.413C35.154 107.722 34.5249 107.031 33.9165 106.33C33.5969 105.969 33.5866 105.598 33.8753 105.32C48.8274 91.0274 58.0358 73.4458 61.0365 55.7817Z" fill="black"/>
<path d="M168.527 322.537L159.019 316.515L153.162 324.043C156.555 328.642 153.606 333.447 152.626 336.407C152.409 337.046 152.09 337.84 151.564 338.933C149.935 342.357 148.656 346.028 149.811 348.894C149.935 349.214 150.11 349.461 150.296 349.647C150.44 349.822 150.605 349.987 150.79 350.142L150.976 350.286C151.42 350.637 152.09 350.513 152.471 350.029L163.031 336.53C163.361 336.108 163.319 335.51 162.938 335.211L162.886 335.169L163.886 333.344L164.237 333.623C164.608 333.911 165.134 333.849 165.423 333.478L171.806 325.332C172.053 325.012 172.002 324.548 171.682 324.301L169.434 322.537C169.156 322.321 168.785 322.331 168.527 322.537Z" fill="black"/>
<path d="M150.564 326.27L111.513 264.863C97.479 242.796 87.5075 218.667 81.867 193.135L64.306 113.662L80.7843 110.022L98.3452 189.495C103.563 213.098 112.782 235.413 125.754 255.81L164.805 317.216L150.564 326.27Z" fill="#868686"/>
<path d="M45.1 119.543H90.7812L90.7813 116.233H45.1V119.543Z" fill="black"/>
<path d="M45.8573 120.241H49.6933C50.6008 120.241 51.3329 119.509 51.3329 118.601V117.436C51.3329 116.529 50.6008 115.796 49.6933 115.796H45.8573C44.9499 115.796 44.2178 116.529 44.2178 117.436V118.601C44.2178 119.498 44.9499 120.241 45.8573 120.241Z" fill="#CACACA"/>
<path d="M46.0734 119.828H49.4763C50.229 119.828 50.8477 119.21 50.8477 118.457V117.611C50.8477 116.858 50.229 116.24 49.4763 116.24H46.0734C45.3206 116.24 44.7019 116.858 44.7019 117.611V118.457C44.7019 119.21 45.3103 119.828 46.0734 119.828Z" fill="black"/>
<path d="M47.7005 118.312H44.6894C44.5141 118.312 44.3698 118.168 44.3698 117.993C44.3698 117.817 44.5141 117.673 44.6894 117.673H47.7005C47.8758 117.673 48.0201 117.817 48.0201 117.993C48.0098 118.178 47.8758 118.312 47.7005 118.312Z" fill="#CACACA"/>
<path d="M76.8761 120.022H77.8455V115.959H76.8761V120.022Z" fill="#868686"/>
<path d="M87.8995 120.022H88.8688V115.959H87.8995V120.022Z" fill="#868686"/>
<path d="M58.2082 120.022H59.1775V115.959H58.2082V120.022Z" fill="#868686"/>
<path d="M41.1652 112.692C41.3818 109.743 42.1036 106.897 43.176 104.175C43.8772 102.391 44.7434 100.659 45.7231 98.9777C48.2598 94.6364 51.673 90.8829 53.7559 86.2736C55.9833 81.3342 57.1073 75.9927 57.396 70.5997C57.7672 63.5877 60.2317 56.9056 66.625 53.2346L68.4812 52.2138C72.8224 49.8317 78.1742 50.2339 82.0618 53.3068C86.6918 56.9572 89.6616 62.5255 89.8987 68.7229C89.8987 68.7642 89.8987 68.8157 89.8987 68.857C89.9606 70.4347 89.7853 72.0124 89.3832 73.5385C87.063 82.4892 85.2172 90.1818 89.0429 102.35C91.0227 108.64 93.6729 111.455 94.3328 116.384C94.4359 117.157 93.8378 117.848 93.0541 117.848C93.0541 117.848 56.9423 117.848 46.0221 117.848C43.207 117.848 40.959 115.487 41.1652 112.692Z" fill="#01665F"/>
<path d="M63.3156 56.9574C64.058 56.4934 64.2849 55.5034 63.8208 54.761C63.3568 54.0186 62.3669 53.7917 61.6244 54.2557C60.882 54.7198 60.6551 55.7097 61.1191 56.4521C61.5832 57.1946 62.5731 57.4214 63.3156 56.9574Z" fill="black"/>
<g opacity="0.1">
<g opacity="0.1">
<path opacity="0.1" d="M60.3555 72.8374L64.0162 75.0132C64.2946 75.1782 64.6452 75.1782 64.9133 75.0029L68.3987 72.8374C69.1515 72.3734 69.6052 71.5484 69.6052 70.6616V63.5259H59.0872V70.6307C59.0975 71.5381 59.5821 72.3837 60.3555 72.8374Z" fill="#01665F"/>
<path opacity="0.1" d="M64.4593 75.3226C64.2737 75.3226 64.0881 75.271 63.9231 75.1782L60.2624 73.0024C59.4375 72.5075 58.9219 71.6104 58.9219 70.641V63.3506H69.8111V70.672C69.8111 71.631 69.3265 72.4972 68.5118 73.0024L65.0265 75.1679C64.8512 75.271 64.6552 75.3226 64.4593 75.3226ZM59.2828 63.7218V70.641C59.2828 71.4763 59.7262 72.26 60.448 72.6828L64.1087 74.8586C64.3253 74.9926 64.6037 74.9926 64.8202 74.8482L68.3056 72.6828C69.0068 72.2497 69.4296 71.4866 69.4296 70.6617V63.7218H59.2828Z" fill="#FFD217"/>
</g>
</g>
<path d="M78.3594 48.3572L78.3697 51.0589C78.3697 52.121 77.6994 53.0594 76.6992 53.3894L64.0363 56.0189C63.531 56.1838 62.9948 55.8848 62.8814 55.3589L62.4586 53.3997L77.3385 47.7488C77.7922 47.5013 78.3594 47.8313 78.3594 48.3572Z" fill="#16877C"/>
<path d="M56.3331 33.2812C56.7374 33.2812 57.0652 32.9534 57.0652 32.549C57.0652 32.1447 56.7374 31.8169 56.3331 31.8169C55.9287 31.8169 55.601 32.1447 55.601 32.549C55.601 32.9534 55.9287 33.2812 56.3331 33.2812Z" fill="black"/>
<path d="M57.0446 33.4772C57.3749 33.4772 57.6427 33.2094 57.6427 32.8791C57.6427 32.5488 57.3749 32.281 57.0446 32.281C56.7143 32.281 56.4465 32.5488 56.4465 32.8791C56.4465 33.2094 56.7143 33.4772 57.0446 33.4772Z" fill="black"/>
<path d="M55.3134 33.1263C55.8943 33.1263 56.3652 32.6554 56.3652 32.0745C56.3652 31.4936 55.8943 31.0227 55.3134 31.0227C54.7325 31.0227 54.2616 31.4936 54.2616 32.0745C54.2616 32.6554 54.7325 33.1263 55.3134 33.1263Z" fill="black"/>
<path d="M54.3017 32.8483C54.9908 32.8483 55.5494 32.2896 55.5494 31.6005C55.5494 30.9114 54.9908 30.3528 54.3017 30.3528C53.6126 30.3528 53.054 30.9114 53.054 31.6005C53.054 32.2896 53.6126 32.8483 54.3017 32.8483Z" fill="black"/>
<path d="M53.2825 32.3638C53.9716 32.3638 54.5302 31.8052 54.5302 31.1161C54.5302 30.427 53.9716 29.8684 53.2825 29.8684C52.5934 29.8684 52.0348 30.427 52.0348 31.1161C52.0348 31.8052 52.5934 32.3638 53.2825 32.3638Z" fill="black"/>
<path d="M51.177 17.824C51.6823 17.4528 52.2804 17.2569 52.8888 17.1538C53.4972 17.061 54.1365 17.0919 54.7552 17.2466C55.3739 17.3909 55.9617 17.69 56.436 18.1025C56.931 18.5046 57.2816 19.0511 57.4878 19.6286C56.931 19.3399 56.4773 19.0305 55.972 18.8346C55.4873 18.618 54.9924 18.4427 54.4871 18.319C53.4559 18.0509 52.3938 17.9581 51.177 17.824Z" fill="black"/>
<path d="M108.605 177.162C109.925 177.533 111.296 176.77 111.668 175.45L113.544 168.789L108.77 167.438L106.893 174.099C106.522 175.429 107.285 176.791 108.605 177.162Z" fill="#FFD56F"/>
<path d="M115.493 169.418L106.872 168.613C107.202 165.066 107.759 160.405 108.409 155.012C110.09 141.081 112.389 121.994 111.729 111.754C110.389 90.8829 105.687 81.1692 101.263 74.4047C98.4065 70.0325 91.4667 62.9483 77.2261 64.6085L76.2258 56.0084C90.0127 54.4101 101.778 59.3907 108.512 69.6715C117.494 83.3965 119.556 98.3692 120.381 111.208C121.092 122.241 118.834 140.988 117.019 156.053C116.37 161.374 115.813 165.973 115.493 169.418Z" fill="#01665F"/>
<path d="M0.33079 115.652C-0.349788 116.838 0.0523719 118.354 1.23823 119.034L7.22938 122.499L9.7042 118.209L3.71306 114.745C2.53751 114.054 1.02168 114.466 0.33079 115.652Z" fill="#FFD56F"/>
<path d="M34.328 134.069C24.6658 134.069 15.0037 130.47 5.47559 123.283L10.6933 116.363C22.1291 124.984 33.5752 127.428 44.7222 123.633C62.6957 117.508 74.8739 97.1527 76.9259 89.6973C79.7823 79.303 76.8744 66.5164 70.2852 60.5871L76.0804 54.1526C86.2891 63.3404 88.4442 80.5095 85.2785 91.9968C82.4221 102.381 68.4187 124.716 47.5167 131.841C43.1239 133.316 38.7208 134.069 34.328 134.069Z" fill="#01665F"/>
<path d="M61.3567 21.784C61.1299 21.289 61.1814 20.8147 61.3464 20.3094C61.4496 19.9794 61.4908 20.0516 61.4186 19.7113C61.3671 19.4535 61.2227 19.206 61.1608 18.9379C60.9443 17.8552 61.1814 16.7312 61.0371 15.6382C60.934 14.906 60.6452 14.1842 60.1503 13.6377C59.6553 13.0912 58.9335 12.7302 58.191 12.7406C56.6546 12.7509 54.386 15.3288 52.9217 14.2255C52.2617 13.7305 52.1689 12.5653 52.5608 11.895C52.6536 11.7403 52.7567 11.6063 52.8805 11.4928C52.9011 11.4103 52.932 11.3278 52.9836 11.2454C53.0764 11.0804 53.2104 10.9463 53.3651 10.8535C53.262 9.58515 54.1694 8.45086 55.4378 8.27556C55.6956 8.24462 55.9431 8.25493 56.1905 8.29618C56.1699 8.28587 56.1596 8.26524 56.1493 8.24462C56.5721 7.73934 57.1908 7.39905 57.9023 7.37843C58.5107 7.35781 59.0675 7.57436 59.5006 7.92496C59.8925 7.1722 60.6452 6.64629 61.5527 6.61536C61.9033 6.60505 62.2436 6.67723 62.5426 6.80097C62.8416 6.65661 63.1716 6.55349 63.5222 6.54318C64.4193 6.51224 65.2237 6.98658 65.6568 7.6981C66.0692 7.31656 66.6054 7.05877 67.2138 7.03814C68.2244 6.99689 69.1112 7.59498 69.5031 8.47148C69.7505 8.36836 70.0186 8.30649 70.3074 8.29618C71.4726 8.25493 72.4832 9.04894 72.741 10.1523C72.8956 10.1214 73.0503 10.0904 73.205 10.0904C74.5352 10.0389 75.6592 11.0804 75.7004 12.4209C75.7004 12.5137 75.6901 12.5962 75.6798 12.689C76.7832 12.8746 77.6391 13.8233 77.6803 14.9782C77.6906 15.1948 77.6597 15.4113 77.6081 15.6072C78.3609 15.9888 78.8971 16.7518 78.928 17.6593C78.928 17.7212 78.928 17.783 78.9177 17.8449C78.9899 17.8655 79.0621 17.8965 79.124 17.9377C79.6499 18.2367 79.8355 18.907 79.5364 19.4329C79.4849 19.5257 79.4127 19.6082 79.3405 19.6804C79.4642 19.9588 79.5467 20.2578 79.557 20.5878C79.5777 21.0931 79.4333 21.5674 79.1858 21.9593C79.5158 22.3615 79.7323 22.8564 79.753 23.4133C79.7839 24.2898 79.3405 25.0838 78.6496 25.5272C78.7321 25.7334 78.794 25.95 78.794 26.1871C78.8249 27.0842 78.2475 27.8473 77.4225 28.1051C77.4534 28.2289 77.4741 28.3629 77.4741 28.497C77.4947 29.0847 77.2369 29.6106 76.8347 29.9819C76.8863 30.0953 76.9172 30.219 76.9379 30.3428C77.0307 31.0543 76.5976 31.7142 75.9376 31.9205C75.9376 31.9411 75.9479 31.9514 75.9479 31.972C76.0304 32.5907 75.5973 33.1579 74.9786 33.2404C74.8033 33.261 74.6383 33.2404 74.4837 33.1888C74.3702 33.4982 74.0918 33.7457 73.7412 33.7869C73.2359 33.8488 72.7719 33.4982 72.71 32.9929C72.6791 32.797 72.7203 32.6114 72.8131 32.4464C72.1944 32.137 71.751 31.5183 71.7201 30.7759C71.6995 30.1469 71.9779 29.59 72.4213 29.2188C72.0501 29.0022 71.782 28.6207 71.7201 28.167C71.6685 27.7958 71.7717 27.4452 71.9676 27.1564C71.7613 27.1255 71.5551 27.0533 71.3592 26.9502C70.6167 26.5274 70.2971 25.6715 70.5136 24.8878C70.0599 24.5269 69.8124 23.9804 69.8227 23.4236C69.5959 23.2276 69.4412 22.9905 69.3278 22.7327C69.1628 22.6914 68.9978 22.6399 68.8431 22.5471C68.2553 22.2171 67.9357 21.6087 67.9357 20.9797C67.5541 21.0312 67.1623 20.9694 66.8014 20.7631C66.5333 20.6084 66.3373 20.4022 66.1827 20.165C66.162 20.2063 66.1517 20.2579 66.1208 20.2991C65.8321 20.8044 65.3268 21.1137 64.7906 21.1962C64.7699 21.454 64.6978 21.7118 64.5637 21.9593C64.2647 22.4749 63.7491 22.7945 63.2026 22.8564C63.1819 22.9183 63.151 22.9802 63.1201 23.042C62.821 23.5679 62.1508 23.7535 61.6248 23.4545C61.0989 23.1555 60.9133 22.4852 61.2124 21.9593C61.2743 21.8871 61.3155 21.8356 61.3567 21.784Z" fill="black"/>
<path d="M56.5918 7.97627L80.113 17.36L83.784 12.1319C84.5058 11.1007 84.083 9.6674 82.9075 9.20337L71.977 3.21223L60.17 0.139314C59.0048 -0.324717 57.7055 0.417732 57.5199 1.66546L56.5918 7.97627Z" fill="#01665F"/>
<path d="M55.6747 9.19392L79.9443 18.8751L81.1134 15.9444L56.8438 6.26318L55.6747 9.19392Z" fill="#868686"/>
<path d="M79.999 18.9377C80.6177 18.4737 72.1724 13.9468 64.3664 10.8327C56.5707 7.72884 51.0848 6.69767 51.2188 7.45043L79.999 18.9377Z" fill="#01665F"/>
<path d="M71.956 3.94426C72.3604 3.94426 72.6881 3.61647 72.6881 3.21212C72.6881 2.80777 72.3604 2.47998 71.956 2.47998C71.5517 2.47998 71.2239 2.80777 71.2239 3.21212C71.2239 3.61647 71.5517 3.94426 71.956 3.94426Z" fill="#01665F"/>
<path d="M98.653 181.101L97.4569 182.596C96.9928 183.184 97.0856 184.04 97.6734 184.514L98.0343 184.803L94.518 189.216C94.2705 189.526 94.3221 189.969 94.6314 190.217L94.8273 190.371C95.1676 190.65 95.6729 190.588 95.9513 190.248L95.8792 189.608L96.436 189.546L96.405 189.227L96.8072 189.186L96.9722 188.979L96.9 188.34L97.2712 188.299L97.2197 187.804L97.9931 187.721L98.0756 187.618L98.024 187.123L98.519 187.072L98.6221 186.948L98.5808 186.566L98.9624 186.525L99.4161 185.948L99.777 186.236C100.365 186.7 101.221 186.608 101.695 186.02L102.891 184.525C103.355 183.937 103.262 183.081 102.675 182.607L100.571 180.926C99.9729 180.421 99.117 180.513 98.653 181.101ZM101.241 183.462C100.973 183.803 100.468 183.865 100.128 183.586C99.7873 183.318 99.7254 182.813 100.004 182.473C100.282 182.132 100.777 182.07 101.118 182.349C101.458 182.627 101.509 183.122 101.241 183.462Z" fill="#868686"/>
<path d="M104.943 184.628C104.696 184.628 104.448 184.617 104.201 184.586C102.211 184.391 100.406 183.432 99.1377 181.885C96.5185 178.688 96.9825 173.955 100.179 171.336C103.376 168.717 108.109 169.181 110.728 172.377C113.347 175.574 112.883 180.307 109.687 182.926C108.336 184.04 106.676 184.628 104.943 184.628ZM104.923 170.408C103.376 170.408 101.881 170.934 100.674 171.934C97.8075 174.285 97.395 178.523 99.7461 181.39C100.88 182.782 102.499 183.638 104.283 183.813C106.067 183.988 107.82 183.462 109.202 182.318C110.594 181.184 111.45 179.565 111.625 177.781C111.801 175.997 111.275 174.244 110.13 172.862C108.996 171.47 107.377 170.614 105.593 170.439C105.366 170.418 105.139 170.408 104.923 170.408Z" fill="#FFB21E"/>
<path d="M103.468 182.514L100.911 181.679C100.199 181.442 99.4258 181.833 99.1989 182.545L98.6009 184.37C98.3637 185.082 98.7555 185.855 99.4774 186.082L99.9208 186.226L99.6939 186.927L99.8692 187.268L99.5289 187.443L99.4774 187.598L99.7042 188.041L99.2608 188.268L99.2196 188.402L99.5702 189.093L99.1164 189.32L99.2814 189.65L98.704 189.938L98.6215 190.196L98.8071 190.557L98.5287 190.701L98.7865 191.196L98.209 191.485C98.075 191.908 98.3018 192.351 98.7246 192.496L98.9618 192.568C99.333 192.692 99.7351 192.485 99.8589 192.114L101.612 186.752L102.055 186.896C102.767 187.134 103.54 186.742 103.767 186.02L104.365 184.195C104.571 183.524 104.18 182.751 103.468 182.514ZM101.942 182.865C102.354 182.999 102.581 183.442 102.447 183.865C102.313 184.277 101.87 184.504 101.447 184.37C101.034 184.236 100.808 183.793 100.942 183.37C101.076 182.957 101.519 182.73 101.942 182.865Z" fill="#CACACA"/>
<path d="M101.23 181.606L99.3948 179.647C98.8792 179.101 98.0234 179.07 97.4665 179.585L96.0641 180.895C95.5176 181.41 95.4867 182.266 96.0023 182.823L96.3219 183.163L95.7857 183.669L95.7754 184.06L95.3835 184.05L95.2598 184.164L95.2392 184.659L94.7442 184.638L94.6411 184.731L94.6205 185.504L94.1152 185.484L94.1049 185.855L93.4552 185.834L93.2593 186.02L93.249 186.422L92.9293 186.412L92.9087 186.968L92.2591 186.948C91.9394 187.247 91.9188 187.752 92.2178 188.072L92.3828 188.247C92.6509 188.536 93.1046 188.546 93.3934 188.278L97.5078 184.421L97.8274 184.762C98.343 185.308 99.1989 185.339 99.7557 184.824L101.158 183.514C101.715 183.019 101.746 182.163 101.23 181.606ZM99.7248 181.173C100.024 181.493 100.003 181.988 99.6836 182.287C99.3639 182.586 98.8689 182.565 98.5699 182.246C98.2708 181.926 98.2915 181.431 98.6111 181.132C98.9308 180.833 99.4258 180.854 99.7248 181.173Z" fill="#F2F2F2"/>
<path d="M97.4462 175.615L95.621 176.203C94.9095 176.43 94.5073 177.203 94.7445 177.915L94.8889 178.358L89.5268 180.091C89.1555 180.214 88.9493 180.617 89.0627 180.988L89.1349 181.225C89.269 181.648 89.7227 181.875 90.1352 181.741L90.4342 181.163L90.9292 181.421L91.0735 181.143L91.4344 181.328L91.6922 181.246L91.9913 180.668L92.3212 180.833L92.5481 180.39L93.239 180.74L93.3731 180.699L93.5999 180.256L94.0433 180.483L94.198 180.431L94.3733 180.091L94.7136 180.266L95.4148 180.039L95.5591 180.483C95.786 181.194 96.5594 181.596 97.2709 181.359L99.0961 180.771C99.8076 180.544 100.21 179.771 99.9726 179.06L99.1477 176.502C98.9311 175.78 98.1577 175.389 97.4462 175.615ZM98.3021 179.018C97.8896 179.152 97.4359 178.926 97.3018 178.513C97.1678 178.101 97.3946 177.647 97.8071 177.513C98.2196 177.379 98.6733 177.606 98.8074 178.018C98.9414 178.441 98.7146 178.884 98.3021 179.018Z" fill="#868686"/>
<path d="M97.5286 178.234C97.2605 176.347 97.7142 174.388 98.7866 172.852L99.426 173.295C98.467 174.666 98.0648 176.43 98.302 178.121L97.5286 178.234Z" fill="#FFB21E"/>
<path d="M72.7296 56.4521L81.0409 61.7317C81.4431 61.9895 81.9793 61.8658 82.2371 61.4636C82.4949 61.0614 82.3711 60.5252 81.969 60.2674L73.6577 54.9878C73.503 54.895 73.3071 54.9362 73.2143 55.0909L72.6368 56.0087C72.5337 56.153 72.5749 56.349 72.7296 56.4521Z" fill="#16877C"/>
<path d="M79.3297 59.3185C79.505 59.4319 79.7319 59.3804 79.835 59.2051L80.1237 58.7513C80.2371 58.576 80.1856 58.3492 80.0103 58.2461C79.835 58.1326 79.6081 58.1842 79.505 58.3595L79.2163 58.8132C79.1132 58.9782 79.1647 59.2051 79.3297 59.3185Z" fill="#CACACA"/>
<path d="M80.1637 59.8341C80.339 59.9476 80.5659 59.896 80.669 59.7207L80.9577 59.267C81.0711 59.0917 81.0196 58.8648 80.8443 58.7617C80.669 58.6483 80.4421 58.6998 80.339 58.8751L80.0503 59.3289C79.9368 59.5042 79.9884 59.731 80.1637 59.8341Z" fill="#CACACA"/>
<path d="M80.9882 60.3602C81.1635 60.4736 81.3903 60.422 81.4934 60.2467L81.7822 59.8033C81.8956 59.628 81.844 59.4012 81.6687 59.2981C81.4934 59.1846 81.2666 59.2362 81.1635 59.4115L80.8747 59.8652C80.7613 60.0302 80.8129 60.2571 80.9882 60.3602Z" fill="#CACACA"/>
<path d="M50.8691 29.2598C51.3331 30.0435 52.3849 30.291 53.2305 29.796C54.076 29.3011 54.3751 28.2699 53.911 27.4759C53.447 26.6922 53.0552 27.5687 52.2096 28.0636C51.364 28.5586 50.4153 28.4761 50.8691 29.2598Z" fill="#FFD56F"/>
<path d="M53.5398 20.9898C53.8303 20.9898 54.0657 20.7543 54.0657 20.4639C54.0657 20.1734 53.8303 19.938 53.5398 19.938C53.2494 19.938 53.0139 20.1734 53.0139 20.4639C53.0139 20.7543 53.2494 20.9898 53.5398 20.9898Z" fill="black"/>
</svg>
