<svg width="106" height="105" viewBox="0 0 106 105" fill="none" xmlns="http://www.w3.org/2000/svg">
<g filter="url(#filter0_dd)">
<rect x="9" y="3" width="88" height="88" rx="4.125" fill="#FFF0B3"/>
<rect x="9.34375" y="3.34375" width="87.3125" height="87.3125" rx="3.78125" stroke="#FFAB00" stroke-width="0.6875"/>
</g>
<path d="M78.7531 27.4653C78.7261 26.9322 78.2861 26.5095 77.7473 26.5095H28.199C27.6602 26.5095 27.2202 26.9322 27.1932 27.4653C27.1919 27.4826 27.1919 27.4996 27.1919 27.5169V65.785C27.1919 66.3414 27.6432 66.7927 28.199 66.7927H77.7473C78.3031 66.7927 78.7544 66.3414 78.7544 65.785V27.5169C78.7544 27.4996 78.7544 27.4826 78.7531 27.4653ZM29.2061 28.512H76.7402V33.1581H29.2061V28.512ZM76.7402 64.7776H29.2061V35.1729H76.7402V64.7776Z" fill="black"/>
<path d="M44.413 31.9117H36.3563C35.7999 31.9117 35.3492 31.4607 35.3492 30.9046C35.3492 30.3479 35.7999 29.8972 36.3563 29.8972H44.413C44.9694 29.8972 45.42 30.3479 45.42 30.9046C45.42 31.4607 44.9694 31.9117 44.413 31.9117Z" fill="black"/>
<path d="M32.3299 31.9117C31.7738 31.9117 31.3225 31.4607 31.3225 30.9046C31.3225 30.3479 31.7728 29.8972 32.3293 29.8972H32.3299C32.8863 29.8972 33.337 30.3479 33.337 30.9046C33.337 31.4607 32.8863 31.9117 32.3299 31.9117Z" fill="black"/>
<path d="M42.6663 52.7021H34.2068C33.6504 52.7021 33.1998 52.2514 33.1998 51.6947C33.1998 51.1382 33.6504 50.6873 34.2068 50.6873H42.6663C43.2227 50.6873 43.6734 51.1382 43.6734 51.6947C43.6734 52.2514 43.2227 52.7021 42.6663 52.7021Z" fill="black"/>
<path d="M42.6663 56.7502H34.2068C33.6504 56.7502 33.1998 56.2989 33.1998 55.7428C33.1998 55.1864 33.6504 54.7351 34.2068 54.7351H42.6663C43.2227 54.7351 43.6734 55.1864 43.6734 55.7428C43.6734 56.2989 43.2227 56.7502 42.6663 56.7502Z" fill="black"/>
<path d="M42.6663 60.7982H34.2068C33.6504 60.7982 33.1998 60.3475 33.1998 59.7911C33.1998 59.2347 33.6504 58.7837 34.2068 58.7837H42.6663C43.2227 58.7837 43.6734 59.2347 43.6734 59.7911C43.6734 60.3475 43.2227 60.7982 42.6663 60.7982Z" fill="black"/>
<path d="M38.4366 48.8282C35.771 48.8282 33.6026 46.6595 33.6026 43.9933C33.6026 41.3267 35.771 39.1577 38.4366 39.1577C41.1022 39.1577 43.2705 41.3267 43.2705 43.9933C43.2705 46.6595 41.1022 48.8282 38.4366 48.8282ZM38.4366 41.1725C36.8819 41.1725 35.6167 42.4376 35.6167 43.9933C35.6167 45.5483 36.8819 46.8137 38.4366 46.8137C39.9912 46.8137 41.2564 45.5483 41.2564 43.9933C41.2564 42.4376 39.9916 41.1725 38.4366 41.1725Z" fill="black"/>
<path d="M57.2029 52.7021H48.7434C48.187 52.7021 47.7363 52.2514 47.7363 51.6947C47.7363 51.1382 48.187 50.6873 48.7434 50.6873H57.2029C57.7593 50.6873 58.21 51.1382 58.21 51.6947C58.21 52.2514 57.7593 52.7021 57.2029 52.7021Z" fill="black"/>
<path d="M57.2029 56.7502H48.7434C48.187 56.7502 47.7363 56.2989 47.7363 55.7428C47.7363 55.1864 48.187 54.7351 48.7434 54.7351H57.2029C57.7593 54.7351 58.21 55.1864 58.21 55.7428C58.21 56.2989 57.7593 56.7502 57.2029 56.7502Z" fill="black"/>
<path d="M57.2029 60.7982H48.7434C48.187 60.7982 47.7363 60.3475 47.7363 59.7911C47.7363 59.2347 48.187 58.7837 48.7434 58.7837H57.2029C57.7593 58.7837 58.21 59.2347 58.21 59.7911C58.21 60.3475 57.7593 60.7982 57.2029 60.7982Z" fill="black"/>
<path d="M52.9731 48.8282C50.3075 48.8282 48.1392 46.6595 48.1392 43.9933C48.1392 41.3267 50.3075 39.1577 52.9731 39.1577C55.6388 39.1577 57.8071 41.3267 57.8071 43.9933C57.8071 46.6595 55.6388 48.8282 52.9731 48.8282ZM52.9731 41.1725C51.4185 41.1725 50.1533 42.4376 50.1533 43.9933C50.1533 45.5483 51.4185 46.8137 52.9731 46.8137C54.5278 46.8137 55.793 45.5483 55.793 43.9933C55.793 42.4376 54.5278 41.1725 52.9731 41.1725Z" fill="black"/>
<path d="M71.7483 52.7021H63.2888C62.7324 52.7021 62.2817 52.2514 62.2817 51.6947C62.2817 51.1382 62.7324 50.6873 63.2888 50.6873H71.7483C72.3044 50.6873 72.7553 51.1382 72.7553 51.6947C72.7553 52.2514 72.3044 52.7021 71.7483 52.7021Z" fill="black"/>
<path d="M71.7483 56.7502H63.2888C62.7324 56.7502 62.2817 56.2989 62.2817 55.7428C62.2817 55.1864 62.7324 54.7351 63.2888 54.7351H71.7483C72.3044 54.7351 72.7553 55.1864 72.7553 55.7428C72.7553 56.2989 72.3044 56.7502 71.7483 56.7502Z" fill="black"/>
<path d="M71.7483 60.7982H63.2888C62.7324 60.7982 62.2817 60.3475 62.2817 59.7911C62.2817 59.2347 62.7324 58.7837 63.2888 58.7837H71.7483C72.3044 58.7837 72.7553 59.2347 72.7553 59.7911C72.7553 60.3475 72.3044 60.7982 71.7483 60.7982Z" fill="black"/>
<path d="M67.5185 48.8282C64.8529 48.8282 62.6846 46.6595 62.6846 43.9933C62.6846 41.3267 64.8529 39.1577 67.5185 39.1577C70.1841 39.1577 72.3525 41.3267 72.3525 43.9933C72.3525 46.6595 70.1841 48.8282 67.5185 48.8282ZM67.5185 41.1725C65.9639 41.1725 64.6987 42.4376 64.6987 43.9933C64.6987 45.5483 65.9639 46.8137 67.5185 46.8137C69.0732 46.8137 70.3383 45.5483 70.3383 43.9933C70.3383 42.4376 69.0732 41.1725 67.5185 41.1725Z" fill="black"/>
<defs>
<filter id="filter0_dd" x="0.75" y="0.25" width="104.5" height="104.5" filterUnits="userSpaceOnUse" color-interpolation-filters="sRGB">
<feFlood flood-opacity="0" result="BackgroundImageFix"/>
<feColorMatrix in="SourceAlpha" type="matrix" values="0 0 0 0 0 0 0 0 0 0 0 0 0 0 0 0 0 0 127 0"/>
<feOffset/>
<feGaussianBlur stdDeviation="0.34375"/>
<feColorMatrix type="matrix" values="0 0 0 0 0.0352941 0 0 0 0 0.117647 0 0 0 0 0.258824 0 0 0 0.31 0"/>
<feBlend mode="normal" in2="BackgroundImageFix" result="effect1_dropShadow"/>
<feColorMatrix in="SourceAlpha" type="matrix" values="0 0 0 0 0 0 0 0 0 0 0 0 0 0 0 0 0 0 127 0"/>
<feOffset dy="5.5"/>
<feGaussianBlur stdDeviation="4.125"/>
<feColorMatrix type="matrix" values="0 0 0 0 0.0352941 0 0 0 0 0.117647 0 0 0 0 0.258824 0 0 0 0.15 0"/>
<feBlend mode="normal" in2="effect1_dropShadow" result="effect2_dropShadow"/>
<feBlend mode="normal" in="SourceGraphic" in2="effect2_dropShadow" result="shape"/>
</filter>
</defs>
</svg>
