<svg width="112" height="112" viewBox="0 0 112 112" fill="none" xmlns="http://www.w3.org/2000/svg">
<path d="M108.443 16.22C108.388 15.1344 107.492 14.2737 106.395 14.2737H5.49609C4.39893 14.2737 3.50299 15.1344 3.44788 16.22C3.44531 16.2552 3.44531 16.2899 3.44531 16.3251V94.2529C3.44531 95.3859 4.36432 96.305 5.49609 96.305H106.395C107.526 96.305 108.445 95.3859 108.445 94.2529V16.3251C108.445 16.2899 108.445 16.2552 108.443 16.22ZM7.54688 18.3515H104.344V27.8127H7.54688V18.3515ZM104.344 92.2015H7.54688V31.9155H104.344V92.2015Z" fill="black"/>
<path d="M38.5137 25.2748H22.1074C20.9744 25.2748 20.0566 24.3564 20.0566 23.224C20.0566 22.0903 20.9744 21.1726 22.1074 21.1726H38.5137C39.6467 21.1726 40.5644 22.0903 40.5644 23.224C40.5644 24.3564 39.6467 25.2748 38.5137 25.2748Z" fill="black"/>
<path d="M13.9081 25.2748C12.7757 25.2748 11.8567 24.3564 11.8567 23.224C11.8567 22.0903 12.7738 21.1726 13.9069 21.1726H13.9081C15.0412 21.1726 15.9589 22.0903 15.9589 23.224C15.9589 24.3564 15.0412 25.2748 13.9081 25.2748Z" fill="black"/>
<path d="M34.9569 67.6112H17.7303C16.5972 67.6112 15.6795 66.6934 15.6795 65.5597C15.6795 64.4267 16.5972 63.5083 17.7303 63.5083H34.9569C36.0899 63.5083 37.0076 64.4267 37.0076 65.5597C37.0076 66.6934 36.0899 67.6112 34.9569 67.6112Z" fill="black"/>
<path d="M34.9569 75.8555H17.7303C16.5972 75.8555 15.6795 74.9364 15.6795 73.804C15.6795 72.671 16.5972 71.752 17.7303 71.752H34.9569C36.0899 71.752 37.0076 72.671 37.0076 73.804C37.0076 74.9364 36.0899 75.8555 34.9569 75.8555Z" fill="black"/>
<path d="M34.9569 84.0983H17.7303C16.5972 84.0983 15.6795 83.1806 15.6795 82.0475C15.6795 80.9145 16.5972 79.9961 17.7303 79.9961H34.9569C36.0899 79.9961 37.0076 80.9145 37.0076 82.0475C37.0076 83.1806 36.0899 84.0983 34.9569 84.0983Z" fill="black"/>
<path d="M26.3436 59.7229C20.9154 59.7229 16.4998 55.3067 16.4998 49.8772C16.4998 44.4471 20.9154 40.0303 26.3436 40.0303C31.7717 40.0303 36.1873 44.4471 36.1873 49.8772C36.1873 55.3067 31.7717 59.7229 26.3436 59.7229ZM26.3436 44.1331C23.1777 44.1331 20.6014 46.7094 20.6014 49.8772C20.6014 53.0438 23.1777 55.6207 26.3436 55.6207C29.5094 55.6207 32.0857 53.0438 32.0857 49.8772C32.0857 46.7094 29.5101 44.1331 26.3436 44.1331Z" fill="black"/>
<path d="M64.5586 67.6112H47.332C46.199 67.6112 45.2812 66.6934 45.2812 65.5597C45.2812 64.4267 46.199 63.5083 47.332 63.5083H64.5586C65.6916 63.5083 66.6094 64.4267 66.6094 65.5597C66.6094 66.6934 65.6916 67.6112 64.5586 67.6112Z" fill="black"/>
<path d="M64.5586 75.8555H47.332C46.199 75.8555 45.2812 74.9364 45.2812 73.804C45.2812 72.671 46.199 71.752 47.332 71.752H64.5586C65.6916 71.752 66.6094 72.671 66.6094 73.804C66.6094 74.9364 65.6916 75.8555 64.5586 75.8555Z" fill="black"/>
<path d="M64.5586 84.0983H47.332C46.199 84.0983 45.2812 83.1806 45.2812 82.0475C45.2812 80.9145 46.199 79.9961 47.332 79.9961H64.5586C65.6916 79.9961 66.6094 80.9145 66.6094 82.0475C66.6094 83.1806 65.6916 84.0983 64.5586 84.0983Z" fill="black"/>
<path d="M55.9453 59.7229C50.5171 59.7229 46.1016 55.3067 46.1016 49.8772C46.1016 44.4471 50.5171 40.0303 55.9453 40.0303C61.3735 40.0303 65.7891 44.4471 65.7891 49.8772C65.7891 55.3067 61.3735 59.7229 55.9453 59.7229ZM55.9453 44.1331C52.7794 44.1331 50.2031 46.7094 50.2031 49.8772C50.2031 53.0438 52.7794 55.6207 55.9453 55.6207C59.1112 55.6207 61.6875 53.0438 61.6875 49.8772C61.6875 46.7094 59.1112 44.1331 55.9453 44.1331Z" fill="black"/>
<path d="M94.1783 67.6112H76.9517C75.8187 67.6112 74.901 66.6934 74.901 65.5597C74.901 64.4267 75.8187 63.5083 76.9517 63.5083H94.1783C95.3107 63.5083 96.229 64.4267 96.229 65.5597C96.229 66.6934 95.3107 67.6112 94.1783 67.6112Z" fill="black"/>
<path d="M94.1783 75.8555H76.9517C75.8187 75.8555 74.901 74.9364 74.901 73.804C74.901 72.671 75.8187 71.752 76.9517 71.752H94.1783C95.3107 71.752 96.229 72.671 96.229 73.804C96.229 74.9364 95.3107 75.8555 94.1783 75.8555Z" fill="black"/>
<path d="M94.1783 84.0983H76.9517C75.8187 84.0983 74.901 83.1806 74.901 82.0475C74.901 80.9145 75.8187 79.9961 76.9517 79.9961H94.1783C95.3107 79.9961 96.229 80.9145 96.229 82.0475C96.229 83.1806 95.3107 84.0983 94.1783 84.0983Z" fill="black"/>
<path d="M85.565 59.7229C80.1369 59.7229 75.7213 55.3067 75.7213 49.8772C75.7213 44.4471 80.1369 40.0303 85.565 40.0303C90.9932 40.0303 95.4087 44.4471 95.4087 49.8772C95.4087 55.3067 90.9932 59.7229 85.565 59.7229ZM85.565 44.1331C82.3991 44.1331 79.8228 46.7094 79.8228 49.8772C79.8228 53.0438 82.3991 55.6207 85.565 55.6207C88.7309 55.6207 91.3072 53.0438 91.3072 49.8772C91.3072 46.7094 88.7309 44.1331 85.565 44.1331Z" fill="black"/>
</svg>
