<svg width="359" height="244" viewBox="0 0 359 244" fill="none" xmlns="http://www.w3.org/2000/svg">
<path d="M359 0H0V244H359V0Z" fill="url(#paint0_linear)"/>
<path opacity="0.5" d="M187.046 37.8924C193.332 37.8924 198.429 32.796 198.429 26.5092C198.429 20.2225 193.332 15.1261 187.046 15.1261C180.759 15.1261 175.663 20.2225 175.663 26.5092C175.663 32.796 180.759 37.8924 187.046 37.8924Z" fill="#FFF200"/>
<path opacity="0.4" d="M100.469 20.493C100.469 23.9167 98.0125 26.7681 94.766 27.3774C93.7737 30.0404 91.208 31.9335 88.2018 31.9335C85.1387 31.9335 82.5355 29.9684 81.5865 27.2285C78.6549 26.3904 76.5096 23.6933 76.5096 20.493C76.5096 16.623 79.6472 13.4855 83.5172 13.4855C85.4619 13.4855 87.2207 14.2778 88.4909 15.5592C89.7582 14.2778 91.517 13.4855 93.4617 13.4855C97.3317 13.4855 100.469 16.623 100.469 20.493Z" fill="white"/>
<path opacity="0.4" d="M152.205 33.5294C152.268 29.3601 155.313 25.932 159.278 25.2497C160.535 22.0251 163.695 19.766 167.356 19.8214C171.086 19.8779 174.22 22.319 175.326 25.6731C178.881 26.7477 181.444 30.0721 181.385 33.9698C181.314 38.6832 177.436 42.4466 172.722 42.3755C170.354 42.3395 168.225 41.3423 166.703 39.7587C165.136 41.2961 162.979 42.2285 160.61 42.1925C155.898 42.1215 152.134 38.2427 152.205 33.5294Z" fill="white"/>
<path opacity="0.4" d="M170.919 39.914C170.982 35.7447 174.027 32.3167 177.991 31.6344C179.249 28.4097 182.408 26.1506 186.07 26.2061C189.8 26.2625 192.934 28.7037 194.04 32.0578C197.595 33.1323 200.158 36.4567 200.1 40.3545C200.029 45.0678 196.149 48.8312 191.436 48.7602C189.068 48.7241 186.94 47.727 185.417 46.1434C183.85 47.6807 181.693 48.6132 179.324 48.5772C174.611 48.5061 170.848 44.6279 170.919 39.914Z" fill="white"/>
<path opacity="0.4" d="M253.518 16.2235C253.564 13.1667 255.797 10.6541 258.703 10.1533C259.625 7.78906 261.941 6.13294 264.625 6.17333C267.36 6.2147 269.658 8.00466 270.469 10.4633C273.075 11.2512 274.954 13.6884 274.911 16.5461C274.859 20.0015 272.015 22.7609 268.56 22.7088C266.824 22.6825 265.263 21.9511 264.147 20.7904C262.998 21.9175 261.417 22.6013 259.68 22.575C256.225 22.5229 253.466 19.6793 253.518 16.2235Z" fill="white"/>
<path opacity="0.4" d="M46.7242 44.9685C46.7514 43.181 48.0567 41.7117 49.7561 41.4192C50.2953 40.0371 51.6492 39.0686 53.2187 39.0925C54.8179 39.1163 56.1616 40.1631 56.6356 41.6008C58.1594 42.0616 59.2583 43.4866 59.233 45.1578C59.2023 47.178 57.5399 48.7913 55.5197 48.7611C54.5045 48.7455 53.592 48.3182 52.9394 47.6393C52.2678 48.2983 51.3431 48.6983 50.3275 48.6827C48.3073 48.6521 46.694 46.9891 46.7242 44.9685Z" fill="white"/>
<path opacity="0.4" d="M291.113 43.3596C291.139 41.5721 292.445 40.1028 294.144 39.8103C294.683 38.4282 296.037 37.4597 297.607 37.4836C299.206 37.5074 300.55 38.5543 301.024 39.9919C302.548 40.4527 303.647 41.8777 303.621 43.5489C303.591 45.5691 301.928 47.1824 299.908 47.1522C298.892 47.1366 297.98 46.7093 297.327 46.0304C296.655 46.6894 295.731 47.0894 294.715 47.0738C292.695 47.0432 291.082 45.3802 291.113 43.3596Z" fill="white"/>
<path d="M97.483 20.5198C97.8086 20.5154 98.1352 20.5426 98.4578 20.5923C98.7819 20.6371 99.1041 20.7023 99.4224 20.787C99.582 20.8273 99.7378 20.8814 99.893 20.9373C100.05 20.9889 100.205 21.0478 100.355 21.1184C100.507 21.1865 100.662 21.2454 100.806 21.331C100.951 21.4133 101.102 21.4853 101.242 21.5773L101.657 21.8635C101.789 21.9676 101.91 22.0868 102.037 22.1988C102.169 22.3058 102.273 22.4411 102.384 22.5696C102.492 22.7005 102.612 22.8237 102.694 22.9735L102.961 23.4101L103.162 23.8802C103.237 24.035 103.284 24.198 103.321 24.364L103.443 24.8589L102.965 24.8594L103.082 24.3912L103.141 24.1576L103.233 23.9342C103.297 23.7863 103.352 23.6344 103.424 23.4909L103.674 23.0782C103.75 22.9356 103.868 22.8227 103.964 22.6952C104.064 22.5696 104.165 22.446 104.285 22.3404C104.402 22.2328 104.51 22.1136 104.637 22.0182L105.017 21.7345C105.147 21.6459 105.284 21.5685 105.417 21.4853C105.549 21.3987 105.693 21.3364 105.831 21.2639C106.109 21.1218 106.398 21.0021 106.692 20.9028C106.986 20.8035 107.285 20.7213 107.586 20.657C107.887 20.5879 108.192 20.5402 108.498 20.5193C107.903 20.6667 107.325 20.8624 106.777 21.1184C106.502 21.243 106.23 21.3724 105.974 21.5296C105.847 21.6084 105.714 21.6766 105.595 21.7681C105.475 21.8557 105.35 21.9374 105.234 22.0294C105.005 22.2197 104.785 22.4149 104.588 22.6329C104.481 22.7336 104.393 22.8499 104.307 22.9677C104.223 23.0874 104.119 23.1921 104.056 23.3244L103.841 23.7021C103.778 23.832 103.731 23.9698 103.675 24.1031L103.594 24.3046L103.544 24.5168L103.443 24.9397L103.208 25.9232L102.965 24.9407L102.854 24.4915C102.823 24.3396 102.783 24.1907 102.717 24.052L102.542 23.6252L102.306 23.2295C102.237 23.0903 102.132 22.9765 102.038 22.8543C101.942 22.7336 101.853 22.6066 101.735 22.5049C101.622 22.3988 101.516 22.2844 101.397 22.1837L101.03 21.8922C100.905 21.7973 100.767 21.7199 100.636 21.6323C100.507 21.5413 100.362 21.4756 100.222 21.4002C100.084 21.3228 99.9397 21.2561 99.7923 21.1958C99.6468 21.1315 99.4998 21.0682 99.3479 21.0186C98.7513 20.786 98.124 20.6244 97.483 20.5198Z" fill="black"/>
<path d="M224.451 6.17285C224.776 6.16847 225.103 6.19572 225.426 6.24536C225.75 6.29014 226.072 6.35535 226.39 6.44003C226.55 6.48042 226.705 6.53444 226.861 6.59041C227.018 6.642 227.173 6.70088 227.323 6.77145C227.475 6.83958 227.63 6.89847 227.774 6.98412C227.918 7.06637 228.07 7.1384 228.21 7.23038L228.625 7.51654C228.757 7.62068 228.878 7.73992 229.005 7.85185C229.137 7.95892 229.24 8.09421 229.352 8.22269C229.46 8.3536 229.58 8.47673 229.663 8.62662L229.93 9.06316L230.13 9.53328C230.205 9.68804 230.252 9.85108 230.288 10.017L230.411 10.512L229.934 10.5125L230.05 10.0443L230.109 9.81068L230.2 9.5873C230.264 9.43936 230.319 9.28752 230.392 9.14395L230.642 8.73126C230.718 8.58866 230.836 8.47576 230.932 8.34825C231.032 8.22269 231.133 8.09908 231.253 7.99347C231.37 7.88592 231.477 7.76668 231.605 7.6713L231.985 7.38757C232.115 7.299 232.252 7.22162 232.385 7.1384C232.516 7.05177 232.661 6.98948 232.8 6.91696C233.077 6.77486 233.366 6.65514 233.66 6.55586C233.954 6.45658 234.253 6.37433 234.555 6.31009C234.855 6.24098 235.16 6.19329 235.467 6.17236C234.871 6.31982 234.293 6.51546 233.745 6.77145C233.471 6.89604 233.198 7.02549 232.943 7.18268C232.815 7.26152 232.682 7.32966 232.564 7.42115C232.443 7.50875 232.318 7.59051 232.203 7.68249C231.974 7.87278 231.754 8.06793 231.557 8.28596C231.45 8.3867 231.362 8.50301 231.275 8.62078C231.192 8.7405 231.088 8.84514 231.025 8.97751L230.81 9.35516C230.746 9.4851 230.7 9.62283 230.644 9.75618L230.563 9.95766L230.513 10.1698L230.412 10.5928L230.177 11.5763L229.935 10.5937L229.823 10.1445C229.792 9.9927 229.752 9.84378 229.686 9.70508L229.511 9.27827L229.275 8.88261C229.206 8.74342 229.101 8.62954 229.007 8.50739C228.911 8.3867 228.822 8.25968 228.703 8.15796C228.591 8.05187 228.484 7.9375 228.366 7.83676L227.999 7.54525C227.874 7.45035 227.736 7.37297 227.605 7.28537C227.476 7.19436 227.331 7.12866 227.191 7.05323C227.053 6.97585 226.909 6.90918 226.761 6.84883C226.615 6.78459 226.469 6.72132 226.317 6.67168C225.719 6.43906 225.091 6.27748 224.451 6.17285Z" fill="black"/>
<path d="M281.937 36.902C282.262 36.8976 282.589 36.9249 282.912 36.9745C283.236 37.0193 283.558 37.0845 283.876 37.1692C284.036 37.2096 284.191 37.2636 284.347 37.3195C284.504 37.3711 284.659 37.43 284.809 37.5006C284.961 37.5687 285.116 37.6276 285.26 37.7132C285.405 37.7955 285.556 37.8675 285.696 37.9595L286.111 38.2457C286.243 38.3498 286.364 38.469 286.491 38.581C286.623 38.688 286.726 38.8233 286.838 38.9518C286.946 39.0827 287.066 39.2059 287.149 39.3557L287.416 39.7923L287.616 40.2624C287.691 40.4172 287.738 40.5802 287.775 40.7462L287.897 41.2411L287.42 41.2416L287.536 40.7734L287.595 40.5398L287.686 40.3164C287.75 40.1685 287.805 40.0166 287.878 39.8731L288.128 39.4604C288.204 39.3178 288.322 39.2049 288.418 39.0774C288.518 38.9518 288.619 38.8282 288.739 38.7226C288.856 38.615 288.963 38.4958 289.091 38.4004L289.471 38.1167C289.602 38.0281 289.738 37.9507 289.871 37.8675C290.003 37.7809 290.147 37.7186 290.286 37.6461C290.563 37.504 290.852 37.3843 291.146 37.285C291.44 37.1857 291.739 37.1035 292.041 37.0392C292.341 36.9701 292.646 36.9224 292.953 36.9015C292.357 37.0489 291.779 37.2446 291.231 37.5006C290.957 37.6252 290.684 37.7546 290.429 37.9118C290.301 37.9907 290.168 38.0588 290.05 38.1503C289.93 38.2379 289.804 38.3196 289.689 38.4116C289.46 38.6019 289.24 38.7971 289.043 39.0151C288.936 39.1158 288.848 39.2321 288.762 39.3499C288.678 39.4696 288.574 39.5743 288.511 39.7066L288.296 40.0843C288.233 40.2142 288.186 40.352 288.13 40.4853L288.049 40.6868L287.999 40.899L287.898 41.3219L287.663 42.3054L287.421 41.3229L287.309 40.8737C287.278 40.7218 287.238 40.5729 287.172 40.4342L286.997 40.0074L286.761 39.6117C286.692 39.4725 286.587 39.3587 286.493 39.2365C286.397 39.1158 286.308 38.9888 286.189 38.8871C286.077 38.781 285.97 38.6666 285.852 38.5659L285.485 38.2744C285.36 38.1795 285.222 38.1021 285.091 38.0145C284.962 37.9235 284.817 37.8578 284.677 37.7824C284.539 37.705 284.395 37.6383 284.247 37.578C284.101 37.5137 283.955 37.4504 283.803 37.4008C283.205 37.1682 282.577 37.0066 281.937 36.902Z" fill="black"/>
<path d="M53.6509 45.7491C53.9035 45.7457 54.156 45.7667 54.4062 45.8056C54.6573 45.8401 54.907 45.8908 55.1537 45.9565C55.3985 46.0265 55.6428 46.1068 55.8764 46.2129C56.1149 46.3093 56.3407 46.4368 56.5636 46.5682L56.8853 46.7901C56.9875 46.8709 57.0809 46.9634 57.1792 47.05C57.2814 47.1332 57.3617 47.2379 57.4479 47.3376C57.532 47.4388 57.6245 47.5342 57.6888 47.6505L57.8961 47.9888L58.0513 48.3533C58.1657 48.5932 58.1978 48.8585 58.2689 49.1115L57.899 49.112L57.9895 48.749C58.0143 48.6268 58.0528 48.5085 58.1063 48.3947C58.156 48.2803 58.1983 48.162 58.2543 48.0511L58.448 47.7313C58.5068 47.6209 58.5978 47.5333 58.6723 47.435C58.7497 47.3376 58.828 47.2422 58.9215 47.1605C59.0918 46.9804 59.2904 46.8349 59.4884 46.6913C59.6938 46.5599 59.9002 46.43 60.1197 46.3268C60.3348 46.2168 60.5586 46.1239 60.7859 46.047C61.0137 45.9701 61.2453 45.9068 61.4789 45.8567C61.7115 45.8032 61.9481 45.7657 62.1856 45.7501C61.7247 45.864 61.2765 46.0158 60.8521 46.2144C60.6394 46.3108 60.4282 46.4115 60.2301 46.5327C60.0272 46.6456 59.8408 46.7833 59.6563 46.9201C59.4797 47.0675 59.3089 47.2189 59.1561 47.3873C59.0728 47.4651 59.0042 47.5556 58.938 47.6467C58.8738 47.7391 58.7925 47.8204 58.7443 47.9231L58.5774 48.2156C58.5287 48.3163 58.4927 48.4234 58.4489 48.5265C58.4012 48.6283 58.3681 48.7353 58.3477 48.8468L58.2693 49.1743L58.1087 49.8459L57.899 49.1753C57.8279 48.9475 57.8099 48.7017 57.7063 48.4862L57.571 48.1552L57.388 47.8491C57.3349 47.7416 57.2532 47.653 57.1807 47.5586C57.1062 47.4651 57.0371 47.3663 56.9456 47.2875C56.7797 47.1128 56.5923 46.9614 56.3996 46.813C56.1996 46.6758 55.9956 46.539 55.7742 46.4319C55.5586 46.3146 55.3289 46.2207 55.0963 46.1365C54.6339 45.9555 54.1478 45.8304 53.6509 45.7491Z" fill="black"/>
<path d="M166.093 42.2295C166.346 42.2261 166.598 42.247 166.849 42.2859C167.1 42.3205 167.349 42.3711 167.596 42.4368C167.841 42.5069 168.085 42.5872 168.319 42.6933C168.557 42.7896 168.783 42.9171 169.006 43.0485L169.328 43.2705C169.43 43.3513 169.523 43.4437 169.622 43.5303C169.724 43.6136 169.804 43.7182 169.89 43.818C169.974 43.9192 170.067 44.0146 170.131 44.1309L170.338 44.4691L170.494 44.8336C170.608 45.0736 170.64 45.3388 170.711 45.5919L170.341 45.5924L170.432 45.2293C170.457 45.1071 170.495 44.9889 170.549 44.875C170.598 44.7606 170.641 44.6424 170.697 44.5314L170.89 44.2117C170.949 44.1012 171.04 44.0136 171.115 43.9153C171.192 43.818 171.27 43.7226 171.364 43.6408C171.534 43.4607 171.733 43.3152 171.931 43.1717C172.136 43.0403 172.343 42.9103 172.562 42.8072C172.777 42.6972 173.001 42.6042 173.228 42.5273C173.456 42.4504 173.688 42.3872 173.921 42.337C174.154 42.2835 174.39 42.246 174.628 42.2305C174.167 42.3443 173.719 42.4962 173.294 42.6947C173.082 42.7911 172.871 42.8918 172.673 43.013C172.47 43.1259 172.283 43.2637 172.099 43.4004C171.922 43.5479 171.751 43.6992 171.598 43.8676C171.515 43.9455 171.447 44.036 171.38 44.127C171.316 44.2195 171.235 44.3007 171.187 44.4034L171.02 44.6959C170.971 44.7967 170.935 44.9037 170.891 45.0069C170.844 45.1086 170.811 45.2157 170.79 45.3271L170.712 45.6546L170.551 46.3262L170.341 45.6556C170.27 45.4279 170.252 45.1821 170.149 44.9665L170.013 44.6356L169.83 44.3295C169.777 44.2219 169.696 44.1333 169.623 44.0389C169.549 43.9455 169.479 43.8467 169.388 43.7678C169.222 43.5931 169.035 43.4418 168.842 43.2933C168.642 43.1561 168.438 43.0193 168.217 42.9123C168.001 42.795 167.771 42.7011 167.539 42.6169C167.076 42.4358 166.59 42.3108 166.093 42.2295Z" fill="black"/>
<g clip-path="url(#clip0)">
<path d="M200.439 107.936L195.66 108.047L195.494 100.908L198.689 100.834L200.439 107.936Z" fill="#3C2415"/>
<path d="M209.578 120.186L202.921 120.341L202.691 110.397L207.141 110.294L209.578 120.186Z" fill="#3C2415"/>
<path d="M204.386 80.6529C204.455 83.6488 201.49 82.53 199.123 82.5847C196.757 82.6394 193.54 79.5087 193.471 76.5123L194.349 61.5004C194.278 58.5045 196.14 56.0316 198.507 55.9764C200.873 55.9212 202.848 58.3062 202.917 61.3017L204.386 80.6529Z" fill="#F7941D"/>
<path d="M206.332 75.5804L159.614 76.6646L162.45 198.884L209.168 197.799L206.332 75.5804Z" fill="#F15A29"/>
<path d="M189.607 156.829L179.791 157.057L179.921 162.666L189.737 162.438L189.607 156.829Z" fill="#FBB040"/>
<path d="M189.841 167.093L180.025 167.32L180.156 172.929L189.971 172.701L189.841 167.093Z" fill="#FBB040"/>
<path d="M190.07 176.678L180.255 176.906L180.385 182.516L190.201 182.288L190.07 176.678Z" fill="#FBB040"/>
<path d="M190.288 186.051L180.473 186.279L180.603 191.888L190.418 191.661L190.288 186.051Z" fill="#FBB040"/>
<path d="M202.861 160.645L194.827 162.105L194.709 157.012L202.773 156.825L202.861 160.645Z" fill="#FBB040"/>
<path d="M202.271 153.105L193.651 149.298L196.835 144.357L204.66 149.4L202.271 153.105Z" fill="#F7941D"/>
<path d="M202.561 133.749L193.714 136.998L196.576 142.133L204.708 137.601L202.561 133.749Z" fill="#F7941D"/>
<path d="M166.435 154.38L174.87 150.177L171.459 145.387L163.878 150.788L166.435 154.38Z" fill="#F7941D"/>
<path d="M165.249 135.058L174.236 137.892L171.616 143.155L163.283 139.005L165.249 135.058Z" fill="#F7941D"/>
<path d="M203.099 170.904L195.065 172.364L194.947 167.272L203.011 167.085L203.099 170.904Z" fill="#FBB040"/>
<path d="M203.316 180.278L195.282 181.738L195.164 176.645L203.228 176.457L203.316 180.278Z" fill="#FBB040"/>
<path d="M203.534 189.651L195.5 191.111L195.382 186.019L203.445 185.832L203.534 189.651Z" fill="#FBB040"/>
<path d="M166.678 161.484L174.771 162.57L174.653 157.477L166.589 157.664L166.678 161.484Z" fill="#FBB040"/>
<path d="M166.916 171.743L175.009 172.829L174.891 167.736L166.827 167.923L166.916 171.743Z" fill="#FBB040"/>
<path d="M167.132 181.117L175.226 182.203L175.108 177.109L167.044 177.297L167.132 181.117Z" fill="#FBB040"/>
<path d="M205.184 130.112L163.316 131.083L162.498 98.2779L204.025 90.594L205.184 130.112Z" fill="#F9ED32"/>
<path d="M167.35 190.49L175.443 191.575L175.326 186.484L167.262 186.67L167.35 190.49Z" fill="#FBB040"/>
<path d="M201.12 100.809L165.658 101.632L166.209 125.396L201.672 124.573L201.12 100.809Z" fill="white"/>
<path d="M181.6 86.8475C181.688 90.6287 178.694 93.7652 174.913 93.8526C171.133 93.9405 167.997 90.9461 167.909 87.1649C167.822 83.3847 170.815 80.2482 174.596 80.1607C178.377 80.0733 181.513 83.0673 181.6 86.8475Z" fill="#BCBEC0"/>
<path d="M194.192 83.7143C194.234 85.4977 192.821 86.9768 191.037 87.0183C189.255 87.0599 187.775 85.6476 187.734 83.8642C187.693 82.0813 189.105 80.6021 190.888 80.5611C192.672 80.5186 194.151 81.9309 194.192 83.7143Z" fill="#998176"/>
<path d="M191.019 147.498C191.068 149.638 189.373 151.412 187.234 151.462L181.034 151.606C178.893 151.656 177.119 149.962 177.069 147.822L176.908 140.847C176.858 138.706 178.552 136.932 180.692 136.882L186.892 136.738C189.032 136.689 190.807 138.383 190.857 140.524L191.019 147.498Z" fill="#F7941D"/>
<path d="M174.6 82.0725C174.607 82.4022 174.347 82.6756 174.016 82.6834C173.687 82.6908 173.413 82.43 173.406 82.1004C173.398 81.7703 173.659 81.4973 173.989 81.489C174.319 81.4817 174.592 81.7424 174.6 82.0725Z" fill="#998176"/>
<path d="M171.771 83.1337C171.778 83.4633 171.517 83.7367 171.188 83.7446C170.858 83.7524 170.585 83.4911 170.577 83.161C170.569 82.8314 170.83 82.5584 171.16 82.5506C171.489 82.5428 171.763 82.804 171.771 83.1337Z" fill="#998176"/>
<path d="M174.479 85.4606C174.487 85.7902 174.226 86.0637 173.896 86.0715C173.567 86.0793 173.293 85.8176 173.285 85.4884C173.278 85.1588 173.539 84.8853 173.868 84.8775C174.199 84.8692 174.471 85.1305 174.479 85.4606Z" fill="#998176"/>
<path d="M171.042 86.071C171.05 86.4006 170.789 86.6746 170.459 86.6819C170.129 86.6897 169.856 86.429 169.848 86.0988C169.84 85.7692 170.101 85.4953 170.431 85.4879C170.761 85.4806 171.035 85.7414 171.042 86.071Z" fill="#998176"/>
<path d="M173.947 88.2607C173.955 88.5908 173.694 88.8638 173.363 88.8711C173.034 88.8789 172.76 88.6182 172.753 88.2881C172.745 87.9584 173.006 87.6845 173.336 87.6772C173.666 87.6698 173.939 87.9311 173.947 88.2607Z" fill="#998176"/>
<path d="M171.876 90.5651C171.884 90.8948 171.623 91.1682 171.293 91.176C170.963 91.1839 170.689 90.9226 170.682 90.593C170.675 90.2633 170.936 89.9899 171.266 89.9826C171.595 89.9743 171.869 90.2355 171.876 90.5651Z" fill="#998176"/>
<path d="M176.24 89.8003C176.248 90.13 175.986 90.4034 175.657 90.4112C175.327 90.4191 175.053 90.1578 175.045 89.8282C175.038 89.4985 175.299 89.2251 175.629 89.2173C175.958 89.2095 176.232 89.4707 176.24 89.8003Z" fill="#998176"/>
<path d="M177.695 86.7796C177.703 87.1092 177.443 87.3827 177.112 87.3905C176.783 87.3983 176.509 87.1371 176.502 86.8074C176.494 86.4778 176.755 86.2038 177.085 86.1965C177.415 86.1887 177.689 86.45 177.695 86.7796Z" fill="#998176"/>
<path d="M177.496 83.8637C177.504 84.1933 177.242 84.4668 176.913 84.4746C176.583 84.4819 176.309 84.2211 176.302 83.891C176.294 83.5619 176.556 83.2884 176.886 83.2801C177.215 83.2728 177.488 83.5341 177.496 83.8637Z" fill="#998176"/>
<path d="M180.569 84.7217C180.577 85.0514 180.316 85.3248 179.985 85.3326C179.657 85.3404 179.382 85.0792 179.374 84.7496C179.367 84.4199 179.628 84.1465 179.958 84.1387C180.287 84.1308 180.561 84.3921 180.569 84.7217Z" fill="#998176"/>
<path d="M180.53 88.7714C180.538 89.1011 180.277 89.3745 179.946 89.3824C179.617 89.3902 179.343 89.1284 179.335 88.7993C179.328 88.4697 179.589 88.1962 179.919 88.1879C180.249 88.1806 180.522 88.4418 180.53 88.7714Z" fill="#998176"/>
<path d="M178.469 91.4744C178.476 91.804 178.216 92.078 177.885 92.0853C177.555 92.0931 177.282 91.8318 177.275 91.5022C177.267 91.1726 177.528 90.8991 177.858 90.8918C178.188 90.8835 178.461 91.1447 178.469 91.4744Z" fill="#998176"/>
<path d="M177.574 81.5388C177.582 81.8684 177.321 82.1419 176.991 82.1497C176.662 82.157 176.388 81.8958 176.38 81.5666C176.373 81.237 176.634 80.9635 176.964 80.9557C177.293 80.9484 177.567 81.2092 177.574 81.5388Z" fill="#998176"/>
<path d="M169.71 88.7573C169.718 89.087 169.457 89.3604 169.127 89.3682C168.797 89.376 168.524 89.1148 168.516 88.7852C168.509 88.4555 168.77 88.1821 169.1 88.1743C169.429 88.166 169.702 88.4272 169.71 88.7573Z" fill="#998176"/>
<path d="M174.699 92.0926C174.707 92.4222 174.446 92.6957 174.117 92.7035C173.786 92.7113 173.513 92.4501 173.506 92.1205C173.498 91.7908 173.759 91.5174 174.088 91.5096C174.418 91.5022 174.691 91.763 174.699 92.0926Z" fill="#998176"/>
<path d="M187.713 195.335C187.721 195.701 186.837 196.018 185.738 196.045C184.639 196.07 183.741 195.793 183.732 195.426C183.724 195.06 184.608 194.744 185.707 194.718C186.807 194.692 187.704 194.968 187.713 195.335Z" fill="#C03126"/>
<path d="M168.707 113.238L167.655 112.953L167.845 112.346L168.888 112.752L168.808 111.587L169.462 111.579L169.41 112.769L170.417 112.346L170.621 112.955L169.556 113.265L170.267 114.145L169.741 114.529L169.122 113.561L168.531 114.509L167.996 114.155L168.707 113.238ZM171.984 113.554L172.498 113.548C172.743 113.545 172.924 113.482 173.04 113.358C173.157 113.234 173.214 113.071 173.212 112.868C173.209 112.672 173.149 112.52 173.029 112.413C172.912 112.305 172.751 112.252 172.546 112.255C172.362 112.257 172.208 112.31 172.084 112.414C171.961 112.515 171.9 112.647 171.902 112.81L170.937 112.821C170.934 112.567 170.999 112.339 171.132 112.138C171.268 111.933 171.458 111.773 171.701 111.657C171.947 111.54 172.218 111.48 172.514 111.477C173.028 111.471 173.433 111.59 173.727 111.833C174.022 112.075 174.172 112.411 174.177 112.843C174.179 113.066 174.114 113.272 173.98 113.46C173.846 113.649 173.67 113.795 173.451 113.897C173.726 113.992 173.931 114.137 174.067 114.331C174.205 114.525 174.276 114.756 174.279 115.023C174.284 115.455 174.13 115.803 173.817 116.067C173.506 116.332 173.091 116.467 172.572 116.473C172.087 116.478 171.688 116.355 171.376 116.103C171.065 115.85 170.908 115.514 170.903 115.093L171.868 115.081C171.87 115.264 171.94 115.412 172.077 115.527C172.216 115.641 172.386 115.697 172.587 115.694C172.816 115.692 172.995 115.629 173.122 115.508C173.252 115.384 173.316 115.222 173.314 115.021C173.308 114.536 173.038 114.296 172.504 114.302L171.993 114.308L171.984 113.554ZM177.797 114.514L178.348 114.508L178.357 115.286L177.806 115.293L177.818 116.345L176.853 116.356L176.841 115.304L174.847 115.327L174.796 114.72L176.786 111.494L177.761 111.482L177.797 114.514ZM175.756 114.538L176.831 114.526L176.811 112.809L176.749 112.92L175.756 114.538ZM182.146 111.972L180.316 116.315L179.297 116.327L181.133 112.224L178.715 112.253L178.706 111.471L182.139 111.431L182.146 111.972ZM183.588 113.064L182.536 112.779L182.726 112.172L183.769 112.578L183.689 111.413L184.343 111.405L184.29 112.595L185.298 112.172L185.502 112.781L184.437 113.091L185.148 113.971L184.622 114.354L184.002 113.386L183.412 114.335L182.877 113.981L183.588 113.064ZM186.032 113.857L186.284 111.382L189.009 111.351L189.018 112.155L187.084 112.178L186.976 113.225C187.204 113.1 187.447 113.035 187.706 113.032C188.169 113.027 188.533 113.166 188.799 113.451C189.066 113.735 189.202 114.135 189.208 114.651C189.211 114.965 189.148 115.248 189.017 115.499C188.889 115.747 188.702 115.942 188.456 116.083C188.211 116.222 187.92 116.293 187.584 116.297C187.29 116.3 187.016 116.245 186.763 116.13C186.51 116.012 186.309 115.847 186.16 115.632C186.012 115.418 185.933 115.173 185.921 114.897L186.876 114.886C186.898 115.088 186.97 115.245 187.092 115.358C187.215 115.467 187.375 115.521 187.571 115.519C187.789 115.516 187.957 115.437 188.073 115.279C188.189 115.12 188.245 114.897 188.242 114.609C188.239 114.333 188.168 114.123 188.031 113.977C187.893 113.832 187.7 113.761 187.45 113.764C187.221 113.766 187.036 113.829 186.895 113.95L186.802 114.038L186.032 113.857ZM192.971 112.597C192.974 112.833 192.917 113.043 192.801 113.227C192.686 113.411 192.525 113.558 192.319 113.67C192.556 113.781 192.745 113.935 192.886 114.134C193.026 114.331 193.098 114.564 193.101 114.833C193.106 115.265 192.963 115.608 192.672 115.863C192.381 116.116 191.983 116.246 191.477 116.251C190.972 116.257 190.57 116.136 190.271 115.888C189.972 115.64 189.82 115.301 189.815 114.871C189.812 114.602 189.878 114.366 190.014 114.164C190.149 113.962 190.333 113.804 190.566 113.69C190.357 113.584 190.193 113.44 190.073 113.259C189.955 113.077 189.895 112.869 189.892 112.633C189.887 112.219 190.021 111.888 190.295 111.639C190.568 111.389 190.941 111.261 191.416 111.256C191.888 111.25 192.263 111.368 192.542 111.61C192.823 111.849 192.966 112.178 192.971 112.597ZM192.132 114.774C192.129 114.563 192.066 114.394 191.942 114.269C191.818 114.143 191.652 114.082 191.445 114.084C191.241 114.087 191.078 114.152 190.957 114.28C190.836 114.406 190.777 114.576 190.779 114.79C190.781 114.997 190.844 115.163 190.965 115.289C191.087 115.414 191.255 115.476 191.468 115.473C191.678 115.471 191.841 115.408 191.957 115.284C192.076 115.16 192.134 114.99 192.132 114.774ZM192.007 112.655C192.004 112.466 191.952 112.315 191.851 112.202C191.749 112.088 191.607 112.032 191.425 112.034C191.244 112.036 191.105 112.093 191.006 112.206C190.907 112.318 190.859 112.472 190.861 112.668C190.863 112.862 190.915 113.017 191.017 113.134C191.118 113.251 191.26 113.308 191.443 113.306C191.626 113.304 191.765 113.243 191.862 113.124C191.961 113.005 192.009 112.848 192.007 112.655ZM195.652 114.766L195.007 114.774L194.783 116.146L194.172 116.153L194.396 114.781L193.638 114.79L193.631 114.216L194.49 114.206L194.645 113.255L193.871 113.264L193.864 112.683L194.742 112.673L194.97 111.281L195.578 111.274L195.35 112.666L195.998 112.658L196.225 111.266L196.837 111.259L196.609 112.651L197.34 112.642L197.347 113.224L196.512 113.233L196.356 114.184L197.104 114.175L197.111 114.749L196.263 114.759L196.038 116.131L195.427 116.138L195.652 114.766ZM195.101 114.198L195.745 114.191L195.901 113.24L195.253 113.248L195.101 114.198Z" fill="black"/>
<path d="M207.141 110.294L215.012 114.899L233.416 195.002L323.678 270.03L300.13 297.118L265.181 297.929L217.309 213.977L209.296 214.666L187.379 180.956L195.731 172.208L211.113 184.5L207.807 139.044L207.571 118.593L207.141 110.294Z" fill="#3C2415"/>
<path d="M162.158 76.6105L152.33 76.838L133.244 185.258L40.5612 275.546L73.2078 297.929L104.368 296.813L149.056 211.677L172.481 202.419L184.627 172.828L178.069 167.812L172.716 170.199L165.9 179.871L159.434 167.799L161.308 149.618L159.068 131.181L162.158 76.6105Z" fill="#3C2415"/>
<path d="M179.089 186.322L173.172 182.693L178.784 172.741L184.627 172.828L179.089 186.322Z" fill="#F1F2F2"/>
<path d="M125.014 193.187L139.291 211.429L147.449 214.738L142.447 224.267L132.872 220.57L117.689 200.243L125.014 193.187Z" fill="#58595B"/>
<path d="M113.183 200.034L125.816 189.513L127.416 191.458L114.984 202.849L113.183 200.034Z" fill="#4C4B4D"/>
<path d="M154.287 76.7927L152.616 89.4864L150 90.0768L152.33 76.8381L154.287 76.7927Z" fill="#F1F2F2"/>
</g>
<defs>
<linearGradient id="paint0_linear" x1="181.035" y1="-1.89751" x2="178.393" y2="245.902" gradientUnits="userSpaceOnUse">
<stop offset="0.19" stop-color="#CDECF7"/>
<stop offset="0.4218" stop-color="#DDF2F9"/>
<stop offset="0.6865" stop-color="#E8F6FB"/>
<stop offset="1" stop-color="#EBF7FB"/>
</linearGradient>
<clipPath id="clip0">
<rect width="209" height="209" fill="white" transform="translate(76 35)"/>
</clipPath>
</defs>
</svg>
