<svg width="106" height="105" viewBox="0 0 106 105" fill="none" xmlns="http://www.w3.org/2000/svg">
<g filter="url(#filter0_dd)">
<rect x="9" y="3" width="88" height="88" rx="4.125" fill="#FFF0B3"/>
<rect x="9.34375" y="3.34375" width="87.3125" height="87.3125" rx="3.78125" stroke="#FFAB00" stroke-width="0.6875"/>
</g>
<path d="M78.5831 43.4708H77.7779V41.0534V32.4597C77.7779 29.6461 75.4888 27.3571 72.6754 27.3571H50.5488L35.6211 23.092C35.6168 23.0908 35.6124 23.0902 35.6081 23.089C35.6037 23.0878 35.5995 23.0861 35.5951 23.085C35.5861 23.0827 35.5772 23.0817 35.5683 23.0797C35.5544 23.0768 35.5405 23.0738 35.5267 23.0716C35.5141 23.0695 35.5018 23.0682 35.4892 23.0667C35.4746 23.065 35.4601 23.0635 35.4456 23.0627C35.4338 23.062 35.4221 23.0619 35.4102 23.0617C35.3952 23.0615 35.3803 23.0614 35.3653 23.062C35.3543 23.0624 35.3432 23.0635 35.3323 23.0644C35.3169 23.0657 35.3015 23.0671 35.2864 23.0693C35.2761 23.0708 35.2659 23.0728 35.2557 23.0746C35.24 23.0774 35.2245 23.0804 35.2092 23.0841C35.1996 23.0865 35.1902 23.0892 35.1808 23.0919C35.1651 23.0964 35.1496 23.101 35.1342 23.1064C35.1255 23.1095 35.1169 23.1128 35.1082 23.1163C35.0926 23.1223 35.0771 23.1286 35.062 23.1356C35.0539 23.1394 35.0461 23.1434 35.0381 23.1474C35.023 23.155 35.0081 23.1628 34.9935 23.1715C34.9858 23.1759 34.9785 23.1806 34.971 23.1853C34.9566 23.1944 34.9424 23.2036 34.9287 23.2136C34.9215 23.2187 34.9145 23.2243 34.9074 23.2298C34.8942 23.24 34.8811 23.2504 34.8685 23.2615C34.8614 23.2677 34.8547 23.2743 34.8478 23.2807C34.836 23.2919 34.8243 23.3031 34.8131 23.3149C34.8061 23.3223 34.7996 23.33 34.7928 23.3378C34.7826 23.3495 34.7725 23.3613 34.7629 23.3736C34.756 23.3826 34.7496 23.3917 34.743 23.4008C34.7346 23.4127 34.7262 23.4248 34.7185 23.4371C34.7118 23.4477 34.7057 23.4586 34.6995 23.4695C34.6928 23.4814 34.686 23.4934 34.6799 23.5058C34.6739 23.5178 34.6685 23.5302 34.663 23.5425C34.6576 23.5546 34.6524 23.5668 34.6477 23.5792C34.6427 23.5924 34.6384 23.6058 34.634 23.6193C34.6312 23.628 34.6278 23.6362 34.6252 23.645C34.6239 23.6494 34.6234 23.6537 34.6222 23.658C34.621 23.6624 34.6193 23.6666 34.6182 23.671L33.697 27.3568H31.1031C28.2952 27.3568 26.0101 29.6366 26.0009 32.4425C26.0008 32.4483 26 32.4538 26 32.4595V60.3891C26 60.8338 26.362 61.1948 26.8057 61.1948C27.2504 61.1948 27.6113 60.8338 27.6113 60.3891V36.1755C28.5248 37.0345 29.7531 37.5623 31.1031 37.5623H72.6754C72.6763 37.5623 72.6772 37.5622 72.6782 37.5622C74.6019 37.5637 76.1666 39.1293 76.1666 41.0535V46.6936H67.303C67.3025 46.6936 67.302 46.6937 67.3015 46.6937C67.2782 46.6937 67.255 46.6951 67.2319 46.6971C67.2062 46.6994 67.1809 46.703 67.1559 46.7077C67.1522 46.7083 67.1485 46.7086 67.1448 46.7094C67.1237 46.7136 67.1031 46.7192 67.0826 46.725C67.078 46.7263 67.0734 46.7271 67.069 46.7285C67.0508 46.7341 67.033 46.7408 67.0153 46.7475C67.0085 46.7501 67.0017 46.7522 66.9949 46.755C66.9801 46.7612 66.9658 46.7684 66.9515 46.7753C66.9421 46.7799 66.9325 46.784 66.9233 46.7889C66.9121 46.7948 66.9016 46.8016 66.8908 46.808C66.8789 46.8151 66.8668 46.822 66.8551 46.8297C66.8473 46.8349 66.8401 46.8408 66.8326 46.8462C66.8188 46.8561 66.805 46.8659 66.7919 46.8768C66.7862 46.8815 66.7809 46.8867 66.7754 46.8916C66.7614 46.9038 66.7473 46.916 66.734 46.9293C66.7261 46.9371 66.719 46.9457 66.7116 46.9539C66.7012 46.9652 66.6905 46.9762 66.6806 46.9883C66.6639 47.0086 66.6484 47.0296 66.6338 47.0514C66.6334 47.0517 66.6331 47.0522 66.6329 47.0526L62.3362 53.498C62.3063 53.5429 62.2809 53.5905 62.2608 53.64C62.2532 53.6585 62.2471 53.6773 62.241 53.696C62.2391 53.7017 62.2368 53.7072 62.2351 53.7129C62.229 53.7327 62.2244 53.7528 62.22 53.7728C62.2188 53.7781 62.2173 53.7832 62.2163 53.7885C62.2127 53.8065 62.2103 53.8247 62.2081 53.8428C62.2071 53.8506 62.2056 53.8583 62.2049 53.8661C62.2034 53.8811 62.203 53.8959 62.2025 53.9108C62.202 53.9222 62.201 53.9336 62.201 53.9451C62.201 53.9562 62.202 53.9672 62.2024 53.9783C62.2029 53.9935 62.2034 54.0089 62.2049 54.0242C62.2056 54.0316 62.207 54.039 62.208 54.0464C62.2103 54.0649 62.2127 54.0833 62.2164 54.1017C62.2173 54.1068 62.2188 54.1117 62.22 54.1168C62.2244 54.137 62.2291 54.1571 62.2352 54.1772C62.2369 54.1829 62.2392 54.1884 62.2411 54.1942C62.2472 54.2129 62.2533 54.2317 62.2609 54.2502C62.2811 54.2996 62.3065 54.3473 62.3366 54.3923L66.6331 60.8367C66.6333 60.8371 66.6335 60.8373 66.6338 60.8376C66.651 60.8633 66.67 60.8878 66.6899 60.9113C66.6965 60.919 66.7035 60.9262 66.7102 60.9335C66.7239 60.9485 66.7381 60.9628 66.7528 60.9767C66.7615 60.9849 66.7701 60.9928 66.7789 61.0004C66.7946 61.0139 66.8108 61.0264 66.8274 61.0387C66.8349 61.0442 66.8421 61.0502 66.8498 61.0553C66.8739 61.0718 66.899 61.0869 66.9249 61.1007C66.9314 61.1041 66.9382 61.107 66.9447 61.1102C66.9654 61.1205 66.9864 61.1301 67.008 61.1386C67.0164 61.1419 67.0248 61.1449 67.0333 61.1479C67.0538 61.1552 67.0746 61.1617 67.0959 61.1674C67.1046 61.1696 67.1132 61.172 67.122 61.1741C67.1438 61.1792 67.1659 61.1831 67.1884 61.1863C67.1965 61.1875 67.2046 61.1891 67.2128 61.19C67.2405 61.1932 67.2686 61.1949 67.2972 61.1951C67.2994 61.1951 67.3017 61.1955 67.3041 61.1955C67.3045 61.1955 67.305 61.1954 67.3056 61.1954H76.1669V66.8359C76.1669 68.7611 74.6007 70.3273 72.6757 70.3273H31.1035C29.1785 70.3273 27.6123 68.7611 27.6123 66.8359C27.6123 66.8317 27.6118 66.8276 27.6116 66.8235V63.6122C27.6116 63.1685 27.2507 62.8065 26.806 62.8065C26.3623 62.8065 26.0003 63.1685 26.0003 63.6122V66.8359C26.0003 66.8443 26.0013 66.8525 26.0016 66.8607C26.015 69.6629 28.2983 71.9387 31.1035 71.9387H72.6757C75.4889 71.9387 77.7778 69.65 77.7782 66.8368C77.7782 66.8367 77.7782 66.8366 77.7782 66.8363V61.1954H78.5834C79.9159 61.1954 81 60.1113 81 58.7789V45.8874C80.9997 44.5549 79.9156 43.4708 78.5831 43.4708ZM35.9795 24.8701L50.1956 28.9321C50.1962 28.9323 50.1969 28.9324 50.1976 28.9326L59.7255 31.6549H34.2837L35.9795 24.8701ZM76.1665 37.3373C75.2531 36.4785 74.025 35.9508 72.6754 35.9508C72.674 35.9508 72.6727 35.951 72.6712 35.951H31.1031C29.178 35.951 27.6118 34.3848 27.6118 32.4597C27.6118 30.5346 29.178 28.9684 31.1031 28.9684H33.2943L32.6229 31.6549H31.1033C30.6583 31.6549 30.2976 32.0156 30.2976 32.4605C30.2976 32.9055 30.6583 33.2662 31.1033 33.2662H33.2491C33.2502 33.2662 33.2514 33.2664 33.2526 33.2664C33.2534 33.2664 33.2543 33.2662 33.255 33.2662H65.4752C65.4763 33.2662 65.4772 33.2664 65.4782 33.2664C65.4791 33.2664 65.4799 33.2662 65.4808 33.2662H71.6002C72.0451 33.2662 72.4058 32.9055 72.4058 32.4605C72.4058 32.0156 72.0451 31.6549 71.6002 31.6549H65.5907L56.1882 28.9684H72.6753C74.6003 28.9684 76.1665 30.5346 76.1665 32.4597V37.3373ZM79.3884 58.7784C79.3884 59.2224 79.0271 59.5837 78.5831 59.5837H67.7342L63.9745 53.9447L67.7342 48.3048H78.5831C78.5944 48.3048 78.6054 48.3035 78.6165 48.3031C78.8868 48.2993 79.1463 48.2512 79.3884 48.1655V58.7784ZM78.5831 46.6926C78.5775 46.6926 78.5721 46.6934 78.5665 46.6935H77.7779V45.0822H78.5831C79.0271 45.0822 79.3884 45.4434 79.3884 45.8874C79.3884 46.3314 79.0271 46.6926 78.5831 46.6926Z" fill="black"/>
<path d="M70.5262 50.9905C68.8972 50.9905 67.5721 52.3157 67.5721 53.9447C67.5721 55.5736 68.8972 56.8988 70.5262 56.8988C72.1551 56.8988 73.4803 55.5736 73.4803 53.9447C73.4803 52.3157 72.1551 50.9905 70.5262 50.9905ZM70.5262 55.2875C69.7857 55.2875 69.1834 54.6851 69.1834 53.9447C69.1834 53.2042 69.7857 52.6018 70.5262 52.6018C71.2666 52.6018 71.8689 53.2042 71.8689 53.9447C71.8689 54.6851 71.2666 55.2875 70.5262 55.2875Z" fill="black"/>
<defs>
<filter id="filter0_dd" x="0.75" y="0.25" width="104.5" height="104.5" filterUnits="userSpaceOnUse" color-interpolation-filters="sRGB">
<feFlood flood-opacity="0" result="BackgroundImageFix"/>
<feColorMatrix in="SourceAlpha" type="matrix" values="0 0 0 0 0 0 0 0 0 0 0 0 0 0 0 0 0 0 127 0"/>
<feOffset/>
<feGaussianBlur stdDeviation="0.34375"/>
<feColorMatrix type="matrix" values="0 0 0 0 0.0352941 0 0 0 0 0.117647 0 0 0 0 0.258824 0 0 0 0.31 0"/>
<feBlend mode="normal" in2="BackgroundImageFix" result="effect1_dropShadow"/>
<feColorMatrix in="SourceAlpha" type="matrix" values="0 0 0 0 0 0 0 0 0 0 0 0 0 0 0 0 0 0 127 0"/>
<feOffset dy="5.5"/>
<feGaussianBlur stdDeviation="4.125"/>
<feColorMatrix type="matrix" values="0 0 0 0 0.0352941 0 0 0 0 0.117647 0 0 0 0 0.258824 0 0 0 0.15 0"/>
<feBlend mode="normal" in2="effect1_dropShadow" result="effect2_dropShadow"/>
<feBlend mode="normal" in="SourceGraphic" in2="effect2_dropShadow" result="shape"/>
</filter>
</defs>
</svg>
