<svg width="1049" height="345" viewBox="0 0 1049 345" fill="none" xmlns="http://www.w3.org/2000/svg">
<path d="M235.025 126.225C233.182 121.022 232.861 114.691 233.813 109.229C236.288 94.9985 239.725 80.9181 243.031 66.8477C245.165 57.7603 242.83 51.4291 233.713 47.6444C221.409 42.5415 216.33 39.5656 213.725 38.0777C213.715 38.0677 213.695 38.0577 213.685 38.0577C212.663 37.6383 211.631 37.2389 210.599 36.8794C206.661 35.5113 201.681 37.139 197.173 37.4186C197.584 39.1262 197.974 40.8339 198.375 42.5415V42.5515C199.157 45.8469 199.938 49.1523 200.83 52.4178C201.371 52.947 201.932 53.3065 202.383 53.5462C202.633 53.666 202.874 53.7859 203.094 53.9157C203.164 53.9556 203.224 53.9856 203.275 54.0155C209.917 58.1797 221.94 62.0544 222.171 66.5481C222.842 79.1006 219.365 92.1325 215.809 104.475C214.957 107.451 207.272 110.487 203.024 110.117C182.575 108.37 162.196 103.197 141.857 103.517C112.961 103.976 84.0356 107.461 55.3004 111.086C42.5359 112.694 35.6427 110.667 33.5687 96.806C31.9556 86.041 27.9679 75.6255 24.8119 64.2513C56.643 51.0297 88.7045 37.3887 121.117 24.6264C121.277 24.5665 121.427 24.5066 121.588 24.4567C130.365 21.2511 136.406 26.2841 136.687 26.5238C136.697 26.5338 136.697 26.5338 136.697 26.5338C146.425 28.9704 153.92 33.3243 159.961 37.2089C168.147 42.4716 173.698 46.8755 178.577 44.5587C180.17 43.7997 182.274 42.0522 183.657 37.3887C181.222 32.6752 180 25.7049 176.142 23.6777C162.456 16.4678 148.028 10.556 133.541 5.03368C129.262 3.40595 123.211 3.14631 119.073 4.88389C86.7608 18.4151 54.7494 32.6752 22.5676 46.516C9.67281 52.0682 6.32637 61.4951 9.87318 74.3872C11.326 79.6698 12.2077 85.1123 13.42 90.4648C17.7884 109.938 24.7017 128.402 11.8871 148.734C4.95375 159.748 5.71521 175.576 3 189.227V246.338C6.29633 262.845 9.16182 279.462 12.9892 295.849C19.141 322.143 40.2215 339.289 66.7724 338.46C85.7088 337.871 104.535 334.465 123.481 333.597C132.789 333.177 142.207 336.103 151.625 336.742C166.103 337.721 180.641 338.749 195.129 338.46C219.987 337.97 232.05 320.315 237.54 300.113C253.301 242.194 255.495 183.955 235.025 126.225ZM54.9297 128.712C77.7635 126.105 100.477 121.082 123.331 120.453C142.468 119.934 161.755 124.487 180.972 126.684C186.142 127.284 191.322 127.933 196.461 128.762C219.265 132.436 219.596 132.446 216.871 157.591H33.9394C31.2743 134.464 34.1398 131.078 54.9297 128.712ZM181.733 179.731C193.065 179.85 198.375 184.254 197.724 197.186C196.492 221.712 193.486 244.89 173.648 262.386C149.461 283.716 114.564 286.372 87.362 268.757C60.3601 251.271 46.7841 216.859 56.9436 188.099C58.4064 183.965 66.7223 180.14 72.0626 179.84C90.5381 178.842 109.114 179.461 127.639 179.461V179.681C145.674 179.681 163.709 179.531 181.733 179.731ZM228.403 189.587C226.279 223.859 225.688 258.411 220.548 292.264C216.861 316.59 202.363 325.348 177.956 321.543C142.899 316.081 108.292 316.271 73.2348 321.264C46.2631 325.098 30.1922 312.256 26.9961 282.328C23.82 252.619 24.5113 222.501 23.5995 192.563C23.5394 190.605 23.6697 188.169 24.7518 186.761C26.8658 184.005 29.7313 181.828 32.2762 179.411C33.729 182.557 36.1637 185.622 36.4442 188.868C37.8469 205.125 36.1236 222.102 40.2315 237.57C48.848 269.995 71.8622 291.086 103.934 299.105C140.264 308.182 172.525 299.164 196.421 268.357C212.713 247.367 219.836 223.39 219.325 196.987C219.205 190.795 219.305 184.594 219.305 178.392C221.209 178.173 223.113 177.943 225.006 177.723C226.209 181.678 228.643 185.712 228.403 189.587Z" fill="#365278"/>
<path d="M225.016 177.723C226.208 181.678 228.653 185.722 228.412 189.587C226.288 223.859 225.697 258.411 220.557 292.264C216.87 316.6 202.362 325.348 177.956 321.543C142.908 316.081 108.302 316.281 73.2445 321.264C46.2727 325.098 30.2019 312.266 27.0058 282.338C23.8297 252.629 24.521 222.511 23.6092 192.563C23.5491 190.605 23.6694 188.169 24.7614 186.761C26.8755 184.015 29.741 181.828 32.2859 179.411C33.7287 182.557 36.1734 185.622 36.4539 188.878C37.8466 205.135 36.1233 222.112 40.2412 237.58C48.8577 269.995 71.8719 291.096 103.943 299.115C140.273 308.192 172.535 299.174 196.431 268.367C212.712 247.376 219.846 223.4 219.335 196.997C219.215 190.805 219.315 184.604 219.315 178.402C221.209 178.173 223.112 177.943 225.016 177.723Z" fill="#D3E6FA"/>
<path d="M33.9391 157.591C31.284 134.463 34.1395 131.078 54.9194 128.711C77.7532 126.105 100.467 121.082 123.321 120.463C142.467 119.934 161.745 124.497 180.961 126.694C186.131 127.283 191.311 127.932 196.451 128.771C219.255 132.456 219.586 132.456 216.86 157.601H33.9391V157.591Z" fill="#D3E6FA"/>
<path d="M139.762 59.8775H149.08C151.124 59.8775 152.777 61.5253 152.777 63.5624V70.303C152.777 72.3402 151.124 73.9879 149.08 73.9879H139.762C137.718 73.9879 136.065 75.6356 136.065 77.6728V89.3965C136.065 91.4337 134.412 93.0814 132.368 93.0814H124.323C122.279 93.0814 120.625 91.4337 120.625 89.3965V77.6828C120.625 75.6456 118.972 73.9979 116.928 73.9979H107.56C105.516 73.9979 103.863 72.3502 103.863 70.313V63.5724C103.863 61.5352 105.516 59.8875 107.56 59.8875H116.928C118.972 59.8875 120.625 58.2398 120.625 56.2027V45.0082C120.625 42.9711 122.279 41.3234 124.323 41.3234H132.368C134.412 41.3234 136.065 42.9711 136.065 45.0082V56.2027C136.065 58.2298 137.718 59.8775 139.762 59.8775Z" fill="#365278"/>
<path d="M170.867 44.2283C176.068 46.7929 182.364 44.6557 184.928 39.4547C187.493 34.2536 185.356 27.9583 180.155 25.3936L170.867 44.2283ZM124.478 12.8804L120.197 3.29268L124.478 12.8804ZM131.3 13.0107L135.944 3.5934L131.3 13.0107ZM41.429 115.183L29.0075 64.7776L8.61754 69.8023L21.039 120.208L41.429 115.183ZM27.6149 67.627L128.758 22.4682L120.197 3.29268L19.0533 48.4515L27.6149 67.627ZM126.657 22.4281L170.867 44.2283L180.155 25.3936L135.944 3.5934L126.657 22.4281ZM128.758 22.4682C128.087 22.7681 127.316 22.7534 126.657 22.4281L135.944 3.5934C131.001 1.15595 125.229 1.04573 120.197 3.29268L128.758 22.4682ZM29.0075 64.7776C29.2938 65.9393 28.7073 67.1392 27.6149 67.627L19.0533 48.4515C10.8674 52.1064 6.47251 61.0979 8.61754 69.8023L29.0075 64.7776Z" fill="#34517C"/>
<path d="M200.559 41.8013L233.622 59.7763L222.601 118.694" stroke="#34517C" stroke-width="19" stroke-linecap="round" stroke-linejoin="round"/>
<path d="M83.1543 223.198H91.3519L94.0844 217.781L98.6386 230.422L112.301 199.722L116.855 246.674H122.32L128.696 225.004H135.072L137.805 216.878L139.626 220.49L143.27 211.46L150.556 223.198H173.327" stroke="#30517A" stroke-width="5.45455" stroke-linecap="round" stroke-linejoin="round"/>
<path d="M18.7074 164.131C-6.16568 164.131 8.36317 307.931 22.8904 286.96" stroke="#34517C" stroke-width="10"/>
<path d="M431.152 198.77C429.78 217.741 422.757 232.676 410.082 243.574C397.488 254.473 380.858 259.922 360.191 259.922C337.587 259.922 319.786 252.333 306.789 237.156C293.872 221.898 287.414 200.99 287.414 174.43V163.652C287.414 146.699 290.401 131.764 296.375 118.848C302.349 105.931 310.866 96.0417 321.926 89.1797C333.066 82.237 345.983 78.7656 360.676 78.7656C381.02 78.7656 397.408 84.2148 409.84 95.1133C422.272 106.012 429.457 121.31 431.395 141.008H395.066C394.178 129.625 390.99 121.391 385.5 116.305C380.091 111.138 371.816 108.555 360.676 108.555C348.566 108.555 339.484 112.914 333.43 121.633C327.456 130.271 324.388 143.712 324.227 161.957V175.277C324.227 194.329 327.092 208.255 332.824 217.055C338.637 225.854 347.759 230.254 360.191 230.254C371.413 230.254 379.768 227.711 385.258 222.625C390.828 217.458 394.017 209.507 394.824 198.77H431.152ZM489.641 257.5H454.523V71.5H489.641V257.5ZM594.508 257.5C592.893 254.352 591.723 250.436 590.996 245.754C582.52 255.199 571.5 259.922 557.938 259.922C545.102 259.922 534.445 256.208 525.969 248.781C517.573 241.354 513.375 231.99 513.375 220.688C513.375 206.802 518.501 196.146 528.754 188.719C539.087 181.292 553.982 177.538 573.438 177.457H589.543V169.949C589.543 163.895 587.969 159.051 584.82 155.418C581.753 151.785 576.868 149.969 570.168 149.969C564.275 149.969 559.633 151.382 556.242 154.207C552.932 157.033 551.277 160.908 551.277 165.832H516.281C516.281 158.243 518.622 151.22 523.305 144.762C527.987 138.303 534.607 133.258 543.164 129.625C551.721 125.911 561.328 124.055 571.984 124.055C588.13 124.055 600.926 128.132 610.371 136.285C619.897 144.358 624.66 155.741 624.66 170.434V227.227C624.741 239.659 626.477 249.064 629.867 255.441V257.5H594.508ZM565.566 233.16C570.733 233.16 575.496 232.03 579.855 229.77C584.215 227.428 587.444 224.32 589.543 220.445V197.922H576.465C558.947 197.922 549.622 203.977 548.492 216.086L548.371 218.145C548.371 222.504 549.905 226.096 552.973 228.922C556.04 231.747 560.238 233.16 565.566 233.16ZM660.02 257.5V152.148H640.523V126.477H660.02V120.422C660.181 103.953 665.227 91.2786 675.156 82.3984C685.167 73.4375 699.254 68.957 717.418 68.957C728.316 68.957 741.556 71.3385 757.137 76.1016L752.051 105.043C744.139 102.702 738.004 101.208 733.645 100.562C729.285 99.8359 724.603 99.4727 719.598 99.4727C703.29 99.4727 695.137 106.698 695.137 121.148V126.477H720.93V152.148H695.137V257.5H660.02ZM773.484 257.5H738.367V126.477H773.484V257.5ZM851.348 207.973L875.566 126.477H913.105L860.43 277.844L857.523 284.746C849.693 301.861 836.776 310.418 818.773 310.418C813.688 310.418 808.521 309.651 803.273 308.117V281.598L808.602 281.719C815.221 281.719 820.146 280.71 823.375 278.691C826.685 276.673 829.268 273.323 831.125 268.641L835.242 257.863L789.348 126.477H827.008L851.348 207.973ZM1000.9 257.5C999.284 254.352 998.113 250.436 997.387 245.754C988.91 255.199 977.891 259.922 964.328 259.922C951.492 259.922 940.836 256.208 932.359 248.781C923.964 241.354 919.766 231.99 919.766 220.688C919.766 206.802 924.892 196.146 935.145 188.719C945.478 181.292 960.372 177.538 979.828 177.457H995.934V169.949C995.934 163.895 994.359 159.051 991.211 155.418C988.143 151.785 983.259 149.969 976.559 149.969C970.665 149.969 966.023 151.382 962.633 154.207C959.323 157.033 957.668 160.908 957.668 165.832H922.672C922.672 158.243 925.013 151.22 929.695 144.762C934.378 138.303 940.997 133.258 949.555 129.625C958.112 125.911 967.719 124.055 978.375 124.055C994.521 124.055 1007.32 128.132 1016.76 136.285C1026.29 144.358 1031.05 155.741 1031.05 170.434V227.227C1031.13 239.659 1032.87 249.064 1036.26 255.441V257.5H1000.9ZM971.957 233.16C977.124 233.16 981.887 232.03 986.246 229.77C990.605 227.428 993.835 224.32 995.934 220.445V197.922H982.855C965.337 197.922 956.013 203.977 954.883 216.086L954.762 218.145C954.762 222.504 956.296 226.096 959.363 228.922C962.431 231.747 966.629 233.16 971.957 233.16Z" fill="#31517A"/>
</svg>
